%TF.GenerationSoftware,KiCad,Pcbnew,10.0.1*%
%TF.CreationDate,2026-05-09T00:24:41+02:00*%
%TF.ProjectId,Sonar,536f6e61-722e-46b6-9963-61645f706362,rev?*%
%TF.SameCoordinates,Original*%
%TF.FileFunction,Paste,Bot*%
%TF.FilePolarity,Positive*%
%FSLAX46Y46*%
G04 Gerber Fmt 4.6, Leading zero omitted, Abs format (unit mm)*
G04 Created by KiCad (PCBNEW 10.0.1) date 2026-05-09 00:24:41*
%MOMM*%
%LPD*%
G01*
G04 APERTURE LIST*
G04 Aperture macros list*
%AMRoundRect*
0 Rectangle with rounded corners*
0 $1 Rounding radius*
0 $2 $3 $4 $5 $6 $7 $8 $9 X,Y pos of 4 corners*
0 Add a 4 corners polygon primitive as box body*
4,1,4,$2,$3,$4,$5,$6,$7,$8,$9,$2,$3,0*
0 Add four circle primitives for the rounded corners*
1,1,$1+$1,$2,$3*
1,1,$1+$1,$4,$5*
1,1,$1+$1,$6,$7*
1,1,$1+$1,$8,$9*
0 Add four rect primitives between the rounded corners*
20,1,$1+$1,$2,$3,$4,$5,0*
20,1,$1+$1,$4,$5,$6,$7,0*
20,1,$1+$1,$6,$7,$8,$9,0*
20,1,$1+$1,$8,$9,$2,$3,0*%
G04 Aperture macros list end*
%ADD10C,1.500000*%
%ADD11RoundRect,0.200000X-0.200000X-0.275000X0.200000X-0.275000X0.200000X0.275000X-0.200000X0.275000X0*%
G04 APERTURE END LIST*
D10*
%TO.C,LS1*%
X129000000Y-79000000D03*
X111000000Y-111000000D03*
%TD*%
D11*
%TO.C,R87*%
X234175000Y-90700000D03*
X235825000Y-90700000D03*
%TD*%
%TO.C,R80*%
X164175000Y-90700000D03*
X165825000Y-90700000D03*
%TD*%
%TO.C,R116*%
X204175000Y-130700000D03*
X205825000Y-130700000D03*
%TD*%
%TO.C,R88*%
X164175000Y-100700000D03*
X165825000Y-100700000D03*
%TD*%
%TO.C,R113*%
X174175000Y-130700000D03*
X175825000Y-130700000D03*
%TD*%
%TO.C,R40*%
X164175000Y-80700000D03*
X165825000Y-80700000D03*
%TD*%
%TO.C,R94*%
X224175000Y-100700000D03*
X225825000Y-100700000D03*
%TD*%
%TO.C,R74*%
X184175000Y-80700000D03*
X185825000Y-80700000D03*
%TD*%
%TO.C,R104*%
X164175000Y-120700000D03*
X165825000Y-120700000D03*
%TD*%
%TO.C,R95*%
X234175000Y-100700000D03*
X235825000Y-100700000D03*
%TD*%
%TO.C,R73*%
X174175000Y-80700000D03*
X175825000Y-80700000D03*
%TD*%
%TO.C,R111*%
X234175000Y-120700000D03*
X235825000Y-120700000D03*
%TD*%
%TO.C,R83*%
X194175000Y-90700000D03*
X195825000Y-90700000D03*
%TD*%
%TO.C,R118*%
X224175000Y-130700000D03*
X225825000Y-130700000D03*
%TD*%
%TO.C,R110*%
X224175000Y-120700000D03*
X225825000Y-120700000D03*
%TD*%
%TO.C,R96*%
X164175000Y-110700000D03*
X165825000Y-110700000D03*
%TD*%
%TO.C,R121*%
X174175000Y-140700000D03*
X175825000Y-140700000D03*
%TD*%
%TO.C,R105*%
X174175000Y-120700000D03*
X175825000Y-120700000D03*
%TD*%
%TO.C,R98*%
X184175000Y-110700000D03*
X185825000Y-110700000D03*
%TD*%
%TO.C,R85*%
X214175000Y-90700000D03*
X215825000Y-90700000D03*
%TD*%
%TO.C,R131*%
X194175000Y-150700000D03*
X195825000Y-150700000D03*
%TD*%
%TO.C,R134*%
X224175000Y-150700000D03*
X225825000Y-150700000D03*
%TD*%
%TO.C,R109*%
X214175000Y-120700000D03*
X215825000Y-120700000D03*
%TD*%
%TO.C,R78*%
X224175000Y-80700000D03*
X225825000Y-80700000D03*
%TD*%
%TO.C,R114*%
X184175000Y-130700000D03*
X185825000Y-130700000D03*
%TD*%
%TO.C,R120*%
X164175000Y-140700000D03*
X165825000Y-140700000D03*
%TD*%
%TO.C,R112*%
X164175000Y-130700000D03*
X165825000Y-130700000D03*
%TD*%
%TO.C,R99*%
X194175000Y-110700000D03*
X195825000Y-110700000D03*
%TD*%
%TO.C,R90*%
X184175000Y-100700000D03*
X185825000Y-100700000D03*
%TD*%
%TO.C,R103*%
X234175000Y-110700000D03*
X235825000Y-110700000D03*
%TD*%
%TO.C,R130*%
X184175000Y-150700000D03*
X185825000Y-150700000D03*
%TD*%
%TO.C,R91*%
X194175000Y-100700000D03*
X195825000Y-100700000D03*
%TD*%
%TO.C,R75*%
X194175000Y-80700000D03*
X195825000Y-80700000D03*
%TD*%
%TO.C,R77*%
X214175000Y-80700000D03*
X215825000Y-80700000D03*
%TD*%
%TO.C,R89*%
X174175000Y-100700000D03*
X175825000Y-100700000D03*
%TD*%
%TO.C,R93*%
X214175000Y-100700000D03*
X215825000Y-100700000D03*
%TD*%
%TO.C,R82*%
X184175000Y-90700000D03*
X185825000Y-90700000D03*
%TD*%
%TO.C,R133*%
X214175000Y-150700000D03*
X215825000Y-150700000D03*
%TD*%
%TO.C,R127*%
X234175000Y-140700000D03*
X235825000Y-140700000D03*
%TD*%
%TO.C,R97*%
X174175000Y-110700000D03*
X175825000Y-110700000D03*
%TD*%
%TO.C,R84*%
X204175000Y-90700000D03*
X205825000Y-90700000D03*
%TD*%
%TO.C,R102*%
X224175000Y-110700000D03*
X225825000Y-110700000D03*
%TD*%
%TO.C,R122*%
X184175000Y-140700000D03*
X185825000Y-140700000D03*
%TD*%
%TO.C,R123*%
X194175000Y-140700000D03*
X195825000Y-140700000D03*
%TD*%
%TO.C,R126*%
X224175000Y-140700000D03*
X225825000Y-140700000D03*
%TD*%
%TO.C,R128*%
X164175000Y-150700000D03*
X165825000Y-150700000D03*
%TD*%
%TO.C,R81*%
X174175000Y-90700000D03*
X175825000Y-90700000D03*
%TD*%
%TO.C,R129*%
X174175000Y-150700000D03*
X175825000Y-150700000D03*
%TD*%
%TO.C,R92*%
X204175000Y-100700000D03*
X205825000Y-100700000D03*
%TD*%
%TO.C,R124*%
X204175000Y-140700000D03*
X205825000Y-140700000D03*
%TD*%
%TO.C,R125*%
X214175000Y-140700000D03*
X215825000Y-140700000D03*
%TD*%
%TO.C,R106*%
X184175000Y-120700000D03*
X185825000Y-120700000D03*
%TD*%
%TO.C,R107*%
X194175000Y-120700000D03*
X195825000Y-120700000D03*
%TD*%
%TO.C,R76*%
X204175000Y-80700000D03*
X205825000Y-80700000D03*
%TD*%
%TO.C,R100*%
X204175000Y-110700000D03*
X205825000Y-110700000D03*
%TD*%
%TO.C,R115*%
X194175000Y-130700000D03*
X195825000Y-130700000D03*
%TD*%
%TO.C,R135*%
X234175000Y-150700000D03*
X235825000Y-150700000D03*
%TD*%
%TO.C,R117*%
X214175000Y-130700000D03*
X215825000Y-130700000D03*
%TD*%
%TO.C,R119*%
X234175000Y-130700000D03*
X235825000Y-130700000D03*
%TD*%
%TO.C,R108*%
X204175000Y-120700000D03*
X205825000Y-120700000D03*
%TD*%
%TO.C,R79*%
X234175000Y-80700000D03*
X235825000Y-80700000D03*
%TD*%
%TO.C,R132*%
X204175000Y-150700000D03*
X205825000Y-150700000D03*
%TD*%
%TO.C,R101*%
X214175000Y-110700000D03*
X215825000Y-110700000D03*
%TD*%
%TO.C,R86*%
X224175000Y-90700000D03*
X225825000Y-90700000D03*
%TD*%
M02*
