M48
; DRILL file KiCad 10.0.1 date 2026-05-10T07:08:55
; FORMAT={-:-/ absolute / metric / decimal}
; #@! TF.CreationDate,2026-05-10T07:08:55+02:00
; #@! TF.GenerationSoftware,Kicad,Pcbnew,10.0.1
; #@! TF.FileFunction,Plated,1,4,PTH
FMAT,2
METRIC
; #@! TA.AperFunction,Plated,PTH,ViaDrill
T1C0.300
; #@! TA.AperFunction,Plated,PTH,ComponentDrill
T2C0.300
; #@! TA.AperFunction,Plated,PTH,ComponentDrill
T3C0.500
; #@! TA.AperFunction,Plated,PTH,ComponentDrill
T4C0.580
; #@! TA.AperFunction,Plated,PTH,ComponentDrill
T5C1.000
; #@! TA.AperFunction,Plated,PTH,ComponentDrill
T6C1.600
; #@! TA.AperFunction,Plated,PTH,ComponentDrill
T7C3.500
%
G90
G05
T1
X16.5Y101.775
X18.0Y99.0
X19.225Y104.5
X19.5Y101.5
X19.5Y100.5
X19.675Y95.925
X20.0Y101.0
X20.325Y99.0
X20.5Y101.5
X20.5Y100.5
X20.775Y104.5
X23.52Y101.775
X24.175Y94.525
X25.675Y94.475
X49.8Y8.54
X51.91Y8.59
X62.25Y11.475
X62.25Y8.525
X63.0Y11.475
X63.0Y8.525
X63.75Y11.475
X63.75Y8.525
X66.1Y59.425
X67.6Y59.575
X67.6Y56.475
X69.1Y59.425
X69.25Y28.25
X69.5Y48.775
X69.5Y47.225
X70.9Y59.425
X72.225Y32.25
X72.225Y29.75
X72.4Y59.575
X72.4Y56.475
X72.4Y56.475
X73.71Y52.495
X73.71Y43.505
X73.73Y50.712
X73.73Y45.288
X73.775Y32.25
X73.775Y29.75
X73.9Y59.425
X75.725Y28.25
X76.0Y33.475
X76.0Y30.525
X76.1Y59.425
X76.27Y50.712
X76.27Y45.288
X76.29Y52.495
X76.29Y43.505
X77.275Y28.25
X77.457Y35.457
X77.6Y59.575
X77.6Y56.475
X77.6Y56.475
X79.1Y59.425
X79.543Y37.543
X80.9Y59.425
X82.0Y32.0
X82.0Y30.0
X82.0Y28.0
X82.25Y39.275
X82.25Y37.725
X82.4Y59.575
X82.4Y56.475
X82.4Y56.475
X83.0Y33.0
X83.0Y31.0
X83.0Y29.0
X83.0Y27.0
X83.9Y59.425
X84.0Y32.0
X84.0Y30.0
X84.0Y28.0
X84.75Y39.275
X85.0Y33.0
X85.0Y31.0
X85.0Y29.0
X85.0Y27.0
X85.0Y22.341
X85.0Y20.791
X85.0Y11.475
X85.0Y8.525
X85.75Y38.5
X85.75Y11.475
X85.75Y8.525
X86.0Y32.0
X86.0Y30.0
X86.0Y28.0
X86.1Y59.425
X86.5Y11.475
X86.5Y8.525
X87.0Y33.0
X87.0Y31.0
X87.0Y29.0
X87.0Y27.0
X87.6Y59.575
X87.6Y56.475
X87.6Y56.475
X87.75Y39.275
X87.75Y37.725
X88.0Y32.0
X88.0Y30.0
X88.0Y28.0
X89.1Y59.425
X89.5Y48.775
X89.5Y47.225
X90.457Y37.543
X90.9Y59.425
X92.4Y59.575
X92.4Y56.475
X92.4Y56.475
X92.543Y35.457
X92.725Y28.25
X93.71Y52.495
X93.71Y43.505
X93.73Y50.712
X93.73Y45.288
X93.9Y59.425
X94.0Y33.475
X94.0Y30.525
X94.275Y28.25
X96.1Y59.425
X96.225Y32.25
X96.225Y29.75
X96.27Y50.712
X96.27Y45.288
X96.29Y52.495
X96.29Y43.505
X97.6Y59.575
X97.6Y56.475
X97.6Y56.475
X97.775Y32.25
X97.775Y29.75
X99.1Y59.425
X100.9Y59.425
X102.4Y59.575
X102.4Y56.475
X102.4Y56.475
X103.9Y59.425
X106.1Y59.425
X107.6Y59.575
X107.6Y56.475
X109.1Y59.425
X109.5Y48.775
X109.5Y47.225
X110.9Y59.425
X112.225Y32.25
X112.225Y29.75
X112.4Y59.575
X112.4Y56.475
X112.4Y56.475
X113.71Y52.495
X113.71Y43.505
X113.73Y50.712
X113.73Y45.288
X113.775Y32.25
X113.775Y29.75
X113.9Y59.425
X114.709Y27.372
X115.725Y28.25
X116.0Y33.475
X116.0Y30.525
X116.1Y59.425
X116.27Y50.712
X116.27Y45.288
X116.29Y52.495
X116.29Y43.505
X117.275Y28.25
X117.457Y35.457
X117.6Y59.575
X117.6Y56.475
X117.6Y56.475
X118.745Y20.795
X119.1Y59.425
X119.38Y21.43
X119.543Y37.543
X120.015Y20.795
X120.65Y21.43
X120.9Y59.425
X121.285Y20.795
X121.92Y21.43
X122.0Y32.0
X122.0Y30.0
X122.0Y28.0
X122.25Y39.275
X122.25Y37.725
X122.4Y59.575
X122.4Y56.475
X122.4Y56.475
X122.555Y20.795
X123.0Y33.0
X123.0Y31.0
X123.0Y29.0
X123.0Y27.0
X123.19Y21.43
X123.825Y20.795
X123.9Y59.425
X124.0Y32.0
X124.0Y30.0
X124.0Y28.0
X124.75Y39.275
X125.0Y33.0
X125.0Y31.0
X125.0Y29.0
X125.0Y27.0
X125.0Y22.341
X125.0Y20.791
X125.75Y38.5
X126.0Y32.0
X126.0Y30.0
X126.0Y28.0
X126.1Y59.425
X126.175Y20.795
X126.81Y21.43
X127.0Y33.0
X127.0Y31.0
X127.0Y29.0
X127.0Y27.0
X127.445Y20.795
X127.6Y59.575
X127.6Y56.475
X127.6Y56.475
X127.75Y39.275
X127.75Y37.725
X128.0Y32.0
X128.0Y30.0
X128.0Y28.0
X128.08Y21.43
X128.715Y20.795
X129.1Y59.425
X129.35Y21.43
X129.5Y48.775
X129.5Y47.225
X129.985Y20.795
X130.457Y37.543
X130.62Y21.43
X130.9Y59.425
X132.4Y59.575
X132.4Y56.475
X132.4Y56.475
X132.5Y27.0
X132.543Y35.457
X132.725Y28.25
X133.71Y52.495
X133.71Y43.505
X133.73Y50.712
X133.73Y45.288
X133.9Y59.425
X134.0Y33.475
X134.0Y30.525
X134.275Y28.25
X136.1Y59.425
X136.225Y32.25
X136.225Y29.75
X136.27Y50.712
X136.27Y45.288
X136.29Y52.495
X136.29Y43.505
X137.6Y59.575
X137.6Y56.475
X137.6Y56.475
X137.775Y32.25
X137.775Y29.75
X139.1Y59.425
X140.9Y59.425
X142.4Y59.575
X142.4Y56.475
X142.4Y56.475
X143.9Y59.425
T2
X65.0Y137.4
X65.0Y132.6
X65.0Y127.4
X65.0Y122.6
X65.0Y117.4
X65.0Y112.6
X65.0Y107.4
X65.0Y102.6
X65.0Y97.4
X65.0Y92.6
X65.0Y87.4
X65.0Y82.6
X65.0Y77.4
X65.0Y72.6
X65.0Y67.4
X65.0Y62.6
X70.0Y137.4
X70.0Y132.6
X70.0Y127.4
X70.0Y122.6
X70.0Y117.4
X70.0Y112.6
X70.0Y107.4
X70.0Y102.6
X70.0Y97.4
X70.0Y92.6
X70.0Y87.4
X70.0Y82.6
X70.0Y77.4
X70.0Y72.6
X70.0Y67.4
X70.0Y62.6
X75.0Y137.4
X75.0Y137.4
X75.0Y132.6
X75.0Y132.6
X75.0Y127.4
X75.0Y127.4
X75.0Y122.6
X75.0Y122.6
X75.0Y117.4
X75.0Y117.4
X75.0Y112.6
X75.0Y112.6
X75.0Y107.4
X75.0Y107.4
X75.0Y102.6
X75.0Y102.6
X75.0Y97.4
X75.0Y97.4
X75.0Y92.6
X75.0Y92.6
X75.0Y87.4
X75.0Y87.4
X75.0Y82.6
X75.0Y82.6
X75.0Y77.4
X75.0Y77.4
X75.0Y72.6
X75.0Y72.6
X75.0Y67.4
X75.0Y67.4
X75.0Y62.6
X75.0Y62.6
X80.0Y137.4
X80.0Y132.6
X80.0Y127.4
X80.0Y122.6
X80.0Y117.4
X80.0Y112.6
X80.0Y107.4
X80.0Y102.6
X80.0Y97.4
X80.0Y92.6
X80.0Y87.4
X80.0Y82.6
X80.0Y77.4
X80.0Y72.6
X80.0Y67.4
X80.0Y62.6
X85.0Y137.4
X85.0Y137.4
X85.0Y132.6
X85.0Y132.6
X85.0Y127.4
X85.0Y127.4
X85.0Y122.6
X85.0Y122.6
X85.0Y117.4
X85.0Y117.4
X85.0Y112.6
X85.0Y112.6
X85.0Y107.4
X85.0Y107.4
X85.0Y102.6
X85.0Y102.6
X85.0Y97.4
X85.0Y97.4
X85.0Y92.6
X85.0Y92.6
X85.0Y87.4
X85.0Y87.4
X85.0Y82.6
X85.0Y82.6
X85.0Y77.4
X85.0Y77.4
X85.0Y72.6
X85.0Y72.6
X85.0Y67.4
X85.0Y67.4
X85.0Y62.6
X85.0Y62.6
X90.0Y137.4
X90.0Y132.6
X90.0Y127.4
X90.0Y122.6
X90.0Y117.4
X90.0Y112.6
X90.0Y107.4
X90.0Y102.6
X90.0Y97.4
X90.0Y92.6
X90.0Y87.4
X90.0Y82.6
X90.0Y77.4
X90.0Y72.6
X90.0Y67.4
X90.0Y62.6
X95.0Y137.4
X95.0Y137.4
X95.0Y132.6
X95.0Y132.6
X95.0Y127.4
X95.0Y127.4
X95.0Y122.6
X95.0Y122.6
X95.0Y117.4
X95.0Y117.4
X95.0Y112.6
X95.0Y112.6
X95.0Y107.4
X95.0Y107.4
X95.0Y102.6
X95.0Y102.6
X95.0Y97.4
X95.0Y97.4
X95.0Y92.6
X95.0Y92.6
X95.0Y87.4
X95.0Y87.4
X95.0Y82.6
X95.0Y82.6
X95.0Y77.4
X95.0Y77.4
X95.0Y72.6
X95.0Y72.6
X95.0Y67.4
X95.0Y67.4
X95.0Y62.6
X95.0Y62.6
X100.0Y137.4
X100.0Y132.6
X100.0Y127.4
X100.0Y122.6
X100.0Y117.4
X100.0Y112.6
X100.0Y107.4
X100.0Y102.6
X100.0Y97.4
X100.0Y92.6
X100.0Y87.4
X100.0Y82.6
X100.0Y77.4
X100.0Y72.6
X100.0Y67.4
X100.0Y62.6
X105.0Y137.4
X105.0Y137.4
X105.0Y132.6
X105.0Y132.6
X105.0Y127.4
X105.0Y127.4
X105.0Y122.6
X105.0Y122.6
X105.0Y117.4
X105.0Y117.4
X105.0Y112.6
X105.0Y112.6
X105.0Y107.4
X105.0Y107.4
X105.0Y102.6
X105.0Y102.6
X105.0Y97.4
X105.0Y97.4
X105.0Y92.6
X105.0Y92.6
X105.0Y87.4
X105.0Y87.4
X105.0Y82.6
X105.0Y82.6
X105.0Y77.4
X105.0Y77.4
X105.0Y72.6
X105.0Y72.6
X105.0Y67.4
X105.0Y67.4
X105.0Y62.6
X105.0Y62.6
X110.0Y137.4
X110.0Y132.6
X110.0Y127.4
X110.0Y122.6
X110.0Y117.4
X110.0Y112.6
X110.0Y107.4
X110.0Y102.6
X110.0Y97.4
X110.0Y92.6
X110.0Y87.4
X110.0Y82.6
X110.0Y77.4
X110.0Y72.6
X110.0Y67.4
X110.0Y62.6
X115.0Y137.4
X115.0Y137.4
X115.0Y132.6
X115.0Y132.6
X115.0Y127.4
X115.0Y127.4
X115.0Y122.6
X115.0Y122.6
X115.0Y117.4
X115.0Y117.4
X115.0Y112.6
X115.0Y112.6
X115.0Y107.4
X115.0Y107.4
X115.0Y102.6
X115.0Y102.6
X115.0Y97.4
X115.0Y97.4
X115.0Y92.6
X115.0Y92.6
X115.0Y87.4
X115.0Y87.4
X115.0Y82.6
X115.0Y82.6
X115.0Y77.4
X115.0Y77.4
X115.0Y72.6
X115.0Y72.6
X115.0Y67.4
X115.0Y67.4
X115.0Y62.6
X115.0Y62.6
X120.0Y137.4
X120.0Y132.6
X120.0Y127.4
X120.0Y122.6
X120.0Y117.4
X120.0Y112.6
X120.0Y107.4
X120.0Y102.6
X120.0Y97.4
X120.0Y92.6
X120.0Y87.4
X120.0Y82.6
X120.0Y77.4
X120.0Y72.6
X120.0Y67.4
X120.0Y62.6
X125.0Y137.4
X125.0Y137.4
X125.0Y132.6
X125.0Y132.6
X125.0Y127.4
X125.0Y127.4
X125.0Y122.6
X125.0Y122.6
X125.0Y117.4
X125.0Y117.4
X125.0Y112.6
X125.0Y112.6
X125.0Y107.4
X125.0Y107.4
X125.0Y102.6
X125.0Y102.6
X125.0Y97.4
X125.0Y97.4
X125.0Y92.6
X125.0Y92.6
X125.0Y87.4
X125.0Y87.4
X125.0Y82.6
X125.0Y82.6
X125.0Y77.4
X125.0Y77.4
X125.0Y72.6
X125.0Y72.6
X125.0Y67.4
X125.0Y67.4
X125.0Y62.6
X125.0Y62.6
X130.0Y137.4
X130.0Y132.6
X130.0Y127.4
X130.0Y122.6
X130.0Y117.4
X130.0Y112.6
X130.0Y107.4
X130.0Y102.6
X130.0Y97.4
X130.0Y92.6
X130.0Y87.4
X130.0Y82.6
X130.0Y77.4
X130.0Y72.6
X130.0Y67.4
X130.0Y62.6
X135.0Y137.4
X135.0Y137.4
X135.0Y132.6
X135.0Y132.6
X135.0Y127.4
X135.0Y127.4
X135.0Y122.6
X135.0Y122.6
X135.0Y117.4
X135.0Y117.4
X135.0Y112.6
X135.0Y112.6
X135.0Y107.4
X135.0Y107.4
X135.0Y102.6
X135.0Y102.6
X135.0Y97.4
X135.0Y97.4
X135.0Y92.6
X135.0Y92.6
X135.0Y87.4
X135.0Y87.4
X135.0Y82.6
X135.0Y82.6
X135.0Y77.4
X135.0Y77.4
X135.0Y72.6
X135.0Y72.6
X135.0Y67.4
X135.0Y67.4
X135.0Y62.6
X135.0Y62.6
X140.0Y137.4
X140.0Y132.6
X140.0Y127.4
X140.0Y122.6
X140.0Y117.4
X140.0Y112.6
X140.0Y107.4
X140.0Y102.6
X140.0Y97.4
X140.0Y92.6
X140.0Y87.4
X140.0Y82.6
X140.0Y77.4
X140.0Y72.6
X140.0Y67.4
X140.0Y62.6
X145.0Y137.4
X145.0Y132.6
X145.0Y127.4
X145.0Y122.6
X145.0Y117.4
X145.0Y112.6
X145.0Y107.4
X145.0Y102.6
X145.0Y97.4
X145.0Y92.6
X145.0Y87.4
X145.0Y82.6
X145.0Y77.4
X145.0Y72.6
X145.0Y67.4
X145.0Y62.6
T3
X2.375Y145.0
X2.375Y15.0
X3.144Y146.856
X3.144Y143.144
X3.144Y16.856
X3.144Y13.144
X5.0Y147.625
X5.0Y142.375
X5.0Y17.625
X5.0Y12.375
X6.856Y146.856
X6.856Y143.144
X6.856Y16.856
X6.856Y13.144
X7.625Y145.0
X7.625Y15.0
X52.375Y145.0
X52.375Y48.0
X53.144Y146.856
X53.144Y143.144
X53.144Y49.856
X53.144Y46.144
X55.0Y147.625
X55.0Y142.375
X55.0Y50.625
X55.0Y45.375
X56.856Y146.856
X56.856Y143.144
X56.856Y49.856
X56.856Y46.144
X57.625Y145.0
X57.625Y48.0
X142.375Y145.0
X142.375Y15.0
X143.144Y146.856
X143.144Y143.144
X143.144Y16.856
X143.144Y13.144
X145.0Y147.625
X145.0Y142.375
X145.0Y17.625
X145.0Y12.375
X146.856Y146.856
X146.856Y143.144
X146.856Y16.856
X146.856Y13.144
X147.625Y145.0
X147.625Y15.0
T4
X64.3Y140.45
X64.3Y130.45
X64.3Y120.45
X64.3Y110.45
X64.3Y100.45
X64.3Y90.45
X64.3Y80.45
X64.3Y70.45
X65.7Y140.45
X65.7Y130.45
X65.7Y120.45
X65.7Y110.45
X65.7Y100.45
X65.7Y90.45
X65.7Y80.45
X65.7Y70.45
X74.3Y140.45
X74.3Y130.45
X74.3Y120.45
X74.3Y110.45
X74.3Y100.45
X74.3Y90.45
X74.3Y80.45
X74.3Y70.45
X75.7Y140.45
X75.7Y130.45
X75.7Y120.45
X75.7Y110.45
X75.7Y100.45
X75.7Y90.45
X75.7Y80.45
X75.7Y70.45
X84.3Y140.45
X84.3Y130.45
X84.3Y120.45
X84.3Y110.45
X84.3Y100.45
X84.3Y90.45
X84.3Y80.45
X84.3Y70.45
X85.7Y140.45
X85.7Y130.45
X85.7Y120.45
X85.7Y110.45
X85.7Y100.45
X85.7Y90.45
X85.7Y80.45
X85.7Y70.45
X94.3Y140.45
X94.3Y130.45
X94.3Y120.45
X94.3Y110.45
X94.3Y100.45
X94.3Y90.45
X94.3Y80.45
X94.3Y70.45
X95.7Y140.45
X95.7Y130.45
X95.7Y120.45
X95.7Y110.45
X95.7Y100.45
X95.7Y90.45
X95.7Y80.45
X95.7Y70.45
X104.3Y140.45
X104.3Y130.45
X104.3Y120.45
X104.3Y110.45
X104.3Y100.45
X104.3Y90.45
X104.3Y80.45
X104.3Y70.45
X105.7Y140.45
X105.7Y130.45
X105.7Y120.45
X105.7Y110.45
X105.7Y100.45
X105.7Y90.45
X105.7Y80.45
X105.7Y70.45
X114.3Y140.45
X114.3Y130.45
X114.3Y120.45
X114.3Y110.45
X114.3Y100.45
X114.3Y90.45
X114.3Y80.45
X114.3Y70.45
X115.7Y140.45
X115.7Y130.45
X115.7Y120.45
X115.7Y110.45
X115.7Y100.45
X115.7Y90.45
X115.7Y80.45
X115.7Y70.45
X124.3Y140.45
X124.3Y130.45
X124.3Y120.45
X124.3Y110.45
X124.3Y100.45
X124.3Y90.45
X124.3Y80.45
X124.3Y70.45
X125.7Y140.45
X125.7Y130.45
X125.7Y120.45
X125.7Y110.45
X125.7Y100.45
X125.7Y90.45
X125.7Y80.45
X125.7Y70.45
X134.3Y140.45
X134.3Y130.45
X134.3Y120.45
X134.3Y110.45
X134.3Y100.45
X134.3Y90.45
X134.3Y80.45
X134.3Y70.45
X135.7Y140.45
X135.7Y130.45
X135.7Y120.45
X135.7Y110.45
X135.7Y100.45
X135.7Y90.45
X135.7Y80.45
X135.7Y70.45
T5
X4.46Y52.86
X4.46Y50.32
X4.46Y47.78
X4.46Y45.24
X4.46Y42.7
X4.46Y40.16
X4.46Y37.62
X4.46Y35.08
X4.46Y32.54
X4.46Y30.0
X7.0Y52.86
X7.0Y50.32
X7.0Y47.78
X7.0Y45.24
X7.0Y42.7
X7.0Y40.16
X7.0Y37.62
X7.0Y35.08
X7.0Y32.54
X7.0Y30.0
X50.87Y5.54
X50.87Y3.0
X53.41Y5.54
X53.41Y3.0
X55.95Y5.54
X55.95Y3.0
X58.49Y5.54
X58.49Y3.0
X61.03Y5.54
X61.03Y3.0
X63.57Y5.54
X63.57Y3.0
X66.11Y5.54
X66.11Y3.0
X68.65Y5.54
X68.65Y3.0
X71.19Y5.54
X71.19Y3.0
X73.73Y5.54
X73.73Y3.0
X76.27Y5.54
X76.27Y3.0
X78.81Y5.54
X78.81Y3.0
X81.35Y5.54
X81.35Y3.0
X83.89Y5.54
X83.89Y3.0
X86.43Y5.54
X86.43Y3.0
X88.97Y5.54
X88.97Y3.0
X91.51Y5.54
X91.51Y3.0
X94.05Y5.54
X94.05Y3.0
X96.59Y5.54
X96.59Y3.0
X99.13Y5.54
X99.13Y3.0
T6
X9.0Y101.0
X9.0Y86.5
X9.0Y72.0
X31.0Y101.0
X67.0Y31.0
X69.0Y38.5
X101.0Y38.5
X109.0Y38.5
X141.0Y38.5
X143.0Y31.0
X147.0Y48.0
T7
X5.0Y145.0
X5.0Y15.0
X55.0Y145.0
X55.0Y48.0
X145.0Y145.0
X145.0Y15.0
M30
