%TF.GenerationSoftware,KiCad,Pcbnew,10.0.1*%
%TF.CreationDate,2026-05-10T07:09:01+02:00*%
%TF.ProjectId,Sonar,536f6e61-722e-46b6-9963-61645f706362,v1.0*%
%TF.SameCoordinates,PX5f5e100PYd1cef00*%
%TF.FileFunction,Soldermask,Bot*%
%TF.FilePolarity,Negative*%
%FSLAX46Y46*%
G04 Gerber Fmt 4.6, Leading zero omitted, Abs format (unit mm)*
G04 Created by KiCad (PCBNEW 10.0.1) date 2026-05-10 07:09:01*
%MOMM*%
%LPD*%
G01*
G04 APERTURE LIST*
G04 Aperture macros list*
%AMRoundRect*
0 Rectangle with rounded corners*
0 $1 Rounding radius*
0 $2 $3 $4 $5 $6 $7 $8 $9 X,Y pos of 4 corners*
0 Add a 4 corners polygon primitive as box body*
4,1,4,$2,$3,$4,$5,$6,$7,$8,$9,$2,$3,0*
0 Add four circle primitives for the rounded corners*
1,1,$1+$1,$2,$3*
1,1,$1+$1,$4,$5*
1,1,$1+$1,$6,$7*
1,1,$1+$1,$8,$9*
0 Add four rect primitives between the rounded corners*
20,1,$1+$1,$2,$3,$4,$5,0*
20,1,$1+$1,$4,$5,$6,$7,0*
20,1,$1+$1,$6,$7,$8,$9,0*
20,1,$1+$1,$8,$9,$2,$3,0*%
G04 Aperture macros list end*
%ADD10C,0.000000*%
%ADD11C,0.930000*%
%ADD12C,2.800000*%
%ADD13C,0.800000*%
%ADD14C,7.000000*%
%ADD15C,2.000000*%
%ADD16C,1.500000*%
%ADD17RoundRect,0.250000X0.600000X0.600000X-0.600000X0.600000X-0.600000X-0.600000X0.600000X-0.600000X0*%
%ADD18C,1.700000*%
%ADD19C,3.000000*%
%ADD20R,1.700000X1.700000*%
G04 APERTURE END LIST*
D10*
%TO.C,SW3*%
G36*
X86250000Y138300000D02*
G01*
X86250000Y138300000D01*
G75*
G02*
X86250000Y138300000I450000J0D01*
G01*
X86250000Y138300000D01*
G37*
G36*
X86250000Y136500000D02*
G01*
X86250000Y136500000D01*
G75*
G02*
X86250000Y136500000I450000J0D01*
G01*
X86250000Y136500000D01*
G37*
G36*
X86250000Y133500000D02*
G01*
X86250000Y133500000D01*
G75*
G02*
X86250000Y133500000I450000J0D01*
G01*
X86250000Y133500000D01*
G37*
G36*
X86250000Y131700000D02*
G01*
X86250000Y131700000D01*
G75*
G02*
X86250000Y131700000I450000J0D01*
G01*
X86250000Y131700000D01*
G37*
G36*
X87150000Y137400000D02*
G01*
X87150000Y137400000D01*
G75*
G02*
X87150000Y137400000I450000J0D01*
G01*
X87150000Y137400000D01*
G37*
G36*
X87150000Y132600000D02*
G01*
X87150000Y132600000D01*
G75*
G02*
X87150000Y132600000I450000J0D01*
G01*
X87150000Y132600000D01*
G37*
G36*
X88050000Y138300000D02*
G01*
X88050000Y138300000D01*
G75*
G02*
X88050000Y138300000I450000J0D01*
G01*
X88050000Y138300000D01*
G37*
G36*
X88050000Y136500000D02*
G01*
X88050000Y136500000D01*
G75*
G02*
X88050000Y136500000I450000J0D01*
G01*
X88050000Y136500000D01*
G37*
G36*
X88050000Y133500000D02*
G01*
X88050000Y133500000D01*
G75*
G02*
X88050000Y133500000I450000J0D01*
G01*
X88050000Y133500000D01*
G37*
G36*
X88050000Y131700000D02*
G01*
X88050000Y131700000D01*
G75*
G02*
X88050000Y131700000I450000J0D01*
G01*
X88050000Y131700000D01*
G37*
G36*
X91050000Y138300000D02*
G01*
X91050000Y138300000D01*
G75*
G02*
X91050000Y138300000I450000J0D01*
G01*
X91050000Y138300000D01*
G37*
G36*
X91050000Y136500000D02*
G01*
X91050000Y136500000D01*
G75*
G02*
X91050000Y136500000I450000J0D01*
G01*
X91050000Y136500000D01*
G37*
G36*
X91050000Y133500000D02*
G01*
X91050000Y133500000D01*
G75*
G02*
X91050000Y133500000I450000J0D01*
G01*
X91050000Y133500000D01*
G37*
G36*
X91050000Y131700000D02*
G01*
X91050000Y131700000D01*
G75*
G02*
X91050000Y131700000I450000J0D01*
G01*
X91050000Y131700000D01*
G37*
G36*
X91950000Y137400000D02*
G01*
X91950000Y137400000D01*
G75*
G02*
X91950000Y137400000I450000J0D01*
G01*
X91950000Y137400000D01*
G37*
G36*
X91950000Y132600000D02*
G01*
X91950000Y132600000D01*
G75*
G02*
X91950000Y132600000I450000J0D01*
G01*
X91950000Y132600000D01*
G37*
G36*
X92850000Y138300000D02*
G01*
X92850000Y138300000D01*
G75*
G02*
X92850000Y138300000I450000J0D01*
G01*
X92850000Y138300000D01*
G37*
G36*
X92850000Y136500000D02*
G01*
X92850000Y136500000D01*
G75*
G02*
X92850000Y136500000I450000J0D01*
G01*
X92850000Y136500000D01*
G37*
G36*
X92850000Y133500000D02*
G01*
X92850000Y133500000D01*
G75*
G02*
X92850000Y133500000I450000J0D01*
G01*
X92850000Y133500000D01*
G37*
G36*
X92850000Y131700000D02*
G01*
X92850000Y131700000D01*
G75*
G02*
X92850000Y131700000I450000J0D01*
G01*
X92850000Y131700000D01*
G37*
%TO.C,SW51*%
G36*
X86250000Y78300000D02*
G01*
X86250000Y78300000D01*
G75*
G02*
X86250000Y78300000I450000J0D01*
G01*
X86250000Y78300000D01*
G37*
G36*
X86250000Y76500000D02*
G01*
X86250000Y76500000D01*
G75*
G02*
X86250000Y76500000I450000J0D01*
G01*
X86250000Y76500000D01*
G37*
G36*
X86250000Y73500000D02*
G01*
X86250000Y73500000D01*
G75*
G02*
X86250000Y73500000I450000J0D01*
G01*
X86250000Y73500000D01*
G37*
G36*
X86250000Y71700000D02*
G01*
X86250000Y71700000D01*
G75*
G02*
X86250000Y71700000I450000J0D01*
G01*
X86250000Y71700000D01*
G37*
G36*
X87150000Y77400000D02*
G01*
X87150000Y77400000D01*
G75*
G02*
X87150000Y77400000I450000J0D01*
G01*
X87150000Y77400000D01*
G37*
G36*
X87150000Y72600000D02*
G01*
X87150000Y72600000D01*
G75*
G02*
X87150000Y72600000I450000J0D01*
G01*
X87150000Y72600000D01*
G37*
G36*
X88050000Y78300000D02*
G01*
X88050000Y78300000D01*
G75*
G02*
X88050000Y78300000I450000J0D01*
G01*
X88050000Y78300000D01*
G37*
G36*
X88050000Y76500000D02*
G01*
X88050000Y76500000D01*
G75*
G02*
X88050000Y76500000I450000J0D01*
G01*
X88050000Y76500000D01*
G37*
G36*
X88050000Y73500000D02*
G01*
X88050000Y73500000D01*
G75*
G02*
X88050000Y73500000I450000J0D01*
G01*
X88050000Y73500000D01*
G37*
G36*
X88050000Y71700000D02*
G01*
X88050000Y71700000D01*
G75*
G02*
X88050000Y71700000I450000J0D01*
G01*
X88050000Y71700000D01*
G37*
G36*
X91050000Y78300000D02*
G01*
X91050000Y78300000D01*
G75*
G02*
X91050000Y78300000I450000J0D01*
G01*
X91050000Y78300000D01*
G37*
G36*
X91050000Y76500000D02*
G01*
X91050000Y76500000D01*
G75*
G02*
X91050000Y76500000I450000J0D01*
G01*
X91050000Y76500000D01*
G37*
G36*
X91050000Y73500000D02*
G01*
X91050000Y73500000D01*
G75*
G02*
X91050000Y73500000I450000J0D01*
G01*
X91050000Y73500000D01*
G37*
G36*
X91050000Y71700000D02*
G01*
X91050000Y71700000D01*
G75*
G02*
X91050000Y71700000I450000J0D01*
G01*
X91050000Y71700000D01*
G37*
G36*
X91950000Y77400000D02*
G01*
X91950000Y77400000D01*
G75*
G02*
X91950000Y77400000I450000J0D01*
G01*
X91950000Y77400000D01*
G37*
G36*
X91950000Y72600000D02*
G01*
X91950000Y72600000D01*
G75*
G02*
X91950000Y72600000I450000J0D01*
G01*
X91950000Y72600000D01*
G37*
G36*
X92850000Y78300000D02*
G01*
X92850000Y78300000D01*
G75*
G02*
X92850000Y78300000I450000J0D01*
G01*
X92850000Y78300000D01*
G37*
G36*
X92850000Y76500000D02*
G01*
X92850000Y76500000D01*
G75*
G02*
X92850000Y76500000I450000J0D01*
G01*
X92850000Y76500000D01*
G37*
G36*
X92850000Y73500000D02*
G01*
X92850000Y73500000D01*
G75*
G02*
X92850000Y73500000I450000J0D01*
G01*
X92850000Y73500000D01*
G37*
G36*
X92850000Y71700000D02*
G01*
X92850000Y71700000D01*
G75*
G02*
X92850000Y71700000I450000J0D01*
G01*
X92850000Y71700000D01*
G37*
%TO.C,SW13*%
G36*
X106250000Y128300000D02*
G01*
X106250000Y128300000D01*
G75*
G02*
X106250000Y128300000I450000J0D01*
G01*
X106250000Y128300000D01*
G37*
G36*
X106250000Y126500000D02*
G01*
X106250000Y126500000D01*
G75*
G02*
X106250000Y126500000I450000J0D01*
G01*
X106250000Y126500000D01*
G37*
G36*
X106250000Y123500000D02*
G01*
X106250000Y123500000D01*
G75*
G02*
X106250000Y123500000I450000J0D01*
G01*
X106250000Y123500000D01*
G37*
G36*
X106250000Y121700000D02*
G01*
X106250000Y121700000D01*
G75*
G02*
X106250000Y121700000I450000J0D01*
G01*
X106250000Y121700000D01*
G37*
G36*
X107150000Y127400000D02*
G01*
X107150000Y127400000D01*
G75*
G02*
X107150000Y127400000I450000J0D01*
G01*
X107150000Y127400000D01*
G37*
G36*
X107150000Y122600000D02*
G01*
X107150000Y122600000D01*
G75*
G02*
X107150000Y122600000I450000J0D01*
G01*
X107150000Y122600000D01*
G37*
G36*
X108050000Y128300000D02*
G01*
X108050000Y128300000D01*
G75*
G02*
X108050000Y128300000I450000J0D01*
G01*
X108050000Y128300000D01*
G37*
G36*
X108050000Y126500000D02*
G01*
X108050000Y126500000D01*
G75*
G02*
X108050000Y126500000I450000J0D01*
G01*
X108050000Y126500000D01*
G37*
G36*
X108050000Y123500000D02*
G01*
X108050000Y123500000D01*
G75*
G02*
X108050000Y123500000I450000J0D01*
G01*
X108050000Y123500000D01*
G37*
G36*
X108050000Y121700000D02*
G01*
X108050000Y121700000D01*
G75*
G02*
X108050000Y121700000I450000J0D01*
G01*
X108050000Y121700000D01*
G37*
G36*
X111050000Y128300000D02*
G01*
X111050000Y128300000D01*
G75*
G02*
X111050000Y128300000I450000J0D01*
G01*
X111050000Y128300000D01*
G37*
G36*
X111050000Y126500000D02*
G01*
X111050000Y126500000D01*
G75*
G02*
X111050000Y126500000I450000J0D01*
G01*
X111050000Y126500000D01*
G37*
G36*
X111050000Y123500000D02*
G01*
X111050000Y123500000D01*
G75*
G02*
X111050000Y123500000I450000J0D01*
G01*
X111050000Y123500000D01*
G37*
G36*
X111050000Y121700000D02*
G01*
X111050000Y121700000D01*
G75*
G02*
X111050000Y121700000I450000J0D01*
G01*
X111050000Y121700000D01*
G37*
G36*
X111950000Y127400000D02*
G01*
X111950000Y127400000D01*
G75*
G02*
X111950000Y127400000I450000J0D01*
G01*
X111950000Y127400000D01*
G37*
G36*
X111950000Y122600000D02*
G01*
X111950000Y122600000D01*
G75*
G02*
X111950000Y122600000I450000J0D01*
G01*
X111950000Y122600000D01*
G37*
G36*
X112850000Y128300000D02*
G01*
X112850000Y128300000D01*
G75*
G02*
X112850000Y128300000I450000J0D01*
G01*
X112850000Y128300000D01*
G37*
G36*
X112850000Y126500000D02*
G01*
X112850000Y126500000D01*
G75*
G02*
X112850000Y126500000I450000J0D01*
G01*
X112850000Y126500000D01*
G37*
G36*
X112850000Y123500000D02*
G01*
X112850000Y123500000D01*
G75*
G02*
X112850000Y123500000I450000J0D01*
G01*
X112850000Y123500000D01*
G37*
G36*
X112850000Y121700000D02*
G01*
X112850000Y121700000D01*
G75*
G02*
X112850000Y121700000I450000J0D01*
G01*
X112850000Y121700000D01*
G37*
%TO.C,SW37*%
G36*
X106250000Y98300000D02*
G01*
X106250000Y98300000D01*
G75*
G02*
X106250000Y98300000I450000J0D01*
G01*
X106250000Y98300000D01*
G37*
G36*
X106250000Y96500000D02*
G01*
X106250000Y96500000D01*
G75*
G02*
X106250000Y96500000I450000J0D01*
G01*
X106250000Y96500000D01*
G37*
G36*
X106250000Y93500000D02*
G01*
X106250000Y93500000D01*
G75*
G02*
X106250000Y93500000I450000J0D01*
G01*
X106250000Y93500000D01*
G37*
G36*
X106250000Y91700000D02*
G01*
X106250000Y91700000D01*
G75*
G02*
X106250000Y91700000I450000J0D01*
G01*
X106250000Y91700000D01*
G37*
G36*
X107150000Y97400000D02*
G01*
X107150000Y97400000D01*
G75*
G02*
X107150000Y97400000I450000J0D01*
G01*
X107150000Y97400000D01*
G37*
G36*
X107150000Y92600000D02*
G01*
X107150000Y92600000D01*
G75*
G02*
X107150000Y92600000I450000J0D01*
G01*
X107150000Y92600000D01*
G37*
G36*
X108050000Y98300000D02*
G01*
X108050000Y98300000D01*
G75*
G02*
X108050000Y98300000I450000J0D01*
G01*
X108050000Y98300000D01*
G37*
G36*
X108050000Y96500000D02*
G01*
X108050000Y96500000D01*
G75*
G02*
X108050000Y96500000I450000J0D01*
G01*
X108050000Y96500000D01*
G37*
G36*
X108050000Y93500000D02*
G01*
X108050000Y93500000D01*
G75*
G02*
X108050000Y93500000I450000J0D01*
G01*
X108050000Y93500000D01*
G37*
G36*
X108050000Y91700000D02*
G01*
X108050000Y91700000D01*
G75*
G02*
X108050000Y91700000I450000J0D01*
G01*
X108050000Y91700000D01*
G37*
G36*
X111050000Y98300000D02*
G01*
X111050000Y98300000D01*
G75*
G02*
X111050000Y98300000I450000J0D01*
G01*
X111050000Y98300000D01*
G37*
G36*
X111050000Y96500000D02*
G01*
X111050000Y96500000D01*
G75*
G02*
X111050000Y96500000I450000J0D01*
G01*
X111050000Y96500000D01*
G37*
G36*
X111050000Y93500000D02*
G01*
X111050000Y93500000D01*
G75*
G02*
X111050000Y93500000I450000J0D01*
G01*
X111050000Y93500000D01*
G37*
G36*
X111050000Y91700000D02*
G01*
X111050000Y91700000D01*
G75*
G02*
X111050000Y91700000I450000J0D01*
G01*
X111050000Y91700000D01*
G37*
G36*
X111950000Y97400000D02*
G01*
X111950000Y97400000D01*
G75*
G02*
X111950000Y97400000I450000J0D01*
G01*
X111950000Y97400000D01*
G37*
G36*
X111950000Y92600000D02*
G01*
X111950000Y92600000D01*
G75*
G02*
X111950000Y92600000I450000J0D01*
G01*
X111950000Y92600000D01*
G37*
G36*
X112850000Y98300000D02*
G01*
X112850000Y98300000D01*
G75*
G02*
X112850000Y98300000I450000J0D01*
G01*
X112850000Y98300000D01*
G37*
G36*
X112850000Y96500000D02*
G01*
X112850000Y96500000D01*
G75*
G02*
X112850000Y96500000I450000J0D01*
G01*
X112850000Y96500000D01*
G37*
G36*
X112850000Y93500000D02*
G01*
X112850000Y93500000D01*
G75*
G02*
X112850000Y93500000I450000J0D01*
G01*
X112850000Y93500000D01*
G37*
G36*
X112850000Y91700000D02*
G01*
X112850000Y91700000D01*
G75*
G02*
X112850000Y91700000I450000J0D01*
G01*
X112850000Y91700000D01*
G37*
%TO.C,SW5*%
G36*
X106250000Y138300000D02*
G01*
X106250000Y138300000D01*
G75*
G02*
X106250000Y138300000I450000J0D01*
G01*
X106250000Y138300000D01*
G37*
G36*
X106250000Y136500000D02*
G01*
X106250000Y136500000D01*
G75*
G02*
X106250000Y136500000I450000J0D01*
G01*
X106250000Y136500000D01*
G37*
G36*
X106250000Y133500000D02*
G01*
X106250000Y133500000D01*
G75*
G02*
X106250000Y133500000I450000J0D01*
G01*
X106250000Y133500000D01*
G37*
G36*
X106250000Y131700000D02*
G01*
X106250000Y131700000D01*
G75*
G02*
X106250000Y131700000I450000J0D01*
G01*
X106250000Y131700000D01*
G37*
G36*
X107150000Y137400000D02*
G01*
X107150000Y137400000D01*
G75*
G02*
X107150000Y137400000I450000J0D01*
G01*
X107150000Y137400000D01*
G37*
G36*
X107150000Y132600000D02*
G01*
X107150000Y132600000D01*
G75*
G02*
X107150000Y132600000I450000J0D01*
G01*
X107150000Y132600000D01*
G37*
G36*
X108050000Y138300000D02*
G01*
X108050000Y138300000D01*
G75*
G02*
X108050000Y138300000I450000J0D01*
G01*
X108050000Y138300000D01*
G37*
G36*
X108050000Y136500000D02*
G01*
X108050000Y136500000D01*
G75*
G02*
X108050000Y136500000I450000J0D01*
G01*
X108050000Y136500000D01*
G37*
G36*
X108050000Y133500000D02*
G01*
X108050000Y133500000D01*
G75*
G02*
X108050000Y133500000I450000J0D01*
G01*
X108050000Y133500000D01*
G37*
G36*
X108050000Y131700000D02*
G01*
X108050000Y131700000D01*
G75*
G02*
X108050000Y131700000I450000J0D01*
G01*
X108050000Y131700000D01*
G37*
G36*
X111050000Y138300000D02*
G01*
X111050000Y138300000D01*
G75*
G02*
X111050000Y138300000I450000J0D01*
G01*
X111050000Y138300000D01*
G37*
G36*
X111050000Y136500000D02*
G01*
X111050000Y136500000D01*
G75*
G02*
X111050000Y136500000I450000J0D01*
G01*
X111050000Y136500000D01*
G37*
G36*
X111050000Y133500000D02*
G01*
X111050000Y133500000D01*
G75*
G02*
X111050000Y133500000I450000J0D01*
G01*
X111050000Y133500000D01*
G37*
G36*
X111050000Y131700000D02*
G01*
X111050000Y131700000D01*
G75*
G02*
X111050000Y131700000I450000J0D01*
G01*
X111050000Y131700000D01*
G37*
G36*
X111950000Y137400000D02*
G01*
X111950000Y137400000D01*
G75*
G02*
X111950000Y137400000I450000J0D01*
G01*
X111950000Y137400000D01*
G37*
G36*
X111950000Y132600000D02*
G01*
X111950000Y132600000D01*
G75*
G02*
X111950000Y132600000I450000J0D01*
G01*
X111950000Y132600000D01*
G37*
G36*
X112850000Y138300000D02*
G01*
X112850000Y138300000D01*
G75*
G02*
X112850000Y138300000I450000J0D01*
G01*
X112850000Y138300000D01*
G37*
G36*
X112850000Y136500000D02*
G01*
X112850000Y136500000D01*
G75*
G02*
X112850000Y136500000I450000J0D01*
G01*
X112850000Y136500000D01*
G37*
G36*
X112850000Y133500000D02*
G01*
X112850000Y133500000D01*
G75*
G02*
X112850000Y133500000I450000J0D01*
G01*
X112850000Y133500000D01*
G37*
G36*
X112850000Y131700000D02*
G01*
X112850000Y131700000D01*
G75*
G02*
X112850000Y131700000I450000J0D01*
G01*
X112850000Y131700000D01*
G37*
%TO.C,SW55*%
G36*
X126250000Y78300000D02*
G01*
X126250000Y78300000D01*
G75*
G02*
X126250000Y78300000I450000J0D01*
G01*
X126250000Y78300000D01*
G37*
G36*
X126250000Y76500000D02*
G01*
X126250000Y76500000D01*
G75*
G02*
X126250000Y76500000I450000J0D01*
G01*
X126250000Y76500000D01*
G37*
G36*
X126250000Y73500000D02*
G01*
X126250000Y73500000D01*
G75*
G02*
X126250000Y73500000I450000J0D01*
G01*
X126250000Y73500000D01*
G37*
G36*
X126250000Y71700000D02*
G01*
X126250000Y71700000D01*
G75*
G02*
X126250000Y71700000I450000J0D01*
G01*
X126250000Y71700000D01*
G37*
G36*
X127150000Y77400000D02*
G01*
X127150000Y77400000D01*
G75*
G02*
X127150000Y77400000I450000J0D01*
G01*
X127150000Y77400000D01*
G37*
G36*
X127150000Y72600000D02*
G01*
X127150000Y72600000D01*
G75*
G02*
X127150000Y72600000I450000J0D01*
G01*
X127150000Y72600000D01*
G37*
G36*
X128050000Y78300000D02*
G01*
X128050000Y78300000D01*
G75*
G02*
X128050000Y78300000I450000J0D01*
G01*
X128050000Y78300000D01*
G37*
G36*
X128050000Y76500000D02*
G01*
X128050000Y76500000D01*
G75*
G02*
X128050000Y76500000I450000J0D01*
G01*
X128050000Y76500000D01*
G37*
G36*
X128050000Y73500000D02*
G01*
X128050000Y73500000D01*
G75*
G02*
X128050000Y73500000I450000J0D01*
G01*
X128050000Y73500000D01*
G37*
G36*
X128050000Y71700000D02*
G01*
X128050000Y71700000D01*
G75*
G02*
X128050000Y71700000I450000J0D01*
G01*
X128050000Y71700000D01*
G37*
G36*
X131050000Y78300000D02*
G01*
X131050000Y78300000D01*
G75*
G02*
X131050000Y78300000I450000J0D01*
G01*
X131050000Y78300000D01*
G37*
G36*
X131050000Y76500000D02*
G01*
X131050000Y76500000D01*
G75*
G02*
X131050000Y76500000I450000J0D01*
G01*
X131050000Y76500000D01*
G37*
G36*
X131050000Y73500000D02*
G01*
X131050000Y73500000D01*
G75*
G02*
X131050000Y73500000I450000J0D01*
G01*
X131050000Y73500000D01*
G37*
G36*
X131050000Y71700000D02*
G01*
X131050000Y71700000D01*
G75*
G02*
X131050000Y71700000I450000J0D01*
G01*
X131050000Y71700000D01*
G37*
G36*
X131950000Y77400000D02*
G01*
X131950000Y77400000D01*
G75*
G02*
X131950000Y77400000I450000J0D01*
G01*
X131950000Y77400000D01*
G37*
G36*
X131950000Y72600000D02*
G01*
X131950000Y72600000D01*
G75*
G02*
X131950000Y72600000I450000J0D01*
G01*
X131950000Y72600000D01*
G37*
G36*
X132850000Y78300000D02*
G01*
X132850000Y78300000D01*
G75*
G02*
X132850000Y78300000I450000J0D01*
G01*
X132850000Y78300000D01*
G37*
G36*
X132850000Y76500000D02*
G01*
X132850000Y76500000D01*
G75*
G02*
X132850000Y76500000I450000J0D01*
G01*
X132850000Y76500000D01*
G37*
G36*
X132850000Y73500000D02*
G01*
X132850000Y73500000D01*
G75*
G02*
X132850000Y73500000I450000J0D01*
G01*
X132850000Y73500000D01*
G37*
G36*
X132850000Y71700000D02*
G01*
X132850000Y71700000D01*
G75*
G02*
X132850000Y71700000I450000J0D01*
G01*
X132850000Y71700000D01*
G37*
%TO.C,SW19*%
G36*
X86250000Y118300000D02*
G01*
X86250000Y118300000D01*
G75*
G02*
X86250000Y118300000I450000J0D01*
G01*
X86250000Y118300000D01*
G37*
G36*
X86250000Y116500000D02*
G01*
X86250000Y116500000D01*
G75*
G02*
X86250000Y116500000I450000J0D01*
G01*
X86250000Y116500000D01*
G37*
G36*
X86250000Y113500000D02*
G01*
X86250000Y113500000D01*
G75*
G02*
X86250000Y113500000I450000J0D01*
G01*
X86250000Y113500000D01*
G37*
G36*
X86250000Y111700000D02*
G01*
X86250000Y111700000D01*
G75*
G02*
X86250000Y111700000I450000J0D01*
G01*
X86250000Y111700000D01*
G37*
G36*
X87150000Y117400000D02*
G01*
X87150000Y117400000D01*
G75*
G02*
X87150000Y117400000I450000J0D01*
G01*
X87150000Y117400000D01*
G37*
G36*
X87150000Y112600000D02*
G01*
X87150000Y112600000D01*
G75*
G02*
X87150000Y112600000I450000J0D01*
G01*
X87150000Y112600000D01*
G37*
G36*
X88050000Y118300000D02*
G01*
X88050000Y118300000D01*
G75*
G02*
X88050000Y118300000I450000J0D01*
G01*
X88050000Y118300000D01*
G37*
G36*
X88050000Y116500000D02*
G01*
X88050000Y116500000D01*
G75*
G02*
X88050000Y116500000I450000J0D01*
G01*
X88050000Y116500000D01*
G37*
G36*
X88050000Y113500000D02*
G01*
X88050000Y113500000D01*
G75*
G02*
X88050000Y113500000I450000J0D01*
G01*
X88050000Y113500000D01*
G37*
G36*
X88050000Y111700000D02*
G01*
X88050000Y111700000D01*
G75*
G02*
X88050000Y111700000I450000J0D01*
G01*
X88050000Y111700000D01*
G37*
G36*
X91050000Y118300000D02*
G01*
X91050000Y118300000D01*
G75*
G02*
X91050000Y118300000I450000J0D01*
G01*
X91050000Y118300000D01*
G37*
G36*
X91050000Y116500000D02*
G01*
X91050000Y116500000D01*
G75*
G02*
X91050000Y116500000I450000J0D01*
G01*
X91050000Y116500000D01*
G37*
G36*
X91050000Y113500000D02*
G01*
X91050000Y113500000D01*
G75*
G02*
X91050000Y113500000I450000J0D01*
G01*
X91050000Y113500000D01*
G37*
G36*
X91050000Y111700000D02*
G01*
X91050000Y111700000D01*
G75*
G02*
X91050000Y111700000I450000J0D01*
G01*
X91050000Y111700000D01*
G37*
G36*
X91950000Y117400000D02*
G01*
X91950000Y117400000D01*
G75*
G02*
X91950000Y117400000I450000J0D01*
G01*
X91950000Y117400000D01*
G37*
G36*
X91950000Y112600000D02*
G01*
X91950000Y112600000D01*
G75*
G02*
X91950000Y112600000I450000J0D01*
G01*
X91950000Y112600000D01*
G37*
G36*
X92850000Y118300000D02*
G01*
X92850000Y118300000D01*
G75*
G02*
X92850000Y118300000I450000J0D01*
G01*
X92850000Y118300000D01*
G37*
G36*
X92850000Y116500000D02*
G01*
X92850000Y116500000D01*
G75*
G02*
X92850000Y116500000I450000J0D01*
G01*
X92850000Y116500000D01*
G37*
G36*
X92850000Y113500000D02*
G01*
X92850000Y113500000D01*
G75*
G02*
X92850000Y113500000I450000J0D01*
G01*
X92850000Y113500000D01*
G37*
G36*
X92850000Y111700000D02*
G01*
X92850000Y111700000D01*
G75*
G02*
X92850000Y111700000I450000J0D01*
G01*
X92850000Y111700000D01*
G37*
%TO.C,SW53*%
G36*
X106250000Y78300000D02*
G01*
X106250000Y78300000D01*
G75*
G02*
X106250000Y78300000I450000J0D01*
G01*
X106250000Y78300000D01*
G37*
G36*
X106250000Y76500000D02*
G01*
X106250000Y76500000D01*
G75*
G02*
X106250000Y76500000I450000J0D01*
G01*
X106250000Y76500000D01*
G37*
G36*
X106250000Y73500000D02*
G01*
X106250000Y73500000D01*
G75*
G02*
X106250000Y73500000I450000J0D01*
G01*
X106250000Y73500000D01*
G37*
G36*
X106250000Y71700000D02*
G01*
X106250000Y71700000D01*
G75*
G02*
X106250000Y71700000I450000J0D01*
G01*
X106250000Y71700000D01*
G37*
G36*
X107150000Y77400000D02*
G01*
X107150000Y77400000D01*
G75*
G02*
X107150000Y77400000I450000J0D01*
G01*
X107150000Y77400000D01*
G37*
G36*
X107150000Y72600000D02*
G01*
X107150000Y72600000D01*
G75*
G02*
X107150000Y72600000I450000J0D01*
G01*
X107150000Y72600000D01*
G37*
G36*
X108050000Y78300000D02*
G01*
X108050000Y78300000D01*
G75*
G02*
X108050000Y78300000I450000J0D01*
G01*
X108050000Y78300000D01*
G37*
G36*
X108050000Y76500000D02*
G01*
X108050000Y76500000D01*
G75*
G02*
X108050000Y76500000I450000J0D01*
G01*
X108050000Y76500000D01*
G37*
G36*
X108050000Y73500000D02*
G01*
X108050000Y73500000D01*
G75*
G02*
X108050000Y73500000I450000J0D01*
G01*
X108050000Y73500000D01*
G37*
G36*
X108050000Y71700000D02*
G01*
X108050000Y71700000D01*
G75*
G02*
X108050000Y71700000I450000J0D01*
G01*
X108050000Y71700000D01*
G37*
G36*
X111050000Y78300000D02*
G01*
X111050000Y78300000D01*
G75*
G02*
X111050000Y78300000I450000J0D01*
G01*
X111050000Y78300000D01*
G37*
G36*
X111050000Y76500000D02*
G01*
X111050000Y76500000D01*
G75*
G02*
X111050000Y76500000I450000J0D01*
G01*
X111050000Y76500000D01*
G37*
G36*
X111050000Y73500000D02*
G01*
X111050000Y73500000D01*
G75*
G02*
X111050000Y73500000I450000J0D01*
G01*
X111050000Y73500000D01*
G37*
G36*
X111050000Y71700000D02*
G01*
X111050000Y71700000D01*
G75*
G02*
X111050000Y71700000I450000J0D01*
G01*
X111050000Y71700000D01*
G37*
G36*
X111950000Y77400000D02*
G01*
X111950000Y77400000D01*
G75*
G02*
X111950000Y77400000I450000J0D01*
G01*
X111950000Y77400000D01*
G37*
G36*
X111950000Y72600000D02*
G01*
X111950000Y72600000D01*
G75*
G02*
X111950000Y72600000I450000J0D01*
G01*
X111950000Y72600000D01*
G37*
G36*
X112850000Y78300000D02*
G01*
X112850000Y78300000D01*
G75*
G02*
X112850000Y78300000I450000J0D01*
G01*
X112850000Y78300000D01*
G37*
G36*
X112850000Y76500000D02*
G01*
X112850000Y76500000D01*
G75*
G02*
X112850000Y76500000I450000J0D01*
G01*
X112850000Y76500000D01*
G37*
G36*
X112850000Y73500000D02*
G01*
X112850000Y73500000D01*
G75*
G02*
X112850000Y73500000I450000J0D01*
G01*
X112850000Y73500000D01*
G37*
G36*
X112850000Y71700000D02*
G01*
X112850000Y71700000D01*
G75*
G02*
X112850000Y71700000I450000J0D01*
G01*
X112850000Y71700000D01*
G37*
%TO.C,SW7*%
G36*
X126250000Y138300000D02*
G01*
X126250000Y138300000D01*
G75*
G02*
X126250000Y138300000I450000J0D01*
G01*
X126250000Y138300000D01*
G37*
G36*
X126250000Y136500000D02*
G01*
X126250000Y136500000D01*
G75*
G02*
X126250000Y136500000I450000J0D01*
G01*
X126250000Y136500000D01*
G37*
G36*
X126250000Y133500000D02*
G01*
X126250000Y133500000D01*
G75*
G02*
X126250000Y133500000I450000J0D01*
G01*
X126250000Y133500000D01*
G37*
G36*
X126250000Y131700000D02*
G01*
X126250000Y131700000D01*
G75*
G02*
X126250000Y131700000I450000J0D01*
G01*
X126250000Y131700000D01*
G37*
G36*
X127150000Y137400000D02*
G01*
X127150000Y137400000D01*
G75*
G02*
X127150000Y137400000I450000J0D01*
G01*
X127150000Y137400000D01*
G37*
G36*
X127150000Y132600000D02*
G01*
X127150000Y132600000D01*
G75*
G02*
X127150000Y132600000I450000J0D01*
G01*
X127150000Y132600000D01*
G37*
G36*
X128050000Y138300000D02*
G01*
X128050000Y138300000D01*
G75*
G02*
X128050000Y138300000I450000J0D01*
G01*
X128050000Y138300000D01*
G37*
G36*
X128050000Y136500000D02*
G01*
X128050000Y136500000D01*
G75*
G02*
X128050000Y136500000I450000J0D01*
G01*
X128050000Y136500000D01*
G37*
G36*
X128050000Y133500000D02*
G01*
X128050000Y133500000D01*
G75*
G02*
X128050000Y133500000I450000J0D01*
G01*
X128050000Y133500000D01*
G37*
G36*
X128050000Y131700000D02*
G01*
X128050000Y131700000D01*
G75*
G02*
X128050000Y131700000I450000J0D01*
G01*
X128050000Y131700000D01*
G37*
G36*
X131050000Y138300000D02*
G01*
X131050000Y138300000D01*
G75*
G02*
X131050000Y138300000I450000J0D01*
G01*
X131050000Y138300000D01*
G37*
G36*
X131050000Y136500000D02*
G01*
X131050000Y136500000D01*
G75*
G02*
X131050000Y136500000I450000J0D01*
G01*
X131050000Y136500000D01*
G37*
G36*
X131050000Y133500000D02*
G01*
X131050000Y133500000D01*
G75*
G02*
X131050000Y133500000I450000J0D01*
G01*
X131050000Y133500000D01*
G37*
G36*
X131050000Y131700000D02*
G01*
X131050000Y131700000D01*
G75*
G02*
X131050000Y131700000I450000J0D01*
G01*
X131050000Y131700000D01*
G37*
G36*
X131950000Y137400000D02*
G01*
X131950000Y137400000D01*
G75*
G02*
X131950000Y137400000I450000J0D01*
G01*
X131950000Y137400000D01*
G37*
G36*
X131950000Y132600000D02*
G01*
X131950000Y132600000D01*
G75*
G02*
X131950000Y132600000I450000J0D01*
G01*
X131950000Y132600000D01*
G37*
G36*
X132850000Y138300000D02*
G01*
X132850000Y138300000D01*
G75*
G02*
X132850000Y138300000I450000J0D01*
G01*
X132850000Y138300000D01*
G37*
G36*
X132850000Y136500000D02*
G01*
X132850000Y136500000D01*
G75*
G02*
X132850000Y136500000I450000J0D01*
G01*
X132850000Y136500000D01*
G37*
G36*
X132850000Y133500000D02*
G01*
X132850000Y133500000D01*
G75*
G02*
X132850000Y133500000I450000J0D01*
G01*
X132850000Y133500000D01*
G37*
G36*
X132850000Y131700000D02*
G01*
X132850000Y131700000D01*
G75*
G02*
X132850000Y131700000I450000J0D01*
G01*
X132850000Y131700000D01*
G37*
%TO.C,SW18*%
G36*
X76250000Y118300000D02*
G01*
X76250000Y118300000D01*
G75*
G02*
X76250000Y118300000I450000J0D01*
G01*
X76250000Y118300000D01*
G37*
G36*
X76250000Y116500000D02*
G01*
X76250000Y116500000D01*
G75*
G02*
X76250000Y116500000I450000J0D01*
G01*
X76250000Y116500000D01*
G37*
G36*
X76250000Y113500000D02*
G01*
X76250000Y113500000D01*
G75*
G02*
X76250000Y113500000I450000J0D01*
G01*
X76250000Y113500000D01*
G37*
G36*
X76250000Y111700000D02*
G01*
X76250000Y111700000D01*
G75*
G02*
X76250000Y111700000I450000J0D01*
G01*
X76250000Y111700000D01*
G37*
G36*
X77150000Y117400000D02*
G01*
X77150000Y117400000D01*
G75*
G02*
X77150000Y117400000I450000J0D01*
G01*
X77150000Y117400000D01*
G37*
G36*
X77150000Y112600000D02*
G01*
X77150000Y112600000D01*
G75*
G02*
X77150000Y112600000I450000J0D01*
G01*
X77150000Y112600000D01*
G37*
G36*
X78050000Y118300000D02*
G01*
X78050000Y118300000D01*
G75*
G02*
X78050000Y118300000I450000J0D01*
G01*
X78050000Y118300000D01*
G37*
G36*
X78050000Y116500000D02*
G01*
X78050000Y116500000D01*
G75*
G02*
X78050000Y116500000I450000J0D01*
G01*
X78050000Y116500000D01*
G37*
G36*
X78050000Y113500000D02*
G01*
X78050000Y113500000D01*
G75*
G02*
X78050000Y113500000I450000J0D01*
G01*
X78050000Y113500000D01*
G37*
G36*
X78050000Y111700000D02*
G01*
X78050000Y111700000D01*
G75*
G02*
X78050000Y111700000I450000J0D01*
G01*
X78050000Y111700000D01*
G37*
G36*
X81050000Y118300000D02*
G01*
X81050000Y118300000D01*
G75*
G02*
X81050000Y118300000I450000J0D01*
G01*
X81050000Y118300000D01*
G37*
G36*
X81050000Y116500000D02*
G01*
X81050000Y116500000D01*
G75*
G02*
X81050000Y116500000I450000J0D01*
G01*
X81050000Y116500000D01*
G37*
G36*
X81050000Y113500000D02*
G01*
X81050000Y113500000D01*
G75*
G02*
X81050000Y113500000I450000J0D01*
G01*
X81050000Y113500000D01*
G37*
G36*
X81050000Y111700000D02*
G01*
X81050000Y111700000D01*
G75*
G02*
X81050000Y111700000I450000J0D01*
G01*
X81050000Y111700000D01*
G37*
G36*
X81950000Y117400000D02*
G01*
X81950000Y117400000D01*
G75*
G02*
X81950000Y117400000I450000J0D01*
G01*
X81950000Y117400000D01*
G37*
G36*
X81950000Y112600000D02*
G01*
X81950000Y112600000D01*
G75*
G02*
X81950000Y112600000I450000J0D01*
G01*
X81950000Y112600000D01*
G37*
G36*
X82850000Y118300000D02*
G01*
X82850000Y118300000D01*
G75*
G02*
X82850000Y118300000I450000J0D01*
G01*
X82850000Y118300000D01*
G37*
G36*
X82850000Y116500000D02*
G01*
X82850000Y116500000D01*
G75*
G02*
X82850000Y116500000I450000J0D01*
G01*
X82850000Y116500000D01*
G37*
G36*
X82850000Y113500000D02*
G01*
X82850000Y113500000D01*
G75*
G02*
X82850000Y113500000I450000J0D01*
G01*
X82850000Y113500000D01*
G37*
G36*
X82850000Y111700000D02*
G01*
X82850000Y111700000D01*
G75*
G02*
X82850000Y111700000I450000J0D01*
G01*
X82850000Y111700000D01*
G37*
%TO.C,SW1*%
G36*
X66250000Y138300000D02*
G01*
X66250000Y138300000D01*
G75*
G02*
X66250000Y138300000I450000J0D01*
G01*
X66250000Y138300000D01*
G37*
G36*
X66250000Y136500000D02*
G01*
X66250000Y136500000D01*
G75*
G02*
X66250000Y136500000I450000J0D01*
G01*
X66250000Y136500000D01*
G37*
G36*
X66250000Y133500000D02*
G01*
X66250000Y133500000D01*
G75*
G02*
X66250000Y133500000I450000J0D01*
G01*
X66250000Y133500000D01*
G37*
G36*
X66250000Y131700000D02*
G01*
X66250000Y131700000D01*
G75*
G02*
X66250000Y131700000I450000J0D01*
G01*
X66250000Y131700000D01*
G37*
G36*
X67150000Y137400000D02*
G01*
X67150000Y137400000D01*
G75*
G02*
X67150000Y137400000I450000J0D01*
G01*
X67150000Y137400000D01*
G37*
G36*
X67150000Y132600000D02*
G01*
X67150000Y132600000D01*
G75*
G02*
X67150000Y132600000I450000J0D01*
G01*
X67150000Y132600000D01*
G37*
G36*
X68050000Y138300000D02*
G01*
X68050000Y138300000D01*
G75*
G02*
X68050000Y138300000I450000J0D01*
G01*
X68050000Y138300000D01*
G37*
G36*
X68050000Y136500000D02*
G01*
X68050000Y136500000D01*
G75*
G02*
X68050000Y136500000I450000J0D01*
G01*
X68050000Y136500000D01*
G37*
G36*
X68050000Y133500000D02*
G01*
X68050000Y133500000D01*
G75*
G02*
X68050000Y133500000I450000J0D01*
G01*
X68050000Y133500000D01*
G37*
G36*
X68050000Y131700000D02*
G01*
X68050000Y131700000D01*
G75*
G02*
X68050000Y131700000I450000J0D01*
G01*
X68050000Y131700000D01*
G37*
G36*
X71050000Y138300000D02*
G01*
X71050000Y138300000D01*
G75*
G02*
X71050000Y138300000I450000J0D01*
G01*
X71050000Y138300000D01*
G37*
G36*
X71050000Y136500000D02*
G01*
X71050000Y136500000D01*
G75*
G02*
X71050000Y136500000I450000J0D01*
G01*
X71050000Y136500000D01*
G37*
G36*
X71050000Y133500000D02*
G01*
X71050000Y133500000D01*
G75*
G02*
X71050000Y133500000I450000J0D01*
G01*
X71050000Y133500000D01*
G37*
G36*
X71050000Y131700000D02*
G01*
X71050000Y131700000D01*
G75*
G02*
X71050000Y131700000I450000J0D01*
G01*
X71050000Y131700000D01*
G37*
G36*
X71950000Y137400000D02*
G01*
X71950000Y137400000D01*
G75*
G02*
X71950000Y137400000I450000J0D01*
G01*
X71950000Y137400000D01*
G37*
G36*
X71950000Y132600000D02*
G01*
X71950000Y132600000D01*
G75*
G02*
X71950000Y132600000I450000J0D01*
G01*
X71950000Y132600000D01*
G37*
G36*
X72850000Y138300000D02*
G01*
X72850000Y138300000D01*
G75*
G02*
X72850000Y138300000I450000J0D01*
G01*
X72850000Y138300000D01*
G37*
G36*
X72850000Y136500000D02*
G01*
X72850000Y136500000D01*
G75*
G02*
X72850000Y136500000I450000J0D01*
G01*
X72850000Y136500000D01*
G37*
G36*
X72850000Y133500000D02*
G01*
X72850000Y133500000D01*
G75*
G02*
X72850000Y133500000I450000J0D01*
G01*
X72850000Y133500000D01*
G37*
G36*
X72850000Y131700000D02*
G01*
X72850000Y131700000D01*
G75*
G02*
X72850000Y131700000I450000J0D01*
G01*
X72850000Y131700000D01*
G37*
%TO.C,SW24*%
G36*
X136250000Y118300000D02*
G01*
X136250000Y118300000D01*
G75*
G02*
X136250000Y118300000I450000J0D01*
G01*
X136250000Y118300000D01*
G37*
G36*
X136250000Y116500000D02*
G01*
X136250000Y116500000D01*
G75*
G02*
X136250000Y116500000I450000J0D01*
G01*
X136250000Y116500000D01*
G37*
G36*
X136250000Y113500000D02*
G01*
X136250000Y113500000D01*
G75*
G02*
X136250000Y113500000I450000J0D01*
G01*
X136250000Y113500000D01*
G37*
G36*
X136250000Y111700000D02*
G01*
X136250000Y111700000D01*
G75*
G02*
X136250000Y111700000I450000J0D01*
G01*
X136250000Y111700000D01*
G37*
G36*
X137150000Y117400000D02*
G01*
X137150000Y117400000D01*
G75*
G02*
X137150000Y117400000I450000J0D01*
G01*
X137150000Y117400000D01*
G37*
G36*
X137150000Y112600000D02*
G01*
X137150000Y112600000D01*
G75*
G02*
X137150000Y112600000I450000J0D01*
G01*
X137150000Y112600000D01*
G37*
G36*
X138050000Y118300000D02*
G01*
X138050000Y118300000D01*
G75*
G02*
X138050000Y118300000I450000J0D01*
G01*
X138050000Y118300000D01*
G37*
G36*
X138050000Y116500000D02*
G01*
X138050000Y116500000D01*
G75*
G02*
X138050000Y116500000I450000J0D01*
G01*
X138050000Y116500000D01*
G37*
G36*
X138050000Y113500000D02*
G01*
X138050000Y113500000D01*
G75*
G02*
X138050000Y113500000I450000J0D01*
G01*
X138050000Y113500000D01*
G37*
G36*
X138050000Y111700000D02*
G01*
X138050000Y111700000D01*
G75*
G02*
X138050000Y111700000I450000J0D01*
G01*
X138050000Y111700000D01*
G37*
G36*
X141050000Y118300000D02*
G01*
X141050000Y118300000D01*
G75*
G02*
X141050000Y118300000I450000J0D01*
G01*
X141050000Y118300000D01*
G37*
G36*
X141050000Y116500000D02*
G01*
X141050000Y116500000D01*
G75*
G02*
X141050000Y116500000I450000J0D01*
G01*
X141050000Y116500000D01*
G37*
G36*
X141050000Y113500000D02*
G01*
X141050000Y113500000D01*
G75*
G02*
X141050000Y113500000I450000J0D01*
G01*
X141050000Y113500000D01*
G37*
G36*
X141050000Y111700000D02*
G01*
X141050000Y111700000D01*
G75*
G02*
X141050000Y111700000I450000J0D01*
G01*
X141050000Y111700000D01*
G37*
G36*
X141950000Y117400000D02*
G01*
X141950000Y117400000D01*
G75*
G02*
X141950000Y117400000I450000J0D01*
G01*
X141950000Y117400000D01*
G37*
G36*
X141950000Y112600000D02*
G01*
X141950000Y112600000D01*
G75*
G02*
X141950000Y112600000I450000J0D01*
G01*
X141950000Y112600000D01*
G37*
G36*
X142850000Y118300000D02*
G01*
X142850000Y118300000D01*
G75*
G02*
X142850000Y118300000I450000J0D01*
G01*
X142850000Y118300000D01*
G37*
G36*
X142850000Y116500000D02*
G01*
X142850000Y116500000D01*
G75*
G02*
X142850000Y116500000I450000J0D01*
G01*
X142850000Y116500000D01*
G37*
G36*
X142850000Y113500000D02*
G01*
X142850000Y113500000D01*
G75*
G02*
X142850000Y113500000I450000J0D01*
G01*
X142850000Y113500000D01*
G37*
G36*
X142850000Y111700000D02*
G01*
X142850000Y111700000D01*
G75*
G02*
X142850000Y111700000I450000J0D01*
G01*
X142850000Y111700000D01*
G37*
%TO.C,SW16*%
G36*
X136250000Y128300000D02*
G01*
X136250000Y128300000D01*
G75*
G02*
X136250000Y128300000I450000J0D01*
G01*
X136250000Y128300000D01*
G37*
G36*
X136250000Y126500000D02*
G01*
X136250000Y126500000D01*
G75*
G02*
X136250000Y126500000I450000J0D01*
G01*
X136250000Y126500000D01*
G37*
G36*
X136250000Y123500000D02*
G01*
X136250000Y123500000D01*
G75*
G02*
X136250000Y123500000I450000J0D01*
G01*
X136250000Y123500000D01*
G37*
G36*
X136250000Y121700000D02*
G01*
X136250000Y121700000D01*
G75*
G02*
X136250000Y121700000I450000J0D01*
G01*
X136250000Y121700000D01*
G37*
G36*
X137150000Y127400000D02*
G01*
X137150000Y127400000D01*
G75*
G02*
X137150000Y127400000I450000J0D01*
G01*
X137150000Y127400000D01*
G37*
G36*
X137150000Y122600000D02*
G01*
X137150000Y122600000D01*
G75*
G02*
X137150000Y122600000I450000J0D01*
G01*
X137150000Y122600000D01*
G37*
G36*
X138050000Y128300000D02*
G01*
X138050000Y128300000D01*
G75*
G02*
X138050000Y128300000I450000J0D01*
G01*
X138050000Y128300000D01*
G37*
G36*
X138050000Y126500000D02*
G01*
X138050000Y126500000D01*
G75*
G02*
X138050000Y126500000I450000J0D01*
G01*
X138050000Y126500000D01*
G37*
G36*
X138050000Y123500000D02*
G01*
X138050000Y123500000D01*
G75*
G02*
X138050000Y123500000I450000J0D01*
G01*
X138050000Y123500000D01*
G37*
G36*
X138050000Y121700000D02*
G01*
X138050000Y121700000D01*
G75*
G02*
X138050000Y121700000I450000J0D01*
G01*
X138050000Y121700000D01*
G37*
G36*
X141050000Y128300000D02*
G01*
X141050000Y128300000D01*
G75*
G02*
X141050000Y128300000I450000J0D01*
G01*
X141050000Y128300000D01*
G37*
G36*
X141050000Y126500000D02*
G01*
X141050000Y126500000D01*
G75*
G02*
X141050000Y126500000I450000J0D01*
G01*
X141050000Y126500000D01*
G37*
G36*
X141050000Y123500000D02*
G01*
X141050000Y123500000D01*
G75*
G02*
X141050000Y123500000I450000J0D01*
G01*
X141050000Y123500000D01*
G37*
G36*
X141050000Y121700000D02*
G01*
X141050000Y121700000D01*
G75*
G02*
X141050000Y121700000I450000J0D01*
G01*
X141050000Y121700000D01*
G37*
G36*
X141950000Y127400000D02*
G01*
X141950000Y127400000D01*
G75*
G02*
X141950000Y127400000I450000J0D01*
G01*
X141950000Y127400000D01*
G37*
G36*
X141950000Y122600000D02*
G01*
X141950000Y122600000D01*
G75*
G02*
X141950000Y122600000I450000J0D01*
G01*
X141950000Y122600000D01*
G37*
G36*
X142850000Y128300000D02*
G01*
X142850000Y128300000D01*
G75*
G02*
X142850000Y128300000I450000J0D01*
G01*
X142850000Y128300000D01*
G37*
G36*
X142850000Y126500000D02*
G01*
X142850000Y126500000D01*
G75*
G02*
X142850000Y126500000I450000J0D01*
G01*
X142850000Y126500000D01*
G37*
G36*
X142850000Y123500000D02*
G01*
X142850000Y123500000D01*
G75*
G02*
X142850000Y123500000I450000J0D01*
G01*
X142850000Y123500000D01*
G37*
G36*
X142850000Y121700000D02*
G01*
X142850000Y121700000D01*
G75*
G02*
X142850000Y121700000I450000J0D01*
G01*
X142850000Y121700000D01*
G37*
%TO.C,SW34*%
G36*
X76250000Y98300000D02*
G01*
X76250000Y98300000D01*
G75*
G02*
X76250000Y98300000I450000J0D01*
G01*
X76250000Y98300000D01*
G37*
G36*
X76250000Y96500000D02*
G01*
X76250000Y96500000D01*
G75*
G02*
X76250000Y96500000I450000J0D01*
G01*
X76250000Y96500000D01*
G37*
G36*
X76250000Y93500000D02*
G01*
X76250000Y93500000D01*
G75*
G02*
X76250000Y93500000I450000J0D01*
G01*
X76250000Y93500000D01*
G37*
G36*
X76250000Y91700000D02*
G01*
X76250000Y91700000D01*
G75*
G02*
X76250000Y91700000I450000J0D01*
G01*
X76250000Y91700000D01*
G37*
G36*
X77150000Y97400000D02*
G01*
X77150000Y97400000D01*
G75*
G02*
X77150000Y97400000I450000J0D01*
G01*
X77150000Y97400000D01*
G37*
G36*
X77150000Y92600000D02*
G01*
X77150000Y92600000D01*
G75*
G02*
X77150000Y92600000I450000J0D01*
G01*
X77150000Y92600000D01*
G37*
G36*
X78050000Y98300000D02*
G01*
X78050000Y98300000D01*
G75*
G02*
X78050000Y98300000I450000J0D01*
G01*
X78050000Y98300000D01*
G37*
G36*
X78050000Y96500000D02*
G01*
X78050000Y96500000D01*
G75*
G02*
X78050000Y96500000I450000J0D01*
G01*
X78050000Y96500000D01*
G37*
G36*
X78050000Y93500000D02*
G01*
X78050000Y93500000D01*
G75*
G02*
X78050000Y93500000I450000J0D01*
G01*
X78050000Y93500000D01*
G37*
G36*
X78050000Y91700000D02*
G01*
X78050000Y91700000D01*
G75*
G02*
X78050000Y91700000I450000J0D01*
G01*
X78050000Y91700000D01*
G37*
G36*
X81050000Y98300000D02*
G01*
X81050000Y98300000D01*
G75*
G02*
X81050000Y98300000I450000J0D01*
G01*
X81050000Y98300000D01*
G37*
G36*
X81050000Y96500000D02*
G01*
X81050000Y96500000D01*
G75*
G02*
X81050000Y96500000I450000J0D01*
G01*
X81050000Y96500000D01*
G37*
G36*
X81050000Y93500000D02*
G01*
X81050000Y93500000D01*
G75*
G02*
X81050000Y93500000I450000J0D01*
G01*
X81050000Y93500000D01*
G37*
G36*
X81050000Y91700000D02*
G01*
X81050000Y91700000D01*
G75*
G02*
X81050000Y91700000I450000J0D01*
G01*
X81050000Y91700000D01*
G37*
G36*
X81950000Y97400000D02*
G01*
X81950000Y97400000D01*
G75*
G02*
X81950000Y97400000I450000J0D01*
G01*
X81950000Y97400000D01*
G37*
G36*
X81950000Y92600000D02*
G01*
X81950000Y92600000D01*
G75*
G02*
X81950000Y92600000I450000J0D01*
G01*
X81950000Y92600000D01*
G37*
G36*
X82850000Y98300000D02*
G01*
X82850000Y98300000D01*
G75*
G02*
X82850000Y98300000I450000J0D01*
G01*
X82850000Y98300000D01*
G37*
G36*
X82850000Y96500000D02*
G01*
X82850000Y96500000D01*
G75*
G02*
X82850000Y96500000I450000J0D01*
G01*
X82850000Y96500000D01*
G37*
G36*
X82850000Y93500000D02*
G01*
X82850000Y93500000D01*
G75*
G02*
X82850000Y93500000I450000J0D01*
G01*
X82850000Y93500000D01*
G37*
G36*
X82850000Y91700000D02*
G01*
X82850000Y91700000D01*
G75*
G02*
X82850000Y91700000I450000J0D01*
G01*
X82850000Y91700000D01*
G37*
%TO.C,SW43*%
G36*
X86250000Y88300000D02*
G01*
X86250000Y88300000D01*
G75*
G02*
X86250000Y88300000I450000J0D01*
G01*
X86250000Y88300000D01*
G37*
G36*
X86250000Y86500000D02*
G01*
X86250000Y86500000D01*
G75*
G02*
X86250000Y86500000I450000J0D01*
G01*
X86250000Y86500000D01*
G37*
G36*
X86250000Y83500000D02*
G01*
X86250000Y83500000D01*
G75*
G02*
X86250000Y83500000I450000J0D01*
G01*
X86250000Y83500000D01*
G37*
G36*
X86250000Y81700000D02*
G01*
X86250000Y81700000D01*
G75*
G02*
X86250000Y81700000I450000J0D01*
G01*
X86250000Y81700000D01*
G37*
G36*
X87150000Y87400000D02*
G01*
X87150000Y87400000D01*
G75*
G02*
X87150000Y87400000I450000J0D01*
G01*
X87150000Y87400000D01*
G37*
G36*
X87150000Y82600000D02*
G01*
X87150000Y82600000D01*
G75*
G02*
X87150000Y82600000I450000J0D01*
G01*
X87150000Y82600000D01*
G37*
G36*
X88050000Y88300000D02*
G01*
X88050000Y88300000D01*
G75*
G02*
X88050000Y88300000I450000J0D01*
G01*
X88050000Y88300000D01*
G37*
G36*
X88050000Y86500000D02*
G01*
X88050000Y86500000D01*
G75*
G02*
X88050000Y86500000I450000J0D01*
G01*
X88050000Y86500000D01*
G37*
G36*
X88050000Y83500000D02*
G01*
X88050000Y83500000D01*
G75*
G02*
X88050000Y83500000I450000J0D01*
G01*
X88050000Y83500000D01*
G37*
G36*
X88050000Y81700000D02*
G01*
X88050000Y81700000D01*
G75*
G02*
X88050000Y81700000I450000J0D01*
G01*
X88050000Y81700000D01*
G37*
G36*
X91050000Y88300000D02*
G01*
X91050000Y88300000D01*
G75*
G02*
X91050000Y88300000I450000J0D01*
G01*
X91050000Y88300000D01*
G37*
G36*
X91050000Y86500000D02*
G01*
X91050000Y86500000D01*
G75*
G02*
X91050000Y86500000I450000J0D01*
G01*
X91050000Y86500000D01*
G37*
G36*
X91050000Y83500000D02*
G01*
X91050000Y83500000D01*
G75*
G02*
X91050000Y83500000I450000J0D01*
G01*
X91050000Y83500000D01*
G37*
G36*
X91050000Y81700000D02*
G01*
X91050000Y81700000D01*
G75*
G02*
X91050000Y81700000I450000J0D01*
G01*
X91050000Y81700000D01*
G37*
G36*
X91950000Y87400000D02*
G01*
X91950000Y87400000D01*
G75*
G02*
X91950000Y87400000I450000J0D01*
G01*
X91950000Y87400000D01*
G37*
G36*
X91950000Y82600000D02*
G01*
X91950000Y82600000D01*
G75*
G02*
X91950000Y82600000I450000J0D01*
G01*
X91950000Y82600000D01*
G37*
G36*
X92850000Y88300000D02*
G01*
X92850000Y88300000D01*
G75*
G02*
X92850000Y88300000I450000J0D01*
G01*
X92850000Y88300000D01*
G37*
G36*
X92850000Y86500000D02*
G01*
X92850000Y86500000D01*
G75*
G02*
X92850000Y86500000I450000J0D01*
G01*
X92850000Y86500000D01*
G37*
G36*
X92850000Y83500000D02*
G01*
X92850000Y83500000D01*
G75*
G02*
X92850000Y83500000I450000J0D01*
G01*
X92850000Y83500000D01*
G37*
G36*
X92850000Y81700000D02*
G01*
X92850000Y81700000D01*
G75*
G02*
X92850000Y81700000I450000J0D01*
G01*
X92850000Y81700000D01*
G37*
%TO.C,SW61*%
G36*
X106250000Y68300000D02*
G01*
X106250000Y68300000D01*
G75*
G02*
X106250000Y68300000I450000J0D01*
G01*
X106250000Y68300000D01*
G37*
G36*
X106250000Y66500000D02*
G01*
X106250000Y66500000D01*
G75*
G02*
X106250000Y66500000I450000J0D01*
G01*
X106250000Y66500000D01*
G37*
G36*
X106250000Y63500000D02*
G01*
X106250000Y63500000D01*
G75*
G02*
X106250000Y63500000I450000J0D01*
G01*
X106250000Y63500000D01*
G37*
G36*
X106250000Y61700000D02*
G01*
X106250000Y61700000D01*
G75*
G02*
X106250000Y61700000I450000J0D01*
G01*
X106250000Y61700000D01*
G37*
G36*
X107150000Y67400000D02*
G01*
X107150000Y67400000D01*
G75*
G02*
X107150000Y67400000I450000J0D01*
G01*
X107150000Y67400000D01*
G37*
G36*
X107150000Y62600000D02*
G01*
X107150000Y62600000D01*
G75*
G02*
X107150000Y62600000I450000J0D01*
G01*
X107150000Y62600000D01*
G37*
G36*
X108050000Y68300000D02*
G01*
X108050000Y68300000D01*
G75*
G02*
X108050000Y68300000I450000J0D01*
G01*
X108050000Y68300000D01*
G37*
G36*
X108050000Y66500000D02*
G01*
X108050000Y66500000D01*
G75*
G02*
X108050000Y66500000I450000J0D01*
G01*
X108050000Y66500000D01*
G37*
G36*
X108050000Y63500000D02*
G01*
X108050000Y63500000D01*
G75*
G02*
X108050000Y63500000I450000J0D01*
G01*
X108050000Y63500000D01*
G37*
G36*
X108050000Y61700000D02*
G01*
X108050000Y61700000D01*
G75*
G02*
X108050000Y61700000I450000J0D01*
G01*
X108050000Y61700000D01*
G37*
G36*
X111050000Y68300000D02*
G01*
X111050000Y68300000D01*
G75*
G02*
X111050000Y68300000I450000J0D01*
G01*
X111050000Y68300000D01*
G37*
G36*
X111050000Y66500000D02*
G01*
X111050000Y66500000D01*
G75*
G02*
X111050000Y66500000I450000J0D01*
G01*
X111050000Y66500000D01*
G37*
G36*
X111050000Y63500000D02*
G01*
X111050000Y63500000D01*
G75*
G02*
X111050000Y63500000I450000J0D01*
G01*
X111050000Y63500000D01*
G37*
G36*
X111050000Y61700000D02*
G01*
X111050000Y61700000D01*
G75*
G02*
X111050000Y61700000I450000J0D01*
G01*
X111050000Y61700000D01*
G37*
G36*
X111950000Y67400000D02*
G01*
X111950000Y67400000D01*
G75*
G02*
X111950000Y67400000I450000J0D01*
G01*
X111950000Y67400000D01*
G37*
G36*
X111950000Y62600000D02*
G01*
X111950000Y62600000D01*
G75*
G02*
X111950000Y62600000I450000J0D01*
G01*
X111950000Y62600000D01*
G37*
G36*
X112850000Y68300000D02*
G01*
X112850000Y68300000D01*
G75*
G02*
X112850000Y68300000I450000J0D01*
G01*
X112850000Y68300000D01*
G37*
G36*
X112850000Y66500000D02*
G01*
X112850000Y66500000D01*
G75*
G02*
X112850000Y66500000I450000J0D01*
G01*
X112850000Y66500000D01*
G37*
G36*
X112850000Y63500000D02*
G01*
X112850000Y63500000D01*
G75*
G02*
X112850000Y63500000I450000J0D01*
G01*
X112850000Y63500000D01*
G37*
G36*
X112850000Y61700000D02*
G01*
X112850000Y61700000D01*
G75*
G02*
X112850000Y61700000I450000J0D01*
G01*
X112850000Y61700000D01*
G37*
%TO.C,SW42*%
G36*
X76250000Y88300000D02*
G01*
X76250000Y88300000D01*
G75*
G02*
X76250000Y88300000I450000J0D01*
G01*
X76250000Y88300000D01*
G37*
G36*
X76250000Y86500000D02*
G01*
X76250000Y86500000D01*
G75*
G02*
X76250000Y86500000I450000J0D01*
G01*
X76250000Y86500000D01*
G37*
G36*
X76250000Y83500000D02*
G01*
X76250000Y83500000D01*
G75*
G02*
X76250000Y83500000I450000J0D01*
G01*
X76250000Y83500000D01*
G37*
G36*
X76250000Y81700000D02*
G01*
X76250000Y81700000D01*
G75*
G02*
X76250000Y81700000I450000J0D01*
G01*
X76250000Y81700000D01*
G37*
G36*
X77150000Y87400000D02*
G01*
X77150000Y87400000D01*
G75*
G02*
X77150000Y87400000I450000J0D01*
G01*
X77150000Y87400000D01*
G37*
G36*
X77150000Y82600000D02*
G01*
X77150000Y82600000D01*
G75*
G02*
X77150000Y82600000I450000J0D01*
G01*
X77150000Y82600000D01*
G37*
G36*
X78050000Y88300000D02*
G01*
X78050000Y88300000D01*
G75*
G02*
X78050000Y88300000I450000J0D01*
G01*
X78050000Y88300000D01*
G37*
G36*
X78050000Y86500000D02*
G01*
X78050000Y86500000D01*
G75*
G02*
X78050000Y86500000I450000J0D01*
G01*
X78050000Y86500000D01*
G37*
G36*
X78050000Y83500000D02*
G01*
X78050000Y83500000D01*
G75*
G02*
X78050000Y83500000I450000J0D01*
G01*
X78050000Y83500000D01*
G37*
G36*
X78050000Y81700000D02*
G01*
X78050000Y81700000D01*
G75*
G02*
X78050000Y81700000I450000J0D01*
G01*
X78050000Y81700000D01*
G37*
G36*
X81050000Y88300000D02*
G01*
X81050000Y88300000D01*
G75*
G02*
X81050000Y88300000I450000J0D01*
G01*
X81050000Y88300000D01*
G37*
G36*
X81050000Y86500000D02*
G01*
X81050000Y86500000D01*
G75*
G02*
X81050000Y86500000I450000J0D01*
G01*
X81050000Y86500000D01*
G37*
G36*
X81050000Y83500000D02*
G01*
X81050000Y83500000D01*
G75*
G02*
X81050000Y83500000I450000J0D01*
G01*
X81050000Y83500000D01*
G37*
G36*
X81050000Y81700000D02*
G01*
X81050000Y81700000D01*
G75*
G02*
X81050000Y81700000I450000J0D01*
G01*
X81050000Y81700000D01*
G37*
G36*
X81950000Y87400000D02*
G01*
X81950000Y87400000D01*
G75*
G02*
X81950000Y87400000I450000J0D01*
G01*
X81950000Y87400000D01*
G37*
G36*
X81950000Y82600000D02*
G01*
X81950000Y82600000D01*
G75*
G02*
X81950000Y82600000I450000J0D01*
G01*
X81950000Y82600000D01*
G37*
G36*
X82850000Y88300000D02*
G01*
X82850000Y88300000D01*
G75*
G02*
X82850000Y88300000I450000J0D01*
G01*
X82850000Y88300000D01*
G37*
G36*
X82850000Y86500000D02*
G01*
X82850000Y86500000D01*
G75*
G02*
X82850000Y86500000I450000J0D01*
G01*
X82850000Y86500000D01*
G37*
G36*
X82850000Y83500000D02*
G01*
X82850000Y83500000D01*
G75*
G02*
X82850000Y83500000I450000J0D01*
G01*
X82850000Y83500000D01*
G37*
G36*
X82850000Y81700000D02*
G01*
X82850000Y81700000D01*
G75*
G02*
X82850000Y81700000I450000J0D01*
G01*
X82850000Y81700000D01*
G37*
%TO.C,SW56*%
G36*
X136250000Y78300000D02*
G01*
X136250000Y78300000D01*
G75*
G02*
X136250000Y78300000I450000J0D01*
G01*
X136250000Y78300000D01*
G37*
G36*
X136250000Y76500000D02*
G01*
X136250000Y76500000D01*
G75*
G02*
X136250000Y76500000I450000J0D01*
G01*
X136250000Y76500000D01*
G37*
G36*
X136250000Y73500000D02*
G01*
X136250000Y73500000D01*
G75*
G02*
X136250000Y73500000I450000J0D01*
G01*
X136250000Y73500000D01*
G37*
G36*
X136250000Y71700000D02*
G01*
X136250000Y71700000D01*
G75*
G02*
X136250000Y71700000I450000J0D01*
G01*
X136250000Y71700000D01*
G37*
G36*
X137150000Y77400000D02*
G01*
X137150000Y77400000D01*
G75*
G02*
X137150000Y77400000I450000J0D01*
G01*
X137150000Y77400000D01*
G37*
G36*
X137150000Y72600000D02*
G01*
X137150000Y72600000D01*
G75*
G02*
X137150000Y72600000I450000J0D01*
G01*
X137150000Y72600000D01*
G37*
G36*
X138050000Y78300000D02*
G01*
X138050000Y78300000D01*
G75*
G02*
X138050000Y78300000I450000J0D01*
G01*
X138050000Y78300000D01*
G37*
G36*
X138050000Y76500000D02*
G01*
X138050000Y76500000D01*
G75*
G02*
X138050000Y76500000I450000J0D01*
G01*
X138050000Y76500000D01*
G37*
G36*
X138050000Y73500000D02*
G01*
X138050000Y73500000D01*
G75*
G02*
X138050000Y73500000I450000J0D01*
G01*
X138050000Y73500000D01*
G37*
G36*
X138050000Y71700000D02*
G01*
X138050000Y71700000D01*
G75*
G02*
X138050000Y71700000I450000J0D01*
G01*
X138050000Y71700000D01*
G37*
G36*
X141050000Y78300000D02*
G01*
X141050000Y78300000D01*
G75*
G02*
X141050000Y78300000I450000J0D01*
G01*
X141050000Y78300000D01*
G37*
G36*
X141050000Y76500000D02*
G01*
X141050000Y76500000D01*
G75*
G02*
X141050000Y76500000I450000J0D01*
G01*
X141050000Y76500000D01*
G37*
G36*
X141050000Y73500000D02*
G01*
X141050000Y73500000D01*
G75*
G02*
X141050000Y73500000I450000J0D01*
G01*
X141050000Y73500000D01*
G37*
G36*
X141050000Y71700000D02*
G01*
X141050000Y71700000D01*
G75*
G02*
X141050000Y71700000I450000J0D01*
G01*
X141050000Y71700000D01*
G37*
G36*
X141950000Y77400000D02*
G01*
X141950000Y77400000D01*
G75*
G02*
X141950000Y77400000I450000J0D01*
G01*
X141950000Y77400000D01*
G37*
G36*
X141950000Y72600000D02*
G01*
X141950000Y72600000D01*
G75*
G02*
X141950000Y72600000I450000J0D01*
G01*
X141950000Y72600000D01*
G37*
G36*
X142850000Y78300000D02*
G01*
X142850000Y78300000D01*
G75*
G02*
X142850000Y78300000I450000J0D01*
G01*
X142850000Y78300000D01*
G37*
G36*
X142850000Y76500000D02*
G01*
X142850000Y76500000D01*
G75*
G02*
X142850000Y76500000I450000J0D01*
G01*
X142850000Y76500000D01*
G37*
G36*
X142850000Y73500000D02*
G01*
X142850000Y73500000D01*
G75*
G02*
X142850000Y73500000I450000J0D01*
G01*
X142850000Y73500000D01*
G37*
G36*
X142850000Y71700000D02*
G01*
X142850000Y71700000D01*
G75*
G02*
X142850000Y71700000I450000J0D01*
G01*
X142850000Y71700000D01*
G37*
%TO.C,SW28*%
G36*
X96250000Y108300000D02*
G01*
X96250000Y108300000D01*
G75*
G02*
X96250000Y108300000I450000J0D01*
G01*
X96250000Y108300000D01*
G37*
G36*
X96250000Y106500000D02*
G01*
X96250000Y106500000D01*
G75*
G02*
X96250000Y106500000I450000J0D01*
G01*
X96250000Y106500000D01*
G37*
G36*
X96250000Y103500000D02*
G01*
X96250000Y103500000D01*
G75*
G02*
X96250000Y103500000I450000J0D01*
G01*
X96250000Y103500000D01*
G37*
G36*
X96250000Y101700000D02*
G01*
X96250000Y101700000D01*
G75*
G02*
X96250000Y101700000I450000J0D01*
G01*
X96250000Y101700000D01*
G37*
G36*
X97150000Y107400000D02*
G01*
X97150000Y107400000D01*
G75*
G02*
X97150000Y107400000I450000J0D01*
G01*
X97150000Y107400000D01*
G37*
G36*
X97150000Y102600000D02*
G01*
X97150000Y102600000D01*
G75*
G02*
X97150000Y102600000I450000J0D01*
G01*
X97150000Y102600000D01*
G37*
G36*
X98050000Y108300000D02*
G01*
X98050000Y108300000D01*
G75*
G02*
X98050000Y108300000I450000J0D01*
G01*
X98050000Y108300000D01*
G37*
G36*
X98050000Y106500000D02*
G01*
X98050000Y106500000D01*
G75*
G02*
X98050000Y106500000I450000J0D01*
G01*
X98050000Y106500000D01*
G37*
G36*
X98050000Y103500000D02*
G01*
X98050000Y103500000D01*
G75*
G02*
X98050000Y103500000I450000J0D01*
G01*
X98050000Y103500000D01*
G37*
G36*
X98050000Y101700000D02*
G01*
X98050000Y101700000D01*
G75*
G02*
X98050000Y101700000I450000J0D01*
G01*
X98050000Y101700000D01*
G37*
G36*
X101050000Y108300000D02*
G01*
X101050000Y108300000D01*
G75*
G02*
X101050000Y108300000I450000J0D01*
G01*
X101050000Y108300000D01*
G37*
G36*
X101050000Y106500000D02*
G01*
X101050000Y106500000D01*
G75*
G02*
X101050000Y106500000I450000J0D01*
G01*
X101050000Y106500000D01*
G37*
G36*
X101050000Y103500000D02*
G01*
X101050000Y103500000D01*
G75*
G02*
X101050000Y103500000I450000J0D01*
G01*
X101050000Y103500000D01*
G37*
G36*
X101050000Y101700000D02*
G01*
X101050000Y101700000D01*
G75*
G02*
X101050000Y101700000I450000J0D01*
G01*
X101050000Y101700000D01*
G37*
G36*
X101950000Y107400000D02*
G01*
X101950000Y107400000D01*
G75*
G02*
X101950000Y107400000I450000J0D01*
G01*
X101950000Y107400000D01*
G37*
G36*
X101950000Y102600000D02*
G01*
X101950000Y102600000D01*
G75*
G02*
X101950000Y102600000I450000J0D01*
G01*
X101950000Y102600000D01*
G37*
G36*
X102850000Y108300000D02*
G01*
X102850000Y108300000D01*
G75*
G02*
X102850000Y108300000I450000J0D01*
G01*
X102850000Y108300000D01*
G37*
G36*
X102850000Y106500000D02*
G01*
X102850000Y106500000D01*
G75*
G02*
X102850000Y106500000I450000J0D01*
G01*
X102850000Y106500000D01*
G37*
G36*
X102850000Y103500000D02*
G01*
X102850000Y103500000D01*
G75*
G02*
X102850000Y103500000I450000J0D01*
G01*
X102850000Y103500000D01*
G37*
G36*
X102850000Y101700000D02*
G01*
X102850000Y101700000D01*
G75*
G02*
X102850000Y101700000I450000J0D01*
G01*
X102850000Y101700000D01*
G37*
%TO.C,SW20*%
G36*
X96250000Y118300000D02*
G01*
X96250000Y118300000D01*
G75*
G02*
X96250000Y118300000I450000J0D01*
G01*
X96250000Y118300000D01*
G37*
G36*
X96250000Y116500000D02*
G01*
X96250000Y116500000D01*
G75*
G02*
X96250000Y116500000I450000J0D01*
G01*
X96250000Y116500000D01*
G37*
G36*
X96250000Y113500000D02*
G01*
X96250000Y113500000D01*
G75*
G02*
X96250000Y113500000I450000J0D01*
G01*
X96250000Y113500000D01*
G37*
G36*
X96250000Y111700000D02*
G01*
X96250000Y111700000D01*
G75*
G02*
X96250000Y111700000I450000J0D01*
G01*
X96250000Y111700000D01*
G37*
G36*
X97150000Y117400000D02*
G01*
X97150000Y117400000D01*
G75*
G02*
X97150000Y117400000I450000J0D01*
G01*
X97150000Y117400000D01*
G37*
G36*
X97150000Y112600000D02*
G01*
X97150000Y112600000D01*
G75*
G02*
X97150000Y112600000I450000J0D01*
G01*
X97150000Y112600000D01*
G37*
G36*
X98050000Y118300000D02*
G01*
X98050000Y118300000D01*
G75*
G02*
X98050000Y118300000I450000J0D01*
G01*
X98050000Y118300000D01*
G37*
G36*
X98050000Y116500000D02*
G01*
X98050000Y116500000D01*
G75*
G02*
X98050000Y116500000I450000J0D01*
G01*
X98050000Y116500000D01*
G37*
G36*
X98050000Y113500000D02*
G01*
X98050000Y113500000D01*
G75*
G02*
X98050000Y113500000I450000J0D01*
G01*
X98050000Y113500000D01*
G37*
G36*
X98050000Y111700000D02*
G01*
X98050000Y111700000D01*
G75*
G02*
X98050000Y111700000I450000J0D01*
G01*
X98050000Y111700000D01*
G37*
G36*
X101050000Y118300000D02*
G01*
X101050000Y118300000D01*
G75*
G02*
X101050000Y118300000I450000J0D01*
G01*
X101050000Y118300000D01*
G37*
G36*
X101050000Y116500000D02*
G01*
X101050000Y116500000D01*
G75*
G02*
X101050000Y116500000I450000J0D01*
G01*
X101050000Y116500000D01*
G37*
G36*
X101050000Y113500000D02*
G01*
X101050000Y113500000D01*
G75*
G02*
X101050000Y113500000I450000J0D01*
G01*
X101050000Y113500000D01*
G37*
G36*
X101050000Y111700000D02*
G01*
X101050000Y111700000D01*
G75*
G02*
X101050000Y111700000I450000J0D01*
G01*
X101050000Y111700000D01*
G37*
G36*
X101950000Y117400000D02*
G01*
X101950000Y117400000D01*
G75*
G02*
X101950000Y117400000I450000J0D01*
G01*
X101950000Y117400000D01*
G37*
G36*
X101950000Y112600000D02*
G01*
X101950000Y112600000D01*
G75*
G02*
X101950000Y112600000I450000J0D01*
G01*
X101950000Y112600000D01*
G37*
G36*
X102850000Y118300000D02*
G01*
X102850000Y118300000D01*
G75*
G02*
X102850000Y118300000I450000J0D01*
G01*
X102850000Y118300000D01*
G37*
G36*
X102850000Y116500000D02*
G01*
X102850000Y116500000D01*
G75*
G02*
X102850000Y116500000I450000J0D01*
G01*
X102850000Y116500000D01*
G37*
G36*
X102850000Y113500000D02*
G01*
X102850000Y113500000D01*
G75*
G02*
X102850000Y113500000I450000J0D01*
G01*
X102850000Y113500000D01*
G37*
G36*
X102850000Y111700000D02*
G01*
X102850000Y111700000D01*
G75*
G02*
X102850000Y111700000I450000J0D01*
G01*
X102850000Y111700000D01*
G37*
%TO.C,SW21*%
G36*
X106250000Y118300000D02*
G01*
X106250000Y118300000D01*
G75*
G02*
X106250000Y118300000I450000J0D01*
G01*
X106250000Y118300000D01*
G37*
G36*
X106250000Y116500000D02*
G01*
X106250000Y116500000D01*
G75*
G02*
X106250000Y116500000I450000J0D01*
G01*
X106250000Y116500000D01*
G37*
G36*
X106250000Y113500000D02*
G01*
X106250000Y113500000D01*
G75*
G02*
X106250000Y113500000I450000J0D01*
G01*
X106250000Y113500000D01*
G37*
G36*
X106250000Y111700000D02*
G01*
X106250000Y111700000D01*
G75*
G02*
X106250000Y111700000I450000J0D01*
G01*
X106250000Y111700000D01*
G37*
G36*
X107150000Y117400000D02*
G01*
X107150000Y117400000D01*
G75*
G02*
X107150000Y117400000I450000J0D01*
G01*
X107150000Y117400000D01*
G37*
G36*
X107150000Y112600000D02*
G01*
X107150000Y112600000D01*
G75*
G02*
X107150000Y112600000I450000J0D01*
G01*
X107150000Y112600000D01*
G37*
G36*
X108050000Y118300000D02*
G01*
X108050000Y118300000D01*
G75*
G02*
X108050000Y118300000I450000J0D01*
G01*
X108050000Y118300000D01*
G37*
G36*
X108050000Y116500000D02*
G01*
X108050000Y116500000D01*
G75*
G02*
X108050000Y116500000I450000J0D01*
G01*
X108050000Y116500000D01*
G37*
G36*
X108050000Y113500000D02*
G01*
X108050000Y113500000D01*
G75*
G02*
X108050000Y113500000I450000J0D01*
G01*
X108050000Y113500000D01*
G37*
G36*
X108050000Y111700000D02*
G01*
X108050000Y111700000D01*
G75*
G02*
X108050000Y111700000I450000J0D01*
G01*
X108050000Y111700000D01*
G37*
G36*
X111050000Y118300000D02*
G01*
X111050000Y118300000D01*
G75*
G02*
X111050000Y118300000I450000J0D01*
G01*
X111050000Y118300000D01*
G37*
G36*
X111050000Y116500000D02*
G01*
X111050000Y116500000D01*
G75*
G02*
X111050000Y116500000I450000J0D01*
G01*
X111050000Y116500000D01*
G37*
G36*
X111050000Y113500000D02*
G01*
X111050000Y113500000D01*
G75*
G02*
X111050000Y113500000I450000J0D01*
G01*
X111050000Y113500000D01*
G37*
G36*
X111050000Y111700000D02*
G01*
X111050000Y111700000D01*
G75*
G02*
X111050000Y111700000I450000J0D01*
G01*
X111050000Y111700000D01*
G37*
G36*
X111950000Y117400000D02*
G01*
X111950000Y117400000D01*
G75*
G02*
X111950000Y117400000I450000J0D01*
G01*
X111950000Y117400000D01*
G37*
G36*
X111950000Y112600000D02*
G01*
X111950000Y112600000D01*
G75*
G02*
X111950000Y112600000I450000J0D01*
G01*
X111950000Y112600000D01*
G37*
G36*
X112850000Y118300000D02*
G01*
X112850000Y118300000D01*
G75*
G02*
X112850000Y118300000I450000J0D01*
G01*
X112850000Y118300000D01*
G37*
G36*
X112850000Y116500000D02*
G01*
X112850000Y116500000D01*
G75*
G02*
X112850000Y116500000I450000J0D01*
G01*
X112850000Y116500000D01*
G37*
G36*
X112850000Y113500000D02*
G01*
X112850000Y113500000D01*
G75*
G02*
X112850000Y113500000I450000J0D01*
G01*
X112850000Y113500000D01*
G37*
G36*
X112850000Y111700000D02*
G01*
X112850000Y111700000D01*
G75*
G02*
X112850000Y111700000I450000J0D01*
G01*
X112850000Y111700000D01*
G37*
%TO.C,SW59*%
G36*
X86250000Y68300000D02*
G01*
X86250000Y68300000D01*
G75*
G02*
X86250000Y68300000I450000J0D01*
G01*
X86250000Y68300000D01*
G37*
G36*
X86250000Y66500000D02*
G01*
X86250000Y66500000D01*
G75*
G02*
X86250000Y66500000I450000J0D01*
G01*
X86250000Y66500000D01*
G37*
G36*
X86250000Y63500000D02*
G01*
X86250000Y63500000D01*
G75*
G02*
X86250000Y63500000I450000J0D01*
G01*
X86250000Y63500000D01*
G37*
G36*
X86250000Y61700000D02*
G01*
X86250000Y61700000D01*
G75*
G02*
X86250000Y61700000I450000J0D01*
G01*
X86250000Y61700000D01*
G37*
G36*
X87150000Y67400000D02*
G01*
X87150000Y67400000D01*
G75*
G02*
X87150000Y67400000I450000J0D01*
G01*
X87150000Y67400000D01*
G37*
G36*
X87150000Y62600000D02*
G01*
X87150000Y62600000D01*
G75*
G02*
X87150000Y62600000I450000J0D01*
G01*
X87150000Y62600000D01*
G37*
G36*
X88050000Y68300000D02*
G01*
X88050000Y68300000D01*
G75*
G02*
X88050000Y68300000I450000J0D01*
G01*
X88050000Y68300000D01*
G37*
G36*
X88050000Y66500000D02*
G01*
X88050000Y66500000D01*
G75*
G02*
X88050000Y66500000I450000J0D01*
G01*
X88050000Y66500000D01*
G37*
G36*
X88050000Y63500000D02*
G01*
X88050000Y63500000D01*
G75*
G02*
X88050000Y63500000I450000J0D01*
G01*
X88050000Y63500000D01*
G37*
G36*
X88050000Y61700000D02*
G01*
X88050000Y61700000D01*
G75*
G02*
X88050000Y61700000I450000J0D01*
G01*
X88050000Y61700000D01*
G37*
G36*
X91050000Y68300000D02*
G01*
X91050000Y68300000D01*
G75*
G02*
X91050000Y68300000I450000J0D01*
G01*
X91050000Y68300000D01*
G37*
G36*
X91050000Y66500000D02*
G01*
X91050000Y66500000D01*
G75*
G02*
X91050000Y66500000I450000J0D01*
G01*
X91050000Y66500000D01*
G37*
G36*
X91050000Y63500000D02*
G01*
X91050000Y63500000D01*
G75*
G02*
X91050000Y63500000I450000J0D01*
G01*
X91050000Y63500000D01*
G37*
G36*
X91050000Y61700000D02*
G01*
X91050000Y61700000D01*
G75*
G02*
X91050000Y61700000I450000J0D01*
G01*
X91050000Y61700000D01*
G37*
G36*
X91950000Y67400000D02*
G01*
X91950000Y67400000D01*
G75*
G02*
X91950000Y67400000I450000J0D01*
G01*
X91950000Y67400000D01*
G37*
G36*
X91950000Y62600000D02*
G01*
X91950000Y62600000D01*
G75*
G02*
X91950000Y62600000I450000J0D01*
G01*
X91950000Y62600000D01*
G37*
G36*
X92850000Y68300000D02*
G01*
X92850000Y68300000D01*
G75*
G02*
X92850000Y68300000I450000J0D01*
G01*
X92850000Y68300000D01*
G37*
G36*
X92850000Y66500000D02*
G01*
X92850000Y66500000D01*
G75*
G02*
X92850000Y66500000I450000J0D01*
G01*
X92850000Y66500000D01*
G37*
G36*
X92850000Y63500000D02*
G01*
X92850000Y63500000D01*
G75*
G02*
X92850000Y63500000I450000J0D01*
G01*
X92850000Y63500000D01*
G37*
G36*
X92850000Y61700000D02*
G01*
X92850000Y61700000D01*
G75*
G02*
X92850000Y61700000I450000J0D01*
G01*
X92850000Y61700000D01*
G37*
%TO.C,SW44*%
G36*
X96250000Y88300000D02*
G01*
X96250000Y88300000D01*
G75*
G02*
X96250000Y88300000I450000J0D01*
G01*
X96250000Y88300000D01*
G37*
G36*
X96250000Y86500000D02*
G01*
X96250000Y86500000D01*
G75*
G02*
X96250000Y86500000I450000J0D01*
G01*
X96250000Y86500000D01*
G37*
G36*
X96250000Y83500000D02*
G01*
X96250000Y83500000D01*
G75*
G02*
X96250000Y83500000I450000J0D01*
G01*
X96250000Y83500000D01*
G37*
G36*
X96250000Y81700000D02*
G01*
X96250000Y81700000D01*
G75*
G02*
X96250000Y81700000I450000J0D01*
G01*
X96250000Y81700000D01*
G37*
G36*
X97150000Y87400000D02*
G01*
X97150000Y87400000D01*
G75*
G02*
X97150000Y87400000I450000J0D01*
G01*
X97150000Y87400000D01*
G37*
G36*
X97150000Y82600000D02*
G01*
X97150000Y82600000D01*
G75*
G02*
X97150000Y82600000I450000J0D01*
G01*
X97150000Y82600000D01*
G37*
G36*
X98050000Y88300000D02*
G01*
X98050000Y88300000D01*
G75*
G02*
X98050000Y88300000I450000J0D01*
G01*
X98050000Y88300000D01*
G37*
G36*
X98050000Y86500000D02*
G01*
X98050000Y86500000D01*
G75*
G02*
X98050000Y86500000I450000J0D01*
G01*
X98050000Y86500000D01*
G37*
G36*
X98050000Y83500000D02*
G01*
X98050000Y83500000D01*
G75*
G02*
X98050000Y83500000I450000J0D01*
G01*
X98050000Y83500000D01*
G37*
G36*
X98050000Y81700000D02*
G01*
X98050000Y81700000D01*
G75*
G02*
X98050000Y81700000I450000J0D01*
G01*
X98050000Y81700000D01*
G37*
G36*
X101050000Y88300000D02*
G01*
X101050000Y88300000D01*
G75*
G02*
X101050000Y88300000I450000J0D01*
G01*
X101050000Y88300000D01*
G37*
G36*
X101050000Y86500000D02*
G01*
X101050000Y86500000D01*
G75*
G02*
X101050000Y86500000I450000J0D01*
G01*
X101050000Y86500000D01*
G37*
G36*
X101050000Y83500000D02*
G01*
X101050000Y83500000D01*
G75*
G02*
X101050000Y83500000I450000J0D01*
G01*
X101050000Y83500000D01*
G37*
G36*
X101050000Y81700000D02*
G01*
X101050000Y81700000D01*
G75*
G02*
X101050000Y81700000I450000J0D01*
G01*
X101050000Y81700000D01*
G37*
G36*
X101950000Y87400000D02*
G01*
X101950000Y87400000D01*
G75*
G02*
X101950000Y87400000I450000J0D01*
G01*
X101950000Y87400000D01*
G37*
G36*
X101950000Y82600000D02*
G01*
X101950000Y82600000D01*
G75*
G02*
X101950000Y82600000I450000J0D01*
G01*
X101950000Y82600000D01*
G37*
G36*
X102850000Y88300000D02*
G01*
X102850000Y88300000D01*
G75*
G02*
X102850000Y88300000I450000J0D01*
G01*
X102850000Y88300000D01*
G37*
G36*
X102850000Y86500000D02*
G01*
X102850000Y86500000D01*
G75*
G02*
X102850000Y86500000I450000J0D01*
G01*
X102850000Y86500000D01*
G37*
G36*
X102850000Y83500000D02*
G01*
X102850000Y83500000D01*
G75*
G02*
X102850000Y83500000I450000J0D01*
G01*
X102850000Y83500000D01*
G37*
G36*
X102850000Y81700000D02*
G01*
X102850000Y81700000D01*
G75*
G02*
X102850000Y81700000I450000J0D01*
G01*
X102850000Y81700000D01*
G37*
%TO.C,SW35*%
G36*
X86250000Y98300000D02*
G01*
X86250000Y98300000D01*
G75*
G02*
X86250000Y98300000I450000J0D01*
G01*
X86250000Y98300000D01*
G37*
G36*
X86250000Y96500000D02*
G01*
X86250000Y96500000D01*
G75*
G02*
X86250000Y96500000I450000J0D01*
G01*
X86250000Y96500000D01*
G37*
G36*
X86250000Y93500000D02*
G01*
X86250000Y93500000D01*
G75*
G02*
X86250000Y93500000I450000J0D01*
G01*
X86250000Y93500000D01*
G37*
G36*
X86250000Y91700000D02*
G01*
X86250000Y91700000D01*
G75*
G02*
X86250000Y91700000I450000J0D01*
G01*
X86250000Y91700000D01*
G37*
G36*
X87150000Y97400000D02*
G01*
X87150000Y97400000D01*
G75*
G02*
X87150000Y97400000I450000J0D01*
G01*
X87150000Y97400000D01*
G37*
G36*
X87150000Y92600000D02*
G01*
X87150000Y92600000D01*
G75*
G02*
X87150000Y92600000I450000J0D01*
G01*
X87150000Y92600000D01*
G37*
G36*
X88050000Y98300000D02*
G01*
X88050000Y98300000D01*
G75*
G02*
X88050000Y98300000I450000J0D01*
G01*
X88050000Y98300000D01*
G37*
G36*
X88050000Y96500000D02*
G01*
X88050000Y96500000D01*
G75*
G02*
X88050000Y96500000I450000J0D01*
G01*
X88050000Y96500000D01*
G37*
G36*
X88050000Y93500000D02*
G01*
X88050000Y93500000D01*
G75*
G02*
X88050000Y93500000I450000J0D01*
G01*
X88050000Y93500000D01*
G37*
G36*
X88050000Y91700000D02*
G01*
X88050000Y91700000D01*
G75*
G02*
X88050000Y91700000I450000J0D01*
G01*
X88050000Y91700000D01*
G37*
G36*
X91050000Y98300000D02*
G01*
X91050000Y98300000D01*
G75*
G02*
X91050000Y98300000I450000J0D01*
G01*
X91050000Y98300000D01*
G37*
G36*
X91050000Y96500000D02*
G01*
X91050000Y96500000D01*
G75*
G02*
X91050000Y96500000I450000J0D01*
G01*
X91050000Y96500000D01*
G37*
G36*
X91050000Y93500000D02*
G01*
X91050000Y93500000D01*
G75*
G02*
X91050000Y93500000I450000J0D01*
G01*
X91050000Y93500000D01*
G37*
G36*
X91050000Y91700000D02*
G01*
X91050000Y91700000D01*
G75*
G02*
X91050000Y91700000I450000J0D01*
G01*
X91050000Y91700000D01*
G37*
G36*
X91950000Y97400000D02*
G01*
X91950000Y97400000D01*
G75*
G02*
X91950000Y97400000I450000J0D01*
G01*
X91950000Y97400000D01*
G37*
G36*
X91950000Y92600000D02*
G01*
X91950000Y92600000D01*
G75*
G02*
X91950000Y92600000I450000J0D01*
G01*
X91950000Y92600000D01*
G37*
G36*
X92850000Y98300000D02*
G01*
X92850000Y98300000D01*
G75*
G02*
X92850000Y98300000I450000J0D01*
G01*
X92850000Y98300000D01*
G37*
G36*
X92850000Y96500000D02*
G01*
X92850000Y96500000D01*
G75*
G02*
X92850000Y96500000I450000J0D01*
G01*
X92850000Y96500000D01*
G37*
G36*
X92850000Y93500000D02*
G01*
X92850000Y93500000D01*
G75*
G02*
X92850000Y93500000I450000J0D01*
G01*
X92850000Y93500000D01*
G37*
G36*
X92850000Y91700000D02*
G01*
X92850000Y91700000D01*
G75*
G02*
X92850000Y91700000I450000J0D01*
G01*
X92850000Y91700000D01*
G37*
%TO.C,SW4*%
G36*
X96250000Y138300000D02*
G01*
X96250000Y138300000D01*
G75*
G02*
X96250000Y138300000I450000J0D01*
G01*
X96250000Y138300000D01*
G37*
G36*
X96250000Y136500000D02*
G01*
X96250000Y136500000D01*
G75*
G02*
X96250000Y136500000I450000J0D01*
G01*
X96250000Y136500000D01*
G37*
G36*
X96250000Y133500000D02*
G01*
X96250000Y133500000D01*
G75*
G02*
X96250000Y133500000I450000J0D01*
G01*
X96250000Y133500000D01*
G37*
G36*
X96250000Y131700000D02*
G01*
X96250000Y131700000D01*
G75*
G02*
X96250000Y131700000I450000J0D01*
G01*
X96250000Y131700000D01*
G37*
G36*
X97150000Y137400000D02*
G01*
X97150000Y137400000D01*
G75*
G02*
X97150000Y137400000I450000J0D01*
G01*
X97150000Y137400000D01*
G37*
G36*
X97150000Y132600000D02*
G01*
X97150000Y132600000D01*
G75*
G02*
X97150000Y132600000I450000J0D01*
G01*
X97150000Y132600000D01*
G37*
G36*
X98050000Y138300000D02*
G01*
X98050000Y138300000D01*
G75*
G02*
X98050000Y138300000I450000J0D01*
G01*
X98050000Y138300000D01*
G37*
G36*
X98050000Y136500000D02*
G01*
X98050000Y136500000D01*
G75*
G02*
X98050000Y136500000I450000J0D01*
G01*
X98050000Y136500000D01*
G37*
G36*
X98050000Y133500000D02*
G01*
X98050000Y133500000D01*
G75*
G02*
X98050000Y133500000I450000J0D01*
G01*
X98050000Y133500000D01*
G37*
G36*
X98050000Y131700000D02*
G01*
X98050000Y131700000D01*
G75*
G02*
X98050000Y131700000I450000J0D01*
G01*
X98050000Y131700000D01*
G37*
G36*
X101050000Y138300000D02*
G01*
X101050000Y138300000D01*
G75*
G02*
X101050000Y138300000I450000J0D01*
G01*
X101050000Y138300000D01*
G37*
G36*
X101050000Y136500000D02*
G01*
X101050000Y136500000D01*
G75*
G02*
X101050000Y136500000I450000J0D01*
G01*
X101050000Y136500000D01*
G37*
G36*
X101050000Y133500000D02*
G01*
X101050000Y133500000D01*
G75*
G02*
X101050000Y133500000I450000J0D01*
G01*
X101050000Y133500000D01*
G37*
G36*
X101050000Y131700000D02*
G01*
X101050000Y131700000D01*
G75*
G02*
X101050000Y131700000I450000J0D01*
G01*
X101050000Y131700000D01*
G37*
G36*
X101950000Y137400000D02*
G01*
X101950000Y137400000D01*
G75*
G02*
X101950000Y137400000I450000J0D01*
G01*
X101950000Y137400000D01*
G37*
G36*
X101950000Y132600000D02*
G01*
X101950000Y132600000D01*
G75*
G02*
X101950000Y132600000I450000J0D01*
G01*
X101950000Y132600000D01*
G37*
G36*
X102850000Y138300000D02*
G01*
X102850000Y138300000D01*
G75*
G02*
X102850000Y138300000I450000J0D01*
G01*
X102850000Y138300000D01*
G37*
G36*
X102850000Y136500000D02*
G01*
X102850000Y136500000D01*
G75*
G02*
X102850000Y136500000I450000J0D01*
G01*
X102850000Y136500000D01*
G37*
G36*
X102850000Y133500000D02*
G01*
X102850000Y133500000D01*
G75*
G02*
X102850000Y133500000I450000J0D01*
G01*
X102850000Y133500000D01*
G37*
G36*
X102850000Y131700000D02*
G01*
X102850000Y131700000D01*
G75*
G02*
X102850000Y131700000I450000J0D01*
G01*
X102850000Y131700000D01*
G37*
%TO.C,SW2*%
G36*
X76250000Y138300000D02*
G01*
X76250000Y138300000D01*
G75*
G02*
X76250000Y138300000I450000J0D01*
G01*
X76250000Y138300000D01*
G37*
G36*
X76250000Y136500000D02*
G01*
X76250000Y136500000D01*
G75*
G02*
X76250000Y136500000I450000J0D01*
G01*
X76250000Y136500000D01*
G37*
G36*
X76250000Y133500000D02*
G01*
X76250000Y133500000D01*
G75*
G02*
X76250000Y133500000I450000J0D01*
G01*
X76250000Y133500000D01*
G37*
G36*
X76250000Y131700000D02*
G01*
X76250000Y131700000D01*
G75*
G02*
X76250000Y131700000I450000J0D01*
G01*
X76250000Y131700000D01*
G37*
G36*
X77150000Y137400000D02*
G01*
X77150000Y137400000D01*
G75*
G02*
X77150000Y137400000I450000J0D01*
G01*
X77150000Y137400000D01*
G37*
G36*
X77150000Y132600000D02*
G01*
X77150000Y132600000D01*
G75*
G02*
X77150000Y132600000I450000J0D01*
G01*
X77150000Y132600000D01*
G37*
G36*
X78050000Y138300000D02*
G01*
X78050000Y138300000D01*
G75*
G02*
X78050000Y138300000I450000J0D01*
G01*
X78050000Y138300000D01*
G37*
G36*
X78050000Y136500000D02*
G01*
X78050000Y136500000D01*
G75*
G02*
X78050000Y136500000I450000J0D01*
G01*
X78050000Y136500000D01*
G37*
G36*
X78050000Y133500000D02*
G01*
X78050000Y133500000D01*
G75*
G02*
X78050000Y133500000I450000J0D01*
G01*
X78050000Y133500000D01*
G37*
G36*
X78050000Y131700000D02*
G01*
X78050000Y131700000D01*
G75*
G02*
X78050000Y131700000I450000J0D01*
G01*
X78050000Y131700000D01*
G37*
G36*
X81050000Y138300000D02*
G01*
X81050000Y138300000D01*
G75*
G02*
X81050000Y138300000I450000J0D01*
G01*
X81050000Y138300000D01*
G37*
G36*
X81050000Y136500000D02*
G01*
X81050000Y136500000D01*
G75*
G02*
X81050000Y136500000I450000J0D01*
G01*
X81050000Y136500000D01*
G37*
G36*
X81050000Y133500000D02*
G01*
X81050000Y133500000D01*
G75*
G02*
X81050000Y133500000I450000J0D01*
G01*
X81050000Y133500000D01*
G37*
G36*
X81050000Y131700000D02*
G01*
X81050000Y131700000D01*
G75*
G02*
X81050000Y131700000I450000J0D01*
G01*
X81050000Y131700000D01*
G37*
G36*
X81950000Y137400000D02*
G01*
X81950000Y137400000D01*
G75*
G02*
X81950000Y137400000I450000J0D01*
G01*
X81950000Y137400000D01*
G37*
G36*
X81950000Y132600000D02*
G01*
X81950000Y132600000D01*
G75*
G02*
X81950000Y132600000I450000J0D01*
G01*
X81950000Y132600000D01*
G37*
G36*
X82850000Y138300000D02*
G01*
X82850000Y138300000D01*
G75*
G02*
X82850000Y138300000I450000J0D01*
G01*
X82850000Y138300000D01*
G37*
G36*
X82850000Y136500000D02*
G01*
X82850000Y136500000D01*
G75*
G02*
X82850000Y136500000I450000J0D01*
G01*
X82850000Y136500000D01*
G37*
G36*
X82850000Y133500000D02*
G01*
X82850000Y133500000D01*
G75*
G02*
X82850000Y133500000I450000J0D01*
G01*
X82850000Y133500000D01*
G37*
G36*
X82850000Y131700000D02*
G01*
X82850000Y131700000D01*
G75*
G02*
X82850000Y131700000I450000J0D01*
G01*
X82850000Y131700000D01*
G37*
%TO.C,SW40*%
G36*
X136250000Y98300000D02*
G01*
X136250000Y98300000D01*
G75*
G02*
X136250000Y98300000I450000J0D01*
G01*
X136250000Y98300000D01*
G37*
G36*
X136250000Y96500000D02*
G01*
X136250000Y96500000D01*
G75*
G02*
X136250000Y96500000I450000J0D01*
G01*
X136250000Y96500000D01*
G37*
G36*
X136250000Y93500000D02*
G01*
X136250000Y93500000D01*
G75*
G02*
X136250000Y93500000I450000J0D01*
G01*
X136250000Y93500000D01*
G37*
G36*
X136250000Y91700000D02*
G01*
X136250000Y91700000D01*
G75*
G02*
X136250000Y91700000I450000J0D01*
G01*
X136250000Y91700000D01*
G37*
G36*
X137150000Y97400000D02*
G01*
X137150000Y97400000D01*
G75*
G02*
X137150000Y97400000I450000J0D01*
G01*
X137150000Y97400000D01*
G37*
G36*
X137150000Y92600000D02*
G01*
X137150000Y92600000D01*
G75*
G02*
X137150000Y92600000I450000J0D01*
G01*
X137150000Y92600000D01*
G37*
G36*
X138050000Y98300000D02*
G01*
X138050000Y98300000D01*
G75*
G02*
X138050000Y98300000I450000J0D01*
G01*
X138050000Y98300000D01*
G37*
G36*
X138050000Y96500000D02*
G01*
X138050000Y96500000D01*
G75*
G02*
X138050000Y96500000I450000J0D01*
G01*
X138050000Y96500000D01*
G37*
G36*
X138050000Y93500000D02*
G01*
X138050000Y93500000D01*
G75*
G02*
X138050000Y93500000I450000J0D01*
G01*
X138050000Y93500000D01*
G37*
G36*
X138050000Y91700000D02*
G01*
X138050000Y91700000D01*
G75*
G02*
X138050000Y91700000I450000J0D01*
G01*
X138050000Y91700000D01*
G37*
G36*
X141050000Y98300000D02*
G01*
X141050000Y98300000D01*
G75*
G02*
X141050000Y98300000I450000J0D01*
G01*
X141050000Y98300000D01*
G37*
G36*
X141050000Y96500000D02*
G01*
X141050000Y96500000D01*
G75*
G02*
X141050000Y96500000I450000J0D01*
G01*
X141050000Y96500000D01*
G37*
G36*
X141050000Y93500000D02*
G01*
X141050000Y93500000D01*
G75*
G02*
X141050000Y93500000I450000J0D01*
G01*
X141050000Y93500000D01*
G37*
G36*
X141050000Y91700000D02*
G01*
X141050000Y91700000D01*
G75*
G02*
X141050000Y91700000I450000J0D01*
G01*
X141050000Y91700000D01*
G37*
G36*
X141950000Y97400000D02*
G01*
X141950000Y97400000D01*
G75*
G02*
X141950000Y97400000I450000J0D01*
G01*
X141950000Y97400000D01*
G37*
G36*
X141950000Y92600000D02*
G01*
X141950000Y92600000D01*
G75*
G02*
X141950000Y92600000I450000J0D01*
G01*
X141950000Y92600000D01*
G37*
G36*
X142850000Y98300000D02*
G01*
X142850000Y98300000D01*
G75*
G02*
X142850000Y98300000I450000J0D01*
G01*
X142850000Y98300000D01*
G37*
G36*
X142850000Y96500000D02*
G01*
X142850000Y96500000D01*
G75*
G02*
X142850000Y96500000I450000J0D01*
G01*
X142850000Y96500000D01*
G37*
G36*
X142850000Y93500000D02*
G01*
X142850000Y93500000D01*
G75*
G02*
X142850000Y93500000I450000J0D01*
G01*
X142850000Y93500000D01*
G37*
G36*
X142850000Y91700000D02*
G01*
X142850000Y91700000D01*
G75*
G02*
X142850000Y91700000I450000J0D01*
G01*
X142850000Y91700000D01*
G37*
%TO.C,SW64*%
G36*
X136250000Y68300000D02*
G01*
X136250000Y68300000D01*
G75*
G02*
X136250000Y68300000I450000J0D01*
G01*
X136250000Y68300000D01*
G37*
G36*
X136250000Y66500000D02*
G01*
X136250000Y66500000D01*
G75*
G02*
X136250000Y66500000I450000J0D01*
G01*
X136250000Y66500000D01*
G37*
G36*
X136250000Y63500000D02*
G01*
X136250000Y63500000D01*
G75*
G02*
X136250000Y63500000I450000J0D01*
G01*
X136250000Y63500000D01*
G37*
G36*
X136250000Y61700000D02*
G01*
X136250000Y61700000D01*
G75*
G02*
X136250000Y61700000I450000J0D01*
G01*
X136250000Y61700000D01*
G37*
G36*
X137150000Y67400000D02*
G01*
X137150000Y67400000D01*
G75*
G02*
X137150000Y67400000I450000J0D01*
G01*
X137150000Y67400000D01*
G37*
G36*
X137150000Y62600000D02*
G01*
X137150000Y62600000D01*
G75*
G02*
X137150000Y62600000I450000J0D01*
G01*
X137150000Y62600000D01*
G37*
G36*
X138050000Y68300000D02*
G01*
X138050000Y68300000D01*
G75*
G02*
X138050000Y68300000I450000J0D01*
G01*
X138050000Y68300000D01*
G37*
G36*
X138050000Y66500000D02*
G01*
X138050000Y66500000D01*
G75*
G02*
X138050000Y66500000I450000J0D01*
G01*
X138050000Y66500000D01*
G37*
G36*
X138050000Y63500000D02*
G01*
X138050000Y63500000D01*
G75*
G02*
X138050000Y63500000I450000J0D01*
G01*
X138050000Y63500000D01*
G37*
G36*
X138050000Y61700000D02*
G01*
X138050000Y61700000D01*
G75*
G02*
X138050000Y61700000I450000J0D01*
G01*
X138050000Y61700000D01*
G37*
G36*
X141050000Y68300000D02*
G01*
X141050000Y68300000D01*
G75*
G02*
X141050000Y68300000I450000J0D01*
G01*
X141050000Y68300000D01*
G37*
G36*
X141050000Y66500000D02*
G01*
X141050000Y66500000D01*
G75*
G02*
X141050000Y66500000I450000J0D01*
G01*
X141050000Y66500000D01*
G37*
G36*
X141050000Y63500000D02*
G01*
X141050000Y63500000D01*
G75*
G02*
X141050000Y63500000I450000J0D01*
G01*
X141050000Y63500000D01*
G37*
G36*
X141050000Y61700000D02*
G01*
X141050000Y61700000D01*
G75*
G02*
X141050000Y61700000I450000J0D01*
G01*
X141050000Y61700000D01*
G37*
G36*
X141950000Y67400000D02*
G01*
X141950000Y67400000D01*
G75*
G02*
X141950000Y67400000I450000J0D01*
G01*
X141950000Y67400000D01*
G37*
G36*
X141950000Y62600000D02*
G01*
X141950000Y62600000D01*
G75*
G02*
X141950000Y62600000I450000J0D01*
G01*
X141950000Y62600000D01*
G37*
G36*
X142850000Y68300000D02*
G01*
X142850000Y68300000D01*
G75*
G02*
X142850000Y68300000I450000J0D01*
G01*
X142850000Y68300000D01*
G37*
G36*
X142850000Y66500000D02*
G01*
X142850000Y66500000D01*
G75*
G02*
X142850000Y66500000I450000J0D01*
G01*
X142850000Y66500000D01*
G37*
G36*
X142850000Y63500000D02*
G01*
X142850000Y63500000D01*
G75*
G02*
X142850000Y63500000I450000J0D01*
G01*
X142850000Y63500000D01*
G37*
G36*
X142850000Y61700000D02*
G01*
X142850000Y61700000D01*
G75*
G02*
X142850000Y61700000I450000J0D01*
G01*
X142850000Y61700000D01*
G37*
%TO.C,SW36*%
G36*
X96250000Y98300000D02*
G01*
X96250000Y98300000D01*
G75*
G02*
X96250000Y98300000I450000J0D01*
G01*
X96250000Y98300000D01*
G37*
G36*
X96250000Y96500000D02*
G01*
X96250000Y96500000D01*
G75*
G02*
X96250000Y96500000I450000J0D01*
G01*
X96250000Y96500000D01*
G37*
G36*
X96250000Y93500000D02*
G01*
X96250000Y93500000D01*
G75*
G02*
X96250000Y93500000I450000J0D01*
G01*
X96250000Y93500000D01*
G37*
G36*
X96250000Y91700000D02*
G01*
X96250000Y91700000D01*
G75*
G02*
X96250000Y91700000I450000J0D01*
G01*
X96250000Y91700000D01*
G37*
G36*
X97150000Y97400000D02*
G01*
X97150000Y97400000D01*
G75*
G02*
X97150000Y97400000I450000J0D01*
G01*
X97150000Y97400000D01*
G37*
G36*
X97150000Y92600000D02*
G01*
X97150000Y92600000D01*
G75*
G02*
X97150000Y92600000I450000J0D01*
G01*
X97150000Y92600000D01*
G37*
G36*
X98050000Y98300000D02*
G01*
X98050000Y98300000D01*
G75*
G02*
X98050000Y98300000I450000J0D01*
G01*
X98050000Y98300000D01*
G37*
G36*
X98050000Y96500000D02*
G01*
X98050000Y96500000D01*
G75*
G02*
X98050000Y96500000I450000J0D01*
G01*
X98050000Y96500000D01*
G37*
G36*
X98050000Y93500000D02*
G01*
X98050000Y93500000D01*
G75*
G02*
X98050000Y93500000I450000J0D01*
G01*
X98050000Y93500000D01*
G37*
G36*
X98050000Y91700000D02*
G01*
X98050000Y91700000D01*
G75*
G02*
X98050000Y91700000I450000J0D01*
G01*
X98050000Y91700000D01*
G37*
G36*
X101050000Y98300000D02*
G01*
X101050000Y98300000D01*
G75*
G02*
X101050000Y98300000I450000J0D01*
G01*
X101050000Y98300000D01*
G37*
G36*
X101050000Y96500000D02*
G01*
X101050000Y96500000D01*
G75*
G02*
X101050000Y96500000I450000J0D01*
G01*
X101050000Y96500000D01*
G37*
G36*
X101050000Y93500000D02*
G01*
X101050000Y93500000D01*
G75*
G02*
X101050000Y93500000I450000J0D01*
G01*
X101050000Y93500000D01*
G37*
G36*
X101050000Y91700000D02*
G01*
X101050000Y91700000D01*
G75*
G02*
X101050000Y91700000I450000J0D01*
G01*
X101050000Y91700000D01*
G37*
G36*
X101950000Y97400000D02*
G01*
X101950000Y97400000D01*
G75*
G02*
X101950000Y97400000I450000J0D01*
G01*
X101950000Y97400000D01*
G37*
G36*
X101950000Y92600000D02*
G01*
X101950000Y92600000D01*
G75*
G02*
X101950000Y92600000I450000J0D01*
G01*
X101950000Y92600000D01*
G37*
G36*
X102850000Y98300000D02*
G01*
X102850000Y98300000D01*
G75*
G02*
X102850000Y98300000I450000J0D01*
G01*
X102850000Y98300000D01*
G37*
G36*
X102850000Y96500000D02*
G01*
X102850000Y96500000D01*
G75*
G02*
X102850000Y96500000I450000J0D01*
G01*
X102850000Y96500000D01*
G37*
G36*
X102850000Y93500000D02*
G01*
X102850000Y93500000D01*
G75*
G02*
X102850000Y93500000I450000J0D01*
G01*
X102850000Y93500000D01*
G37*
G36*
X102850000Y91700000D02*
G01*
X102850000Y91700000D01*
G75*
G02*
X102850000Y91700000I450000J0D01*
G01*
X102850000Y91700000D01*
G37*
%TO.C,SW58*%
G36*
X76250000Y68300000D02*
G01*
X76250000Y68300000D01*
G75*
G02*
X76250000Y68300000I450000J0D01*
G01*
X76250000Y68300000D01*
G37*
G36*
X76250000Y66500000D02*
G01*
X76250000Y66500000D01*
G75*
G02*
X76250000Y66500000I450000J0D01*
G01*
X76250000Y66500000D01*
G37*
G36*
X76250000Y63500000D02*
G01*
X76250000Y63500000D01*
G75*
G02*
X76250000Y63500000I450000J0D01*
G01*
X76250000Y63500000D01*
G37*
G36*
X76250000Y61700000D02*
G01*
X76250000Y61700000D01*
G75*
G02*
X76250000Y61700000I450000J0D01*
G01*
X76250000Y61700000D01*
G37*
G36*
X77150000Y67400000D02*
G01*
X77150000Y67400000D01*
G75*
G02*
X77150000Y67400000I450000J0D01*
G01*
X77150000Y67400000D01*
G37*
G36*
X77150000Y62600000D02*
G01*
X77150000Y62600000D01*
G75*
G02*
X77150000Y62600000I450000J0D01*
G01*
X77150000Y62600000D01*
G37*
G36*
X78050000Y68300000D02*
G01*
X78050000Y68300000D01*
G75*
G02*
X78050000Y68300000I450000J0D01*
G01*
X78050000Y68300000D01*
G37*
G36*
X78050000Y66500000D02*
G01*
X78050000Y66500000D01*
G75*
G02*
X78050000Y66500000I450000J0D01*
G01*
X78050000Y66500000D01*
G37*
G36*
X78050000Y63500000D02*
G01*
X78050000Y63500000D01*
G75*
G02*
X78050000Y63500000I450000J0D01*
G01*
X78050000Y63500000D01*
G37*
G36*
X78050000Y61700000D02*
G01*
X78050000Y61700000D01*
G75*
G02*
X78050000Y61700000I450000J0D01*
G01*
X78050000Y61700000D01*
G37*
G36*
X81050000Y68300000D02*
G01*
X81050000Y68300000D01*
G75*
G02*
X81050000Y68300000I450000J0D01*
G01*
X81050000Y68300000D01*
G37*
G36*
X81050000Y66500000D02*
G01*
X81050000Y66500000D01*
G75*
G02*
X81050000Y66500000I450000J0D01*
G01*
X81050000Y66500000D01*
G37*
G36*
X81050000Y63500000D02*
G01*
X81050000Y63500000D01*
G75*
G02*
X81050000Y63500000I450000J0D01*
G01*
X81050000Y63500000D01*
G37*
G36*
X81050000Y61700000D02*
G01*
X81050000Y61700000D01*
G75*
G02*
X81050000Y61700000I450000J0D01*
G01*
X81050000Y61700000D01*
G37*
G36*
X81950000Y67400000D02*
G01*
X81950000Y67400000D01*
G75*
G02*
X81950000Y67400000I450000J0D01*
G01*
X81950000Y67400000D01*
G37*
G36*
X81950000Y62600000D02*
G01*
X81950000Y62600000D01*
G75*
G02*
X81950000Y62600000I450000J0D01*
G01*
X81950000Y62600000D01*
G37*
G36*
X82850000Y68300000D02*
G01*
X82850000Y68300000D01*
G75*
G02*
X82850000Y68300000I450000J0D01*
G01*
X82850000Y68300000D01*
G37*
G36*
X82850000Y66500000D02*
G01*
X82850000Y66500000D01*
G75*
G02*
X82850000Y66500000I450000J0D01*
G01*
X82850000Y66500000D01*
G37*
G36*
X82850000Y63500000D02*
G01*
X82850000Y63500000D01*
G75*
G02*
X82850000Y63500000I450000J0D01*
G01*
X82850000Y63500000D01*
G37*
G36*
X82850000Y61700000D02*
G01*
X82850000Y61700000D01*
G75*
G02*
X82850000Y61700000I450000J0D01*
G01*
X82850000Y61700000D01*
G37*
%TO.C,SW6*%
G36*
X116250000Y138300000D02*
G01*
X116250000Y138300000D01*
G75*
G02*
X116250000Y138300000I450000J0D01*
G01*
X116250000Y138300000D01*
G37*
G36*
X116250000Y136500000D02*
G01*
X116250000Y136500000D01*
G75*
G02*
X116250000Y136500000I450000J0D01*
G01*
X116250000Y136500000D01*
G37*
G36*
X116250000Y133500000D02*
G01*
X116250000Y133500000D01*
G75*
G02*
X116250000Y133500000I450000J0D01*
G01*
X116250000Y133500000D01*
G37*
G36*
X116250000Y131700000D02*
G01*
X116250000Y131700000D01*
G75*
G02*
X116250000Y131700000I450000J0D01*
G01*
X116250000Y131700000D01*
G37*
G36*
X117150000Y137400000D02*
G01*
X117150000Y137400000D01*
G75*
G02*
X117150000Y137400000I450000J0D01*
G01*
X117150000Y137400000D01*
G37*
G36*
X117150000Y132600000D02*
G01*
X117150000Y132600000D01*
G75*
G02*
X117150000Y132600000I450000J0D01*
G01*
X117150000Y132600000D01*
G37*
G36*
X118050000Y138300000D02*
G01*
X118050000Y138300000D01*
G75*
G02*
X118050000Y138300000I450000J0D01*
G01*
X118050000Y138300000D01*
G37*
G36*
X118050000Y136500000D02*
G01*
X118050000Y136500000D01*
G75*
G02*
X118050000Y136500000I450000J0D01*
G01*
X118050000Y136500000D01*
G37*
G36*
X118050000Y133500000D02*
G01*
X118050000Y133500000D01*
G75*
G02*
X118050000Y133500000I450000J0D01*
G01*
X118050000Y133500000D01*
G37*
G36*
X118050000Y131700000D02*
G01*
X118050000Y131700000D01*
G75*
G02*
X118050000Y131700000I450000J0D01*
G01*
X118050000Y131700000D01*
G37*
G36*
X121050000Y138300000D02*
G01*
X121050000Y138300000D01*
G75*
G02*
X121050000Y138300000I450000J0D01*
G01*
X121050000Y138300000D01*
G37*
G36*
X121050000Y136500000D02*
G01*
X121050000Y136500000D01*
G75*
G02*
X121050000Y136500000I450000J0D01*
G01*
X121050000Y136500000D01*
G37*
G36*
X121050000Y133500000D02*
G01*
X121050000Y133500000D01*
G75*
G02*
X121050000Y133500000I450000J0D01*
G01*
X121050000Y133500000D01*
G37*
G36*
X121050000Y131700000D02*
G01*
X121050000Y131700000D01*
G75*
G02*
X121050000Y131700000I450000J0D01*
G01*
X121050000Y131700000D01*
G37*
G36*
X121950000Y137400000D02*
G01*
X121950000Y137400000D01*
G75*
G02*
X121950000Y137400000I450000J0D01*
G01*
X121950000Y137400000D01*
G37*
G36*
X121950000Y132600000D02*
G01*
X121950000Y132600000D01*
G75*
G02*
X121950000Y132600000I450000J0D01*
G01*
X121950000Y132600000D01*
G37*
G36*
X122850000Y138300000D02*
G01*
X122850000Y138300000D01*
G75*
G02*
X122850000Y138300000I450000J0D01*
G01*
X122850000Y138300000D01*
G37*
G36*
X122850000Y136500000D02*
G01*
X122850000Y136500000D01*
G75*
G02*
X122850000Y136500000I450000J0D01*
G01*
X122850000Y136500000D01*
G37*
G36*
X122850000Y133500000D02*
G01*
X122850000Y133500000D01*
G75*
G02*
X122850000Y133500000I450000J0D01*
G01*
X122850000Y133500000D01*
G37*
G36*
X122850000Y131700000D02*
G01*
X122850000Y131700000D01*
G75*
G02*
X122850000Y131700000I450000J0D01*
G01*
X122850000Y131700000D01*
G37*
%TO.C,SW60*%
G36*
X96250000Y68300000D02*
G01*
X96250000Y68300000D01*
G75*
G02*
X96250000Y68300000I450000J0D01*
G01*
X96250000Y68300000D01*
G37*
G36*
X96250000Y66500000D02*
G01*
X96250000Y66500000D01*
G75*
G02*
X96250000Y66500000I450000J0D01*
G01*
X96250000Y66500000D01*
G37*
G36*
X96250000Y63500000D02*
G01*
X96250000Y63500000D01*
G75*
G02*
X96250000Y63500000I450000J0D01*
G01*
X96250000Y63500000D01*
G37*
G36*
X96250000Y61700000D02*
G01*
X96250000Y61700000D01*
G75*
G02*
X96250000Y61700000I450000J0D01*
G01*
X96250000Y61700000D01*
G37*
G36*
X97150000Y67400000D02*
G01*
X97150000Y67400000D01*
G75*
G02*
X97150000Y67400000I450000J0D01*
G01*
X97150000Y67400000D01*
G37*
G36*
X97150000Y62600000D02*
G01*
X97150000Y62600000D01*
G75*
G02*
X97150000Y62600000I450000J0D01*
G01*
X97150000Y62600000D01*
G37*
G36*
X98050000Y68300000D02*
G01*
X98050000Y68300000D01*
G75*
G02*
X98050000Y68300000I450000J0D01*
G01*
X98050000Y68300000D01*
G37*
G36*
X98050000Y66500000D02*
G01*
X98050000Y66500000D01*
G75*
G02*
X98050000Y66500000I450000J0D01*
G01*
X98050000Y66500000D01*
G37*
G36*
X98050000Y63500000D02*
G01*
X98050000Y63500000D01*
G75*
G02*
X98050000Y63500000I450000J0D01*
G01*
X98050000Y63500000D01*
G37*
G36*
X98050000Y61700000D02*
G01*
X98050000Y61700000D01*
G75*
G02*
X98050000Y61700000I450000J0D01*
G01*
X98050000Y61700000D01*
G37*
G36*
X101050000Y68300000D02*
G01*
X101050000Y68300000D01*
G75*
G02*
X101050000Y68300000I450000J0D01*
G01*
X101050000Y68300000D01*
G37*
G36*
X101050000Y66500000D02*
G01*
X101050000Y66500000D01*
G75*
G02*
X101050000Y66500000I450000J0D01*
G01*
X101050000Y66500000D01*
G37*
G36*
X101050000Y63500000D02*
G01*
X101050000Y63500000D01*
G75*
G02*
X101050000Y63500000I450000J0D01*
G01*
X101050000Y63500000D01*
G37*
G36*
X101050000Y61700000D02*
G01*
X101050000Y61700000D01*
G75*
G02*
X101050000Y61700000I450000J0D01*
G01*
X101050000Y61700000D01*
G37*
G36*
X101950000Y67400000D02*
G01*
X101950000Y67400000D01*
G75*
G02*
X101950000Y67400000I450000J0D01*
G01*
X101950000Y67400000D01*
G37*
G36*
X101950000Y62600000D02*
G01*
X101950000Y62600000D01*
G75*
G02*
X101950000Y62600000I450000J0D01*
G01*
X101950000Y62600000D01*
G37*
G36*
X102850000Y68300000D02*
G01*
X102850000Y68300000D01*
G75*
G02*
X102850000Y68300000I450000J0D01*
G01*
X102850000Y68300000D01*
G37*
G36*
X102850000Y66500000D02*
G01*
X102850000Y66500000D01*
G75*
G02*
X102850000Y66500000I450000J0D01*
G01*
X102850000Y66500000D01*
G37*
G36*
X102850000Y63500000D02*
G01*
X102850000Y63500000D01*
G75*
G02*
X102850000Y63500000I450000J0D01*
G01*
X102850000Y63500000D01*
G37*
G36*
X102850000Y61700000D02*
G01*
X102850000Y61700000D01*
G75*
G02*
X102850000Y61700000I450000J0D01*
G01*
X102850000Y61700000D01*
G37*
%TO.C,SW29*%
G36*
X106250000Y108300000D02*
G01*
X106250000Y108300000D01*
G75*
G02*
X106250000Y108300000I450000J0D01*
G01*
X106250000Y108300000D01*
G37*
G36*
X106250000Y106500000D02*
G01*
X106250000Y106500000D01*
G75*
G02*
X106250000Y106500000I450000J0D01*
G01*
X106250000Y106500000D01*
G37*
G36*
X106250000Y103500000D02*
G01*
X106250000Y103500000D01*
G75*
G02*
X106250000Y103500000I450000J0D01*
G01*
X106250000Y103500000D01*
G37*
G36*
X106250000Y101700000D02*
G01*
X106250000Y101700000D01*
G75*
G02*
X106250000Y101700000I450000J0D01*
G01*
X106250000Y101700000D01*
G37*
G36*
X107150000Y107400000D02*
G01*
X107150000Y107400000D01*
G75*
G02*
X107150000Y107400000I450000J0D01*
G01*
X107150000Y107400000D01*
G37*
G36*
X107150000Y102600000D02*
G01*
X107150000Y102600000D01*
G75*
G02*
X107150000Y102600000I450000J0D01*
G01*
X107150000Y102600000D01*
G37*
G36*
X108050000Y108300000D02*
G01*
X108050000Y108300000D01*
G75*
G02*
X108050000Y108300000I450000J0D01*
G01*
X108050000Y108300000D01*
G37*
G36*
X108050000Y106500000D02*
G01*
X108050000Y106500000D01*
G75*
G02*
X108050000Y106500000I450000J0D01*
G01*
X108050000Y106500000D01*
G37*
G36*
X108050000Y103500000D02*
G01*
X108050000Y103500000D01*
G75*
G02*
X108050000Y103500000I450000J0D01*
G01*
X108050000Y103500000D01*
G37*
G36*
X108050000Y101700000D02*
G01*
X108050000Y101700000D01*
G75*
G02*
X108050000Y101700000I450000J0D01*
G01*
X108050000Y101700000D01*
G37*
G36*
X111050000Y108300000D02*
G01*
X111050000Y108300000D01*
G75*
G02*
X111050000Y108300000I450000J0D01*
G01*
X111050000Y108300000D01*
G37*
G36*
X111050000Y106500000D02*
G01*
X111050000Y106500000D01*
G75*
G02*
X111050000Y106500000I450000J0D01*
G01*
X111050000Y106500000D01*
G37*
G36*
X111050000Y103500000D02*
G01*
X111050000Y103500000D01*
G75*
G02*
X111050000Y103500000I450000J0D01*
G01*
X111050000Y103500000D01*
G37*
G36*
X111050000Y101700000D02*
G01*
X111050000Y101700000D01*
G75*
G02*
X111050000Y101700000I450000J0D01*
G01*
X111050000Y101700000D01*
G37*
G36*
X111950000Y107400000D02*
G01*
X111950000Y107400000D01*
G75*
G02*
X111950000Y107400000I450000J0D01*
G01*
X111950000Y107400000D01*
G37*
G36*
X111950000Y102600000D02*
G01*
X111950000Y102600000D01*
G75*
G02*
X111950000Y102600000I450000J0D01*
G01*
X111950000Y102600000D01*
G37*
G36*
X112850000Y108300000D02*
G01*
X112850000Y108300000D01*
G75*
G02*
X112850000Y108300000I450000J0D01*
G01*
X112850000Y108300000D01*
G37*
G36*
X112850000Y106500000D02*
G01*
X112850000Y106500000D01*
G75*
G02*
X112850000Y106500000I450000J0D01*
G01*
X112850000Y106500000D01*
G37*
G36*
X112850000Y103500000D02*
G01*
X112850000Y103500000D01*
G75*
G02*
X112850000Y103500000I450000J0D01*
G01*
X112850000Y103500000D01*
G37*
G36*
X112850000Y101700000D02*
G01*
X112850000Y101700000D01*
G75*
G02*
X112850000Y101700000I450000J0D01*
G01*
X112850000Y101700000D01*
G37*
%TO.C,SW49*%
G36*
X66250000Y78300000D02*
G01*
X66250000Y78300000D01*
G75*
G02*
X66250000Y78300000I450000J0D01*
G01*
X66250000Y78300000D01*
G37*
G36*
X66250000Y76500000D02*
G01*
X66250000Y76500000D01*
G75*
G02*
X66250000Y76500000I450000J0D01*
G01*
X66250000Y76500000D01*
G37*
G36*
X66250000Y73500000D02*
G01*
X66250000Y73500000D01*
G75*
G02*
X66250000Y73500000I450000J0D01*
G01*
X66250000Y73500000D01*
G37*
G36*
X66250000Y71700000D02*
G01*
X66250000Y71700000D01*
G75*
G02*
X66250000Y71700000I450000J0D01*
G01*
X66250000Y71700000D01*
G37*
G36*
X67150000Y77400000D02*
G01*
X67150000Y77400000D01*
G75*
G02*
X67150000Y77400000I450000J0D01*
G01*
X67150000Y77400000D01*
G37*
G36*
X67150000Y72600000D02*
G01*
X67150000Y72600000D01*
G75*
G02*
X67150000Y72600000I450000J0D01*
G01*
X67150000Y72600000D01*
G37*
G36*
X68050000Y78300000D02*
G01*
X68050000Y78300000D01*
G75*
G02*
X68050000Y78300000I450000J0D01*
G01*
X68050000Y78300000D01*
G37*
G36*
X68050000Y76500000D02*
G01*
X68050000Y76500000D01*
G75*
G02*
X68050000Y76500000I450000J0D01*
G01*
X68050000Y76500000D01*
G37*
G36*
X68050000Y73500000D02*
G01*
X68050000Y73500000D01*
G75*
G02*
X68050000Y73500000I450000J0D01*
G01*
X68050000Y73500000D01*
G37*
G36*
X68050000Y71700000D02*
G01*
X68050000Y71700000D01*
G75*
G02*
X68050000Y71700000I450000J0D01*
G01*
X68050000Y71700000D01*
G37*
G36*
X71050000Y78300000D02*
G01*
X71050000Y78300000D01*
G75*
G02*
X71050000Y78300000I450000J0D01*
G01*
X71050000Y78300000D01*
G37*
G36*
X71050000Y76500000D02*
G01*
X71050000Y76500000D01*
G75*
G02*
X71050000Y76500000I450000J0D01*
G01*
X71050000Y76500000D01*
G37*
G36*
X71050000Y73500000D02*
G01*
X71050000Y73500000D01*
G75*
G02*
X71050000Y73500000I450000J0D01*
G01*
X71050000Y73500000D01*
G37*
G36*
X71050000Y71700000D02*
G01*
X71050000Y71700000D01*
G75*
G02*
X71050000Y71700000I450000J0D01*
G01*
X71050000Y71700000D01*
G37*
G36*
X71950000Y77400000D02*
G01*
X71950000Y77400000D01*
G75*
G02*
X71950000Y77400000I450000J0D01*
G01*
X71950000Y77400000D01*
G37*
G36*
X71950000Y72600000D02*
G01*
X71950000Y72600000D01*
G75*
G02*
X71950000Y72600000I450000J0D01*
G01*
X71950000Y72600000D01*
G37*
G36*
X72850000Y78300000D02*
G01*
X72850000Y78300000D01*
G75*
G02*
X72850000Y78300000I450000J0D01*
G01*
X72850000Y78300000D01*
G37*
G36*
X72850000Y76500000D02*
G01*
X72850000Y76500000D01*
G75*
G02*
X72850000Y76500000I450000J0D01*
G01*
X72850000Y76500000D01*
G37*
G36*
X72850000Y73500000D02*
G01*
X72850000Y73500000D01*
G75*
G02*
X72850000Y73500000I450000J0D01*
G01*
X72850000Y73500000D01*
G37*
G36*
X72850000Y71700000D02*
G01*
X72850000Y71700000D01*
G75*
G02*
X72850000Y71700000I450000J0D01*
G01*
X72850000Y71700000D01*
G37*
%TO.C,SW22*%
G36*
X116250000Y118300000D02*
G01*
X116250000Y118300000D01*
G75*
G02*
X116250000Y118300000I450000J0D01*
G01*
X116250000Y118300000D01*
G37*
G36*
X116250000Y116500000D02*
G01*
X116250000Y116500000D01*
G75*
G02*
X116250000Y116500000I450000J0D01*
G01*
X116250000Y116500000D01*
G37*
G36*
X116250000Y113500000D02*
G01*
X116250000Y113500000D01*
G75*
G02*
X116250000Y113500000I450000J0D01*
G01*
X116250000Y113500000D01*
G37*
G36*
X116250000Y111700000D02*
G01*
X116250000Y111700000D01*
G75*
G02*
X116250000Y111700000I450000J0D01*
G01*
X116250000Y111700000D01*
G37*
G36*
X117150000Y117400000D02*
G01*
X117150000Y117400000D01*
G75*
G02*
X117150000Y117400000I450000J0D01*
G01*
X117150000Y117400000D01*
G37*
G36*
X117150000Y112600000D02*
G01*
X117150000Y112600000D01*
G75*
G02*
X117150000Y112600000I450000J0D01*
G01*
X117150000Y112600000D01*
G37*
G36*
X118050000Y118300000D02*
G01*
X118050000Y118300000D01*
G75*
G02*
X118050000Y118300000I450000J0D01*
G01*
X118050000Y118300000D01*
G37*
G36*
X118050000Y116500000D02*
G01*
X118050000Y116500000D01*
G75*
G02*
X118050000Y116500000I450000J0D01*
G01*
X118050000Y116500000D01*
G37*
G36*
X118050000Y113500000D02*
G01*
X118050000Y113500000D01*
G75*
G02*
X118050000Y113500000I450000J0D01*
G01*
X118050000Y113500000D01*
G37*
G36*
X118050000Y111700000D02*
G01*
X118050000Y111700000D01*
G75*
G02*
X118050000Y111700000I450000J0D01*
G01*
X118050000Y111700000D01*
G37*
G36*
X121050000Y118300000D02*
G01*
X121050000Y118300000D01*
G75*
G02*
X121050000Y118300000I450000J0D01*
G01*
X121050000Y118300000D01*
G37*
G36*
X121050000Y116500000D02*
G01*
X121050000Y116500000D01*
G75*
G02*
X121050000Y116500000I450000J0D01*
G01*
X121050000Y116500000D01*
G37*
G36*
X121050000Y113500000D02*
G01*
X121050000Y113500000D01*
G75*
G02*
X121050000Y113500000I450000J0D01*
G01*
X121050000Y113500000D01*
G37*
G36*
X121050000Y111700000D02*
G01*
X121050000Y111700000D01*
G75*
G02*
X121050000Y111700000I450000J0D01*
G01*
X121050000Y111700000D01*
G37*
G36*
X121950000Y117400000D02*
G01*
X121950000Y117400000D01*
G75*
G02*
X121950000Y117400000I450000J0D01*
G01*
X121950000Y117400000D01*
G37*
G36*
X121950000Y112600000D02*
G01*
X121950000Y112600000D01*
G75*
G02*
X121950000Y112600000I450000J0D01*
G01*
X121950000Y112600000D01*
G37*
G36*
X122850000Y118300000D02*
G01*
X122850000Y118300000D01*
G75*
G02*
X122850000Y118300000I450000J0D01*
G01*
X122850000Y118300000D01*
G37*
G36*
X122850000Y116500000D02*
G01*
X122850000Y116500000D01*
G75*
G02*
X122850000Y116500000I450000J0D01*
G01*
X122850000Y116500000D01*
G37*
G36*
X122850000Y113500000D02*
G01*
X122850000Y113500000D01*
G75*
G02*
X122850000Y113500000I450000J0D01*
G01*
X122850000Y113500000D01*
G37*
G36*
X122850000Y111700000D02*
G01*
X122850000Y111700000D01*
G75*
G02*
X122850000Y111700000I450000J0D01*
G01*
X122850000Y111700000D01*
G37*
%TO.C,SW50*%
G36*
X76250000Y78300000D02*
G01*
X76250000Y78300000D01*
G75*
G02*
X76250000Y78300000I450000J0D01*
G01*
X76250000Y78300000D01*
G37*
G36*
X76250000Y76500000D02*
G01*
X76250000Y76500000D01*
G75*
G02*
X76250000Y76500000I450000J0D01*
G01*
X76250000Y76500000D01*
G37*
G36*
X76250000Y73500000D02*
G01*
X76250000Y73500000D01*
G75*
G02*
X76250000Y73500000I450000J0D01*
G01*
X76250000Y73500000D01*
G37*
G36*
X76250000Y71700000D02*
G01*
X76250000Y71700000D01*
G75*
G02*
X76250000Y71700000I450000J0D01*
G01*
X76250000Y71700000D01*
G37*
G36*
X77150000Y77400000D02*
G01*
X77150000Y77400000D01*
G75*
G02*
X77150000Y77400000I450000J0D01*
G01*
X77150000Y77400000D01*
G37*
G36*
X77150000Y72600000D02*
G01*
X77150000Y72600000D01*
G75*
G02*
X77150000Y72600000I450000J0D01*
G01*
X77150000Y72600000D01*
G37*
G36*
X78050000Y78300000D02*
G01*
X78050000Y78300000D01*
G75*
G02*
X78050000Y78300000I450000J0D01*
G01*
X78050000Y78300000D01*
G37*
G36*
X78050000Y76500000D02*
G01*
X78050000Y76500000D01*
G75*
G02*
X78050000Y76500000I450000J0D01*
G01*
X78050000Y76500000D01*
G37*
G36*
X78050000Y73500000D02*
G01*
X78050000Y73500000D01*
G75*
G02*
X78050000Y73500000I450000J0D01*
G01*
X78050000Y73500000D01*
G37*
G36*
X78050000Y71700000D02*
G01*
X78050000Y71700000D01*
G75*
G02*
X78050000Y71700000I450000J0D01*
G01*
X78050000Y71700000D01*
G37*
G36*
X81050000Y78300000D02*
G01*
X81050000Y78300000D01*
G75*
G02*
X81050000Y78300000I450000J0D01*
G01*
X81050000Y78300000D01*
G37*
G36*
X81050000Y76500000D02*
G01*
X81050000Y76500000D01*
G75*
G02*
X81050000Y76500000I450000J0D01*
G01*
X81050000Y76500000D01*
G37*
G36*
X81050000Y73500000D02*
G01*
X81050000Y73500000D01*
G75*
G02*
X81050000Y73500000I450000J0D01*
G01*
X81050000Y73500000D01*
G37*
G36*
X81050000Y71700000D02*
G01*
X81050000Y71700000D01*
G75*
G02*
X81050000Y71700000I450000J0D01*
G01*
X81050000Y71700000D01*
G37*
G36*
X81950000Y77400000D02*
G01*
X81950000Y77400000D01*
G75*
G02*
X81950000Y77400000I450000J0D01*
G01*
X81950000Y77400000D01*
G37*
G36*
X81950000Y72600000D02*
G01*
X81950000Y72600000D01*
G75*
G02*
X81950000Y72600000I450000J0D01*
G01*
X81950000Y72600000D01*
G37*
G36*
X82850000Y78300000D02*
G01*
X82850000Y78300000D01*
G75*
G02*
X82850000Y78300000I450000J0D01*
G01*
X82850000Y78300000D01*
G37*
G36*
X82850000Y76500000D02*
G01*
X82850000Y76500000D01*
G75*
G02*
X82850000Y76500000I450000J0D01*
G01*
X82850000Y76500000D01*
G37*
G36*
X82850000Y73500000D02*
G01*
X82850000Y73500000D01*
G75*
G02*
X82850000Y73500000I450000J0D01*
G01*
X82850000Y73500000D01*
G37*
G36*
X82850000Y71700000D02*
G01*
X82850000Y71700000D01*
G75*
G02*
X82850000Y71700000I450000J0D01*
G01*
X82850000Y71700000D01*
G37*
%TO.C,SW23*%
G36*
X126250000Y118300000D02*
G01*
X126250000Y118300000D01*
G75*
G02*
X126250000Y118300000I450000J0D01*
G01*
X126250000Y118300000D01*
G37*
G36*
X126250000Y116500000D02*
G01*
X126250000Y116500000D01*
G75*
G02*
X126250000Y116500000I450000J0D01*
G01*
X126250000Y116500000D01*
G37*
G36*
X126250000Y113500000D02*
G01*
X126250000Y113500000D01*
G75*
G02*
X126250000Y113500000I450000J0D01*
G01*
X126250000Y113500000D01*
G37*
G36*
X126250000Y111700000D02*
G01*
X126250000Y111700000D01*
G75*
G02*
X126250000Y111700000I450000J0D01*
G01*
X126250000Y111700000D01*
G37*
G36*
X127150000Y117400000D02*
G01*
X127150000Y117400000D01*
G75*
G02*
X127150000Y117400000I450000J0D01*
G01*
X127150000Y117400000D01*
G37*
G36*
X127150000Y112600000D02*
G01*
X127150000Y112600000D01*
G75*
G02*
X127150000Y112600000I450000J0D01*
G01*
X127150000Y112600000D01*
G37*
G36*
X128050000Y118300000D02*
G01*
X128050000Y118300000D01*
G75*
G02*
X128050000Y118300000I450000J0D01*
G01*
X128050000Y118300000D01*
G37*
G36*
X128050000Y116500000D02*
G01*
X128050000Y116500000D01*
G75*
G02*
X128050000Y116500000I450000J0D01*
G01*
X128050000Y116500000D01*
G37*
G36*
X128050000Y113500000D02*
G01*
X128050000Y113500000D01*
G75*
G02*
X128050000Y113500000I450000J0D01*
G01*
X128050000Y113500000D01*
G37*
G36*
X128050000Y111700000D02*
G01*
X128050000Y111700000D01*
G75*
G02*
X128050000Y111700000I450000J0D01*
G01*
X128050000Y111700000D01*
G37*
G36*
X131050000Y118300000D02*
G01*
X131050000Y118300000D01*
G75*
G02*
X131050000Y118300000I450000J0D01*
G01*
X131050000Y118300000D01*
G37*
G36*
X131050000Y116500000D02*
G01*
X131050000Y116500000D01*
G75*
G02*
X131050000Y116500000I450000J0D01*
G01*
X131050000Y116500000D01*
G37*
G36*
X131050000Y113500000D02*
G01*
X131050000Y113500000D01*
G75*
G02*
X131050000Y113500000I450000J0D01*
G01*
X131050000Y113500000D01*
G37*
G36*
X131050000Y111700000D02*
G01*
X131050000Y111700000D01*
G75*
G02*
X131050000Y111700000I450000J0D01*
G01*
X131050000Y111700000D01*
G37*
G36*
X131950000Y117400000D02*
G01*
X131950000Y117400000D01*
G75*
G02*
X131950000Y117400000I450000J0D01*
G01*
X131950000Y117400000D01*
G37*
G36*
X131950000Y112600000D02*
G01*
X131950000Y112600000D01*
G75*
G02*
X131950000Y112600000I450000J0D01*
G01*
X131950000Y112600000D01*
G37*
G36*
X132850000Y118300000D02*
G01*
X132850000Y118300000D01*
G75*
G02*
X132850000Y118300000I450000J0D01*
G01*
X132850000Y118300000D01*
G37*
G36*
X132850000Y116500000D02*
G01*
X132850000Y116500000D01*
G75*
G02*
X132850000Y116500000I450000J0D01*
G01*
X132850000Y116500000D01*
G37*
G36*
X132850000Y113500000D02*
G01*
X132850000Y113500000D01*
G75*
G02*
X132850000Y113500000I450000J0D01*
G01*
X132850000Y113500000D01*
G37*
G36*
X132850000Y111700000D02*
G01*
X132850000Y111700000D01*
G75*
G02*
X132850000Y111700000I450000J0D01*
G01*
X132850000Y111700000D01*
G37*
%TO.C,SW38*%
G36*
X116250000Y98300000D02*
G01*
X116250000Y98300000D01*
G75*
G02*
X116250000Y98300000I450000J0D01*
G01*
X116250000Y98300000D01*
G37*
G36*
X116250000Y96500000D02*
G01*
X116250000Y96500000D01*
G75*
G02*
X116250000Y96500000I450000J0D01*
G01*
X116250000Y96500000D01*
G37*
G36*
X116250000Y93500000D02*
G01*
X116250000Y93500000D01*
G75*
G02*
X116250000Y93500000I450000J0D01*
G01*
X116250000Y93500000D01*
G37*
G36*
X116250000Y91700000D02*
G01*
X116250000Y91700000D01*
G75*
G02*
X116250000Y91700000I450000J0D01*
G01*
X116250000Y91700000D01*
G37*
G36*
X117150000Y97400000D02*
G01*
X117150000Y97400000D01*
G75*
G02*
X117150000Y97400000I450000J0D01*
G01*
X117150000Y97400000D01*
G37*
G36*
X117150000Y92600000D02*
G01*
X117150000Y92600000D01*
G75*
G02*
X117150000Y92600000I450000J0D01*
G01*
X117150000Y92600000D01*
G37*
G36*
X118050000Y98300000D02*
G01*
X118050000Y98300000D01*
G75*
G02*
X118050000Y98300000I450000J0D01*
G01*
X118050000Y98300000D01*
G37*
G36*
X118050000Y96500000D02*
G01*
X118050000Y96500000D01*
G75*
G02*
X118050000Y96500000I450000J0D01*
G01*
X118050000Y96500000D01*
G37*
G36*
X118050000Y93500000D02*
G01*
X118050000Y93500000D01*
G75*
G02*
X118050000Y93500000I450000J0D01*
G01*
X118050000Y93500000D01*
G37*
G36*
X118050000Y91700000D02*
G01*
X118050000Y91700000D01*
G75*
G02*
X118050000Y91700000I450000J0D01*
G01*
X118050000Y91700000D01*
G37*
G36*
X121050000Y98300000D02*
G01*
X121050000Y98300000D01*
G75*
G02*
X121050000Y98300000I450000J0D01*
G01*
X121050000Y98300000D01*
G37*
G36*
X121050000Y96500000D02*
G01*
X121050000Y96500000D01*
G75*
G02*
X121050000Y96500000I450000J0D01*
G01*
X121050000Y96500000D01*
G37*
G36*
X121050000Y93500000D02*
G01*
X121050000Y93500000D01*
G75*
G02*
X121050000Y93500000I450000J0D01*
G01*
X121050000Y93500000D01*
G37*
G36*
X121050000Y91700000D02*
G01*
X121050000Y91700000D01*
G75*
G02*
X121050000Y91700000I450000J0D01*
G01*
X121050000Y91700000D01*
G37*
G36*
X121950000Y97400000D02*
G01*
X121950000Y97400000D01*
G75*
G02*
X121950000Y97400000I450000J0D01*
G01*
X121950000Y97400000D01*
G37*
G36*
X121950000Y92600000D02*
G01*
X121950000Y92600000D01*
G75*
G02*
X121950000Y92600000I450000J0D01*
G01*
X121950000Y92600000D01*
G37*
G36*
X122850000Y98300000D02*
G01*
X122850000Y98300000D01*
G75*
G02*
X122850000Y98300000I450000J0D01*
G01*
X122850000Y98300000D01*
G37*
G36*
X122850000Y96500000D02*
G01*
X122850000Y96500000D01*
G75*
G02*
X122850000Y96500000I450000J0D01*
G01*
X122850000Y96500000D01*
G37*
G36*
X122850000Y93500000D02*
G01*
X122850000Y93500000D01*
G75*
G02*
X122850000Y93500000I450000J0D01*
G01*
X122850000Y93500000D01*
G37*
G36*
X122850000Y91700000D02*
G01*
X122850000Y91700000D01*
G75*
G02*
X122850000Y91700000I450000J0D01*
G01*
X122850000Y91700000D01*
G37*
%TO.C,SW14*%
G36*
X116250000Y128300000D02*
G01*
X116250000Y128300000D01*
G75*
G02*
X116250000Y128300000I450000J0D01*
G01*
X116250000Y128300000D01*
G37*
G36*
X116250000Y126500000D02*
G01*
X116250000Y126500000D01*
G75*
G02*
X116250000Y126500000I450000J0D01*
G01*
X116250000Y126500000D01*
G37*
G36*
X116250000Y123500000D02*
G01*
X116250000Y123500000D01*
G75*
G02*
X116250000Y123500000I450000J0D01*
G01*
X116250000Y123500000D01*
G37*
G36*
X116250000Y121700000D02*
G01*
X116250000Y121700000D01*
G75*
G02*
X116250000Y121700000I450000J0D01*
G01*
X116250000Y121700000D01*
G37*
G36*
X117150000Y127400000D02*
G01*
X117150000Y127400000D01*
G75*
G02*
X117150000Y127400000I450000J0D01*
G01*
X117150000Y127400000D01*
G37*
G36*
X117150000Y122600000D02*
G01*
X117150000Y122600000D01*
G75*
G02*
X117150000Y122600000I450000J0D01*
G01*
X117150000Y122600000D01*
G37*
G36*
X118050000Y128300000D02*
G01*
X118050000Y128300000D01*
G75*
G02*
X118050000Y128300000I450000J0D01*
G01*
X118050000Y128300000D01*
G37*
G36*
X118050000Y126500000D02*
G01*
X118050000Y126500000D01*
G75*
G02*
X118050000Y126500000I450000J0D01*
G01*
X118050000Y126500000D01*
G37*
G36*
X118050000Y123500000D02*
G01*
X118050000Y123500000D01*
G75*
G02*
X118050000Y123500000I450000J0D01*
G01*
X118050000Y123500000D01*
G37*
G36*
X118050000Y121700000D02*
G01*
X118050000Y121700000D01*
G75*
G02*
X118050000Y121700000I450000J0D01*
G01*
X118050000Y121700000D01*
G37*
G36*
X121050000Y128300000D02*
G01*
X121050000Y128300000D01*
G75*
G02*
X121050000Y128300000I450000J0D01*
G01*
X121050000Y128300000D01*
G37*
G36*
X121050000Y126500000D02*
G01*
X121050000Y126500000D01*
G75*
G02*
X121050000Y126500000I450000J0D01*
G01*
X121050000Y126500000D01*
G37*
G36*
X121050000Y123500000D02*
G01*
X121050000Y123500000D01*
G75*
G02*
X121050000Y123500000I450000J0D01*
G01*
X121050000Y123500000D01*
G37*
G36*
X121050000Y121700000D02*
G01*
X121050000Y121700000D01*
G75*
G02*
X121050000Y121700000I450000J0D01*
G01*
X121050000Y121700000D01*
G37*
G36*
X121950000Y127400000D02*
G01*
X121950000Y127400000D01*
G75*
G02*
X121950000Y127400000I450000J0D01*
G01*
X121950000Y127400000D01*
G37*
G36*
X121950000Y122600000D02*
G01*
X121950000Y122600000D01*
G75*
G02*
X121950000Y122600000I450000J0D01*
G01*
X121950000Y122600000D01*
G37*
G36*
X122850000Y128300000D02*
G01*
X122850000Y128300000D01*
G75*
G02*
X122850000Y128300000I450000J0D01*
G01*
X122850000Y128300000D01*
G37*
G36*
X122850000Y126500000D02*
G01*
X122850000Y126500000D01*
G75*
G02*
X122850000Y126500000I450000J0D01*
G01*
X122850000Y126500000D01*
G37*
G36*
X122850000Y123500000D02*
G01*
X122850000Y123500000D01*
G75*
G02*
X122850000Y123500000I450000J0D01*
G01*
X122850000Y123500000D01*
G37*
G36*
X122850000Y121700000D02*
G01*
X122850000Y121700000D01*
G75*
G02*
X122850000Y121700000I450000J0D01*
G01*
X122850000Y121700000D01*
G37*
%TO.C,SW45*%
G36*
X106250000Y88300000D02*
G01*
X106250000Y88300000D01*
G75*
G02*
X106250000Y88300000I450000J0D01*
G01*
X106250000Y88300000D01*
G37*
G36*
X106250000Y86500000D02*
G01*
X106250000Y86500000D01*
G75*
G02*
X106250000Y86500000I450000J0D01*
G01*
X106250000Y86500000D01*
G37*
G36*
X106250000Y83500000D02*
G01*
X106250000Y83500000D01*
G75*
G02*
X106250000Y83500000I450000J0D01*
G01*
X106250000Y83500000D01*
G37*
G36*
X106250000Y81700000D02*
G01*
X106250000Y81700000D01*
G75*
G02*
X106250000Y81700000I450000J0D01*
G01*
X106250000Y81700000D01*
G37*
G36*
X107150000Y87400000D02*
G01*
X107150000Y87400000D01*
G75*
G02*
X107150000Y87400000I450000J0D01*
G01*
X107150000Y87400000D01*
G37*
G36*
X107150000Y82600000D02*
G01*
X107150000Y82600000D01*
G75*
G02*
X107150000Y82600000I450000J0D01*
G01*
X107150000Y82600000D01*
G37*
G36*
X108050000Y88300000D02*
G01*
X108050000Y88300000D01*
G75*
G02*
X108050000Y88300000I450000J0D01*
G01*
X108050000Y88300000D01*
G37*
G36*
X108050000Y86500000D02*
G01*
X108050000Y86500000D01*
G75*
G02*
X108050000Y86500000I450000J0D01*
G01*
X108050000Y86500000D01*
G37*
G36*
X108050000Y83500000D02*
G01*
X108050000Y83500000D01*
G75*
G02*
X108050000Y83500000I450000J0D01*
G01*
X108050000Y83500000D01*
G37*
G36*
X108050000Y81700000D02*
G01*
X108050000Y81700000D01*
G75*
G02*
X108050000Y81700000I450000J0D01*
G01*
X108050000Y81700000D01*
G37*
G36*
X111050000Y88300000D02*
G01*
X111050000Y88300000D01*
G75*
G02*
X111050000Y88300000I450000J0D01*
G01*
X111050000Y88300000D01*
G37*
G36*
X111050000Y86500000D02*
G01*
X111050000Y86500000D01*
G75*
G02*
X111050000Y86500000I450000J0D01*
G01*
X111050000Y86500000D01*
G37*
G36*
X111050000Y83500000D02*
G01*
X111050000Y83500000D01*
G75*
G02*
X111050000Y83500000I450000J0D01*
G01*
X111050000Y83500000D01*
G37*
G36*
X111050000Y81700000D02*
G01*
X111050000Y81700000D01*
G75*
G02*
X111050000Y81700000I450000J0D01*
G01*
X111050000Y81700000D01*
G37*
G36*
X111950000Y87400000D02*
G01*
X111950000Y87400000D01*
G75*
G02*
X111950000Y87400000I450000J0D01*
G01*
X111950000Y87400000D01*
G37*
G36*
X111950000Y82600000D02*
G01*
X111950000Y82600000D01*
G75*
G02*
X111950000Y82600000I450000J0D01*
G01*
X111950000Y82600000D01*
G37*
G36*
X112850000Y88300000D02*
G01*
X112850000Y88300000D01*
G75*
G02*
X112850000Y88300000I450000J0D01*
G01*
X112850000Y88300000D01*
G37*
G36*
X112850000Y86500000D02*
G01*
X112850000Y86500000D01*
G75*
G02*
X112850000Y86500000I450000J0D01*
G01*
X112850000Y86500000D01*
G37*
G36*
X112850000Y83500000D02*
G01*
X112850000Y83500000D01*
G75*
G02*
X112850000Y83500000I450000J0D01*
G01*
X112850000Y83500000D01*
G37*
G36*
X112850000Y81700000D02*
G01*
X112850000Y81700000D01*
G75*
G02*
X112850000Y81700000I450000J0D01*
G01*
X112850000Y81700000D01*
G37*
%TO.C,SW8*%
G36*
X136250000Y138300000D02*
G01*
X136250000Y138300000D01*
G75*
G02*
X136250000Y138300000I450000J0D01*
G01*
X136250000Y138300000D01*
G37*
G36*
X136250000Y136500000D02*
G01*
X136250000Y136500000D01*
G75*
G02*
X136250000Y136500000I450000J0D01*
G01*
X136250000Y136500000D01*
G37*
G36*
X136250000Y133500000D02*
G01*
X136250000Y133500000D01*
G75*
G02*
X136250000Y133500000I450000J0D01*
G01*
X136250000Y133500000D01*
G37*
G36*
X136250000Y131700000D02*
G01*
X136250000Y131700000D01*
G75*
G02*
X136250000Y131700000I450000J0D01*
G01*
X136250000Y131700000D01*
G37*
G36*
X137150000Y137400000D02*
G01*
X137150000Y137400000D01*
G75*
G02*
X137150000Y137400000I450000J0D01*
G01*
X137150000Y137400000D01*
G37*
G36*
X137150000Y132600000D02*
G01*
X137150000Y132600000D01*
G75*
G02*
X137150000Y132600000I450000J0D01*
G01*
X137150000Y132600000D01*
G37*
G36*
X138050000Y138300000D02*
G01*
X138050000Y138300000D01*
G75*
G02*
X138050000Y138300000I450000J0D01*
G01*
X138050000Y138300000D01*
G37*
G36*
X138050000Y136500000D02*
G01*
X138050000Y136500000D01*
G75*
G02*
X138050000Y136500000I450000J0D01*
G01*
X138050000Y136500000D01*
G37*
G36*
X138050000Y133500000D02*
G01*
X138050000Y133500000D01*
G75*
G02*
X138050000Y133500000I450000J0D01*
G01*
X138050000Y133500000D01*
G37*
G36*
X138050000Y131700000D02*
G01*
X138050000Y131700000D01*
G75*
G02*
X138050000Y131700000I450000J0D01*
G01*
X138050000Y131700000D01*
G37*
G36*
X141050000Y138300000D02*
G01*
X141050000Y138300000D01*
G75*
G02*
X141050000Y138300000I450000J0D01*
G01*
X141050000Y138300000D01*
G37*
G36*
X141050000Y136500000D02*
G01*
X141050000Y136500000D01*
G75*
G02*
X141050000Y136500000I450000J0D01*
G01*
X141050000Y136500000D01*
G37*
G36*
X141050000Y133500000D02*
G01*
X141050000Y133500000D01*
G75*
G02*
X141050000Y133500000I450000J0D01*
G01*
X141050000Y133500000D01*
G37*
G36*
X141050000Y131700000D02*
G01*
X141050000Y131700000D01*
G75*
G02*
X141050000Y131700000I450000J0D01*
G01*
X141050000Y131700000D01*
G37*
G36*
X141950000Y137400000D02*
G01*
X141950000Y137400000D01*
G75*
G02*
X141950000Y137400000I450000J0D01*
G01*
X141950000Y137400000D01*
G37*
G36*
X141950000Y132600000D02*
G01*
X141950000Y132600000D01*
G75*
G02*
X141950000Y132600000I450000J0D01*
G01*
X141950000Y132600000D01*
G37*
G36*
X142850000Y138300000D02*
G01*
X142850000Y138300000D01*
G75*
G02*
X142850000Y138300000I450000J0D01*
G01*
X142850000Y138300000D01*
G37*
G36*
X142850000Y136500000D02*
G01*
X142850000Y136500000D01*
G75*
G02*
X142850000Y136500000I450000J0D01*
G01*
X142850000Y136500000D01*
G37*
G36*
X142850000Y133500000D02*
G01*
X142850000Y133500000D01*
G75*
G02*
X142850000Y133500000I450000J0D01*
G01*
X142850000Y133500000D01*
G37*
G36*
X142850000Y131700000D02*
G01*
X142850000Y131700000D01*
G75*
G02*
X142850000Y131700000I450000J0D01*
G01*
X142850000Y131700000D01*
G37*
%TO.C,SW63*%
G36*
X126250000Y68300000D02*
G01*
X126250000Y68300000D01*
G75*
G02*
X126250000Y68300000I450000J0D01*
G01*
X126250000Y68300000D01*
G37*
G36*
X126250000Y66500000D02*
G01*
X126250000Y66500000D01*
G75*
G02*
X126250000Y66500000I450000J0D01*
G01*
X126250000Y66500000D01*
G37*
G36*
X126250000Y63500000D02*
G01*
X126250000Y63500000D01*
G75*
G02*
X126250000Y63500000I450000J0D01*
G01*
X126250000Y63500000D01*
G37*
G36*
X126250000Y61700000D02*
G01*
X126250000Y61700000D01*
G75*
G02*
X126250000Y61700000I450000J0D01*
G01*
X126250000Y61700000D01*
G37*
G36*
X127150000Y67400000D02*
G01*
X127150000Y67400000D01*
G75*
G02*
X127150000Y67400000I450000J0D01*
G01*
X127150000Y67400000D01*
G37*
G36*
X127150000Y62600000D02*
G01*
X127150000Y62600000D01*
G75*
G02*
X127150000Y62600000I450000J0D01*
G01*
X127150000Y62600000D01*
G37*
G36*
X128050000Y68300000D02*
G01*
X128050000Y68300000D01*
G75*
G02*
X128050000Y68300000I450000J0D01*
G01*
X128050000Y68300000D01*
G37*
G36*
X128050000Y66500000D02*
G01*
X128050000Y66500000D01*
G75*
G02*
X128050000Y66500000I450000J0D01*
G01*
X128050000Y66500000D01*
G37*
G36*
X128050000Y63500000D02*
G01*
X128050000Y63500000D01*
G75*
G02*
X128050000Y63500000I450000J0D01*
G01*
X128050000Y63500000D01*
G37*
G36*
X128050000Y61700000D02*
G01*
X128050000Y61700000D01*
G75*
G02*
X128050000Y61700000I450000J0D01*
G01*
X128050000Y61700000D01*
G37*
G36*
X131050000Y68300000D02*
G01*
X131050000Y68300000D01*
G75*
G02*
X131050000Y68300000I450000J0D01*
G01*
X131050000Y68300000D01*
G37*
G36*
X131050000Y66500000D02*
G01*
X131050000Y66500000D01*
G75*
G02*
X131050000Y66500000I450000J0D01*
G01*
X131050000Y66500000D01*
G37*
G36*
X131050000Y63500000D02*
G01*
X131050000Y63500000D01*
G75*
G02*
X131050000Y63500000I450000J0D01*
G01*
X131050000Y63500000D01*
G37*
G36*
X131050000Y61700000D02*
G01*
X131050000Y61700000D01*
G75*
G02*
X131050000Y61700000I450000J0D01*
G01*
X131050000Y61700000D01*
G37*
G36*
X131950000Y67400000D02*
G01*
X131950000Y67400000D01*
G75*
G02*
X131950000Y67400000I450000J0D01*
G01*
X131950000Y67400000D01*
G37*
G36*
X131950000Y62600000D02*
G01*
X131950000Y62600000D01*
G75*
G02*
X131950000Y62600000I450000J0D01*
G01*
X131950000Y62600000D01*
G37*
G36*
X132850000Y68300000D02*
G01*
X132850000Y68300000D01*
G75*
G02*
X132850000Y68300000I450000J0D01*
G01*
X132850000Y68300000D01*
G37*
G36*
X132850000Y66500000D02*
G01*
X132850000Y66500000D01*
G75*
G02*
X132850000Y66500000I450000J0D01*
G01*
X132850000Y66500000D01*
G37*
G36*
X132850000Y63500000D02*
G01*
X132850000Y63500000D01*
G75*
G02*
X132850000Y63500000I450000J0D01*
G01*
X132850000Y63500000D01*
G37*
G36*
X132850000Y61700000D02*
G01*
X132850000Y61700000D01*
G75*
G02*
X132850000Y61700000I450000J0D01*
G01*
X132850000Y61700000D01*
G37*
%TO.C,SW27*%
G36*
X86250000Y108300000D02*
G01*
X86250000Y108300000D01*
G75*
G02*
X86250000Y108300000I450000J0D01*
G01*
X86250000Y108300000D01*
G37*
G36*
X86250000Y106500000D02*
G01*
X86250000Y106500000D01*
G75*
G02*
X86250000Y106500000I450000J0D01*
G01*
X86250000Y106500000D01*
G37*
G36*
X86250000Y103500000D02*
G01*
X86250000Y103500000D01*
G75*
G02*
X86250000Y103500000I450000J0D01*
G01*
X86250000Y103500000D01*
G37*
G36*
X86250000Y101700000D02*
G01*
X86250000Y101700000D01*
G75*
G02*
X86250000Y101700000I450000J0D01*
G01*
X86250000Y101700000D01*
G37*
G36*
X87150000Y107400000D02*
G01*
X87150000Y107400000D01*
G75*
G02*
X87150000Y107400000I450000J0D01*
G01*
X87150000Y107400000D01*
G37*
G36*
X87150000Y102600000D02*
G01*
X87150000Y102600000D01*
G75*
G02*
X87150000Y102600000I450000J0D01*
G01*
X87150000Y102600000D01*
G37*
G36*
X88050000Y108300000D02*
G01*
X88050000Y108300000D01*
G75*
G02*
X88050000Y108300000I450000J0D01*
G01*
X88050000Y108300000D01*
G37*
G36*
X88050000Y106500000D02*
G01*
X88050000Y106500000D01*
G75*
G02*
X88050000Y106500000I450000J0D01*
G01*
X88050000Y106500000D01*
G37*
G36*
X88050000Y103500000D02*
G01*
X88050000Y103500000D01*
G75*
G02*
X88050000Y103500000I450000J0D01*
G01*
X88050000Y103500000D01*
G37*
G36*
X88050000Y101700000D02*
G01*
X88050000Y101700000D01*
G75*
G02*
X88050000Y101700000I450000J0D01*
G01*
X88050000Y101700000D01*
G37*
G36*
X91050000Y108300000D02*
G01*
X91050000Y108300000D01*
G75*
G02*
X91050000Y108300000I450000J0D01*
G01*
X91050000Y108300000D01*
G37*
G36*
X91050000Y106500000D02*
G01*
X91050000Y106500000D01*
G75*
G02*
X91050000Y106500000I450000J0D01*
G01*
X91050000Y106500000D01*
G37*
G36*
X91050000Y103500000D02*
G01*
X91050000Y103500000D01*
G75*
G02*
X91050000Y103500000I450000J0D01*
G01*
X91050000Y103500000D01*
G37*
G36*
X91050000Y101700000D02*
G01*
X91050000Y101700000D01*
G75*
G02*
X91050000Y101700000I450000J0D01*
G01*
X91050000Y101700000D01*
G37*
G36*
X91950000Y107400000D02*
G01*
X91950000Y107400000D01*
G75*
G02*
X91950000Y107400000I450000J0D01*
G01*
X91950000Y107400000D01*
G37*
G36*
X91950000Y102600000D02*
G01*
X91950000Y102600000D01*
G75*
G02*
X91950000Y102600000I450000J0D01*
G01*
X91950000Y102600000D01*
G37*
G36*
X92850000Y108300000D02*
G01*
X92850000Y108300000D01*
G75*
G02*
X92850000Y108300000I450000J0D01*
G01*
X92850000Y108300000D01*
G37*
G36*
X92850000Y106500000D02*
G01*
X92850000Y106500000D01*
G75*
G02*
X92850000Y106500000I450000J0D01*
G01*
X92850000Y106500000D01*
G37*
G36*
X92850000Y103500000D02*
G01*
X92850000Y103500000D01*
G75*
G02*
X92850000Y103500000I450000J0D01*
G01*
X92850000Y103500000D01*
G37*
G36*
X92850000Y101700000D02*
G01*
X92850000Y101700000D01*
G75*
G02*
X92850000Y101700000I450000J0D01*
G01*
X92850000Y101700000D01*
G37*
%TO.C,SW52*%
G36*
X96250000Y78300000D02*
G01*
X96250000Y78300000D01*
G75*
G02*
X96250000Y78300000I450000J0D01*
G01*
X96250000Y78300000D01*
G37*
G36*
X96250000Y76500000D02*
G01*
X96250000Y76500000D01*
G75*
G02*
X96250000Y76500000I450000J0D01*
G01*
X96250000Y76500000D01*
G37*
G36*
X96250000Y73500000D02*
G01*
X96250000Y73500000D01*
G75*
G02*
X96250000Y73500000I450000J0D01*
G01*
X96250000Y73500000D01*
G37*
G36*
X96250000Y71700000D02*
G01*
X96250000Y71700000D01*
G75*
G02*
X96250000Y71700000I450000J0D01*
G01*
X96250000Y71700000D01*
G37*
G36*
X97150000Y77400000D02*
G01*
X97150000Y77400000D01*
G75*
G02*
X97150000Y77400000I450000J0D01*
G01*
X97150000Y77400000D01*
G37*
G36*
X97150000Y72600000D02*
G01*
X97150000Y72600000D01*
G75*
G02*
X97150000Y72600000I450000J0D01*
G01*
X97150000Y72600000D01*
G37*
G36*
X98050000Y78300000D02*
G01*
X98050000Y78300000D01*
G75*
G02*
X98050000Y78300000I450000J0D01*
G01*
X98050000Y78300000D01*
G37*
G36*
X98050000Y76500000D02*
G01*
X98050000Y76500000D01*
G75*
G02*
X98050000Y76500000I450000J0D01*
G01*
X98050000Y76500000D01*
G37*
G36*
X98050000Y73500000D02*
G01*
X98050000Y73500000D01*
G75*
G02*
X98050000Y73500000I450000J0D01*
G01*
X98050000Y73500000D01*
G37*
G36*
X98050000Y71700000D02*
G01*
X98050000Y71700000D01*
G75*
G02*
X98050000Y71700000I450000J0D01*
G01*
X98050000Y71700000D01*
G37*
G36*
X101050000Y78300000D02*
G01*
X101050000Y78300000D01*
G75*
G02*
X101050000Y78300000I450000J0D01*
G01*
X101050000Y78300000D01*
G37*
G36*
X101050000Y76500000D02*
G01*
X101050000Y76500000D01*
G75*
G02*
X101050000Y76500000I450000J0D01*
G01*
X101050000Y76500000D01*
G37*
G36*
X101050000Y73500000D02*
G01*
X101050000Y73500000D01*
G75*
G02*
X101050000Y73500000I450000J0D01*
G01*
X101050000Y73500000D01*
G37*
G36*
X101050000Y71700000D02*
G01*
X101050000Y71700000D01*
G75*
G02*
X101050000Y71700000I450000J0D01*
G01*
X101050000Y71700000D01*
G37*
G36*
X101950000Y77400000D02*
G01*
X101950000Y77400000D01*
G75*
G02*
X101950000Y77400000I450000J0D01*
G01*
X101950000Y77400000D01*
G37*
G36*
X101950000Y72600000D02*
G01*
X101950000Y72600000D01*
G75*
G02*
X101950000Y72600000I450000J0D01*
G01*
X101950000Y72600000D01*
G37*
G36*
X102850000Y78300000D02*
G01*
X102850000Y78300000D01*
G75*
G02*
X102850000Y78300000I450000J0D01*
G01*
X102850000Y78300000D01*
G37*
G36*
X102850000Y76500000D02*
G01*
X102850000Y76500000D01*
G75*
G02*
X102850000Y76500000I450000J0D01*
G01*
X102850000Y76500000D01*
G37*
G36*
X102850000Y73500000D02*
G01*
X102850000Y73500000D01*
G75*
G02*
X102850000Y73500000I450000J0D01*
G01*
X102850000Y73500000D01*
G37*
G36*
X102850000Y71700000D02*
G01*
X102850000Y71700000D01*
G75*
G02*
X102850000Y71700000I450000J0D01*
G01*
X102850000Y71700000D01*
G37*
%TO.C,SW31*%
G36*
X126250000Y108300000D02*
G01*
X126250000Y108300000D01*
G75*
G02*
X126250000Y108300000I450000J0D01*
G01*
X126250000Y108300000D01*
G37*
G36*
X126250000Y106500000D02*
G01*
X126250000Y106500000D01*
G75*
G02*
X126250000Y106500000I450000J0D01*
G01*
X126250000Y106500000D01*
G37*
G36*
X126250000Y103500000D02*
G01*
X126250000Y103500000D01*
G75*
G02*
X126250000Y103500000I450000J0D01*
G01*
X126250000Y103500000D01*
G37*
G36*
X126250000Y101700000D02*
G01*
X126250000Y101700000D01*
G75*
G02*
X126250000Y101700000I450000J0D01*
G01*
X126250000Y101700000D01*
G37*
G36*
X127150000Y107400000D02*
G01*
X127150000Y107400000D01*
G75*
G02*
X127150000Y107400000I450000J0D01*
G01*
X127150000Y107400000D01*
G37*
G36*
X127150000Y102600000D02*
G01*
X127150000Y102600000D01*
G75*
G02*
X127150000Y102600000I450000J0D01*
G01*
X127150000Y102600000D01*
G37*
G36*
X128050000Y108300000D02*
G01*
X128050000Y108300000D01*
G75*
G02*
X128050000Y108300000I450000J0D01*
G01*
X128050000Y108300000D01*
G37*
G36*
X128050000Y106500000D02*
G01*
X128050000Y106500000D01*
G75*
G02*
X128050000Y106500000I450000J0D01*
G01*
X128050000Y106500000D01*
G37*
G36*
X128050000Y103500000D02*
G01*
X128050000Y103500000D01*
G75*
G02*
X128050000Y103500000I450000J0D01*
G01*
X128050000Y103500000D01*
G37*
G36*
X128050000Y101700000D02*
G01*
X128050000Y101700000D01*
G75*
G02*
X128050000Y101700000I450000J0D01*
G01*
X128050000Y101700000D01*
G37*
G36*
X131050000Y108300000D02*
G01*
X131050000Y108300000D01*
G75*
G02*
X131050000Y108300000I450000J0D01*
G01*
X131050000Y108300000D01*
G37*
G36*
X131050000Y106500000D02*
G01*
X131050000Y106500000D01*
G75*
G02*
X131050000Y106500000I450000J0D01*
G01*
X131050000Y106500000D01*
G37*
G36*
X131050000Y103500000D02*
G01*
X131050000Y103500000D01*
G75*
G02*
X131050000Y103500000I450000J0D01*
G01*
X131050000Y103500000D01*
G37*
G36*
X131050000Y101700000D02*
G01*
X131050000Y101700000D01*
G75*
G02*
X131050000Y101700000I450000J0D01*
G01*
X131050000Y101700000D01*
G37*
G36*
X131950000Y107400000D02*
G01*
X131950000Y107400000D01*
G75*
G02*
X131950000Y107400000I450000J0D01*
G01*
X131950000Y107400000D01*
G37*
G36*
X131950000Y102600000D02*
G01*
X131950000Y102600000D01*
G75*
G02*
X131950000Y102600000I450000J0D01*
G01*
X131950000Y102600000D01*
G37*
G36*
X132850000Y108300000D02*
G01*
X132850000Y108300000D01*
G75*
G02*
X132850000Y108300000I450000J0D01*
G01*
X132850000Y108300000D01*
G37*
G36*
X132850000Y106500000D02*
G01*
X132850000Y106500000D01*
G75*
G02*
X132850000Y106500000I450000J0D01*
G01*
X132850000Y106500000D01*
G37*
G36*
X132850000Y103500000D02*
G01*
X132850000Y103500000D01*
G75*
G02*
X132850000Y103500000I450000J0D01*
G01*
X132850000Y103500000D01*
G37*
G36*
X132850000Y101700000D02*
G01*
X132850000Y101700000D01*
G75*
G02*
X132850000Y101700000I450000J0D01*
G01*
X132850000Y101700000D01*
G37*
%TO.C,SW12*%
G36*
X96250000Y128300000D02*
G01*
X96250000Y128300000D01*
G75*
G02*
X96250000Y128300000I450000J0D01*
G01*
X96250000Y128300000D01*
G37*
G36*
X96250000Y126500000D02*
G01*
X96250000Y126500000D01*
G75*
G02*
X96250000Y126500000I450000J0D01*
G01*
X96250000Y126500000D01*
G37*
G36*
X96250000Y123500000D02*
G01*
X96250000Y123500000D01*
G75*
G02*
X96250000Y123500000I450000J0D01*
G01*
X96250000Y123500000D01*
G37*
G36*
X96250000Y121700000D02*
G01*
X96250000Y121700000D01*
G75*
G02*
X96250000Y121700000I450000J0D01*
G01*
X96250000Y121700000D01*
G37*
G36*
X97150000Y127400000D02*
G01*
X97150000Y127400000D01*
G75*
G02*
X97150000Y127400000I450000J0D01*
G01*
X97150000Y127400000D01*
G37*
G36*
X97150000Y122600000D02*
G01*
X97150000Y122600000D01*
G75*
G02*
X97150000Y122600000I450000J0D01*
G01*
X97150000Y122600000D01*
G37*
G36*
X98050000Y128300000D02*
G01*
X98050000Y128300000D01*
G75*
G02*
X98050000Y128300000I450000J0D01*
G01*
X98050000Y128300000D01*
G37*
G36*
X98050000Y126500000D02*
G01*
X98050000Y126500000D01*
G75*
G02*
X98050000Y126500000I450000J0D01*
G01*
X98050000Y126500000D01*
G37*
G36*
X98050000Y123500000D02*
G01*
X98050000Y123500000D01*
G75*
G02*
X98050000Y123500000I450000J0D01*
G01*
X98050000Y123500000D01*
G37*
G36*
X98050000Y121700000D02*
G01*
X98050000Y121700000D01*
G75*
G02*
X98050000Y121700000I450000J0D01*
G01*
X98050000Y121700000D01*
G37*
G36*
X101050000Y128300000D02*
G01*
X101050000Y128300000D01*
G75*
G02*
X101050000Y128300000I450000J0D01*
G01*
X101050000Y128300000D01*
G37*
G36*
X101050000Y126500000D02*
G01*
X101050000Y126500000D01*
G75*
G02*
X101050000Y126500000I450000J0D01*
G01*
X101050000Y126500000D01*
G37*
G36*
X101050000Y123500000D02*
G01*
X101050000Y123500000D01*
G75*
G02*
X101050000Y123500000I450000J0D01*
G01*
X101050000Y123500000D01*
G37*
G36*
X101050000Y121700000D02*
G01*
X101050000Y121700000D01*
G75*
G02*
X101050000Y121700000I450000J0D01*
G01*
X101050000Y121700000D01*
G37*
G36*
X101950000Y127400000D02*
G01*
X101950000Y127400000D01*
G75*
G02*
X101950000Y127400000I450000J0D01*
G01*
X101950000Y127400000D01*
G37*
G36*
X101950000Y122600000D02*
G01*
X101950000Y122600000D01*
G75*
G02*
X101950000Y122600000I450000J0D01*
G01*
X101950000Y122600000D01*
G37*
G36*
X102850000Y128300000D02*
G01*
X102850000Y128300000D01*
G75*
G02*
X102850000Y128300000I450000J0D01*
G01*
X102850000Y128300000D01*
G37*
G36*
X102850000Y126500000D02*
G01*
X102850000Y126500000D01*
G75*
G02*
X102850000Y126500000I450000J0D01*
G01*
X102850000Y126500000D01*
G37*
G36*
X102850000Y123500000D02*
G01*
X102850000Y123500000D01*
G75*
G02*
X102850000Y123500000I450000J0D01*
G01*
X102850000Y123500000D01*
G37*
G36*
X102850000Y121700000D02*
G01*
X102850000Y121700000D01*
G75*
G02*
X102850000Y121700000I450000J0D01*
G01*
X102850000Y121700000D01*
G37*
%TO.C,SW17*%
G36*
X66250000Y118300000D02*
G01*
X66250000Y118300000D01*
G75*
G02*
X66250000Y118300000I450000J0D01*
G01*
X66250000Y118300000D01*
G37*
G36*
X66250000Y116500000D02*
G01*
X66250000Y116500000D01*
G75*
G02*
X66250000Y116500000I450000J0D01*
G01*
X66250000Y116500000D01*
G37*
G36*
X66250000Y113500000D02*
G01*
X66250000Y113500000D01*
G75*
G02*
X66250000Y113500000I450000J0D01*
G01*
X66250000Y113500000D01*
G37*
G36*
X66250000Y111700000D02*
G01*
X66250000Y111700000D01*
G75*
G02*
X66250000Y111700000I450000J0D01*
G01*
X66250000Y111700000D01*
G37*
G36*
X67150000Y117400000D02*
G01*
X67150000Y117400000D01*
G75*
G02*
X67150000Y117400000I450000J0D01*
G01*
X67150000Y117400000D01*
G37*
G36*
X67150000Y112600000D02*
G01*
X67150000Y112600000D01*
G75*
G02*
X67150000Y112600000I450000J0D01*
G01*
X67150000Y112600000D01*
G37*
G36*
X68050000Y118300000D02*
G01*
X68050000Y118300000D01*
G75*
G02*
X68050000Y118300000I450000J0D01*
G01*
X68050000Y118300000D01*
G37*
G36*
X68050000Y116500000D02*
G01*
X68050000Y116500000D01*
G75*
G02*
X68050000Y116500000I450000J0D01*
G01*
X68050000Y116500000D01*
G37*
G36*
X68050000Y113500000D02*
G01*
X68050000Y113500000D01*
G75*
G02*
X68050000Y113500000I450000J0D01*
G01*
X68050000Y113500000D01*
G37*
G36*
X68050000Y111700000D02*
G01*
X68050000Y111700000D01*
G75*
G02*
X68050000Y111700000I450000J0D01*
G01*
X68050000Y111700000D01*
G37*
G36*
X71050000Y118300000D02*
G01*
X71050000Y118300000D01*
G75*
G02*
X71050000Y118300000I450000J0D01*
G01*
X71050000Y118300000D01*
G37*
G36*
X71050000Y116500000D02*
G01*
X71050000Y116500000D01*
G75*
G02*
X71050000Y116500000I450000J0D01*
G01*
X71050000Y116500000D01*
G37*
G36*
X71050000Y113500000D02*
G01*
X71050000Y113500000D01*
G75*
G02*
X71050000Y113500000I450000J0D01*
G01*
X71050000Y113500000D01*
G37*
G36*
X71050000Y111700000D02*
G01*
X71050000Y111700000D01*
G75*
G02*
X71050000Y111700000I450000J0D01*
G01*
X71050000Y111700000D01*
G37*
G36*
X71950000Y117400000D02*
G01*
X71950000Y117400000D01*
G75*
G02*
X71950000Y117400000I450000J0D01*
G01*
X71950000Y117400000D01*
G37*
G36*
X71950000Y112600000D02*
G01*
X71950000Y112600000D01*
G75*
G02*
X71950000Y112600000I450000J0D01*
G01*
X71950000Y112600000D01*
G37*
G36*
X72850000Y118300000D02*
G01*
X72850000Y118300000D01*
G75*
G02*
X72850000Y118300000I450000J0D01*
G01*
X72850000Y118300000D01*
G37*
G36*
X72850000Y116500000D02*
G01*
X72850000Y116500000D01*
G75*
G02*
X72850000Y116500000I450000J0D01*
G01*
X72850000Y116500000D01*
G37*
G36*
X72850000Y113500000D02*
G01*
X72850000Y113500000D01*
G75*
G02*
X72850000Y113500000I450000J0D01*
G01*
X72850000Y113500000D01*
G37*
G36*
X72850000Y111700000D02*
G01*
X72850000Y111700000D01*
G75*
G02*
X72850000Y111700000I450000J0D01*
G01*
X72850000Y111700000D01*
G37*
%TO.C,SW62*%
G36*
X116250000Y68300000D02*
G01*
X116250000Y68300000D01*
G75*
G02*
X116250000Y68300000I450000J0D01*
G01*
X116250000Y68300000D01*
G37*
G36*
X116250000Y66500000D02*
G01*
X116250000Y66500000D01*
G75*
G02*
X116250000Y66500000I450000J0D01*
G01*
X116250000Y66500000D01*
G37*
G36*
X116250000Y63500000D02*
G01*
X116250000Y63500000D01*
G75*
G02*
X116250000Y63500000I450000J0D01*
G01*
X116250000Y63500000D01*
G37*
G36*
X116250000Y61700000D02*
G01*
X116250000Y61700000D01*
G75*
G02*
X116250000Y61700000I450000J0D01*
G01*
X116250000Y61700000D01*
G37*
G36*
X117150000Y67400000D02*
G01*
X117150000Y67400000D01*
G75*
G02*
X117150000Y67400000I450000J0D01*
G01*
X117150000Y67400000D01*
G37*
G36*
X117150000Y62600000D02*
G01*
X117150000Y62600000D01*
G75*
G02*
X117150000Y62600000I450000J0D01*
G01*
X117150000Y62600000D01*
G37*
G36*
X118050000Y68300000D02*
G01*
X118050000Y68300000D01*
G75*
G02*
X118050000Y68300000I450000J0D01*
G01*
X118050000Y68300000D01*
G37*
G36*
X118050000Y66500000D02*
G01*
X118050000Y66500000D01*
G75*
G02*
X118050000Y66500000I450000J0D01*
G01*
X118050000Y66500000D01*
G37*
G36*
X118050000Y63500000D02*
G01*
X118050000Y63500000D01*
G75*
G02*
X118050000Y63500000I450000J0D01*
G01*
X118050000Y63500000D01*
G37*
G36*
X118050000Y61700000D02*
G01*
X118050000Y61700000D01*
G75*
G02*
X118050000Y61700000I450000J0D01*
G01*
X118050000Y61700000D01*
G37*
G36*
X121050000Y68300000D02*
G01*
X121050000Y68300000D01*
G75*
G02*
X121050000Y68300000I450000J0D01*
G01*
X121050000Y68300000D01*
G37*
G36*
X121050000Y66500000D02*
G01*
X121050000Y66500000D01*
G75*
G02*
X121050000Y66500000I450000J0D01*
G01*
X121050000Y66500000D01*
G37*
G36*
X121050000Y63500000D02*
G01*
X121050000Y63500000D01*
G75*
G02*
X121050000Y63500000I450000J0D01*
G01*
X121050000Y63500000D01*
G37*
G36*
X121050000Y61700000D02*
G01*
X121050000Y61700000D01*
G75*
G02*
X121050000Y61700000I450000J0D01*
G01*
X121050000Y61700000D01*
G37*
G36*
X121950000Y67400000D02*
G01*
X121950000Y67400000D01*
G75*
G02*
X121950000Y67400000I450000J0D01*
G01*
X121950000Y67400000D01*
G37*
G36*
X121950000Y62600000D02*
G01*
X121950000Y62600000D01*
G75*
G02*
X121950000Y62600000I450000J0D01*
G01*
X121950000Y62600000D01*
G37*
G36*
X122850000Y68300000D02*
G01*
X122850000Y68300000D01*
G75*
G02*
X122850000Y68300000I450000J0D01*
G01*
X122850000Y68300000D01*
G37*
G36*
X122850000Y66500000D02*
G01*
X122850000Y66500000D01*
G75*
G02*
X122850000Y66500000I450000J0D01*
G01*
X122850000Y66500000D01*
G37*
G36*
X122850000Y63500000D02*
G01*
X122850000Y63500000D01*
G75*
G02*
X122850000Y63500000I450000J0D01*
G01*
X122850000Y63500000D01*
G37*
G36*
X122850000Y61700000D02*
G01*
X122850000Y61700000D01*
G75*
G02*
X122850000Y61700000I450000J0D01*
G01*
X122850000Y61700000D01*
G37*
%TO.C,SW54*%
G36*
X116250000Y78300000D02*
G01*
X116250000Y78300000D01*
G75*
G02*
X116250000Y78300000I450000J0D01*
G01*
X116250000Y78300000D01*
G37*
G36*
X116250000Y76500000D02*
G01*
X116250000Y76500000D01*
G75*
G02*
X116250000Y76500000I450000J0D01*
G01*
X116250000Y76500000D01*
G37*
G36*
X116250000Y73500000D02*
G01*
X116250000Y73500000D01*
G75*
G02*
X116250000Y73500000I450000J0D01*
G01*
X116250000Y73500000D01*
G37*
G36*
X116250000Y71700000D02*
G01*
X116250000Y71700000D01*
G75*
G02*
X116250000Y71700000I450000J0D01*
G01*
X116250000Y71700000D01*
G37*
G36*
X117150000Y77400000D02*
G01*
X117150000Y77400000D01*
G75*
G02*
X117150000Y77400000I450000J0D01*
G01*
X117150000Y77400000D01*
G37*
G36*
X117150000Y72600000D02*
G01*
X117150000Y72600000D01*
G75*
G02*
X117150000Y72600000I450000J0D01*
G01*
X117150000Y72600000D01*
G37*
G36*
X118050000Y78300000D02*
G01*
X118050000Y78300000D01*
G75*
G02*
X118050000Y78300000I450000J0D01*
G01*
X118050000Y78300000D01*
G37*
G36*
X118050000Y76500000D02*
G01*
X118050000Y76500000D01*
G75*
G02*
X118050000Y76500000I450000J0D01*
G01*
X118050000Y76500000D01*
G37*
G36*
X118050000Y73500000D02*
G01*
X118050000Y73500000D01*
G75*
G02*
X118050000Y73500000I450000J0D01*
G01*
X118050000Y73500000D01*
G37*
G36*
X118050000Y71700000D02*
G01*
X118050000Y71700000D01*
G75*
G02*
X118050000Y71700000I450000J0D01*
G01*
X118050000Y71700000D01*
G37*
G36*
X121050000Y78300000D02*
G01*
X121050000Y78300000D01*
G75*
G02*
X121050000Y78300000I450000J0D01*
G01*
X121050000Y78300000D01*
G37*
G36*
X121050000Y76500000D02*
G01*
X121050000Y76500000D01*
G75*
G02*
X121050000Y76500000I450000J0D01*
G01*
X121050000Y76500000D01*
G37*
G36*
X121050000Y73500000D02*
G01*
X121050000Y73500000D01*
G75*
G02*
X121050000Y73500000I450000J0D01*
G01*
X121050000Y73500000D01*
G37*
G36*
X121050000Y71700000D02*
G01*
X121050000Y71700000D01*
G75*
G02*
X121050000Y71700000I450000J0D01*
G01*
X121050000Y71700000D01*
G37*
G36*
X121950000Y77400000D02*
G01*
X121950000Y77400000D01*
G75*
G02*
X121950000Y77400000I450000J0D01*
G01*
X121950000Y77400000D01*
G37*
G36*
X121950000Y72600000D02*
G01*
X121950000Y72600000D01*
G75*
G02*
X121950000Y72600000I450000J0D01*
G01*
X121950000Y72600000D01*
G37*
G36*
X122850000Y78300000D02*
G01*
X122850000Y78300000D01*
G75*
G02*
X122850000Y78300000I450000J0D01*
G01*
X122850000Y78300000D01*
G37*
G36*
X122850000Y76500000D02*
G01*
X122850000Y76500000D01*
G75*
G02*
X122850000Y76500000I450000J0D01*
G01*
X122850000Y76500000D01*
G37*
G36*
X122850000Y73500000D02*
G01*
X122850000Y73500000D01*
G75*
G02*
X122850000Y73500000I450000J0D01*
G01*
X122850000Y73500000D01*
G37*
G36*
X122850000Y71700000D02*
G01*
X122850000Y71700000D01*
G75*
G02*
X122850000Y71700000I450000J0D01*
G01*
X122850000Y71700000D01*
G37*
%TO.C,SW10*%
G36*
X76250000Y128300000D02*
G01*
X76250000Y128300000D01*
G75*
G02*
X76250000Y128300000I450000J0D01*
G01*
X76250000Y128300000D01*
G37*
G36*
X76250000Y126500000D02*
G01*
X76250000Y126500000D01*
G75*
G02*
X76250000Y126500000I450000J0D01*
G01*
X76250000Y126500000D01*
G37*
G36*
X76250000Y123500000D02*
G01*
X76250000Y123500000D01*
G75*
G02*
X76250000Y123500000I450000J0D01*
G01*
X76250000Y123500000D01*
G37*
G36*
X76250000Y121700000D02*
G01*
X76250000Y121700000D01*
G75*
G02*
X76250000Y121700000I450000J0D01*
G01*
X76250000Y121700000D01*
G37*
G36*
X77150000Y127400000D02*
G01*
X77150000Y127400000D01*
G75*
G02*
X77150000Y127400000I450000J0D01*
G01*
X77150000Y127400000D01*
G37*
G36*
X77150000Y122600000D02*
G01*
X77150000Y122600000D01*
G75*
G02*
X77150000Y122600000I450000J0D01*
G01*
X77150000Y122600000D01*
G37*
G36*
X78050000Y128300000D02*
G01*
X78050000Y128300000D01*
G75*
G02*
X78050000Y128300000I450000J0D01*
G01*
X78050000Y128300000D01*
G37*
G36*
X78050000Y126500000D02*
G01*
X78050000Y126500000D01*
G75*
G02*
X78050000Y126500000I450000J0D01*
G01*
X78050000Y126500000D01*
G37*
G36*
X78050000Y123500000D02*
G01*
X78050000Y123500000D01*
G75*
G02*
X78050000Y123500000I450000J0D01*
G01*
X78050000Y123500000D01*
G37*
G36*
X78050000Y121700000D02*
G01*
X78050000Y121700000D01*
G75*
G02*
X78050000Y121700000I450000J0D01*
G01*
X78050000Y121700000D01*
G37*
G36*
X81050000Y128300000D02*
G01*
X81050000Y128300000D01*
G75*
G02*
X81050000Y128300000I450000J0D01*
G01*
X81050000Y128300000D01*
G37*
G36*
X81050000Y126500000D02*
G01*
X81050000Y126500000D01*
G75*
G02*
X81050000Y126500000I450000J0D01*
G01*
X81050000Y126500000D01*
G37*
G36*
X81050000Y123500000D02*
G01*
X81050000Y123500000D01*
G75*
G02*
X81050000Y123500000I450000J0D01*
G01*
X81050000Y123500000D01*
G37*
G36*
X81050000Y121700000D02*
G01*
X81050000Y121700000D01*
G75*
G02*
X81050000Y121700000I450000J0D01*
G01*
X81050000Y121700000D01*
G37*
G36*
X81950000Y127400000D02*
G01*
X81950000Y127400000D01*
G75*
G02*
X81950000Y127400000I450000J0D01*
G01*
X81950000Y127400000D01*
G37*
G36*
X81950000Y122600000D02*
G01*
X81950000Y122600000D01*
G75*
G02*
X81950000Y122600000I450000J0D01*
G01*
X81950000Y122600000D01*
G37*
G36*
X82850000Y128300000D02*
G01*
X82850000Y128300000D01*
G75*
G02*
X82850000Y128300000I450000J0D01*
G01*
X82850000Y128300000D01*
G37*
G36*
X82850000Y126500000D02*
G01*
X82850000Y126500000D01*
G75*
G02*
X82850000Y126500000I450000J0D01*
G01*
X82850000Y126500000D01*
G37*
G36*
X82850000Y123500000D02*
G01*
X82850000Y123500000D01*
G75*
G02*
X82850000Y123500000I450000J0D01*
G01*
X82850000Y123500000D01*
G37*
G36*
X82850000Y121700000D02*
G01*
X82850000Y121700000D01*
G75*
G02*
X82850000Y121700000I450000J0D01*
G01*
X82850000Y121700000D01*
G37*
%TO.C,SW25*%
G36*
X66250000Y108300000D02*
G01*
X66250000Y108300000D01*
G75*
G02*
X66250000Y108300000I450000J0D01*
G01*
X66250000Y108300000D01*
G37*
G36*
X66250000Y106500000D02*
G01*
X66250000Y106500000D01*
G75*
G02*
X66250000Y106500000I450000J0D01*
G01*
X66250000Y106500000D01*
G37*
G36*
X66250000Y103500000D02*
G01*
X66250000Y103500000D01*
G75*
G02*
X66250000Y103500000I450000J0D01*
G01*
X66250000Y103500000D01*
G37*
G36*
X66250000Y101700000D02*
G01*
X66250000Y101700000D01*
G75*
G02*
X66250000Y101700000I450000J0D01*
G01*
X66250000Y101700000D01*
G37*
G36*
X67150000Y107400000D02*
G01*
X67150000Y107400000D01*
G75*
G02*
X67150000Y107400000I450000J0D01*
G01*
X67150000Y107400000D01*
G37*
G36*
X67150000Y102600000D02*
G01*
X67150000Y102600000D01*
G75*
G02*
X67150000Y102600000I450000J0D01*
G01*
X67150000Y102600000D01*
G37*
G36*
X68050000Y108300000D02*
G01*
X68050000Y108300000D01*
G75*
G02*
X68050000Y108300000I450000J0D01*
G01*
X68050000Y108300000D01*
G37*
G36*
X68050000Y106500000D02*
G01*
X68050000Y106500000D01*
G75*
G02*
X68050000Y106500000I450000J0D01*
G01*
X68050000Y106500000D01*
G37*
G36*
X68050000Y103500000D02*
G01*
X68050000Y103500000D01*
G75*
G02*
X68050000Y103500000I450000J0D01*
G01*
X68050000Y103500000D01*
G37*
G36*
X68050000Y101700000D02*
G01*
X68050000Y101700000D01*
G75*
G02*
X68050000Y101700000I450000J0D01*
G01*
X68050000Y101700000D01*
G37*
G36*
X71050000Y108300000D02*
G01*
X71050000Y108300000D01*
G75*
G02*
X71050000Y108300000I450000J0D01*
G01*
X71050000Y108300000D01*
G37*
G36*
X71050000Y106500000D02*
G01*
X71050000Y106500000D01*
G75*
G02*
X71050000Y106500000I450000J0D01*
G01*
X71050000Y106500000D01*
G37*
G36*
X71050000Y103500000D02*
G01*
X71050000Y103500000D01*
G75*
G02*
X71050000Y103500000I450000J0D01*
G01*
X71050000Y103500000D01*
G37*
G36*
X71050000Y101700000D02*
G01*
X71050000Y101700000D01*
G75*
G02*
X71050000Y101700000I450000J0D01*
G01*
X71050000Y101700000D01*
G37*
G36*
X71950000Y107400000D02*
G01*
X71950000Y107400000D01*
G75*
G02*
X71950000Y107400000I450000J0D01*
G01*
X71950000Y107400000D01*
G37*
G36*
X71950000Y102600000D02*
G01*
X71950000Y102600000D01*
G75*
G02*
X71950000Y102600000I450000J0D01*
G01*
X71950000Y102600000D01*
G37*
G36*
X72850000Y108300000D02*
G01*
X72850000Y108300000D01*
G75*
G02*
X72850000Y108300000I450000J0D01*
G01*
X72850000Y108300000D01*
G37*
G36*
X72850000Y106500000D02*
G01*
X72850000Y106500000D01*
G75*
G02*
X72850000Y106500000I450000J0D01*
G01*
X72850000Y106500000D01*
G37*
G36*
X72850000Y103500000D02*
G01*
X72850000Y103500000D01*
G75*
G02*
X72850000Y103500000I450000J0D01*
G01*
X72850000Y103500000D01*
G37*
G36*
X72850000Y101700000D02*
G01*
X72850000Y101700000D01*
G75*
G02*
X72850000Y101700000I450000J0D01*
G01*
X72850000Y101700000D01*
G37*
%TO.C,SW11*%
G36*
X86250000Y128300000D02*
G01*
X86250000Y128300000D01*
G75*
G02*
X86250000Y128300000I450000J0D01*
G01*
X86250000Y128300000D01*
G37*
G36*
X86250000Y126500000D02*
G01*
X86250000Y126500000D01*
G75*
G02*
X86250000Y126500000I450000J0D01*
G01*
X86250000Y126500000D01*
G37*
G36*
X86250000Y123500000D02*
G01*
X86250000Y123500000D01*
G75*
G02*
X86250000Y123500000I450000J0D01*
G01*
X86250000Y123500000D01*
G37*
G36*
X86250000Y121700000D02*
G01*
X86250000Y121700000D01*
G75*
G02*
X86250000Y121700000I450000J0D01*
G01*
X86250000Y121700000D01*
G37*
G36*
X87150000Y127400000D02*
G01*
X87150000Y127400000D01*
G75*
G02*
X87150000Y127400000I450000J0D01*
G01*
X87150000Y127400000D01*
G37*
G36*
X87150000Y122600000D02*
G01*
X87150000Y122600000D01*
G75*
G02*
X87150000Y122600000I450000J0D01*
G01*
X87150000Y122600000D01*
G37*
G36*
X88050000Y128300000D02*
G01*
X88050000Y128300000D01*
G75*
G02*
X88050000Y128300000I450000J0D01*
G01*
X88050000Y128300000D01*
G37*
G36*
X88050000Y126500000D02*
G01*
X88050000Y126500000D01*
G75*
G02*
X88050000Y126500000I450000J0D01*
G01*
X88050000Y126500000D01*
G37*
G36*
X88050000Y123500000D02*
G01*
X88050000Y123500000D01*
G75*
G02*
X88050000Y123500000I450000J0D01*
G01*
X88050000Y123500000D01*
G37*
G36*
X88050000Y121700000D02*
G01*
X88050000Y121700000D01*
G75*
G02*
X88050000Y121700000I450000J0D01*
G01*
X88050000Y121700000D01*
G37*
G36*
X91050000Y128300000D02*
G01*
X91050000Y128300000D01*
G75*
G02*
X91050000Y128300000I450000J0D01*
G01*
X91050000Y128300000D01*
G37*
G36*
X91050000Y126500000D02*
G01*
X91050000Y126500000D01*
G75*
G02*
X91050000Y126500000I450000J0D01*
G01*
X91050000Y126500000D01*
G37*
G36*
X91050000Y123500000D02*
G01*
X91050000Y123500000D01*
G75*
G02*
X91050000Y123500000I450000J0D01*
G01*
X91050000Y123500000D01*
G37*
G36*
X91050000Y121700000D02*
G01*
X91050000Y121700000D01*
G75*
G02*
X91050000Y121700000I450000J0D01*
G01*
X91050000Y121700000D01*
G37*
G36*
X91950000Y127400000D02*
G01*
X91950000Y127400000D01*
G75*
G02*
X91950000Y127400000I450000J0D01*
G01*
X91950000Y127400000D01*
G37*
G36*
X91950000Y122600000D02*
G01*
X91950000Y122600000D01*
G75*
G02*
X91950000Y122600000I450000J0D01*
G01*
X91950000Y122600000D01*
G37*
G36*
X92850000Y128300000D02*
G01*
X92850000Y128300000D01*
G75*
G02*
X92850000Y128300000I450000J0D01*
G01*
X92850000Y128300000D01*
G37*
G36*
X92850000Y126500000D02*
G01*
X92850000Y126500000D01*
G75*
G02*
X92850000Y126500000I450000J0D01*
G01*
X92850000Y126500000D01*
G37*
G36*
X92850000Y123500000D02*
G01*
X92850000Y123500000D01*
G75*
G02*
X92850000Y123500000I450000J0D01*
G01*
X92850000Y123500000D01*
G37*
G36*
X92850000Y121700000D02*
G01*
X92850000Y121700000D01*
G75*
G02*
X92850000Y121700000I450000J0D01*
G01*
X92850000Y121700000D01*
G37*
%TO.C,SW15*%
G36*
X126250000Y128300000D02*
G01*
X126250000Y128300000D01*
G75*
G02*
X126250000Y128300000I450000J0D01*
G01*
X126250000Y128300000D01*
G37*
G36*
X126250000Y126500000D02*
G01*
X126250000Y126500000D01*
G75*
G02*
X126250000Y126500000I450000J0D01*
G01*
X126250000Y126500000D01*
G37*
G36*
X126250000Y123500000D02*
G01*
X126250000Y123500000D01*
G75*
G02*
X126250000Y123500000I450000J0D01*
G01*
X126250000Y123500000D01*
G37*
G36*
X126250000Y121700000D02*
G01*
X126250000Y121700000D01*
G75*
G02*
X126250000Y121700000I450000J0D01*
G01*
X126250000Y121700000D01*
G37*
G36*
X127150000Y127400000D02*
G01*
X127150000Y127400000D01*
G75*
G02*
X127150000Y127400000I450000J0D01*
G01*
X127150000Y127400000D01*
G37*
G36*
X127150000Y122600000D02*
G01*
X127150000Y122600000D01*
G75*
G02*
X127150000Y122600000I450000J0D01*
G01*
X127150000Y122600000D01*
G37*
G36*
X128050000Y128300000D02*
G01*
X128050000Y128300000D01*
G75*
G02*
X128050000Y128300000I450000J0D01*
G01*
X128050000Y128300000D01*
G37*
G36*
X128050000Y126500000D02*
G01*
X128050000Y126500000D01*
G75*
G02*
X128050000Y126500000I450000J0D01*
G01*
X128050000Y126500000D01*
G37*
G36*
X128050000Y123500000D02*
G01*
X128050000Y123500000D01*
G75*
G02*
X128050000Y123500000I450000J0D01*
G01*
X128050000Y123500000D01*
G37*
G36*
X128050000Y121700000D02*
G01*
X128050000Y121700000D01*
G75*
G02*
X128050000Y121700000I450000J0D01*
G01*
X128050000Y121700000D01*
G37*
G36*
X131050000Y128300000D02*
G01*
X131050000Y128300000D01*
G75*
G02*
X131050000Y128300000I450000J0D01*
G01*
X131050000Y128300000D01*
G37*
G36*
X131050000Y126500000D02*
G01*
X131050000Y126500000D01*
G75*
G02*
X131050000Y126500000I450000J0D01*
G01*
X131050000Y126500000D01*
G37*
G36*
X131050000Y123500000D02*
G01*
X131050000Y123500000D01*
G75*
G02*
X131050000Y123500000I450000J0D01*
G01*
X131050000Y123500000D01*
G37*
G36*
X131050000Y121700000D02*
G01*
X131050000Y121700000D01*
G75*
G02*
X131050000Y121700000I450000J0D01*
G01*
X131050000Y121700000D01*
G37*
G36*
X131950000Y127400000D02*
G01*
X131950000Y127400000D01*
G75*
G02*
X131950000Y127400000I450000J0D01*
G01*
X131950000Y127400000D01*
G37*
G36*
X131950000Y122600000D02*
G01*
X131950000Y122600000D01*
G75*
G02*
X131950000Y122600000I450000J0D01*
G01*
X131950000Y122600000D01*
G37*
G36*
X132850000Y128300000D02*
G01*
X132850000Y128300000D01*
G75*
G02*
X132850000Y128300000I450000J0D01*
G01*
X132850000Y128300000D01*
G37*
G36*
X132850000Y126500000D02*
G01*
X132850000Y126500000D01*
G75*
G02*
X132850000Y126500000I450000J0D01*
G01*
X132850000Y126500000D01*
G37*
G36*
X132850000Y123500000D02*
G01*
X132850000Y123500000D01*
G75*
G02*
X132850000Y123500000I450000J0D01*
G01*
X132850000Y123500000D01*
G37*
G36*
X132850000Y121700000D02*
G01*
X132850000Y121700000D01*
G75*
G02*
X132850000Y121700000I450000J0D01*
G01*
X132850000Y121700000D01*
G37*
%TO.C,SW48*%
G36*
X136250000Y88300000D02*
G01*
X136250000Y88300000D01*
G75*
G02*
X136250000Y88300000I450000J0D01*
G01*
X136250000Y88300000D01*
G37*
G36*
X136250000Y86500000D02*
G01*
X136250000Y86500000D01*
G75*
G02*
X136250000Y86500000I450000J0D01*
G01*
X136250000Y86500000D01*
G37*
G36*
X136250000Y83500000D02*
G01*
X136250000Y83500000D01*
G75*
G02*
X136250000Y83500000I450000J0D01*
G01*
X136250000Y83500000D01*
G37*
G36*
X136250000Y81700000D02*
G01*
X136250000Y81700000D01*
G75*
G02*
X136250000Y81700000I450000J0D01*
G01*
X136250000Y81700000D01*
G37*
G36*
X137150000Y87400000D02*
G01*
X137150000Y87400000D01*
G75*
G02*
X137150000Y87400000I450000J0D01*
G01*
X137150000Y87400000D01*
G37*
G36*
X137150000Y82600000D02*
G01*
X137150000Y82600000D01*
G75*
G02*
X137150000Y82600000I450000J0D01*
G01*
X137150000Y82600000D01*
G37*
G36*
X138050000Y88300000D02*
G01*
X138050000Y88300000D01*
G75*
G02*
X138050000Y88300000I450000J0D01*
G01*
X138050000Y88300000D01*
G37*
G36*
X138050000Y86500000D02*
G01*
X138050000Y86500000D01*
G75*
G02*
X138050000Y86500000I450000J0D01*
G01*
X138050000Y86500000D01*
G37*
G36*
X138050000Y83500000D02*
G01*
X138050000Y83500000D01*
G75*
G02*
X138050000Y83500000I450000J0D01*
G01*
X138050000Y83500000D01*
G37*
G36*
X138050000Y81700000D02*
G01*
X138050000Y81700000D01*
G75*
G02*
X138050000Y81700000I450000J0D01*
G01*
X138050000Y81700000D01*
G37*
G36*
X141050000Y88300000D02*
G01*
X141050000Y88300000D01*
G75*
G02*
X141050000Y88300000I450000J0D01*
G01*
X141050000Y88300000D01*
G37*
G36*
X141050000Y86500000D02*
G01*
X141050000Y86500000D01*
G75*
G02*
X141050000Y86500000I450000J0D01*
G01*
X141050000Y86500000D01*
G37*
G36*
X141050000Y83500000D02*
G01*
X141050000Y83500000D01*
G75*
G02*
X141050000Y83500000I450000J0D01*
G01*
X141050000Y83500000D01*
G37*
G36*
X141050000Y81700000D02*
G01*
X141050000Y81700000D01*
G75*
G02*
X141050000Y81700000I450000J0D01*
G01*
X141050000Y81700000D01*
G37*
G36*
X141950000Y87400000D02*
G01*
X141950000Y87400000D01*
G75*
G02*
X141950000Y87400000I450000J0D01*
G01*
X141950000Y87400000D01*
G37*
G36*
X141950000Y82600000D02*
G01*
X141950000Y82600000D01*
G75*
G02*
X141950000Y82600000I450000J0D01*
G01*
X141950000Y82600000D01*
G37*
G36*
X142850000Y88300000D02*
G01*
X142850000Y88300000D01*
G75*
G02*
X142850000Y88300000I450000J0D01*
G01*
X142850000Y88300000D01*
G37*
G36*
X142850000Y86500000D02*
G01*
X142850000Y86500000D01*
G75*
G02*
X142850000Y86500000I450000J0D01*
G01*
X142850000Y86500000D01*
G37*
G36*
X142850000Y83500000D02*
G01*
X142850000Y83500000D01*
G75*
G02*
X142850000Y83500000I450000J0D01*
G01*
X142850000Y83500000D01*
G37*
G36*
X142850000Y81700000D02*
G01*
X142850000Y81700000D01*
G75*
G02*
X142850000Y81700000I450000J0D01*
G01*
X142850000Y81700000D01*
G37*
%TO.C,SW33*%
G36*
X66250000Y98300000D02*
G01*
X66250000Y98300000D01*
G75*
G02*
X66250000Y98300000I450000J0D01*
G01*
X66250000Y98300000D01*
G37*
G36*
X66250000Y96500000D02*
G01*
X66250000Y96500000D01*
G75*
G02*
X66250000Y96500000I450000J0D01*
G01*
X66250000Y96500000D01*
G37*
G36*
X66250000Y93500000D02*
G01*
X66250000Y93500000D01*
G75*
G02*
X66250000Y93500000I450000J0D01*
G01*
X66250000Y93500000D01*
G37*
G36*
X66250000Y91700000D02*
G01*
X66250000Y91700000D01*
G75*
G02*
X66250000Y91700000I450000J0D01*
G01*
X66250000Y91700000D01*
G37*
G36*
X67150000Y97400000D02*
G01*
X67150000Y97400000D01*
G75*
G02*
X67150000Y97400000I450000J0D01*
G01*
X67150000Y97400000D01*
G37*
G36*
X67150000Y92600000D02*
G01*
X67150000Y92600000D01*
G75*
G02*
X67150000Y92600000I450000J0D01*
G01*
X67150000Y92600000D01*
G37*
G36*
X68050000Y98300000D02*
G01*
X68050000Y98300000D01*
G75*
G02*
X68050000Y98300000I450000J0D01*
G01*
X68050000Y98300000D01*
G37*
G36*
X68050000Y96500000D02*
G01*
X68050000Y96500000D01*
G75*
G02*
X68050000Y96500000I450000J0D01*
G01*
X68050000Y96500000D01*
G37*
G36*
X68050000Y93500000D02*
G01*
X68050000Y93500000D01*
G75*
G02*
X68050000Y93500000I450000J0D01*
G01*
X68050000Y93500000D01*
G37*
G36*
X68050000Y91700000D02*
G01*
X68050000Y91700000D01*
G75*
G02*
X68050000Y91700000I450000J0D01*
G01*
X68050000Y91700000D01*
G37*
G36*
X71050000Y98300000D02*
G01*
X71050000Y98300000D01*
G75*
G02*
X71050000Y98300000I450000J0D01*
G01*
X71050000Y98300000D01*
G37*
G36*
X71050000Y96500000D02*
G01*
X71050000Y96500000D01*
G75*
G02*
X71050000Y96500000I450000J0D01*
G01*
X71050000Y96500000D01*
G37*
G36*
X71050000Y93500000D02*
G01*
X71050000Y93500000D01*
G75*
G02*
X71050000Y93500000I450000J0D01*
G01*
X71050000Y93500000D01*
G37*
G36*
X71050000Y91700000D02*
G01*
X71050000Y91700000D01*
G75*
G02*
X71050000Y91700000I450000J0D01*
G01*
X71050000Y91700000D01*
G37*
G36*
X71950000Y97400000D02*
G01*
X71950000Y97400000D01*
G75*
G02*
X71950000Y97400000I450000J0D01*
G01*
X71950000Y97400000D01*
G37*
G36*
X71950000Y92600000D02*
G01*
X71950000Y92600000D01*
G75*
G02*
X71950000Y92600000I450000J0D01*
G01*
X71950000Y92600000D01*
G37*
G36*
X72850000Y98300000D02*
G01*
X72850000Y98300000D01*
G75*
G02*
X72850000Y98300000I450000J0D01*
G01*
X72850000Y98300000D01*
G37*
G36*
X72850000Y96500000D02*
G01*
X72850000Y96500000D01*
G75*
G02*
X72850000Y96500000I450000J0D01*
G01*
X72850000Y96500000D01*
G37*
G36*
X72850000Y93500000D02*
G01*
X72850000Y93500000D01*
G75*
G02*
X72850000Y93500000I450000J0D01*
G01*
X72850000Y93500000D01*
G37*
G36*
X72850000Y91700000D02*
G01*
X72850000Y91700000D01*
G75*
G02*
X72850000Y91700000I450000J0D01*
G01*
X72850000Y91700000D01*
G37*
%TO.C,SW32*%
G36*
X136250000Y108300000D02*
G01*
X136250000Y108300000D01*
G75*
G02*
X136250000Y108300000I450000J0D01*
G01*
X136250000Y108300000D01*
G37*
G36*
X136250000Y106500000D02*
G01*
X136250000Y106500000D01*
G75*
G02*
X136250000Y106500000I450000J0D01*
G01*
X136250000Y106500000D01*
G37*
G36*
X136250000Y103500000D02*
G01*
X136250000Y103500000D01*
G75*
G02*
X136250000Y103500000I450000J0D01*
G01*
X136250000Y103500000D01*
G37*
G36*
X136250000Y101700000D02*
G01*
X136250000Y101700000D01*
G75*
G02*
X136250000Y101700000I450000J0D01*
G01*
X136250000Y101700000D01*
G37*
G36*
X137150000Y107400000D02*
G01*
X137150000Y107400000D01*
G75*
G02*
X137150000Y107400000I450000J0D01*
G01*
X137150000Y107400000D01*
G37*
G36*
X137150000Y102600000D02*
G01*
X137150000Y102600000D01*
G75*
G02*
X137150000Y102600000I450000J0D01*
G01*
X137150000Y102600000D01*
G37*
G36*
X138050000Y108300000D02*
G01*
X138050000Y108300000D01*
G75*
G02*
X138050000Y108300000I450000J0D01*
G01*
X138050000Y108300000D01*
G37*
G36*
X138050000Y106500000D02*
G01*
X138050000Y106500000D01*
G75*
G02*
X138050000Y106500000I450000J0D01*
G01*
X138050000Y106500000D01*
G37*
G36*
X138050000Y103500000D02*
G01*
X138050000Y103500000D01*
G75*
G02*
X138050000Y103500000I450000J0D01*
G01*
X138050000Y103500000D01*
G37*
G36*
X138050000Y101700000D02*
G01*
X138050000Y101700000D01*
G75*
G02*
X138050000Y101700000I450000J0D01*
G01*
X138050000Y101700000D01*
G37*
G36*
X141050000Y108300000D02*
G01*
X141050000Y108300000D01*
G75*
G02*
X141050000Y108300000I450000J0D01*
G01*
X141050000Y108300000D01*
G37*
G36*
X141050000Y106500000D02*
G01*
X141050000Y106500000D01*
G75*
G02*
X141050000Y106500000I450000J0D01*
G01*
X141050000Y106500000D01*
G37*
G36*
X141050000Y103500000D02*
G01*
X141050000Y103500000D01*
G75*
G02*
X141050000Y103500000I450000J0D01*
G01*
X141050000Y103500000D01*
G37*
G36*
X141050000Y101700000D02*
G01*
X141050000Y101700000D01*
G75*
G02*
X141050000Y101700000I450000J0D01*
G01*
X141050000Y101700000D01*
G37*
G36*
X141950000Y107400000D02*
G01*
X141950000Y107400000D01*
G75*
G02*
X141950000Y107400000I450000J0D01*
G01*
X141950000Y107400000D01*
G37*
G36*
X141950000Y102600000D02*
G01*
X141950000Y102600000D01*
G75*
G02*
X141950000Y102600000I450000J0D01*
G01*
X141950000Y102600000D01*
G37*
G36*
X142850000Y108300000D02*
G01*
X142850000Y108300000D01*
G75*
G02*
X142850000Y108300000I450000J0D01*
G01*
X142850000Y108300000D01*
G37*
G36*
X142850000Y106500000D02*
G01*
X142850000Y106500000D01*
G75*
G02*
X142850000Y106500000I450000J0D01*
G01*
X142850000Y106500000D01*
G37*
G36*
X142850000Y103500000D02*
G01*
X142850000Y103500000D01*
G75*
G02*
X142850000Y103500000I450000J0D01*
G01*
X142850000Y103500000D01*
G37*
G36*
X142850000Y101700000D02*
G01*
X142850000Y101700000D01*
G75*
G02*
X142850000Y101700000I450000J0D01*
G01*
X142850000Y101700000D01*
G37*
%TO.C,SW39*%
G36*
X126250000Y98300000D02*
G01*
X126250000Y98300000D01*
G75*
G02*
X126250000Y98300000I450000J0D01*
G01*
X126250000Y98300000D01*
G37*
G36*
X126250000Y96500000D02*
G01*
X126250000Y96500000D01*
G75*
G02*
X126250000Y96500000I450000J0D01*
G01*
X126250000Y96500000D01*
G37*
G36*
X126250000Y93500000D02*
G01*
X126250000Y93500000D01*
G75*
G02*
X126250000Y93500000I450000J0D01*
G01*
X126250000Y93500000D01*
G37*
G36*
X126250000Y91700000D02*
G01*
X126250000Y91700000D01*
G75*
G02*
X126250000Y91700000I450000J0D01*
G01*
X126250000Y91700000D01*
G37*
G36*
X127150000Y97400000D02*
G01*
X127150000Y97400000D01*
G75*
G02*
X127150000Y97400000I450000J0D01*
G01*
X127150000Y97400000D01*
G37*
G36*
X127150000Y92600000D02*
G01*
X127150000Y92600000D01*
G75*
G02*
X127150000Y92600000I450000J0D01*
G01*
X127150000Y92600000D01*
G37*
G36*
X128050000Y98300000D02*
G01*
X128050000Y98300000D01*
G75*
G02*
X128050000Y98300000I450000J0D01*
G01*
X128050000Y98300000D01*
G37*
G36*
X128050000Y96500000D02*
G01*
X128050000Y96500000D01*
G75*
G02*
X128050000Y96500000I450000J0D01*
G01*
X128050000Y96500000D01*
G37*
G36*
X128050000Y93500000D02*
G01*
X128050000Y93500000D01*
G75*
G02*
X128050000Y93500000I450000J0D01*
G01*
X128050000Y93500000D01*
G37*
G36*
X128050000Y91700000D02*
G01*
X128050000Y91700000D01*
G75*
G02*
X128050000Y91700000I450000J0D01*
G01*
X128050000Y91700000D01*
G37*
G36*
X131050000Y98300000D02*
G01*
X131050000Y98300000D01*
G75*
G02*
X131050000Y98300000I450000J0D01*
G01*
X131050000Y98300000D01*
G37*
G36*
X131050000Y96500000D02*
G01*
X131050000Y96500000D01*
G75*
G02*
X131050000Y96500000I450000J0D01*
G01*
X131050000Y96500000D01*
G37*
G36*
X131050000Y93500000D02*
G01*
X131050000Y93500000D01*
G75*
G02*
X131050000Y93500000I450000J0D01*
G01*
X131050000Y93500000D01*
G37*
G36*
X131050000Y91700000D02*
G01*
X131050000Y91700000D01*
G75*
G02*
X131050000Y91700000I450000J0D01*
G01*
X131050000Y91700000D01*
G37*
G36*
X131950000Y97400000D02*
G01*
X131950000Y97400000D01*
G75*
G02*
X131950000Y97400000I450000J0D01*
G01*
X131950000Y97400000D01*
G37*
G36*
X131950000Y92600000D02*
G01*
X131950000Y92600000D01*
G75*
G02*
X131950000Y92600000I450000J0D01*
G01*
X131950000Y92600000D01*
G37*
G36*
X132850000Y98300000D02*
G01*
X132850000Y98300000D01*
G75*
G02*
X132850000Y98300000I450000J0D01*
G01*
X132850000Y98300000D01*
G37*
G36*
X132850000Y96500000D02*
G01*
X132850000Y96500000D01*
G75*
G02*
X132850000Y96500000I450000J0D01*
G01*
X132850000Y96500000D01*
G37*
G36*
X132850000Y93500000D02*
G01*
X132850000Y93500000D01*
G75*
G02*
X132850000Y93500000I450000J0D01*
G01*
X132850000Y93500000D01*
G37*
G36*
X132850000Y91700000D02*
G01*
X132850000Y91700000D01*
G75*
G02*
X132850000Y91700000I450000J0D01*
G01*
X132850000Y91700000D01*
G37*
%TO.C,SW57*%
G36*
X66250000Y68300000D02*
G01*
X66250000Y68300000D01*
G75*
G02*
X66250000Y68300000I450000J0D01*
G01*
X66250000Y68300000D01*
G37*
G36*
X66250000Y66500000D02*
G01*
X66250000Y66500000D01*
G75*
G02*
X66250000Y66500000I450000J0D01*
G01*
X66250000Y66500000D01*
G37*
G36*
X66250000Y63500000D02*
G01*
X66250000Y63500000D01*
G75*
G02*
X66250000Y63500000I450000J0D01*
G01*
X66250000Y63500000D01*
G37*
G36*
X66250000Y61700000D02*
G01*
X66250000Y61700000D01*
G75*
G02*
X66250000Y61700000I450000J0D01*
G01*
X66250000Y61700000D01*
G37*
G36*
X67150000Y67400000D02*
G01*
X67150000Y67400000D01*
G75*
G02*
X67150000Y67400000I450000J0D01*
G01*
X67150000Y67400000D01*
G37*
G36*
X67150000Y62600000D02*
G01*
X67150000Y62600000D01*
G75*
G02*
X67150000Y62600000I450000J0D01*
G01*
X67150000Y62600000D01*
G37*
G36*
X68050000Y68300000D02*
G01*
X68050000Y68300000D01*
G75*
G02*
X68050000Y68300000I450000J0D01*
G01*
X68050000Y68300000D01*
G37*
G36*
X68050000Y66500000D02*
G01*
X68050000Y66500000D01*
G75*
G02*
X68050000Y66500000I450000J0D01*
G01*
X68050000Y66500000D01*
G37*
G36*
X68050000Y63500000D02*
G01*
X68050000Y63500000D01*
G75*
G02*
X68050000Y63500000I450000J0D01*
G01*
X68050000Y63500000D01*
G37*
G36*
X68050000Y61700000D02*
G01*
X68050000Y61700000D01*
G75*
G02*
X68050000Y61700000I450000J0D01*
G01*
X68050000Y61700000D01*
G37*
G36*
X71050000Y68300000D02*
G01*
X71050000Y68300000D01*
G75*
G02*
X71050000Y68300000I450000J0D01*
G01*
X71050000Y68300000D01*
G37*
G36*
X71050000Y66500000D02*
G01*
X71050000Y66500000D01*
G75*
G02*
X71050000Y66500000I450000J0D01*
G01*
X71050000Y66500000D01*
G37*
G36*
X71050000Y63500000D02*
G01*
X71050000Y63500000D01*
G75*
G02*
X71050000Y63500000I450000J0D01*
G01*
X71050000Y63500000D01*
G37*
G36*
X71050000Y61700000D02*
G01*
X71050000Y61700000D01*
G75*
G02*
X71050000Y61700000I450000J0D01*
G01*
X71050000Y61700000D01*
G37*
G36*
X71950000Y67400000D02*
G01*
X71950000Y67400000D01*
G75*
G02*
X71950000Y67400000I450000J0D01*
G01*
X71950000Y67400000D01*
G37*
G36*
X71950000Y62600000D02*
G01*
X71950000Y62600000D01*
G75*
G02*
X71950000Y62600000I450000J0D01*
G01*
X71950000Y62600000D01*
G37*
G36*
X72850000Y68300000D02*
G01*
X72850000Y68300000D01*
G75*
G02*
X72850000Y68300000I450000J0D01*
G01*
X72850000Y68300000D01*
G37*
G36*
X72850000Y66500000D02*
G01*
X72850000Y66500000D01*
G75*
G02*
X72850000Y66500000I450000J0D01*
G01*
X72850000Y66500000D01*
G37*
G36*
X72850000Y63500000D02*
G01*
X72850000Y63500000D01*
G75*
G02*
X72850000Y63500000I450000J0D01*
G01*
X72850000Y63500000D01*
G37*
G36*
X72850000Y61700000D02*
G01*
X72850000Y61700000D01*
G75*
G02*
X72850000Y61700000I450000J0D01*
G01*
X72850000Y61700000D01*
G37*
%TO.C,SW30*%
G36*
X116250000Y108300000D02*
G01*
X116250000Y108300000D01*
G75*
G02*
X116250000Y108300000I450000J0D01*
G01*
X116250000Y108300000D01*
G37*
G36*
X116250000Y106500000D02*
G01*
X116250000Y106500000D01*
G75*
G02*
X116250000Y106500000I450000J0D01*
G01*
X116250000Y106500000D01*
G37*
G36*
X116250000Y103500000D02*
G01*
X116250000Y103500000D01*
G75*
G02*
X116250000Y103500000I450000J0D01*
G01*
X116250000Y103500000D01*
G37*
G36*
X116250000Y101700000D02*
G01*
X116250000Y101700000D01*
G75*
G02*
X116250000Y101700000I450000J0D01*
G01*
X116250000Y101700000D01*
G37*
G36*
X117150000Y107400000D02*
G01*
X117150000Y107400000D01*
G75*
G02*
X117150000Y107400000I450000J0D01*
G01*
X117150000Y107400000D01*
G37*
G36*
X117150000Y102600000D02*
G01*
X117150000Y102600000D01*
G75*
G02*
X117150000Y102600000I450000J0D01*
G01*
X117150000Y102600000D01*
G37*
G36*
X118050000Y108300000D02*
G01*
X118050000Y108300000D01*
G75*
G02*
X118050000Y108300000I450000J0D01*
G01*
X118050000Y108300000D01*
G37*
G36*
X118050000Y106500000D02*
G01*
X118050000Y106500000D01*
G75*
G02*
X118050000Y106500000I450000J0D01*
G01*
X118050000Y106500000D01*
G37*
G36*
X118050000Y103500000D02*
G01*
X118050000Y103500000D01*
G75*
G02*
X118050000Y103500000I450000J0D01*
G01*
X118050000Y103500000D01*
G37*
G36*
X118050000Y101700000D02*
G01*
X118050000Y101700000D01*
G75*
G02*
X118050000Y101700000I450000J0D01*
G01*
X118050000Y101700000D01*
G37*
G36*
X121050000Y108300000D02*
G01*
X121050000Y108300000D01*
G75*
G02*
X121050000Y108300000I450000J0D01*
G01*
X121050000Y108300000D01*
G37*
G36*
X121050000Y106500000D02*
G01*
X121050000Y106500000D01*
G75*
G02*
X121050000Y106500000I450000J0D01*
G01*
X121050000Y106500000D01*
G37*
G36*
X121050000Y103500000D02*
G01*
X121050000Y103500000D01*
G75*
G02*
X121050000Y103500000I450000J0D01*
G01*
X121050000Y103500000D01*
G37*
G36*
X121050000Y101700000D02*
G01*
X121050000Y101700000D01*
G75*
G02*
X121050000Y101700000I450000J0D01*
G01*
X121050000Y101700000D01*
G37*
G36*
X121950000Y107400000D02*
G01*
X121950000Y107400000D01*
G75*
G02*
X121950000Y107400000I450000J0D01*
G01*
X121950000Y107400000D01*
G37*
G36*
X121950000Y102600000D02*
G01*
X121950000Y102600000D01*
G75*
G02*
X121950000Y102600000I450000J0D01*
G01*
X121950000Y102600000D01*
G37*
G36*
X122850000Y108300000D02*
G01*
X122850000Y108300000D01*
G75*
G02*
X122850000Y108300000I450000J0D01*
G01*
X122850000Y108300000D01*
G37*
G36*
X122850000Y106500000D02*
G01*
X122850000Y106500000D01*
G75*
G02*
X122850000Y106500000I450000J0D01*
G01*
X122850000Y106500000D01*
G37*
G36*
X122850000Y103500000D02*
G01*
X122850000Y103500000D01*
G75*
G02*
X122850000Y103500000I450000J0D01*
G01*
X122850000Y103500000D01*
G37*
G36*
X122850000Y101700000D02*
G01*
X122850000Y101700000D01*
G75*
G02*
X122850000Y101700000I450000J0D01*
G01*
X122850000Y101700000D01*
G37*
%TO.C,SW9*%
G36*
X66250000Y128300000D02*
G01*
X66250000Y128300000D01*
G75*
G02*
X66250000Y128300000I450000J0D01*
G01*
X66250000Y128300000D01*
G37*
G36*
X66250000Y126500000D02*
G01*
X66250000Y126500000D01*
G75*
G02*
X66250000Y126500000I450000J0D01*
G01*
X66250000Y126500000D01*
G37*
G36*
X66250000Y123500000D02*
G01*
X66250000Y123500000D01*
G75*
G02*
X66250000Y123500000I450000J0D01*
G01*
X66250000Y123500000D01*
G37*
G36*
X66250000Y121700000D02*
G01*
X66250000Y121700000D01*
G75*
G02*
X66250000Y121700000I450000J0D01*
G01*
X66250000Y121700000D01*
G37*
G36*
X67150000Y127400000D02*
G01*
X67150000Y127400000D01*
G75*
G02*
X67150000Y127400000I450000J0D01*
G01*
X67150000Y127400000D01*
G37*
G36*
X67150000Y122600000D02*
G01*
X67150000Y122600000D01*
G75*
G02*
X67150000Y122600000I450000J0D01*
G01*
X67150000Y122600000D01*
G37*
G36*
X68050000Y128300000D02*
G01*
X68050000Y128300000D01*
G75*
G02*
X68050000Y128300000I450000J0D01*
G01*
X68050000Y128300000D01*
G37*
G36*
X68050000Y126500000D02*
G01*
X68050000Y126500000D01*
G75*
G02*
X68050000Y126500000I450000J0D01*
G01*
X68050000Y126500000D01*
G37*
G36*
X68050000Y123500000D02*
G01*
X68050000Y123500000D01*
G75*
G02*
X68050000Y123500000I450000J0D01*
G01*
X68050000Y123500000D01*
G37*
G36*
X68050000Y121700000D02*
G01*
X68050000Y121700000D01*
G75*
G02*
X68050000Y121700000I450000J0D01*
G01*
X68050000Y121700000D01*
G37*
G36*
X71050000Y128300000D02*
G01*
X71050000Y128300000D01*
G75*
G02*
X71050000Y128300000I450000J0D01*
G01*
X71050000Y128300000D01*
G37*
G36*
X71050000Y126500000D02*
G01*
X71050000Y126500000D01*
G75*
G02*
X71050000Y126500000I450000J0D01*
G01*
X71050000Y126500000D01*
G37*
G36*
X71050000Y123500000D02*
G01*
X71050000Y123500000D01*
G75*
G02*
X71050000Y123500000I450000J0D01*
G01*
X71050000Y123500000D01*
G37*
G36*
X71050000Y121700000D02*
G01*
X71050000Y121700000D01*
G75*
G02*
X71050000Y121700000I450000J0D01*
G01*
X71050000Y121700000D01*
G37*
G36*
X71950000Y127400000D02*
G01*
X71950000Y127400000D01*
G75*
G02*
X71950000Y127400000I450000J0D01*
G01*
X71950000Y127400000D01*
G37*
G36*
X71950000Y122600000D02*
G01*
X71950000Y122600000D01*
G75*
G02*
X71950000Y122600000I450000J0D01*
G01*
X71950000Y122600000D01*
G37*
G36*
X72850000Y128300000D02*
G01*
X72850000Y128300000D01*
G75*
G02*
X72850000Y128300000I450000J0D01*
G01*
X72850000Y128300000D01*
G37*
G36*
X72850000Y126500000D02*
G01*
X72850000Y126500000D01*
G75*
G02*
X72850000Y126500000I450000J0D01*
G01*
X72850000Y126500000D01*
G37*
G36*
X72850000Y123500000D02*
G01*
X72850000Y123500000D01*
G75*
G02*
X72850000Y123500000I450000J0D01*
G01*
X72850000Y123500000D01*
G37*
G36*
X72850000Y121700000D02*
G01*
X72850000Y121700000D01*
G75*
G02*
X72850000Y121700000I450000J0D01*
G01*
X72850000Y121700000D01*
G37*
%TO.C,SW41*%
G36*
X66250000Y88300000D02*
G01*
X66250000Y88300000D01*
G75*
G02*
X66250000Y88300000I450000J0D01*
G01*
X66250000Y88300000D01*
G37*
G36*
X66250000Y86500000D02*
G01*
X66250000Y86500000D01*
G75*
G02*
X66250000Y86500000I450000J0D01*
G01*
X66250000Y86500000D01*
G37*
G36*
X66250000Y83500000D02*
G01*
X66250000Y83500000D01*
G75*
G02*
X66250000Y83500000I450000J0D01*
G01*
X66250000Y83500000D01*
G37*
G36*
X66250000Y81700000D02*
G01*
X66250000Y81700000D01*
G75*
G02*
X66250000Y81700000I450000J0D01*
G01*
X66250000Y81700000D01*
G37*
G36*
X67150000Y87400000D02*
G01*
X67150000Y87400000D01*
G75*
G02*
X67150000Y87400000I450000J0D01*
G01*
X67150000Y87400000D01*
G37*
G36*
X67150000Y82600000D02*
G01*
X67150000Y82600000D01*
G75*
G02*
X67150000Y82600000I450000J0D01*
G01*
X67150000Y82600000D01*
G37*
G36*
X68050000Y88300000D02*
G01*
X68050000Y88300000D01*
G75*
G02*
X68050000Y88300000I450000J0D01*
G01*
X68050000Y88300000D01*
G37*
G36*
X68050000Y86500000D02*
G01*
X68050000Y86500000D01*
G75*
G02*
X68050000Y86500000I450000J0D01*
G01*
X68050000Y86500000D01*
G37*
G36*
X68050000Y83500000D02*
G01*
X68050000Y83500000D01*
G75*
G02*
X68050000Y83500000I450000J0D01*
G01*
X68050000Y83500000D01*
G37*
G36*
X68050000Y81700000D02*
G01*
X68050000Y81700000D01*
G75*
G02*
X68050000Y81700000I450000J0D01*
G01*
X68050000Y81700000D01*
G37*
G36*
X71050000Y88300000D02*
G01*
X71050000Y88300000D01*
G75*
G02*
X71050000Y88300000I450000J0D01*
G01*
X71050000Y88300000D01*
G37*
G36*
X71050000Y86500000D02*
G01*
X71050000Y86500000D01*
G75*
G02*
X71050000Y86500000I450000J0D01*
G01*
X71050000Y86500000D01*
G37*
G36*
X71050000Y83500000D02*
G01*
X71050000Y83500000D01*
G75*
G02*
X71050000Y83500000I450000J0D01*
G01*
X71050000Y83500000D01*
G37*
G36*
X71050000Y81700000D02*
G01*
X71050000Y81700000D01*
G75*
G02*
X71050000Y81700000I450000J0D01*
G01*
X71050000Y81700000D01*
G37*
G36*
X71950000Y87400000D02*
G01*
X71950000Y87400000D01*
G75*
G02*
X71950000Y87400000I450000J0D01*
G01*
X71950000Y87400000D01*
G37*
G36*
X71950000Y82600000D02*
G01*
X71950000Y82600000D01*
G75*
G02*
X71950000Y82600000I450000J0D01*
G01*
X71950000Y82600000D01*
G37*
G36*
X72850000Y88300000D02*
G01*
X72850000Y88300000D01*
G75*
G02*
X72850000Y88300000I450000J0D01*
G01*
X72850000Y88300000D01*
G37*
G36*
X72850000Y86500000D02*
G01*
X72850000Y86500000D01*
G75*
G02*
X72850000Y86500000I450000J0D01*
G01*
X72850000Y86500000D01*
G37*
G36*
X72850000Y83500000D02*
G01*
X72850000Y83500000D01*
G75*
G02*
X72850000Y83500000I450000J0D01*
G01*
X72850000Y83500000D01*
G37*
G36*
X72850000Y81700000D02*
G01*
X72850000Y81700000D01*
G75*
G02*
X72850000Y81700000I450000J0D01*
G01*
X72850000Y81700000D01*
G37*
%TO.C,SW47*%
G36*
X126250000Y88300000D02*
G01*
X126250000Y88300000D01*
G75*
G02*
X126250000Y88300000I450000J0D01*
G01*
X126250000Y88300000D01*
G37*
G36*
X126250000Y86500000D02*
G01*
X126250000Y86500000D01*
G75*
G02*
X126250000Y86500000I450000J0D01*
G01*
X126250000Y86500000D01*
G37*
G36*
X126250000Y83500000D02*
G01*
X126250000Y83500000D01*
G75*
G02*
X126250000Y83500000I450000J0D01*
G01*
X126250000Y83500000D01*
G37*
G36*
X126250000Y81700000D02*
G01*
X126250000Y81700000D01*
G75*
G02*
X126250000Y81700000I450000J0D01*
G01*
X126250000Y81700000D01*
G37*
G36*
X127150000Y87400000D02*
G01*
X127150000Y87400000D01*
G75*
G02*
X127150000Y87400000I450000J0D01*
G01*
X127150000Y87400000D01*
G37*
G36*
X127150000Y82600000D02*
G01*
X127150000Y82600000D01*
G75*
G02*
X127150000Y82600000I450000J0D01*
G01*
X127150000Y82600000D01*
G37*
G36*
X128050000Y88300000D02*
G01*
X128050000Y88300000D01*
G75*
G02*
X128050000Y88300000I450000J0D01*
G01*
X128050000Y88300000D01*
G37*
G36*
X128050000Y86500000D02*
G01*
X128050000Y86500000D01*
G75*
G02*
X128050000Y86500000I450000J0D01*
G01*
X128050000Y86500000D01*
G37*
G36*
X128050000Y83500000D02*
G01*
X128050000Y83500000D01*
G75*
G02*
X128050000Y83500000I450000J0D01*
G01*
X128050000Y83500000D01*
G37*
G36*
X128050000Y81700000D02*
G01*
X128050000Y81700000D01*
G75*
G02*
X128050000Y81700000I450000J0D01*
G01*
X128050000Y81700000D01*
G37*
G36*
X131050000Y88300000D02*
G01*
X131050000Y88300000D01*
G75*
G02*
X131050000Y88300000I450000J0D01*
G01*
X131050000Y88300000D01*
G37*
G36*
X131050000Y86500000D02*
G01*
X131050000Y86500000D01*
G75*
G02*
X131050000Y86500000I450000J0D01*
G01*
X131050000Y86500000D01*
G37*
G36*
X131050000Y83500000D02*
G01*
X131050000Y83500000D01*
G75*
G02*
X131050000Y83500000I450000J0D01*
G01*
X131050000Y83500000D01*
G37*
G36*
X131050000Y81700000D02*
G01*
X131050000Y81700000D01*
G75*
G02*
X131050000Y81700000I450000J0D01*
G01*
X131050000Y81700000D01*
G37*
G36*
X131950000Y87400000D02*
G01*
X131950000Y87400000D01*
G75*
G02*
X131950000Y87400000I450000J0D01*
G01*
X131950000Y87400000D01*
G37*
G36*
X131950000Y82600000D02*
G01*
X131950000Y82600000D01*
G75*
G02*
X131950000Y82600000I450000J0D01*
G01*
X131950000Y82600000D01*
G37*
G36*
X132850000Y88300000D02*
G01*
X132850000Y88300000D01*
G75*
G02*
X132850000Y88300000I450000J0D01*
G01*
X132850000Y88300000D01*
G37*
G36*
X132850000Y86500000D02*
G01*
X132850000Y86500000D01*
G75*
G02*
X132850000Y86500000I450000J0D01*
G01*
X132850000Y86500000D01*
G37*
G36*
X132850000Y83500000D02*
G01*
X132850000Y83500000D01*
G75*
G02*
X132850000Y83500000I450000J0D01*
G01*
X132850000Y83500000D01*
G37*
G36*
X132850000Y81700000D02*
G01*
X132850000Y81700000D01*
G75*
G02*
X132850000Y81700000I450000J0D01*
G01*
X132850000Y81700000D01*
G37*
%TO.C,SW46*%
G36*
X116250000Y88300000D02*
G01*
X116250000Y88300000D01*
G75*
G02*
X116250000Y88300000I450000J0D01*
G01*
X116250000Y88300000D01*
G37*
G36*
X116250000Y86500000D02*
G01*
X116250000Y86500000D01*
G75*
G02*
X116250000Y86500000I450000J0D01*
G01*
X116250000Y86500000D01*
G37*
G36*
X116250000Y83500000D02*
G01*
X116250000Y83500000D01*
G75*
G02*
X116250000Y83500000I450000J0D01*
G01*
X116250000Y83500000D01*
G37*
G36*
X116250000Y81700000D02*
G01*
X116250000Y81700000D01*
G75*
G02*
X116250000Y81700000I450000J0D01*
G01*
X116250000Y81700000D01*
G37*
G36*
X117150000Y87400000D02*
G01*
X117150000Y87400000D01*
G75*
G02*
X117150000Y87400000I450000J0D01*
G01*
X117150000Y87400000D01*
G37*
G36*
X117150000Y82600000D02*
G01*
X117150000Y82600000D01*
G75*
G02*
X117150000Y82600000I450000J0D01*
G01*
X117150000Y82600000D01*
G37*
G36*
X118050000Y88300000D02*
G01*
X118050000Y88300000D01*
G75*
G02*
X118050000Y88300000I450000J0D01*
G01*
X118050000Y88300000D01*
G37*
G36*
X118050000Y86500000D02*
G01*
X118050000Y86500000D01*
G75*
G02*
X118050000Y86500000I450000J0D01*
G01*
X118050000Y86500000D01*
G37*
G36*
X118050000Y83500000D02*
G01*
X118050000Y83500000D01*
G75*
G02*
X118050000Y83500000I450000J0D01*
G01*
X118050000Y83500000D01*
G37*
G36*
X118050000Y81700000D02*
G01*
X118050000Y81700000D01*
G75*
G02*
X118050000Y81700000I450000J0D01*
G01*
X118050000Y81700000D01*
G37*
G36*
X121050000Y88300000D02*
G01*
X121050000Y88300000D01*
G75*
G02*
X121050000Y88300000I450000J0D01*
G01*
X121050000Y88300000D01*
G37*
G36*
X121050000Y86500000D02*
G01*
X121050000Y86500000D01*
G75*
G02*
X121050000Y86500000I450000J0D01*
G01*
X121050000Y86500000D01*
G37*
G36*
X121050000Y83500000D02*
G01*
X121050000Y83500000D01*
G75*
G02*
X121050000Y83500000I450000J0D01*
G01*
X121050000Y83500000D01*
G37*
G36*
X121050000Y81700000D02*
G01*
X121050000Y81700000D01*
G75*
G02*
X121050000Y81700000I450000J0D01*
G01*
X121050000Y81700000D01*
G37*
G36*
X121950000Y87400000D02*
G01*
X121950000Y87400000D01*
G75*
G02*
X121950000Y87400000I450000J0D01*
G01*
X121950000Y87400000D01*
G37*
G36*
X121950000Y82600000D02*
G01*
X121950000Y82600000D01*
G75*
G02*
X121950000Y82600000I450000J0D01*
G01*
X121950000Y82600000D01*
G37*
G36*
X122850000Y88300000D02*
G01*
X122850000Y88300000D01*
G75*
G02*
X122850000Y88300000I450000J0D01*
G01*
X122850000Y88300000D01*
G37*
G36*
X122850000Y86500000D02*
G01*
X122850000Y86500000D01*
G75*
G02*
X122850000Y86500000I450000J0D01*
G01*
X122850000Y86500000D01*
G37*
G36*
X122850000Y83500000D02*
G01*
X122850000Y83500000D01*
G75*
G02*
X122850000Y83500000I450000J0D01*
G01*
X122850000Y83500000D01*
G37*
G36*
X122850000Y81700000D02*
G01*
X122850000Y81700000D01*
G75*
G02*
X122850000Y81700000I450000J0D01*
G01*
X122850000Y81700000D01*
G37*
%TO.C,SW26*%
G36*
X76250000Y108300000D02*
G01*
X76250000Y108300000D01*
G75*
G02*
X76250000Y108300000I450000J0D01*
G01*
X76250000Y108300000D01*
G37*
G36*
X76250000Y106500000D02*
G01*
X76250000Y106500000D01*
G75*
G02*
X76250000Y106500000I450000J0D01*
G01*
X76250000Y106500000D01*
G37*
G36*
X76250000Y103500000D02*
G01*
X76250000Y103500000D01*
G75*
G02*
X76250000Y103500000I450000J0D01*
G01*
X76250000Y103500000D01*
G37*
G36*
X76250000Y101700000D02*
G01*
X76250000Y101700000D01*
G75*
G02*
X76250000Y101700000I450000J0D01*
G01*
X76250000Y101700000D01*
G37*
G36*
X77150000Y107400000D02*
G01*
X77150000Y107400000D01*
G75*
G02*
X77150000Y107400000I450000J0D01*
G01*
X77150000Y107400000D01*
G37*
G36*
X77150000Y102600000D02*
G01*
X77150000Y102600000D01*
G75*
G02*
X77150000Y102600000I450000J0D01*
G01*
X77150000Y102600000D01*
G37*
G36*
X78050000Y108300000D02*
G01*
X78050000Y108300000D01*
G75*
G02*
X78050000Y108300000I450000J0D01*
G01*
X78050000Y108300000D01*
G37*
G36*
X78050000Y106500000D02*
G01*
X78050000Y106500000D01*
G75*
G02*
X78050000Y106500000I450000J0D01*
G01*
X78050000Y106500000D01*
G37*
G36*
X78050000Y103500000D02*
G01*
X78050000Y103500000D01*
G75*
G02*
X78050000Y103500000I450000J0D01*
G01*
X78050000Y103500000D01*
G37*
G36*
X78050000Y101700000D02*
G01*
X78050000Y101700000D01*
G75*
G02*
X78050000Y101700000I450000J0D01*
G01*
X78050000Y101700000D01*
G37*
G36*
X81050000Y108300000D02*
G01*
X81050000Y108300000D01*
G75*
G02*
X81050000Y108300000I450000J0D01*
G01*
X81050000Y108300000D01*
G37*
G36*
X81050000Y106500000D02*
G01*
X81050000Y106500000D01*
G75*
G02*
X81050000Y106500000I450000J0D01*
G01*
X81050000Y106500000D01*
G37*
G36*
X81050000Y103500000D02*
G01*
X81050000Y103500000D01*
G75*
G02*
X81050000Y103500000I450000J0D01*
G01*
X81050000Y103500000D01*
G37*
G36*
X81050000Y101700000D02*
G01*
X81050000Y101700000D01*
G75*
G02*
X81050000Y101700000I450000J0D01*
G01*
X81050000Y101700000D01*
G37*
G36*
X81950000Y107400000D02*
G01*
X81950000Y107400000D01*
G75*
G02*
X81950000Y107400000I450000J0D01*
G01*
X81950000Y107400000D01*
G37*
G36*
X81950000Y102600000D02*
G01*
X81950000Y102600000D01*
G75*
G02*
X81950000Y102600000I450000J0D01*
G01*
X81950000Y102600000D01*
G37*
G36*
X82850000Y108300000D02*
G01*
X82850000Y108300000D01*
G75*
G02*
X82850000Y108300000I450000J0D01*
G01*
X82850000Y108300000D01*
G37*
G36*
X82850000Y106500000D02*
G01*
X82850000Y106500000D01*
G75*
G02*
X82850000Y106500000I450000J0D01*
G01*
X82850000Y106500000D01*
G37*
G36*
X82850000Y103500000D02*
G01*
X82850000Y103500000D01*
G75*
G02*
X82850000Y103500000I450000J0D01*
G01*
X82850000Y103500000D01*
G37*
G36*
X82850000Y101700000D02*
G01*
X82850000Y101700000D01*
G75*
G02*
X82850000Y101700000I450000J0D01*
G01*
X82850000Y101700000D01*
G37*
%TD*%
D11*
%TO.C,MK16*%
X135700000Y130450000D03*
X134300000Y130450000D03*
%TD*%
%TO.C,MK5*%
X105700000Y140450000D03*
X104300000Y140450000D03*
%TD*%
%TO.C,MK53*%
X105700000Y80450000D03*
X104300000Y80450000D03*
%TD*%
%TO.C,MK55*%
X125700000Y80450000D03*
X124300000Y80450000D03*
%TD*%
%TO.C,MK14*%
X115700000Y130450000D03*
X114300000Y130450000D03*
%TD*%
%TO.C,MK9*%
X65700000Y130450000D03*
X64300000Y130450000D03*
%TD*%
%TO.C,MK57*%
X65700000Y70450000D03*
X64300000Y70450000D03*
%TD*%
%TO.C,MK20*%
X95700000Y120450000D03*
X94300000Y120450000D03*
%TD*%
%TO.C,MK45*%
X105700000Y90450000D03*
X104300000Y90450000D03*
%TD*%
D12*
%TO.C,TP2*%
X67000000Y31000000D03*
%TD*%
D11*
%TO.C,MK4*%
X95700000Y140450000D03*
X94300000Y140450000D03*
%TD*%
%TO.C,MK64*%
X135700000Y70450000D03*
X134300000Y70450000D03*
%TD*%
%TO.C,MK43*%
X85700000Y90450000D03*
X84300000Y90450000D03*
%TD*%
%TO.C,MK11*%
X85700000Y130450000D03*
X84300000Y130450000D03*
%TD*%
%TO.C,MK13*%
X105700000Y130450000D03*
X104300000Y130450000D03*
%TD*%
D13*
%TO.C,H6*%
X52375000Y48000000D03*
X53143845Y49856155D03*
X53143845Y46143845D03*
X55000000Y50625000D03*
D14*
X55000000Y48000000D03*
D13*
X55000000Y45375000D03*
X56856155Y49856155D03*
X56856155Y46143845D03*
X57625000Y48000000D03*
%TD*%
D11*
%TO.C,MK54*%
X115700000Y80450000D03*
X114300000Y80450000D03*
%TD*%
%TO.C,MK17*%
X65700000Y120450000D03*
X64300000Y120450000D03*
%TD*%
%TO.C,MK7*%
X125700000Y140450000D03*
X124300000Y140450000D03*
%TD*%
%TO.C,MK27*%
X85700000Y110450000D03*
X84300000Y110450000D03*
%TD*%
%TO.C,MK26*%
X75700000Y110450000D03*
X74300000Y110450000D03*
%TD*%
%TO.C,MK44*%
X95700000Y90450000D03*
X94300000Y90450000D03*
%TD*%
D12*
%TO.C,TP6*%
X31000000Y101000000D03*
%TD*%
D11*
%TO.C,MK52*%
X95700000Y80450000D03*
X94300000Y80450000D03*
%TD*%
%TO.C,MK34*%
X75700000Y100450000D03*
X74300000Y100450000D03*
%TD*%
%TO.C,MK1*%
X65700000Y140450000D03*
X64300000Y140450000D03*
%TD*%
%TO.C,MK63*%
X125700000Y70450000D03*
X124300000Y70450000D03*
%TD*%
D12*
%TO.C,TP4*%
X9000000Y72000000D03*
%TD*%
D11*
%TO.C,MK40*%
X135700000Y100450000D03*
X134300000Y100450000D03*
%TD*%
%TO.C,MK35*%
X85700000Y100450000D03*
X84300000Y100450000D03*
%TD*%
%TO.C,MK31*%
X125700000Y110450000D03*
X124300000Y110450000D03*
%TD*%
%TO.C,MK51*%
X85700000Y80450000D03*
X84300000Y80450000D03*
%TD*%
%TO.C,MK33*%
X65700000Y100450000D03*
X64300000Y100450000D03*
%TD*%
D13*
%TO.C,H4*%
X2375000Y145000000D03*
X3143845Y146856155D03*
X3143845Y143143845D03*
X5000000Y147625000D03*
D14*
X5000000Y145000000D03*
D13*
X5000000Y142375000D03*
X6856155Y146856155D03*
X6856155Y143143845D03*
X7625000Y145000000D03*
%TD*%
D11*
%TO.C,MK58*%
X75700000Y70450000D03*
X74300000Y70450000D03*
%TD*%
%TO.C,MK41*%
X65700000Y90450000D03*
X64300000Y90450000D03*
%TD*%
%TO.C,MK24*%
X135700000Y120450000D03*
X134300000Y120450000D03*
%TD*%
D12*
%TO.C,TP11*%
X141000000Y38500000D03*
%TD*%
D13*
%TO.C,H1*%
X142375000Y15000000D03*
X143143845Y16856155D03*
X143143845Y13143845D03*
X145000000Y17625000D03*
D14*
X145000000Y15000000D03*
D13*
X145000000Y12375000D03*
X146856155Y16856155D03*
X146856155Y13143845D03*
X147625000Y15000000D03*
%TD*%
D11*
%TO.C,MK38*%
X115700000Y100450000D03*
X114300000Y100450000D03*
%TD*%
%TO.C,MK18*%
X75700000Y120450000D03*
X74300000Y120450000D03*
%TD*%
%TO.C,MK50*%
X75700000Y80450000D03*
X74300000Y80450000D03*
%TD*%
%TO.C,MK28*%
X95700000Y110450000D03*
X94300000Y110450000D03*
%TD*%
%TO.C,MK42*%
X75700000Y90450000D03*
X74300000Y90450000D03*
%TD*%
%TO.C,MK48*%
X135700000Y90450000D03*
X134300000Y90450000D03*
%TD*%
%TO.C,MK36*%
X95700000Y100450000D03*
X94300000Y100450000D03*
%TD*%
%TO.C,MK25*%
X65700000Y110450000D03*
X64300000Y110450000D03*
%TD*%
%TO.C,MK49*%
X65700000Y80450000D03*
X64300000Y80450000D03*
%TD*%
D12*
%TO.C,TP3*%
X9000000Y86500000D03*
%TD*%
D11*
%TO.C,MK61*%
X105700000Y70450000D03*
X104300000Y70450000D03*
%TD*%
%TO.C,MK47*%
X125700000Y90450000D03*
X124300000Y90450000D03*
%TD*%
%TO.C,MK37*%
X105700000Y100450000D03*
X104300000Y100450000D03*
%TD*%
%TO.C,MK22*%
X115700000Y120450000D03*
X114300000Y120450000D03*
%TD*%
%TO.C,MK21*%
X105700000Y120450000D03*
X104300000Y120450000D03*
%TD*%
D12*
%TO.C,TP5*%
X9000000Y101000000D03*
%TD*%
D11*
%TO.C,MK15*%
X125700000Y130450000D03*
X124300000Y130450000D03*
%TD*%
D12*
%TO.C,TP10*%
X109000000Y38500000D03*
%TD*%
D11*
%TO.C,MK6*%
X115700000Y140450000D03*
X114300000Y140450000D03*
%TD*%
%TO.C,MK3*%
X85700000Y140450000D03*
X84300000Y140450000D03*
%TD*%
%TO.C,MK59*%
X85700000Y70450000D03*
X84300000Y70450000D03*
%TD*%
D13*
%TO.C,H5*%
X52375000Y145000000D03*
X53143845Y146856155D03*
X53143845Y143143845D03*
X55000000Y147625000D03*
D14*
X55000000Y145000000D03*
D13*
X55000000Y142375000D03*
X56856155Y146856155D03*
X56856155Y143143845D03*
X57625000Y145000000D03*
%TD*%
D15*
%TO.C,LS1*%
X7100000Y137900000D03*
X7100000Y112100000D03*
X32900000Y137900000D03*
X32900000Y112100000D03*
D16*
X29000000Y141000000D03*
X11000000Y109000000D03*
%TD*%
D12*
%TO.C,TP9*%
X101000000Y38500000D03*
%TD*%
%TO.C,TP7*%
X147000000Y48000000D03*
%TD*%
D11*
%TO.C,MK46*%
X115700000Y90450000D03*
X114300000Y90450000D03*
%TD*%
D12*
%TO.C,TP1*%
X143000000Y31000000D03*
%TD*%
D11*
%TO.C,MK10*%
X75700000Y130450000D03*
X74300000Y130450000D03*
%TD*%
D12*
%TO.C,TP8*%
X69000000Y38500000D03*
%TD*%
D13*
%TO.C,H3*%
X142375000Y145000000D03*
X143143845Y146856155D03*
X143143845Y143143845D03*
X145000000Y147625000D03*
D14*
X145000000Y145000000D03*
D13*
X145000000Y142375000D03*
X146856155Y146856155D03*
X146856155Y143143845D03*
X147625000Y145000000D03*
%TD*%
%TO.C,H2*%
X2375000Y15000000D03*
X3143845Y16856155D03*
X3143845Y13143845D03*
X5000000Y17625000D03*
D14*
X5000000Y15000000D03*
D13*
X5000000Y12375000D03*
X6856155Y16856155D03*
X6856155Y13143845D03*
X7625000Y15000000D03*
%TD*%
D17*
%TO.C,J2*%
X7000000Y30000000D03*
D18*
X4460000Y30000000D03*
X7000000Y32540000D03*
X4460000Y32540000D03*
X7000000Y35080000D03*
X4460000Y35080000D03*
X7000000Y37620000D03*
X4460000Y37620000D03*
X7000000Y40160000D03*
X4460000Y40160000D03*
X7000000Y42700000D03*
X4460000Y42700000D03*
X7000000Y45240000D03*
X4460000Y45240000D03*
X7000000Y47780000D03*
X4460000Y47780000D03*
X7000000Y50320000D03*
X4460000Y50320000D03*
X7000000Y52860000D03*
X4460000Y52860000D03*
%TD*%
D11*
%TO.C,MK2*%
X75700000Y140450000D03*
X74300000Y140450000D03*
%TD*%
%TO.C,MK30*%
X115700000Y110450000D03*
X114300000Y110450000D03*
%TD*%
%TO.C,MK39*%
X125700000Y100450000D03*
X124300000Y100450000D03*
%TD*%
%TO.C,MK8*%
X135700000Y140450000D03*
X134300000Y140450000D03*
%TD*%
%TO.C,MK12*%
X95700000Y130450000D03*
X94300000Y130450000D03*
%TD*%
%TO.C,MK19*%
X85700000Y120450000D03*
X84300000Y120450000D03*
%TD*%
%TO.C,MK56*%
X135700000Y80450000D03*
X134300000Y80450000D03*
%TD*%
%TO.C,MK23*%
X125700000Y120450000D03*
X124300000Y120450000D03*
%TD*%
%TO.C,MK32*%
X135700000Y110450000D03*
X134300000Y110450000D03*
%TD*%
%TO.C,MK62*%
X115700000Y70450000D03*
X114300000Y70450000D03*
%TD*%
%TO.C,MK60*%
X95700000Y70450000D03*
X94300000Y70450000D03*
%TD*%
%TO.C,MK29*%
X105700000Y110450000D03*
X104300000Y110450000D03*
%TD*%
D19*
%TO.C,F4*%
X10000000Y147500000D03*
%TD*%
D20*
%TO.C,J1*%
X50870000Y3000000D03*
D18*
X50870000Y5540000D03*
X53410000Y3000000D03*
X53410000Y5540000D03*
X55950000Y3000000D03*
X55950000Y5540000D03*
X58490000Y3000000D03*
X58490000Y5540000D03*
X61030000Y3000000D03*
X61030000Y5540000D03*
X63570000Y3000000D03*
X63570000Y5540000D03*
X66110000Y3000000D03*
X66110000Y5540000D03*
X68650000Y3000000D03*
X68650000Y5540000D03*
X71190000Y3000000D03*
X71190000Y5540000D03*
X73730000Y3000000D03*
X73730000Y5540000D03*
X76270000Y3000000D03*
X76270000Y5540000D03*
X78810000Y3000000D03*
X78810000Y5540000D03*
X81350000Y3000000D03*
X81350000Y5540000D03*
X83890000Y3000000D03*
X83890000Y5540000D03*
X86430000Y3000000D03*
X86430000Y5540000D03*
X88970000Y3000000D03*
X88970000Y5540000D03*
X91510000Y3000000D03*
X91510000Y5540000D03*
X94050000Y3000000D03*
X94050000Y5540000D03*
X96590000Y3000000D03*
X96590000Y5540000D03*
X99130000Y3000000D03*
X99130000Y5540000D03*
%TD*%
D19*
%TO.C,F3*%
X140000000Y12500000D03*
%TD*%
M02*
