%TF.GenerationSoftware,KiCad,Pcbnew,10.0.1*%
%TF.CreationDate,2026-05-09T19:44:10+02:00*%
%TF.ProjectId,Sonar,536f6e61-722e-46b6-9963-61645f706362,v1.0*%
%TF.SameCoordinates,Original*%
%TF.FileFunction,AssemblyDrawing,Bot*%
%FSLAX46Y46*%
G04 Gerber Fmt 4.6, Leading zero omitted, Abs format (unit mm)*
G04 Created by KiCad (PCBNEW 10.0.1) date 2026-05-09 19:44:10*
%MOMM*%
%LPD*%
G01*
G04 APERTURE LIST*
%ADD10C,0.150000*%
%ADD11C,0.110000*%
%ADD12C,0.100000*%
G04 APERTURE END LIST*
D10*
X110261904Y-75023866D02*
X110214285Y-74976247D01*
X110214285Y-74976247D02*
X110119047Y-74928628D01*
X110119047Y-74928628D02*
X109928571Y-75023866D01*
X109928571Y-75023866D02*
X109833333Y-74976247D01*
X109833333Y-74976247D02*
X109785714Y-74928628D01*
D11*
X110249999Y-72448387D02*
X110499999Y-72448387D01*
X110499999Y-72841244D02*
X110499999Y-72091244D01*
X110499999Y-72091244D02*
X110142856Y-72091244D01*
X109535714Y-72341244D02*
X109535714Y-72841244D01*
X109714285Y-72055530D02*
X109892856Y-72591244D01*
X109892856Y-72591244D02*
X109428571Y-72591244D01*
D10*
X202354819Y-209849048D02*
X201354819Y-209849048D01*
X201354819Y-209849048D02*
X201354819Y-210087143D01*
X201354819Y-210087143D02*
X201402438Y-210230000D01*
X201402438Y-210230000D02*
X201497676Y-210325238D01*
X201497676Y-210325238D02*
X201592914Y-210372857D01*
X201592914Y-210372857D02*
X201783390Y-210420476D01*
X201783390Y-210420476D02*
X201926247Y-210420476D01*
X201926247Y-210420476D02*
X202116723Y-210372857D01*
X202116723Y-210372857D02*
X202211961Y-210325238D01*
X202211961Y-210325238D02*
X202307200Y-210230000D01*
X202307200Y-210230000D02*
X202354819Y-210087143D01*
X202354819Y-210087143D02*
X202354819Y-209849048D01*
X202354819Y-210849048D02*
X201354819Y-210849048D01*
X202354819Y-211325238D02*
X201354819Y-211325238D01*
X201354819Y-211325238D02*
X202354819Y-211896666D01*
X202354819Y-211896666D02*
X201354819Y-211896666D01*
X201973866Y-212372857D02*
X201973866Y-213134762D01*
X201688152Y-214039523D02*
X202354819Y-214039523D01*
X201307200Y-213801428D02*
X202021485Y-213563333D01*
X202021485Y-213563333D02*
X202021485Y-214182380D01*
X201354819Y-214753809D02*
X201354819Y-214849047D01*
X201354819Y-214849047D02*
X201402438Y-214944285D01*
X201402438Y-214944285D02*
X201450057Y-214991904D01*
X201450057Y-214991904D02*
X201545295Y-215039523D01*
X201545295Y-215039523D02*
X201735771Y-215087142D01*
X201735771Y-215087142D02*
X201973866Y-215087142D01*
X201973866Y-215087142D02*
X202164342Y-215039523D01*
X202164342Y-215039523D02*
X202259580Y-214991904D01*
X202259580Y-214991904D02*
X202307200Y-214944285D01*
X202307200Y-214944285D02*
X202354819Y-214849047D01*
X202354819Y-214849047D02*
X202354819Y-214753809D01*
X202354819Y-214753809D02*
X202307200Y-214658571D01*
X202307200Y-214658571D02*
X202259580Y-214610952D01*
X202259580Y-214610952D02*
X202164342Y-214563333D01*
X202164342Y-214563333D02*
X201973866Y-214515714D01*
X201973866Y-214515714D02*
X201735771Y-214515714D01*
X201735771Y-214515714D02*
X201545295Y-214563333D01*
X201545295Y-214563333D02*
X201450057Y-214610952D01*
X201450057Y-214610952D02*
X201402438Y-214658571D01*
X201402438Y-214658571D02*
X201354819Y-214753809D01*
X201973866Y-215515714D02*
X201973866Y-216277619D01*
X201831009Y-217087142D02*
X201831009Y-216753809D01*
X202354819Y-216753809D02*
X201354819Y-216753809D01*
X201354819Y-216753809D02*
X201354819Y-217229999D01*
X202307200Y-217991904D02*
X202354819Y-217896666D01*
X202354819Y-217896666D02*
X202354819Y-217706190D01*
X202354819Y-217706190D02*
X202307200Y-217610952D01*
X202307200Y-217610952D02*
X202211961Y-217563333D01*
X202211961Y-217563333D02*
X201831009Y-217563333D01*
X201831009Y-217563333D02*
X201735771Y-217610952D01*
X201735771Y-217610952D02*
X201688152Y-217706190D01*
X201688152Y-217706190D02*
X201688152Y-217896666D01*
X201688152Y-217896666D02*
X201735771Y-217991904D01*
X201735771Y-217991904D02*
X201831009Y-218039523D01*
X201831009Y-218039523D02*
X201926247Y-218039523D01*
X201926247Y-218039523D02*
X202021485Y-217563333D01*
X202354819Y-218468095D02*
X201688152Y-218468095D01*
X201783390Y-218468095D02*
X201735771Y-218515714D01*
X201735771Y-218515714D02*
X201688152Y-218610952D01*
X201688152Y-218610952D02*
X201688152Y-218753809D01*
X201688152Y-218753809D02*
X201735771Y-218849047D01*
X201735771Y-218849047D02*
X201831009Y-218896666D01*
X201831009Y-218896666D02*
X202354819Y-218896666D01*
X201831009Y-218896666D02*
X201735771Y-218944285D01*
X201735771Y-218944285D02*
X201688152Y-219039523D01*
X201688152Y-219039523D02*
X201688152Y-219182380D01*
X201688152Y-219182380D02*
X201735771Y-219277619D01*
X201735771Y-219277619D02*
X201831009Y-219325238D01*
X201831009Y-219325238D02*
X202354819Y-219325238D01*
X202354819Y-220229999D02*
X201831009Y-220229999D01*
X201831009Y-220229999D02*
X201735771Y-220182380D01*
X201735771Y-220182380D02*
X201688152Y-220087142D01*
X201688152Y-220087142D02*
X201688152Y-219896666D01*
X201688152Y-219896666D02*
X201735771Y-219801428D01*
X202307200Y-220229999D02*
X202354819Y-220134761D01*
X202354819Y-220134761D02*
X202354819Y-219896666D01*
X202354819Y-219896666D02*
X202307200Y-219801428D01*
X202307200Y-219801428D02*
X202211961Y-219753809D01*
X202211961Y-219753809D02*
X202116723Y-219753809D01*
X202116723Y-219753809D02*
X202021485Y-219801428D01*
X202021485Y-219801428D02*
X201973866Y-219896666D01*
X201973866Y-219896666D02*
X201973866Y-220134761D01*
X201973866Y-220134761D02*
X201926247Y-220229999D01*
X202354819Y-220849047D02*
X202307200Y-220753809D01*
X202307200Y-220753809D02*
X202211961Y-220706190D01*
X202211961Y-220706190D02*
X201354819Y-220706190D01*
X202307200Y-221610952D02*
X202354819Y-221515714D01*
X202354819Y-221515714D02*
X202354819Y-221325238D01*
X202354819Y-221325238D02*
X202307200Y-221230000D01*
X202307200Y-221230000D02*
X202211961Y-221182381D01*
X202211961Y-221182381D02*
X201831009Y-221182381D01*
X201831009Y-221182381D02*
X201735771Y-221230000D01*
X201735771Y-221230000D02*
X201688152Y-221325238D01*
X201688152Y-221325238D02*
X201688152Y-221515714D01*
X201688152Y-221515714D02*
X201735771Y-221610952D01*
X201735771Y-221610952D02*
X201831009Y-221658571D01*
X201831009Y-221658571D02*
X201926247Y-221658571D01*
X201926247Y-221658571D02*
X202021485Y-221182381D01*
X175333333Y-215184819D02*
X175333333Y-215899104D01*
X175333333Y-215899104D02*
X175380952Y-216041961D01*
X175380952Y-216041961D02*
X175476190Y-216137200D01*
X175476190Y-216137200D02*
X175619047Y-216184819D01*
X175619047Y-216184819D02*
X175714285Y-216184819D01*
X174333333Y-216184819D02*
X174904761Y-216184819D01*
X174619047Y-216184819D02*
X174619047Y-215184819D01*
X174619047Y-215184819D02*
X174714285Y-215327676D01*
X174714285Y-215327676D02*
X174809523Y-215422914D01*
X174809523Y-215422914D02*
X174904761Y-215470533D01*
X240261904Y-210023866D02*
X240214285Y-209976247D01*
X240214285Y-209976247D02*
X240119047Y-209928628D01*
X240119047Y-209928628D02*
X239928571Y-210023866D01*
X239928571Y-210023866D02*
X239833333Y-209976247D01*
X239833333Y-209976247D02*
X239785714Y-209928628D01*
D11*
X240249999Y-207448387D02*
X240499999Y-207448387D01*
X240499999Y-207841244D02*
X240499999Y-207091244D01*
X240499999Y-207091244D02*
X240142856Y-207091244D01*
X239928571Y-207091244D02*
X239464285Y-207091244D01*
X239464285Y-207091244D02*
X239714285Y-207376958D01*
X239714285Y-207376958D02*
X239607142Y-207376958D01*
X239607142Y-207376958D02*
X239535714Y-207412672D01*
X239535714Y-207412672D02*
X239499999Y-207448387D01*
X239499999Y-207448387D02*
X239464285Y-207519815D01*
X239464285Y-207519815D02*
X239464285Y-207698387D01*
X239464285Y-207698387D02*
X239499999Y-207769815D01*
X239499999Y-207769815D02*
X239535714Y-207805530D01*
X239535714Y-207805530D02*
X239607142Y-207841244D01*
X239607142Y-207841244D02*
X239821428Y-207841244D01*
X239821428Y-207841244D02*
X239892856Y-207805530D01*
X239892856Y-207805530D02*
X239928571Y-207769815D01*
%TO.C,F4*%
D12*
X111500000Y-72500000D02*
G75*
G02*
X108500000Y-72500000I-1500000J0D01*
G01*
X108500000Y-72500000D02*
G75*
G02*
X111500000Y-72500000I1500000J0D01*
G01*
%TO.C,J1*%
X149600000Y-213190000D02*
X149600000Y-217270000D01*
X149600000Y-217270000D02*
X150600000Y-218270000D01*
X150600000Y-218270000D02*
X200400000Y-218270000D01*
X200400000Y-213190000D02*
X149600000Y-213190000D01*
X200400000Y-218270000D02*
X200400000Y-213190000D01*
%TO.C,F3*%
X241500000Y-207500000D02*
G75*
G02*
X238500000Y-207500000I-1500000J0D01*
G01*
X238500000Y-207500000D02*
G75*
G02*
X241500000Y-207500000I1500000J0D01*
G01*
%TD*%
M02*
