%TF.GenerationSoftware,KiCad,Pcbnew,10.0.1*%
%TF.CreationDate,2026-05-09T19:44:09+02:00*%
%TF.ProjectId,Sonar,536f6e61-722e-46b6-9963-61645f706362,v1.0*%
%TF.SameCoordinates,Original*%
%TF.FileFunction,Soldermask,Top*%
%TF.FilePolarity,Negative*%
%FSLAX46Y46*%
G04 Gerber Fmt 4.6, Leading zero omitted, Abs format (unit mm)*
G04 Created by KiCad (PCBNEW 10.0.1) date 2026-05-09 19:44:09*
%MOMM*%
%LPD*%
G01*
G04 APERTURE LIST*
G04 Aperture macros list*
%AMRoundRect*
0 Rectangle with rounded corners*
0 $1 Rounding radius*
0 $2 $3 $4 $5 $6 $7 $8 $9 X,Y pos of 4 corners*
0 Add a 4 corners polygon primitive as box body*
4,1,4,$2,$3,$4,$5,$6,$7,$8,$9,$2,$3,0*
0 Add four circle primitives for the rounded corners*
1,1,$1+$1,$2,$3*
1,1,$1+$1,$4,$5*
1,1,$1+$1,$6,$7*
1,1,$1+$1,$8,$9*
0 Add four rect primitives between the rounded corners*
20,1,$1+$1,$2,$3,$4,$5,0*
20,1,$1+$1,$4,$5,$6,$7,0*
20,1,$1+$1,$6,$7,$8,$9,0*
20,1,$1+$1,$8,$9,$2,$3,0*%
G04 Aperture macros list end*
%ADD10C,0.000000*%
%ADD11RoundRect,0.200000X-0.275000X0.200000X-0.275000X-0.200000X0.275000X-0.200000X0.275000X0.200000X0*%
%ADD12C,2.800000*%
%ADD13C,0.800000*%
%ADD14C,7.000000*%
%ADD15RoundRect,0.225000X-0.250000X0.225000X-0.250000X-0.225000X0.250000X-0.225000X0.250000X0.225000X0*%
%ADD16C,0.930000*%
%ADD17RoundRect,0.225000X0.250000X-0.225000X0.250000X0.225000X-0.250000X0.225000X-0.250000X-0.225000X0*%
%ADD18RoundRect,0.200000X0.275000X-0.200000X0.275000X0.200000X-0.275000X0.200000X-0.275000X-0.200000X0*%
%ADD19RoundRect,0.200000X0.200000X0.275000X-0.200000X0.275000X-0.200000X-0.275000X0.200000X-0.275000X0*%
%ADD20RoundRect,0.200000X-0.200000X-0.275000X0.200000X-0.275000X0.200000X0.275000X-0.200000X0.275000X0*%
%ADD21RoundRect,0.250000X0.650000X-0.325000X0.650000X0.325000X-0.650000X0.325000X-0.650000X-0.325000X0*%
%ADD22R,0.650000X1.525000*%
%ADD23C,3.000000*%
%ADD24RoundRect,0.225000X0.225000X0.250000X-0.225000X0.250000X-0.225000X-0.250000X0.225000X-0.250000X0*%
%ADD25R,5.000000X5.000000*%
%ADD26RoundRect,0.075000X0.075000X-0.700000X0.075000X0.700000X-0.075000X0.700000X-0.075000X-0.700000X0*%
%ADD27RoundRect,0.075000X0.700000X-0.075000X0.700000X0.075000X-0.700000X0.075000X-0.700000X-0.075000X0*%
%ADD28RoundRect,0.225000X-0.225000X-0.250000X0.225000X-0.250000X0.225000X0.250000X-0.225000X0.250000X0*%
%ADD29RoundRect,0.250000X-0.229810X0.689429X-0.689429X0.229810X0.229810X-0.689429X0.689429X-0.229810X0*%
%ADD30R,0.310000X0.600000*%
%ADD31R,1.750000X1.500000*%
%ADD32R,0.825000X0.230000*%
%ADD33C,2.000000*%
%ADD34RoundRect,0.250000X-0.689429X-0.229810X-0.229810X-0.689429X0.689429X0.229810X0.229810X0.689429X0*%
%ADD35RoundRect,0.250000X0.600000X0.600000X-0.600000X0.600000X-0.600000X-0.600000X0.600000X-0.600000X0*%
%ADD36C,1.700000*%
%ADD37R,1.700000X1.700000*%
G04 APERTURE END LIST*
D10*
%TO.C,SW3*%
G36*
X187150000Y-82600000D02*
G01*
X187150000Y-82600000D01*
G75*
G02*
X187150000Y-82600000I450000J0D01*
G01*
X187150000Y-82600000D01*
G37*
G36*
X187150000Y-87400000D02*
G01*
X187150000Y-87400000D01*
G75*
G02*
X187150000Y-87400000I450000J0D01*
G01*
X187150000Y-87400000D01*
G37*
G36*
X191950000Y-82600000D02*
G01*
X191950000Y-82600000D01*
G75*
G02*
X191950000Y-82600000I450000J0D01*
G01*
X191950000Y-82600000D01*
G37*
G36*
X191950000Y-87400000D02*
G01*
X191950000Y-87400000D01*
G75*
G02*
X191950000Y-87400000I450000J0D01*
G01*
X191950000Y-87400000D01*
G37*
%TO.C,SW51*%
G36*
X187150000Y-142600000D02*
G01*
X187150000Y-142600000D01*
G75*
G02*
X187150000Y-142600000I450000J0D01*
G01*
X187150000Y-142600000D01*
G37*
G36*
X187150000Y-147400000D02*
G01*
X187150000Y-147400000D01*
G75*
G02*
X187150000Y-147400000I450000J0D01*
G01*
X187150000Y-147400000D01*
G37*
G36*
X191950000Y-142600000D02*
G01*
X191950000Y-142600000D01*
G75*
G02*
X191950000Y-142600000I450000J0D01*
G01*
X191950000Y-142600000D01*
G37*
G36*
X191950000Y-147400000D02*
G01*
X191950000Y-147400000D01*
G75*
G02*
X191950000Y-147400000I450000J0D01*
G01*
X191950000Y-147400000D01*
G37*
%TO.C,SW13*%
G36*
X207150000Y-92600000D02*
G01*
X207150000Y-92600000D01*
G75*
G02*
X207150000Y-92600000I450000J0D01*
G01*
X207150000Y-92600000D01*
G37*
G36*
X207150000Y-97400000D02*
G01*
X207150000Y-97400000D01*
G75*
G02*
X207150000Y-97400000I450000J0D01*
G01*
X207150000Y-97400000D01*
G37*
G36*
X211950000Y-92600000D02*
G01*
X211950000Y-92600000D01*
G75*
G02*
X211950000Y-92600000I450000J0D01*
G01*
X211950000Y-92600000D01*
G37*
G36*
X211950000Y-97400000D02*
G01*
X211950000Y-97400000D01*
G75*
G02*
X211950000Y-97400000I450000J0D01*
G01*
X211950000Y-97400000D01*
G37*
%TO.C,SW37*%
G36*
X207150000Y-122600000D02*
G01*
X207150000Y-122600000D01*
G75*
G02*
X207150000Y-122600000I450000J0D01*
G01*
X207150000Y-122600000D01*
G37*
G36*
X207150000Y-127400000D02*
G01*
X207150000Y-127400000D01*
G75*
G02*
X207150000Y-127400000I450000J0D01*
G01*
X207150000Y-127400000D01*
G37*
G36*
X211950000Y-122600000D02*
G01*
X211950000Y-122600000D01*
G75*
G02*
X211950000Y-122600000I450000J0D01*
G01*
X211950000Y-122600000D01*
G37*
G36*
X211950000Y-127400000D02*
G01*
X211950000Y-127400000D01*
G75*
G02*
X211950000Y-127400000I450000J0D01*
G01*
X211950000Y-127400000D01*
G37*
%TO.C,SW5*%
G36*
X207150000Y-82600000D02*
G01*
X207150000Y-82600000D01*
G75*
G02*
X207150000Y-82600000I450000J0D01*
G01*
X207150000Y-82600000D01*
G37*
G36*
X207150000Y-87400000D02*
G01*
X207150000Y-87400000D01*
G75*
G02*
X207150000Y-87400000I450000J0D01*
G01*
X207150000Y-87400000D01*
G37*
G36*
X211950000Y-82600000D02*
G01*
X211950000Y-82600000D01*
G75*
G02*
X211950000Y-82600000I450000J0D01*
G01*
X211950000Y-82600000D01*
G37*
G36*
X211950000Y-87400000D02*
G01*
X211950000Y-87400000D01*
G75*
G02*
X211950000Y-87400000I450000J0D01*
G01*
X211950000Y-87400000D01*
G37*
%TO.C,SW55*%
G36*
X227150000Y-142600000D02*
G01*
X227150000Y-142600000D01*
G75*
G02*
X227150000Y-142600000I450000J0D01*
G01*
X227150000Y-142600000D01*
G37*
G36*
X227150000Y-147400000D02*
G01*
X227150000Y-147400000D01*
G75*
G02*
X227150000Y-147400000I450000J0D01*
G01*
X227150000Y-147400000D01*
G37*
G36*
X231950000Y-142600000D02*
G01*
X231950000Y-142600000D01*
G75*
G02*
X231950000Y-142600000I450000J0D01*
G01*
X231950000Y-142600000D01*
G37*
G36*
X231950000Y-147400000D02*
G01*
X231950000Y-147400000D01*
G75*
G02*
X231950000Y-147400000I450000J0D01*
G01*
X231950000Y-147400000D01*
G37*
%TO.C,SW19*%
G36*
X187150000Y-102600000D02*
G01*
X187150000Y-102600000D01*
G75*
G02*
X187150000Y-102600000I450000J0D01*
G01*
X187150000Y-102600000D01*
G37*
G36*
X187150000Y-107400000D02*
G01*
X187150000Y-107400000D01*
G75*
G02*
X187150000Y-107400000I450000J0D01*
G01*
X187150000Y-107400000D01*
G37*
G36*
X191950000Y-102600000D02*
G01*
X191950000Y-102600000D01*
G75*
G02*
X191950000Y-102600000I450000J0D01*
G01*
X191950000Y-102600000D01*
G37*
G36*
X191950000Y-107400000D02*
G01*
X191950000Y-107400000D01*
G75*
G02*
X191950000Y-107400000I450000J0D01*
G01*
X191950000Y-107400000D01*
G37*
%TO.C,SW53*%
G36*
X207150000Y-142600000D02*
G01*
X207150000Y-142600000D01*
G75*
G02*
X207150000Y-142600000I450000J0D01*
G01*
X207150000Y-142600000D01*
G37*
G36*
X207150000Y-147400000D02*
G01*
X207150000Y-147400000D01*
G75*
G02*
X207150000Y-147400000I450000J0D01*
G01*
X207150000Y-147400000D01*
G37*
G36*
X211950000Y-142600000D02*
G01*
X211950000Y-142600000D01*
G75*
G02*
X211950000Y-142600000I450000J0D01*
G01*
X211950000Y-142600000D01*
G37*
G36*
X211950000Y-147400000D02*
G01*
X211950000Y-147400000D01*
G75*
G02*
X211950000Y-147400000I450000J0D01*
G01*
X211950000Y-147400000D01*
G37*
%TO.C,SW7*%
G36*
X227150000Y-82600000D02*
G01*
X227150000Y-82600000D01*
G75*
G02*
X227150000Y-82600000I450000J0D01*
G01*
X227150000Y-82600000D01*
G37*
G36*
X227150000Y-87400000D02*
G01*
X227150000Y-87400000D01*
G75*
G02*
X227150000Y-87400000I450000J0D01*
G01*
X227150000Y-87400000D01*
G37*
G36*
X231950000Y-82600000D02*
G01*
X231950000Y-82600000D01*
G75*
G02*
X231950000Y-82600000I450000J0D01*
G01*
X231950000Y-82600000D01*
G37*
G36*
X231950000Y-87400000D02*
G01*
X231950000Y-87400000D01*
G75*
G02*
X231950000Y-87400000I450000J0D01*
G01*
X231950000Y-87400000D01*
G37*
%TO.C,SW18*%
G36*
X177150000Y-102600000D02*
G01*
X177150000Y-102600000D01*
G75*
G02*
X177150000Y-102600000I450000J0D01*
G01*
X177150000Y-102600000D01*
G37*
G36*
X177150000Y-107400000D02*
G01*
X177150000Y-107400000D01*
G75*
G02*
X177150000Y-107400000I450000J0D01*
G01*
X177150000Y-107400000D01*
G37*
G36*
X181950000Y-102600000D02*
G01*
X181950000Y-102600000D01*
G75*
G02*
X181950000Y-102600000I450000J0D01*
G01*
X181950000Y-102600000D01*
G37*
G36*
X181950000Y-107400000D02*
G01*
X181950000Y-107400000D01*
G75*
G02*
X181950000Y-107400000I450000J0D01*
G01*
X181950000Y-107400000D01*
G37*
%TO.C,SW1*%
G36*
X167150000Y-82600000D02*
G01*
X167150000Y-82600000D01*
G75*
G02*
X167150000Y-82600000I450000J0D01*
G01*
X167150000Y-82600000D01*
G37*
G36*
X167150000Y-87400000D02*
G01*
X167150000Y-87400000D01*
G75*
G02*
X167150000Y-87400000I450000J0D01*
G01*
X167150000Y-87400000D01*
G37*
G36*
X171950000Y-82600000D02*
G01*
X171950000Y-82600000D01*
G75*
G02*
X171950000Y-82600000I450000J0D01*
G01*
X171950000Y-82600000D01*
G37*
G36*
X171950000Y-87400000D02*
G01*
X171950000Y-87400000D01*
G75*
G02*
X171950000Y-87400000I450000J0D01*
G01*
X171950000Y-87400000D01*
G37*
%TO.C,SW24*%
G36*
X237150000Y-102600000D02*
G01*
X237150000Y-102600000D01*
G75*
G02*
X237150000Y-102600000I450000J0D01*
G01*
X237150000Y-102600000D01*
G37*
G36*
X237150000Y-107400000D02*
G01*
X237150000Y-107400000D01*
G75*
G02*
X237150000Y-107400000I450000J0D01*
G01*
X237150000Y-107400000D01*
G37*
G36*
X241950000Y-102600000D02*
G01*
X241950000Y-102600000D01*
G75*
G02*
X241950000Y-102600000I450000J0D01*
G01*
X241950000Y-102600000D01*
G37*
G36*
X241950000Y-107400000D02*
G01*
X241950000Y-107400000D01*
G75*
G02*
X241950000Y-107400000I450000J0D01*
G01*
X241950000Y-107400000D01*
G37*
%TO.C,SW16*%
G36*
X237150000Y-92600000D02*
G01*
X237150000Y-92600000D01*
G75*
G02*
X237150000Y-92600000I450000J0D01*
G01*
X237150000Y-92600000D01*
G37*
G36*
X237150000Y-97400000D02*
G01*
X237150000Y-97400000D01*
G75*
G02*
X237150000Y-97400000I450000J0D01*
G01*
X237150000Y-97400000D01*
G37*
G36*
X241950000Y-92600000D02*
G01*
X241950000Y-92600000D01*
G75*
G02*
X241950000Y-92600000I450000J0D01*
G01*
X241950000Y-92600000D01*
G37*
G36*
X241950000Y-97400000D02*
G01*
X241950000Y-97400000D01*
G75*
G02*
X241950000Y-97400000I450000J0D01*
G01*
X241950000Y-97400000D01*
G37*
%TO.C,SW34*%
G36*
X177150000Y-122600000D02*
G01*
X177150000Y-122600000D01*
G75*
G02*
X177150000Y-122600000I450000J0D01*
G01*
X177150000Y-122600000D01*
G37*
G36*
X177150000Y-127400000D02*
G01*
X177150000Y-127400000D01*
G75*
G02*
X177150000Y-127400000I450000J0D01*
G01*
X177150000Y-127400000D01*
G37*
G36*
X181950000Y-122600000D02*
G01*
X181950000Y-122600000D01*
G75*
G02*
X181950000Y-122600000I450000J0D01*
G01*
X181950000Y-122600000D01*
G37*
G36*
X181950000Y-127400000D02*
G01*
X181950000Y-127400000D01*
G75*
G02*
X181950000Y-127400000I450000J0D01*
G01*
X181950000Y-127400000D01*
G37*
%TO.C,SW43*%
G36*
X187150000Y-132600000D02*
G01*
X187150000Y-132600000D01*
G75*
G02*
X187150000Y-132600000I450000J0D01*
G01*
X187150000Y-132600000D01*
G37*
G36*
X187150000Y-137400000D02*
G01*
X187150000Y-137400000D01*
G75*
G02*
X187150000Y-137400000I450000J0D01*
G01*
X187150000Y-137400000D01*
G37*
G36*
X191950000Y-132600000D02*
G01*
X191950000Y-132600000D01*
G75*
G02*
X191950000Y-132600000I450000J0D01*
G01*
X191950000Y-132600000D01*
G37*
G36*
X191950000Y-137400000D02*
G01*
X191950000Y-137400000D01*
G75*
G02*
X191950000Y-137400000I450000J0D01*
G01*
X191950000Y-137400000D01*
G37*
%TO.C,SW61*%
G36*
X207150000Y-152600000D02*
G01*
X207150000Y-152600000D01*
G75*
G02*
X207150000Y-152600000I450000J0D01*
G01*
X207150000Y-152600000D01*
G37*
G36*
X207150000Y-157400000D02*
G01*
X207150000Y-157400000D01*
G75*
G02*
X207150000Y-157400000I450000J0D01*
G01*
X207150000Y-157400000D01*
G37*
G36*
X211950000Y-152600000D02*
G01*
X211950000Y-152600000D01*
G75*
G02*
X211950000Y-152600000I450000J0D01*
G01*
X211950000Y-152600000D01*
G37*
G36*
X211950000Y-157400000D02*
G01*
X211950000Y-157400000D01*
G75*
G02*
X211950000Y-157400000I450000J0D01*
G01*
X211950000Y-157400000D01*
G37*
%TO.C,SW42*%
G36*
X177150000Y-132600000D02*
G01*
X177150000Y-132600000D01*
G75*
G02*
X177150000Y-132600000I450000J0D01*
G01*
X177150000Y-132600000D01*
G37*
G36*
X177150000Y-137400000D02*
G01*
X177150000Y-137400000D01*
G75*
G02*
X177150000Y-137400000I450000J0D01*
G01*
X177150000Y-137400000D01*
G37*
G36*
X181950000Y-132600000D02*
G01*
X181950000Y-132600000D01*
G75*
G02*
X181950000Y-132600000I450000J0D01*
G01*
X181950000Y-132600000D01*
G37*
G36*
X181950000Y-137400000D02*
G01*
X181950000Y-137400000D01*
G75*
G02*
X181950000Y-137400000I450000J0D01*
G01*
X181950000Y-137400000D01*
G37*
%TO.C,SW56*%
G36*
X237150000Y-142600000D02*
G01*
X237150000Y-142600000D01*
G75*
G02*
X237150000Y-142600000I450000J0D01*
G01*
X237150000Y-142600000D01*
G37*
G36*
X237150000Y-147400000D02*
G01*
X237150000Y-147400000D01*
G75*
G02*
X237150000Y-147400000I450000J0D01*
G01*
X237150000Y-147400000D01*
G37*
G36*
X241950000Y-142600000D02*
G01*
X241950000Y-142600000D01*
G75*
G02*
X241950000Y-142600000I450000J0D01*
G01*
X241950000Y-142600000D01*
G37*
G36*
X241950000Y-147400000D02*
G01*
X241950000Y-147400000D01*
G75*
G02*
X241950000Y-147400000I450000J0D01*
G01*
X241950000Y-147400000D01*
G37*
%TO.C,SW28*%
G36*
X197150000Y-112600000D02*
G01*
X197150000Y-112600000D01*
G75*
G02*
X197150000Y-112600000I450000J0D01*
G01*
X197150000Y-112600000D01*
G37*
G36*
X197150000Y-117400000D02*
G01*
X197150000Y-117400000D01*
G75*
G02*
X197150000Y-117400000I450000J0D01*
G01*
X197150000Y-117400000D01*
G37*
G36*
X201950000Y-112600000D02*
G01*
X201950000Y-112600000D01*
G75*
G02*
X201950000Y-112600000I450000J0D01*
G01*
X201950000Y-112600000D01*
G37*
G36*
X201950000Y-117400000D02*
G01*
X201950000Y-117400000D01*
G75*
G02*
X201950000Y-117400000I450000J0D01*
G01*
X201950000Y-117400000D01*
G37*
%TO.C,SW20*%
G36*
X197150000Y-102600000D02*
G01*
X197150000Y-102600000D01*
G75*
G02*
X197150000Y-102600000I450000J0D01*
G01*
X197150000Y-102600000D01*
G37*
G36*
X197150000Y-107400000D02*
G01*
X197150000Y-107400000D01*
G75*
G02*
X197150000Y-107400000I450000J0D01*
G01*
X197150000Y-107400000D01*
G37*
G36*
X201950000Y-102600000D02*
G01*
X201950000Y-102600000D01*
G75*
G02*
X201950000Y-102600000I450000J0D01*
G01*
X201950000Y-102600000D01*
G37*
G36*
X201950000Y-107400000D02*
G01*
X201950000Y-107400000D01*
G75*
G02*
X201950000Y-107400000I450000J0D01*
G01*
X201950000Y-107400000D01*
G37*
%TO.C,SW21*%
G36*
X207150000Y-102600000D02*
G01*
X207150000Y-102600000D01*
G75*
G02*
X207150000Y-102600000I450000J0D01*
G01*
X207150000Y-102600000D01*
G37*
G36*
X207150000Y-107400000D02*
G01*
X207150000Y-107400000D01*
G75*
G02*
X207150000Y-107400000I450000J0D01*
G01*
X207150000Y-107400000D01*
G37*
G36*
X211950000Y-102600000D02*
G01*
X211950000Y-102600000D01*
G75*
G02*
X211950000Y-102600000I450000J0D01*
G01*
X211950000Y-102600000D01*
G37*
G36*
X211950000Y-107400000D02*
G01*
X211950000Y-107400000D01*
G75*
G02*
X211950000Y-107400000I450000J0D01*
G01*
X211950000Y-107400000D01*
G37*
%TO.C,SW59*%
G36*
X187150000Y-152600000D02*
G01*
X187150000Y-152600000D01*
G75*
G02*
X187150000Y-152600000I450000J0D01*
G01*
X187150000Y-152600000D01*
G37*
G36*
X187150000Y-157400000D02*
G01*
X187150000Y-157400000D01*
G75*
G02*
X187150000Y-157400000I450000J0D01*
G01*
X187150000Y-157400000D01*
G37*
G36*
X191950000Y-152600000D02*
G01*
X191950000Y-152600000D01*
G75*
G02*
X191950000Y-152600000I450000J0D01*
G01*
X191950000Y-152600000D01*
G37*
G36*
X191950000Y-157400000D02*
G01*
X191950000Y-157400000D01*
G75*
G02*
X191950000Y-157400000I450000J0D01*
G01*
X191950000Y-157400000D01*
G37*
%TO.C,SW44*%
G36*
X197150000Y-132600000D02*
G01*
X197150000Y-132600000D01*
G75*
G02*
X197150000Y-132600000I450000J0D01*
G01*
X197150000Y-132600000D01*
G37*
G36*
X197150000Y-137400000D02*
G01*
X197150000Y-137400000D01*
G75*
G02*
X197150000Y-137400000I450000J0D01*
G01*
X197150000Y-137400000D01*
G37*
G36*
X201950000Y-132600000D02*
G01*
X201950000Y-132600000D01*
G75*
G02*
X201950000Y-132600000I450000J0D01*
G01*
X201950000Y-132600000D01*
G37*
G36*
X201950000Y-137400000D02*
G01*
X201950000Y-137400000D01*
G75*
G02*
X201950000Y-137400000I450000J0D01*
G01*
X201950000Y-137400000D01*
G37*
%TO.C,SW35*%
G36*
X187150000Y-122600000D02*
G01*
X187150000Y-122600000D01*
G75*
G02*
X187150000Y-122600000I450000J0D01*
G01*
X187150000Y-122600000D01*
G37*
G36*
X187150000Y-127400000D02*
G01*
X187150000Y-127400000D01*
G75*
G02*
X187150000Y-127400000I450000J0D01*
G01*
X187150000Y-127400000D01*
G37*
G36*
X191950000Y-122600000D02*
G01*
X191950000Y-122600000D01*
G75*
G02*
X191950000Y-122600000I450000J0D01*
G01*
X191950000Y-122600000D01*
G37*
G36*
X191950000Y-127400000D02*
G01*
X191950000Y-127400000D01*
G75*
G02*
X191950000Y-127400000I450000J0D01*
G01*
X191950000Y-127400000D01*
G37*
%TO.C,SW4*%
G36*
X197150000Y-82600000D02*
G01*
X197150000Y-82600000D01*
G75*
G02*
X197150000Y-82600000I450000J0D01*
G01*
X197150000Y-82600000D01*
G37*
G36*
X197150000Y-87400000D02*
G01*
X197150000Y-87400000D01*
G75*
G02*
X197150000Y-87400000I450000J0D01*
G01*
X197150000Y-87400000D01*
G37*
G36*
X201950000Y-82600000D02*
G01*
X201950000Y-82600000D01*
G75*
G02*
X201950000Y-82600000I450000J0D01*
G01*
X201950000Y-82600000D01*
G37*
G36*
X201950000Y-87400000D02*
G01*
X201950000Y-87400000D01*
G75*
G02*
X201950000Y-87400000I450000J0D01*
G01*
X201950000Y-87400000D01*
G37*
%TO.C,SW2*%
G36*
X177150000Y-82600000D02*
G01*
X177150000Y-82600000D01*
G75*
G02*
X177150000Y-82600000I450000J0D01*
G01*
X177150000Y-82600000D01*
G37*
G36*
X177150000Y-87400000D02*
G01*
X177150000Y-87400000D01*
G75*
G02*
X177150000Y-87400000I450000J0D01*
G01*
X177150000Y-87400000D01*
G37*
G36*
X181950000Y-82600000D02*
G01*
X181950000Y-82600000D01*
G75*
G02*
X181950000Y-82600000I450000J0D01*
G01*
X181950000Y-82600000D01*
G37*
G36*
X181950000Y-87400000D02*
G01*
X181950000Y-87400000D01*
G75*
G02*
X181950000Y-87400000I450000J0D01*
G01*
X181950000Y-87400000D01*
G37*
%TO.C,SW40*%
G36*
X237150000Y-122600000D02*
G01*
X237150000Y-122600000D01*
G75*
G02*
X237150000Y-122600000I450000J0D01*
G01*
X237150000Y-122600000D01*
G37*
G36*
X237150000Y-127400000D02*
G01*
X237150000Y-127400000D01*
G75*
G02*
X237150000Y-127400000I450000J0D01*
G01*
X237150000Y-127400000D01*
G37*
G36*
X241950000Y-122600000D02*
G01*
X241950000Y-122600000D01*
G75*
G02*
X241950000Y-122600000I450000J0D01*
G01*
X241950000Y-122600000D01*
G37*
G36*
X241950000Y-127400000D02*
G01*
X241950000Y-127400000D01*
G75*
G02*
X241950000Y-127400000I450000J0D01*
G01*
X241950000Y-127400000D01*
G37*
%TO.C,SW64*%
G36*
X237150000Y-152600000D02*
G01*
X237150000Y-152600000D01*
G75*
G02*
X237150000Y-152600000I450000J0D01*
G01*
X237150000Y-152600000D01*
G37*
G36*
X237150000Y-157400000D02*
G01*
X237150000Y-157400000D01*
G75*
G02*
X237150000Y-157400000I450000J0D01*
G01*
X237150000Y-157400000D01*
G37*
G36*
X241950000Y-152600000D02*
G01*
X241950000Y-152600000D01*
G75*
G02*
X241950000Y-152600000I450000J0D01*
G01*
X241950000Y-152600000D01*
G37*
G36*
X241950000Y-157400000D02*
G01*
X241950000Y-157400000D01*
G75*
G02*
X241950000Y-157400000I450000J0D01*
G01*
X241950000Y-157400000D01*
G37*
%TO.C,SW36*%
G36*
X197150000Y-122600000D02*
G01*
X197150000Y-122600000D01*
G75*
G02*
X197150000Y-122600000I450000J0D01*
G01*
X197150000Y-122600000D01*
G37*
G36*
X197150000Y-127400000D02*
G01*
X197150000Y-127400000D01*
G75*
G02*
X197150000Y-127400000I450000J0D01*
G01*
X197150000Y-127400000D01*
G37*
G36*
X201950000Y-122600000D02*
G01*
X201950000Y-122600000D01*
G75*
G02*
X201950000Y-122600000I450000J0D01*
G01*
X201950000Y-122600000D01*
G37*
G36*
X201950000Y-127400000D02*
G01*
X201950000Y-127400000D01*
G75*
G02*
X201950000Y-127400000I450000J0D01*
G01*
X201950000Y-127400000D01*
G37*
%TO.C,SW58*%
G36*
X177150000Y-152600000D02*
G01*
X177150000Y-152600000D01*
G75*
G02*
X177150000Y-152600000I450000J0D01*
G01*
X177150000Y-152600000D01*
G37*
G36*
X177150000Y-157400000D02*
G01*
X177150000Y-157400000D01*
G75*
G02*
X177150000Y-157400000I450000J0D01*
G01*
X177150000Y-157400000D01*
G37*
G36*
X181950000Y-152600000D02*
G01*
X181950000Y-152600000D01*
G75*
G02*
X181950000Y-152600000I450000J0D01*
G01*
X181950000Y-152600000D01*
G37*
G36*
X181950000Y-157400000D02*
G01*
X181950000Y-157400000D01*
G75*
G02*
X181950000Y-157400000I450000J0D01*
G01*
X181950000Y-157400000D01*
G37*
%TO.C,SW6*%
G36*
X217150000Y-82600000D02*
G01*
X217150000Y-82600000D01*
G75*
G02*
X217150000Y-82600000I450000J0D01*
G01*
X217150000Y-82600000D01*
G37*
G36*
X217150000Y-87400000D02*
G01*
X217150000Y-87400000D01*
G75*
G02*
X217150000Y-87400000I450000J0D01*
G01*
X217150000Y-87400000D01*
G37*
G36*
X221950000Y-82600000D02*
G01*
X221950000Y-82600000D01*
G75*
G02*
X221950000Y-82600000I450000J0D01*
G01*
X221950000Y-82600000D01*
G37*
G36*
X221950000Y-87400000D02*
G01*
X221950000Y-87400000D01*
G75*
G02*
X221950000Y-87400000I450000J0D01*
G01*
X221950000Y-87400000D01*
G37*
%TO.C,SW60*%
G36*
X197150000Y-152600000D02*
G01*
X197150000Y-152600000D01*
G75*
G02*
X197150000Y-152600000I450000J0D01*
G01*
X197150000Y-152600000D01*
G37*
G36*
X197150000Y-157400000D02*
G01*
X197150000Y-157400000D01*
G75*
G02*
X197150000Y-157400000I450000J0D01*
G01*
X197150000Y-157400000D01*
G37*
G36*
X201950000Y-152600000D02*
G01*
X201950000Y-152600000D01*
G75*
G02*
X201950000Y-152600000I450000J0D01*
G01*
X201950000Y-152600000D01*
G37*
G36*
X201950000Y-157400000D02*
G01*
X201950000Y-157400000D01*
G75*
G02*
X201950000Y-157400000I450000J0D01*
G01*
X201950000Y-157400000D01*
G37*
%TO.C,SW29*%
G36*
X207150000Y-112600000D02*
G01*
X207150000Y-112600000D01*
G75*
G02*
X207150000Y-112600000I450000J0D01*
G01*
X207150000Y-112600000D01*
G37*
G36*
X207150000Y-117400000D02*
G01*
X207150000Y-117400000D01*
G75*
G02*
X207150000Y-117400000I450000J0D01*
G01*
X207150000Y-117400000D01*
G37*
G36*
X211950000Y-112600000D02*
G01*
X211950000Y-112600000D01*
G75*
G02*
X211950000Y-112600000I450000J0D01*
G01*
X211950000Y-112600000D01*
G37*
G36*
X211950000Y-117400000D02*
G01*
X211950000Y-117400000D01*
G75*
G02*
X211950000Y-117400000I450000J0D01*
G01*
X211950000Y-117400000D01*
G37*
%TO.C,SW49*%
G36*
X167150000Y-142600000D02*
G01*
X167150000Y-142600000D01*
G75*
G02*
X167150000Y-142600000I450000J0D01*
G01*
X167150000Y-142600000D01*
G37*
G36*
X167150000Y-147400000D02*
G01*
X167150000Y-147400000D01*
G75*
G02*
X167150000Y-147400000I450000J0D01*
G01*
X167150000Y-147400000D01*
G37*
G36*
X171950000Y-142600000D02*
G01*
X171950000Y-142600000D01*
G75*
G02*
X171950000Y-142600000I450000J0D01*
G01*
X171950000Y-142600000D01*
G37*
G36*
X171950000Y-147400000D02*
G01*
X171950000Y-147400000D01*
G75*
G02*
X171950000Y-147400000I450000J0D01*
G01*
X171950000Y-147400000D01*
G37*
%TO.C,SW22*%
G36*
X217150000Y-102600000D02*
G01*
X217150000Y-102600000D01*
G75*
G02*
X217150000Y-102600000I450000J0D01*
G01*
X217150000Y-102600000D01*
G37*
G36*
X217150000Y-107400000D02*
G01*
X217150000Y-107400000D01*
G75*
G02*
X217150000Y-107400000I450000J0D01*
G01*
X217150000Y-107400000D01*
G37*
G36*
X221950000Y-102600000D02*
G01*
X221950000Y-102600000D01*
G75*
G02*
X221950000Y-102600000I450000J0D01*
G01*
X221950000Y-102600000D01*
G37*
G36*
X221950000Y-107400000D02*
G01*
X221950000Y-107400000D01*
G75*
G02*
X221950000Y-107400000I450000J0D01*
G01*
X221950000Y-107400000D01*
G37*
%TO.C,SW50*%
G36*
X177150000Y-142600000D02*
G01*
X177150000Y-142600000D01*
G75*
G02*
X177150000Y-142600000I450000J0D01*
G01*
X177150000Y-142600000D01*
G37*
G36*
X177150000Y-147400000D02*
G01*
X177150000Y-147400000D01*
G75*
G02*
X177150000Y-147400000I450000J0D01*
G01*
X177150000Y-147400000D01*
G37*
G36*
X181950000Y-142600000D02*
G01*
X181950000Y-142600000D01*
G75*
G02*
X181950000Y-142600000I450000J0D01*
G01*
X181950000Y-142600000D01*
G37*
G36*
X181950000Y-147400000D02*
G01*
X181950000Y-147400000D01*
G75*
G02*
X181950000Y-147400000I450000J0D01*
G01*
X181950000Y-147400000D01*
G37*
%TO.C,SW23*%
G36*
X227150000Y-102600000D02*
G01*
X227150000Y-102600000D01*
G75*
G02*
X227150000Y-102600000I450000J0D01*
G01*
X227150000Y-102600000D01*
G37*
G36*
X227150000Y-107400000D02*
G01*
X227150000Y-107400000D01*
G75*
G02*
X227150000Y-107400000I450000J0D01*
G01*
X227150000Y-107400000D01*
G37*
G36*
X231950000Y-102600000D02*
G01*
X231950000Y-102600000D01*
G75*
G02*
X231950000Y-102600000I450000J0D01*
G01*
X231950000Y-102600000D01*
G37*
G36*
X231950000Y-107400000D02*
G01*
X231950000Y-107400000D01*
G75*
G02*
X231950000Y-107400000I450000J0D01*
G01*
X231950000Y-107400000D01*
G37*
%TO.C,SW38*%
G36*
X217150000Y-122600000D02*
G01*
X217150000Y-122600000D01*
G75*
G02*
X217150000Y-122600000I450000J0D01*
G01*
X217150000Y-122600000D01*
G37*
G36*
X217150000Y-127400000D02*
G01*
X217150000Y-127400000D01*
G75*
G02*
X217150000Y-127400000I450000J0D01*
G01*
X217150000Y-127400000D01*
G37*
G36*
X221950000Y-122600000D02*
G01*
X221950000Y-122600000D01*
G75*
G02*
X221950000Y-122600000I450000J0D01*
G01*
X221950000Y-122600000D01*
G37*
G36*
X221950000Y-127400000D02*
G01*
X221950000Y-127400000D01*
G75*
G02*
X221950000Y-127400000I450000J0D01*
G01*
X221950000Y-127400000D01*
G37*
%TO.C,SW14*%
G36*
X217150000Y-92600000D02*
G01*
X217150000Y-92600000D01*
G75*
G02*
X217150000Y-92600000I450000J0D01*
G01*
X217150000Y-92600000D01*
G37*
G36*
X217150000Y-97400000D02*
G01*
X217150000Y-97400000D01*
G75*
G02*
X217150000Y-97400000I450000J0D01*
G01*
X217150000Y-97400000D01*
G37*
G36*
X221950000Y-92600000D02*
G01*
X221950000Y-92600000D01*
G75*
G02*
X221950000Y-92600000I450000J0D01*
G01*
X221950000Y-92600000D01*
G37*
G36*
X221950000Y-97400000D02*
G01*
X221950000Y-97400000D01*
G75*
G02*
X221950000Y-97400000I450000J0D01*
G01*
X221950000Y-97400000D01*
G37*
%TO.C,SW45*%
G36*
X207150000Y-132600000D02*
G01*
X207150000Y-132600000D01*
G75*
G02*
X207150000Y-132600000I450000J0D01*
G01*
X207150000Y-132600000D01*
G37*
G36*
X207150000Y-137400000D02*
G01*
X207150000Y-137400000D01*
G75*
G02*
X207150000Y-137400000I450000J0D01*
G01*
X207150000Y-137400000D01*
G37*
G36*
X211950000Y-132600000D02*
G01*
X211950000Y-132600000D01*
G75*
G02*
X211950000Y-132600000I450000J0D01*
G01*
X211950000Y-132600000D01*
G37*
G36*
X211950000Y-137400000D02*
G01*
X211950000Y-137400000D01*
G75*
G02*
X211950000Y-137400000I450000J0D01*
G01*
X211950000Y-137400000D01*
G37*
%TO.C,SW8*%
G36*
X237150000Y-82600000D02*
G01*
X237150000Y-82600000D01*
G75*
G02*
X237150000Y-82600000I450000J0D01*
G01*
X237150000Y-82600000D01*
G37*
G36*
X237150000Y-87400000D02*
G01*
X237150000Y-87400000D01*
G75*
G02*
X237150000Y-87400000I450000J0D01*
G01*
X237150000Y-87400000D01*
G37*
G36*
X241950000Y-82600000D02*
G01*
X241950000Y-82600000D01*
G75*
G02*
X241950000Y-82600000I450000J0D01*
G01*
X241950000Y-82600000D01*
G37*
G36*
X241950000Y-87400000D02*
G01*
X241950000Y-87400000D01*
G75*
G02*
X241950000Y-87400000I450000J0D01*
G01*
X241950000Y-87400000D01*
G37*
%TO.C,SW63*%
G36*
X227150000Y-152600000D02*
G01*
X227150000Y-152600000D01*
G75*
G02*
X227150000Y-152600000I450000J0D01*
G01*
X227150000Y-152600000D01*
G37*
G36*
X227150000Y-157400000D02*
G01*
X227150000Y-157400000D01*
G75*
G02*
X227150000Y-157400000I450000J0D01*
G01*
X227150000Y-157400000D01*
G37*
G36*
X231950000Y-152600000D02*
G01*
X231950000Y-152600000D01*
G75*
G02*
X231950000Y-152600000I450000J0D01*
G01*
X231950000Y-152600000D01*
G37*
G36*
X231950000Y-157400000D02*
G01*
X231950000Y-157400000D01*
G75*
G02*
X231950000Y-157400000I450000J0D01*
G01*
X231950000Y-157400000D01*
G37*
%TO.C,SW27*%
G36*
X187150000Y-112600000D02*
G01*
X187150000Y-112600000D01*
G75*
G02*
X187150000Y-112600000I450000J0D01*
G01*
X187150000Y-112600000D01*
G37*
G36*
X187150000Y-117400000D02*
G01*
X187150000Y-117400000D01*
G75*
G02*
X187150000Y-117400000I450000J0D01*
G01*
X187150000Y-117400000D01*
G37*
G36*
X191950000Y-112600000D02*
G01*
X191950000Y-112600000D01*
G75*
G02*
X191950000Y-112600000I450000J0D01*
G01*
X191950000Y-112600000D01*
G37*
G36*
X191950000Y-117400000D02*
G01*
X191950000Y-117400000D01*
G75*
G02*
X191950000Y-117400000I450000J0D01*
G01*
X191950000Y-117400000D01*
G37*
%TO.C,SW52*%
G36*
X197150000Y-142600000D02*
G01*
X197150000Y-142600000D01*
G75*
G02*
X197150000Y-142600000I450000J0D01*
G01*
X197150000Y-142600000D01*
G37*
G36*
X197150000Y-147400000D02*
G01*
X197150000Y-147400000D01*
G75*
G02*
X197150000Y-147400000I450000J0D01*
G01*
X197150000Y-147400000D01*
G37*
G36*
X201950000Y-142600000D02*
G01*
X201950000Y-142600000D01*
G75*
G02*
X201950000Y-142600000I450000J0D01*
G01*
X201950000Y-142600000D01*
G37*
G36*
X201950000Y-147400000D02*
G01*
X201950000Y-147400000D01*
G75*
G02*
X201950000Y-147400000I450000J0D01*
G01*
X201950000Y-147400000D01*
G37*
%TO.C,SW31*%
G36*
X227150000Y-112600000D02*
G01*
X227150000Y-112600000D01*
G75*
G02*
X227150000Y-112600000I450000J0D01*
G01*
X227150000Y-112600000D01*
G37*
G36*
X227150000Y-117400000D02*
G01*
X227150000Y-117400000D01*
G75*
G02*
X227150000Y-117400000I450000J0D01*
G01*
X227150000Y-117400000D01*
G37*
G36*
X231950000Y-112600000D02*
G01*
X231950000Y-112600000D01*
G75*
G02*
X231950000Y-112600000I450000J0D01*
G01*
X231950000Y-112600000D01*
G37*
G36*
X231950000Y-117400000D02*
G01*
X231950000Y-117400000D01*
G75*
G02*
X231950000Y-117400000I450000J0D01*
G01*
X231950000Y-117400000D01*
G37*
%TO.C,SW12*%
G36*
X197150000Y-92600000D02*
G01*
X197150000Y-92600000D01*
G75*
G02*
X197150000Y-92600000I450000J0D01*
G01*
X197150000Y-92600000D01*
G37*
G36*
X197150000Y-97400000D02*
G01*
X197150000Y-97400000D01*
G75*
G02*
X197150000Y-97400000I450000J0D01*
G01*
X197150000Y-97400000D01*
G37*
G36*
X201950000Y-92600000D02*
G01*
X201950000Y-92600000D01*
G75*
G02*
X201950000Y-92600000I450000J0D01*
G01*
X201950000Y-92600000D01*
G37*
G36*
X201950000Y-97400000D02*
G01*
X201950000Y-97400000D01*
G75*
G02*
X201950000Y-97400000I450000J0D01*
G01*
X201950000Y-97400000D01*
G37*
%TO.C,SW17*%
G36*
X167150000Y-102600000D02*
G01*
X167150000Y-102600000D01*
G75*
G02*
X167150000Y-102600000I450000J0D01*
G01*
X167150000Y-102600000D01*
G37*
G36*
X167150000Y-107400000D02*
G01*
X167150000Y-107400000D01*
G75*
G02*
X167150000Y-107400000I450000J0D01*
G01*
X167150000Y-107400000D01*
G37*
G36*
X171950000Y-102600000D02*
G01*
X171950000Y-102600000D01*
G75*
G02*
X171950000Y-102600000I450000J0D01*
G01*
X171950000Y-102600000D01*
G37*
G36*
X171950000Y-107400000D02*
G01*
X171950000Y-107400000D01*
G75*
G02*
X171950000Y-107400000I450000J0D01*
G01*
X171950000Y-107400000D01*
G37*
%TO.C,SW62*%
G36*
X217150000Y-152600000D02*
G01*
X217150000Y-152600000D01*
G75*
G02*
X217150000Y-152600000I450000J0D01*
G01*
X217150000Y-152600000D01*
G37*
G36*
X217150000Y-157400000D02*
G01*
X217150000Y-157400000D01*
G75*
G02*
X217150000Y-157400000I450000J0D01*
G01*
X217150000Y-157400000D01*
G37*
G36*
X221950000Y-152600000D02*
G01*
X221950000Y-152600000D01*
G75*
G02*
X221950000Y-152600000I450000J0D01*
G01*
X221950000Y-152600000D01*
G37*
G36*
X221950000Y-157400000D02*
G01*
X221950000Y-157400000D01*
G75*
G02*
X221950000Y-157400000I450000J0D01*
G01*
X221950000Y-157400000D01*
G37*
%TO.C,SW54*%
G36*
X217150000Y-142600000D02*
G01*
X217150000Y-142600000D01*
G75*
G02*
X217150000Y-142600000I450000J0D01*
G01*
X217150000Y-142600000D01*
G37*
G36*
X217150000Y-147400000D02*
G01*
X217150000Y-147400000D01*
G75*
G02*
X217150000Y-147400000I450000J0D01*
G01*
X217150000Y-147400000D01*
G37*
G36*
X221950000Y-142600000D02*
G01*
X221950000Y-142600000D01*
G75*
G02*
X221950000Y-142600000I450000J0D01*
G01*
X221950000Y-142600000D01*
G37*
G36*
X221950000Y-147400000D02*
G01*
X221950000Y-147400000D01*
G75*
G02*
X221950000Y-147400000I450000J0D01*
G01*
X221950000Y-147400000D01*
G37*
%TO.C,SW10*%
G36*
X177150000Y-92600000D02*
G01*
X177150000Y-92600000D01*
G75*
G02*
X177150000Y-92600000I450000J0D01*
G01*
X177150000Y-92600000D01*
G37*
G36*
X177150000Y-97400000D02*
G01*
X177150000Y-97400000D01*
G75*
G02*
X177150000Y-97400000I450000J0D01*
G01*
X177150000Y-97400000D01*
G37*
G36*
X181950000Y-92600000D02*
G01*
X181950000Y-92600000D01*
G75*
G02*
X181950000Y-92600000I450000J0D01*
G01*
X181950000Y-92600000D01*
G37*
G36*
X181950000Y-97400000D02*
G01*
X181950000Y-97400000D01*
G75*
G02*
X181950000Y-97400000I450000J0D01*
G01*
X181950000Y-97400000D01*
G37*
%TO.C,SW25*%
G36*
X167150000Y-112600000D02*
G01*
X167150000Y-112600000D01*
G75*
G02*
X167150000Y-112600000I450000J0D01*
G01*
X167150000Y-112600000D01*
G37*
G36*
X167150000Y-117400000D02*
G01*
X167150000Y-117400000D01*
G75*
G02*
X167150000Y-117400000I450000J0D01*
G01*
X167150000Y-117400000D01*
G37*
G36*
X171950000Y-112600000D02*
G01*
X171950000Y-112600000D01*
G75*
G02*
X171950000Y-112600000I450000J0D01*
G01*
X171950000Y-112600000D01*
G37*
G36*
X171950000Y-117400000D02*
G01*
X171950000Y-117400000D01*
G75*
G02*
X171950000Y-117400000I450000J0D01*
G01*
X171950000Y-117400000D01*
G37*
%TO.C,SW11*%
G36*
X187150000Y-92600000D02*
G01*
X187150000Y-92600000D01*
G75*
G02*
X187150000Y-92600000I450000J0D01*
G01*
X187150000Y-92600000D01*
G37*
G36*
X187150000Y-97400000D02*
G01*
X187150000Y-97400000D01*
G75*
G02*
X187150000Y-97400000I450000J0D01*
G01*
X187150000Y-97400000D01*
G37*
G36*
X191950000Y-92600000D02*
G01*
X191950000Y-92600000D01*
G75*
G02*
X191950000Y-92600000I450000J0D01*
G01*
X191950000Y-92600000D01*
G37*
G36*
X191950000Y-97400000D02*
G01*
X191950000Y-97400000D01*
G75*
G02*
X191950000Y-97400000I450000J0D01*
G01*
X191950000Y-97400000D01*
G37*
%TO.C,SW15*%
G36*
X227150000Y-92600000D02*
G01*
X227150000Y-92600000D01*
G75*
G02*
X227150000Y-92600000I450000J0D01*
G01*
X227150000Y-92600000D01*
G37*
G36*
X227150000Y-97400000D02*
G01*
X227150000Y-97400000D01*
G75*
G02*
X227150000Y-97400000I450000J0D01*
G01*
X227150000Y-97400000D01*
G37*
G36*
X231950000Y-92600000D02*
G01*
X231950000Y-92600000D01*
G75*
G02*
X231950000Y-92600000I450000J0D01*
G01*
X231950000Y-92600000D01*
G37*
G36*
X231950000Y-97400000D02*
G01*
X231950000Y-97400000D01*
G75*
G02*
X231950000Y-97400000I450000J0D01*
G01*
X231950000Y-97400000D01*
G37*
%TO.C,SW48*%
G36*
X237150000Y-132600000D02*
G01*
X237150000Y-132600000D01*
G75*
G02*
X237150000Y-132600000I450000J0D01*
G01*
X237150000Y-132600000D01*
G37*
G36*
X237150000Y-137400000D02*
G01*
X237150000Y-137400000D01*
G75*
G02*
X237150000Y-137400000I450000J0D01*
G01*
X237150000Y-137400000D01*
G37*
G36*
X241950000Y-132600000D02*
G01*
X241950000Y-132600000D01*
G75*
G02*
X241950000Y-132600000I450000J0D01*
G01*
X241950000Y-132600000D01*
G37*
G36*
X241950000Y-137400000D02*
G01*
X241950000Y-137400000D01*
G75*
G02*
X241950000Y-137400000I450000J0D01*
G01*
X241950000Y-137400000D01*
G37*
%TO.C,SW33*%
G36*
X167150000Y-122600000D02*
G01*
X167150000Y-122600000D01*
G75*
G02*
X167150000Y-122600000I450000J0D01*
G01*
X167150000Y-122600000D01*
G37*
G36*
X167150000Y-127400000D02*
G01*
X167150000Y-127400000D01*
G75*
G02*
X167150000Y-127400000I450000J0D01*
G01*
X167150000Y-127400000D01*
G37*
G36*
X171950000Y-122600000D02*
G01*
X171950000Y-122600000D01*
G75*
G02*
X171950000Y-122600000I450000J0D01*
G01*
X171950000Y-122600000D01*
G37*
G36*
X171950000Y-127400000D02*
G01*
X171950000Y-127400000D01*
G75*
G02*
X171950000Y-127400000I450000J0D01*
G01*
X171950000Y-127400000D01*
G37*
%TO.C,SW32*%
G36*
X237150000Y-112600000D02*
G01*
X237150000Y-112600000D01*
G75*
G02*
X237150000Y-112600000I450000J0D01*
G01*
X237150000Y-112600000D01*
G37*
G36*
X237150000Y-117400000D02*
G01*
X237150000Y-117400000D01*
G75*
G02*
X237150000Y-117400000I450000J0D01*
G01*
X237150000Y-117400000D01*
G37*
G36*
X241950000Y-112600000D02*
G01*
X241950000Y-112600000D01*
G75*
G02*
X241950000Y-112600000I450000J0D01*
G01*
X241950000Y-112600000D01*
G37*
G36*
X241950000Y-117400000D02*
G01*
X241950000Y-117400000D01*
G75*
G02*
X241950000Y-117400000I450000J0D01*
G01*
X241950000Y-117400000D01*
G37*
%TO.C,SW39*%
G36*
X227150000Y-122600000D02*
G01*
X227150000Y-122600000D01*
G75*
G02*
X227150000Y-122600000I450000J0D01*
G01*
X227150000Y-122600000D01*
G37*
G36*
X227150000Y-127400000D02*
G01*
X227150000Y-127400000D01*
G75*
G02*
X227150000Y-127400000I450000J0D01*
G01*
X227150000Y-127400000D01*
G37*
G36*
X231950000Y-122600000D02*
G01*
X231950000Y-122600000D01*
G75*
G02*
X231950000Y-122600000I450000J0D01*
G01*
X231950000Y-122600000D01*
G37*
G36*
X231950000Y-127400000D02*
G01*
X231950000Y-127400000D01*
G75*
G02*
X231950000Y-127400000I450000J0D01*
G01*
X231950000Y-127400000D01*
G37*
%TO.C,SW57*%
G36*
X167150000Y-152600000D02*
G01*
X167150000Y-152600000D01*
G75*
G02*
X167150000Y-152600000I450000J0D01*
G01*
X167150000Y-152600000D01*
G37*
G36*
X167150000Y-157400000D02*
G01*
X167150000Y-157400000D01*
G75*
G02*
X167150000Y-157400000I450000J0D01*
G01*
X167150000Y-157400000D01*
G37*
G36*
X171950000Y-152600000D02*
G01*
X171950000Y-152600000D01*
G75*
G02*
X171950000Y-152600000I450000J0D01*
G01*
X171950000Y-152600000D01*
G37*
G36*
X171950000Y-157400000D02*
G01*
X171950000Y-157400000D01*
G75*
G02*
X171950000Y-157400000I450000J0D01*
G01*
X171950000Y-157400000D01*
G37*
%TO.C,SW30*%
G36*
X217150000Y-112600000D02*
G01*
X217150000Y-112600000D01*
G75*
G02*
X217150000Y-112600000I450000J0D01*
G01*
X217150000Y-112600000D01*
G37*
G36*
X217150000Y-117400000D02*
G01*
X217150000Y-117400000D01*
G75*
G02*
X217150000Y-117400000I450000J0D01*
G01*
X217150000Y-117400000D01*
G37*
G36*
X221950000Y-112600000D02*
G01*
X221950000Y-112600000D01*
G75*
G02*
X221950000Y-112600000I450000J0D01*
G01*
X221950000Y-112600000D01*
G37*
G36*
X221950000Y-117400000D02*
G01*
X221950000Y-117400000D01*
G75*
G02*
X221950000Y-117400000I450000J0D01*
G01*
X221950000Y-117400000D01*
G37*
%TO.C,SW9*%
G36*
X167150000Y-92600000D02*
G01*
X167150000Y-92600000D01*
G75*
G02*
X167150000Y-92600000I450000J0D01*
G01*
X167150000Y-92600000D01*
G37*
G36*
X167150000Y-97400000D02*
G01*
X167150000Y-97400000D01*
G75*
G02*
X167150000Y-97400000I450000J0D01*
G01*
X167150000Y-97400000D01*
G37*
G36*
X171950000Y-92600000D02*
G01*
X171950000Y-92600000D01*
G75*
G02*
X171950000Y-92600000I450000J0D01*
G01*
X171950000Y-92600000D01*
G37*
G36*
X171950000Y-97400000D02*
G01*
X171950000Y-97400000D01*
G75*
G02*
X171950000Y-97400000I450000J0D01*
G01*
X171950000Y-97400000D01*
G37*
%TO.C,SW41*%
G36*
X167150000Y-132600000D02*
G01*
X167150000Y-132600000D01*
G75*
G02*
X167150000Y-132600000I450000J0D01*
G01*
X167150000Y-132600000D01*
G37*
G36*
X167150000Y-137400000D02*
G01*
X167150000Y-137400000D01*
G75*
G02*
X167150000Y-137400000I450000J0D01*
G01*
X167150000Y-137400000D01*
G37*
G36*
X171950000Y-132600000D02*
G01*
X171950000Y-132600000D01*
G75*
G02*
X171950000Y-132600000I450000J0D01*
G01*
X171950000Y-132600000D01*
G37*
G36*
X171950000Y-137400000D02*
G01*
X171950000Y-137400000D01*
G75*
G02*
X171950000Y-137400000I450000J0D01*
G01*
X171950000Y-137400000D01*
G37*
%TO.C,SW47*%
G36*
X227150000Y-132600000D02*
G01*
X227150000Y-132600000D01*
G75*
G02*
X227150000Y-132600000I450000J0D01*
G01*
X227150000Y-132600000D01*
G37*
G36*
X227150000Y-137400000D02*
G01*
X227150000Y-137400000D01*
G75*
G02*
X227150000Y-137400000I450000J0D01*
G01*
X227150000Y-137400000D01*
G37*
G36*
X231950000Y-132600000D02*
G01*
X231950000Y-132600000D01*
G75*
G02*
X231950000Y-132600000I450000J0D01*
G01*
X231950000Y-132600000D01*
G37*
G36*
X231950000Y-137400000D02*
G01*
X231950000Y-137400000D01*
G75*
G02*
X231950000Y-137400000I450000J0D01*
G01*
X231950000Y-137400000D01*
G37*
%TO.C,SW46*%
G36*
X217150000Y-132600000D02*
G01*
X217150000Y-132600000D01*
G75*
G02*
X217150000Y-132600000I450000J0D01*
G01*
X217150000Y-132600000D01*
G37*
G36*
X217150000Y-137400000D02*
G01*
X217150000Y-137400000D01*
G75*
G02*
X217150000Y-137400000I450000J0D01*
G01*
X217150000Y-137400000D01*
G37*
G36*
X221950000Y-132600000D02*
G01*
X221950000Y-132600000D01*
G75*
G02*
X221950000Y-132600000I450000J0D01*
G01*
X221950000Y-132600000D01*
G37*
G36*
X221950000Y-137400000D02*
G01*
X221950000Y-137400000D01*
G75*
G02*
X221950000Y-137400000I450000J0D01*
G01*
X221950000Y-137400000D01*
G37*
%TO.C,SW26*%
G36*
X177150000Y-112600000D02*
G01*
X177150000Y-112600000D01*
G75*
G02*
X177150000Y-112600000I450000J0D01*
G01*
X177150000Y-112600000D01*
G37*
G36*
X177150000Y-117400000D02*
G01*
X177150000Y-117400000D01*
G75*
G02*
X177150000Y-117400000I450000J0D01*
G01*
X177150000Y-117400000D01*
G37*
G36*
X181950000Y-112600000D02*
G01*
X181950000Y-112600000D01*
G75*
G02*
X181950000Y-112600000I450000J0D01*
G01*
X181950000Y-112600000D01*
G37*
G36*
X181950000Y-117400000D02*
G01*
X181950000Y-117400000D01*
G75*
G02*
X181950000Y-117400000I450000J0D01*
G01*
X181950000Y-117400000D01*
G37*
%TD*%
D11*
%TO.C,R10*%
X247000000Y-100825000D03*
X247000000Y-99175000D03*
%TD*%
D12*
%TO.C,TP7*%
X247000000Y-172000000D03*
%TD*%
D11*
%TO.C,R21*%
X247000000Y-154175000D03*
X247000000Y-155825000D03*
%TD*%
%TO.C,R20*%
X247000000Y-149175000D03*
X247000000Y-150825000D03*
%TD*%
%TO.C,R19*%
X247000000Y-144175000D03*
X247000000Y-145825000D03*
%TD*%
%TO.C,R18*%
X247000000Y-139175000D03*
X247000000Y-140825000D03*
%TD*%
%TO.C,R17*%
X247000000Y-134175000D03*
X247000000Y-135825000D03*
%TD*%
%TO.C,R16*%
X247000000Y-129175000D03*
X247000000Y-130825000D03*
%TD*%
%TO.C,R15*%
X247000000Y-124175000D03*
X247000000Y-125825000D03*
%TD*%
%TO.C,R14*%
X247000000Y-119175000D03*
X247000000Y-120825000D03*
%TD*%
%TO.C,R13*%
X247000000Y-114175000D03*
X247000000Y-115825000D03*
%TD*%
%TO.C,R12*%
X247000000Y-109175000D03*
X247000000Y-110825000D03*
%TD*%
%TO.C,R11*%
X247000000Y-104175000D03*
X247000000Y-105825000D03*
%TD*%
%TO.C,R9*%
X247000000Y-94175000D03*
X247000000Y-95825000D03*
%TD*%
%TO.C,R8*%
X247000000Y-89175000D03*
X247000000Y-90825000D03*
%TD*%
%TO.C,R7*%
X247000000Y-84175000D03*
X247000000Y-85825000D03*
%TD*%
%TO.C,R22*%
X247000000Y-165905000D03*
X247000000Y-167555000D03*
%TD*%
%TO.C,R6*%
X247000000Y-79175000D03*
X247000000Y-80825000D03*
%TD*%
D13*
%TO.C,H6*%
X152375000Y-172000000D03*
X153143845Y-170143845D03*
X153143845Y-173856155D03*
X155000000Y-169375000D03*
D14*
X155000000Y-172000000D03*
D13*
X155000000Y-174625000D03*
X156856155Y-170143845D03*
X156856155Y-173856155D03*
X157625000Y-172000000D03*
%TD*%
%TO.C,H5*%
X152375000Y-75000000D03*
X153143845Y-73143845D03*
X153143845Y-76856155D03*
X155000000Y-72375000D03*
D14*
X155000000Y-75000000D03*
D13*
X155000000Y-77625000D03*
X156856155Y-73143845D03*
X156856155Y-76856155D03*
X157625000Y-75000000D03*
%TD*%
D12*
%TO.C,TP4*%
X109000000Y-148000000D03*
%TD*%
D15*
%TO.C,C47*%
X237600000Y-161975000D03*
X237600000Y-163525000D03*
%TD*%
%TO.C,C71*%
X236290000Y-165955000D03*
X236290000Y-167505000D03*
%TD*%
%TO.C,C48*%
X242400000Y-161975000D03*
X242400000Y-163525000D03*
%TD*%
D11*
%TO.C,R42*%
X180900000Y-161925000D03*
X180900000Y-163575000D03*
%TD*%
D16*
%TO.C,MK16*%
X235700000Y-89550000D03*
X234300000Y-89550000D03*
%TD*%
%TO.C,MK5*%
X205700000Y-79550000D03*
X204300000Y-79550000D03*
%TD*%
D17*
%TO.C,C10*%
X224750000Y-182275000D03*
X224750000Y-180725000D03*
%TD*%
D16*
%TO.C,MK53*%
X205700000Y-139550000D03*
X204300000Y-139550000D03*
%TD*%
D18*
%TO.C,R5*%
X121175000Y-124125000D03*
X121175000Y-122475000D03*
%TD*%
D19*
%TO.C,R94*%
X172325000Y-166000000D03*
X170675000Y-166000000D03*
%TD*%
D16*
%TO.C,MK55*%
X225700000Y-139550000D03*
X224300000Y-139550000D03*
%TD*%
D15*
%TO.C,C46*%
X172400000Y-161975000D03*
X172400000Y-163525000D03*
%TD*%
D16*
%TO.C,MK14*%
X215700000Y-89550000D03*
X214300000Y-89550000D03*
%TD*%
%TO.C,MK9*%
X165700000Y-89550000D03*
X164300000Y-89550000D03*
%TD*%
%TO.C,MK57*%
X165700000Y-149550000D03*
X164300000Y-149550000D03*
%TD*%
%TO.C,MK20*%
X195700000Y-99550000D03*
X194300000Y-99550000D03*
%TD*%
%TO.C,MK45*%
X205700000Y-129550000D03*
X204300000Y-129550000D03*
%TD*%
D20*
%TO.C,R113*%
X237675000Y-167500000D03*
X239325000Y-167500000D03*
%TD*%
D12*
%TO.C,TP2*%
X167000000Y-189000000D03*
%TD*%
D18*
%TO.C,R73*%
X220900000Y-160575000D03*
X220900000Y-158925000D03*
%TD*%
D16*
%TO.C,MK4*%
X195700000Y-79550000D03*
X194300000Y-79550000D03*
%TD*%
D19*
%TO.C,R103*%
X212325000Y-176500000D03*
X210675000Y-176500000D03*
%TD*%
D21*
%TO.C,C13*%
X176000000Y-189475000D03*
X176000000Y-186525000D03*
%TD*%
D16*
%TO.C,MK64*%
X235700000Y-149550000D03*
X234300000Y-149550000D03*
%TD*%
D11*
%TO.C,R56*%
X236100000Y-161925000D03*
X236100000Y-163575000D03*
%TD*%
D16*
%TO.C,MK43*%
X185700000Y-129550000D03*
X184300000Y-129550000D03*
%TD*%
D20*
%TO.C,R96*%
X197675000Y-176500000D03*
X199325000Y-176500000D03*
%TD*%
D19*
%TO.C,R90*%
X172325000Y-167500000D03*
X170675000Y-167500000D03*
%TD*%
%TO.C,R98*%
X192325000Y-167500000D03*
X190675000Y-167500000D03*
%TD*%
D16*
%TO.C,MK11*%
X185700000Y-89550000D03*
X184300000Y-89550000D03*
%TD*%
%TO.C,MK13*%
X205700000Y-89550000D03*
X204300000Y-89550000D03*
%TD*%
D17*
%TO.C,C4*%
X122675000Y-127075000D03*
X122675000Y-125525000D03*
%TD*%
D11*
%TO.C,R85*%
X213900000Y-158925000D03*
X213900000Y-160575000D03*
%TD*%
D15*
%TO.C,C8*%
X119675000Y-122525000D03*
X119675000Y-124075000D03*
%TD*%
D11*
%TO.C,R67*%
X229100000Y-158925000D03*
X229100000Y-160575000D03*
%TD*%
D17*
%TO.C,C3*%
X123520000Y-119775000D03*
X123520000Y-118225000D03*
%TD*%
D15*
%TO.C,C43*%
X177600000Y-161975000D03*
X177600000Y-163525000D03*
%TD*%
%TO.C,C51*%
X217600000Y-161975000D03*
X217600000Y-163525000D03*
%TD*%
%TO.C,C50*%
X232400000Y-161975000D03*
X232400000Y-163525000D03*
%TD*%
D18*
%TO.C,R50*%
X183900000Y-163575000D03*
X183900000Y-161925000D03*
%TD*%
D22*
%TO.C,U6*%
X211190000Y-174712000D03*
X212460000Y-174712000D03*
X213730000Y-174712000D03*
X215000000Y-174712000D03*
X216270000Y-174712000D03*
X217540000Y-174712000D03*
X218810000Y-174712000D03*
X218810000Y-169288000D03*
X217540000Y-169288000D03*
X216270000Y-169288000D03*
X215000000Y-169288000D03*
X213730000Y-169288000D03*
X212460000Y-169288000D03*
X211190000Y-169288000D03*
%TD*%
D16*
%TO.C,MK54*%
X215700000Y-139550000D03*
X214300000Y-139550000D03*
%TD*%
D18*
%TO.C,R66*%
X243900000Y-163575000D03*
X243900000Y-161925000D03*
%TD*%
D11*
%TO.C,R76*%
X206100000Y-161925000D03*
X206100000Y-163575000D03*
%TD*%
D23*
%TO.C,F1*%
X240000000Y-207500000D03*
%TD*%
D18*
%TO.C,R77*%
X210900000Y-160575000D03*
X210900000Y-158925000D03*
%TD*%
D15*
%TO.C,C61*%
X196290000Y-165955000D03*
X196290000Y-167505000D03*
%TD*%
D11*
%TO.C,R78*%
X210900000Y-161925000D03*
X210900000Y-163575000D03*
%TD*%
%TO.C,R81*%
X223900000Y-158925000D03*
X223900000Y-160575000D03*
%TD*%
D17*
%TO.C,C55*%
X173710000Y-178045000D03*
X173710000Y-176495000D03*
%TD*%
D15*
%TO.C,C6*%
X151910000Y-209860000D03*
X151910000Y-211410000D03*
%TD*%
D20*
%TO.C,R116*%
X237675000Y-178000000D03*
X239325000Y-178000000D03*
%TD*%
D16*
%TO.C,MK17*%
X165700000Y-99550000D03*
X164300000Y-99550000D03*
%TD*%
D15*
%TO.C,C54*%
X212400000Y-161975000D03*
X212400000Y-163525000D03*
%TD*%
D16*
%TO.C,MK7*%
X225700000Y-79550000D03*
X224300000Y-79550000D03*
%TD*%
D19*
%TO.C,R91*%
X172325000Y-178000000D03*
X170675000Y-178000000D03*
%TD*%
D20*
%TO.C,R93*%
X177675000Y-166000000D03*
X179325000Y-166000000D03*
%TD*%
D22*
%TO.C,U5*%
X191190000Y-174712000D03*
X192460000Y-174712000D03*
X193730000Y-174712000D03*
X195000000Y-174712000D03*
X196270000Y-174712000D03*
X197540000Y-174712000D03*
X198810000Y-174712000D03*
X198810000Y-169288000D03*
X197540000Y-169288000D03*
X196270000Y-169288000D03*
X195000000Y-169288000D03*
X193730000Y-169288000D03*
X192460000Y-169288000D03*
X191190000Y-169288000D03*
%TD*%
D16*
%TO.C,MK27*%
X185700000Y-109550000D03*
X184300000Y-109550000D03*
%TD*%
D21*
%TO.C,C17*%
X234000000Y-189475000D03*
X234000000Y-186525000D03*
%TD*%
D24*
%TO.C,C22*%
X177275000Y-191750000D03*
X175725000Y-191750000D03*
%TD*%
D15*
%TO.C,C41*%
X187600000Y-161975000D03*
X187600000Y-163525000D03*
%TD*%
D23*
%TO.C,F2*%
X110000000Y-72500000D03*
%TD*%
D15*
%TO.C,C68*%
X213710000Y-165955000D03*
X213710000Y-167505000D03*
%TD*%
%TO.C,C42*%
X192400000Y-161975000D03*
X192400000Y-163525000D03*
%TD*%
D25*
%TO.C,U2*%
X185000000Y-190000000D03*
D26*
X181250000Y-195675000D03*
X181750000Y-195675000D03*
X182250000Y-195675000D03*
X182750000Y-195675000D03*
X183250000Y-195675000D03*
X183750000Y-195675000D03*
X184250000Y-195675000D03*
X184750000Y-195675000D03*
X185250000Y-195675000D03*
X185750000Y-195675000D03*
X186250000Y-195675000D03*
X186750000Y-195675000D03*
X187250000Y-195675000D03*
X187750000Y-195675000D03*
X188250000Y-195675000D03*
X188750000Y-195675000D03*
D27*
X190675000Y-193750000D03*
X190675000Y-193250000D03*
X190675000Y-192750000D03*
X190675000Y-192250000D03*
X190675000Y-191750000D03*
X190675000Y-191250000D03*
X190675000Y-190750000D03*
X190675000Y-190250000D03*
X190675000Y-189750000D03*
X190675000Y-189250000D03*
X190675000Y-188750000D03*
X190675000Y-188250000D03*
X190675000Y-187750000D03*
X190675000Y-187250000D03*
X190675000Y-186750000D03*
X190675000Y-186250000D03*
D26*
X188750000Y-184325000D03*
X188250000Y-184325000D03*
X187750000Y-184325000D03*
X187250000Y-184325000D03*
X186750000Y-184325000D03*
X186250000Y-184325000D03*
X185750000Y-184325000D03*
X185250000Y-184325000D03*
X184750000Y-184325000D03*
X184250000Y-184325000D03*
X183750000Y-184325000D03*
X183250000Y-184325000D03*
X182750000Y-184325000D03*
X182250000Y-184325000D03*
X181750000Y-184325000D03*
X181250000Y-184325000D03*
D27*
X179325000Y-186250000D03*
X179325000Y-186750000D03*
X179325000Y-187250000D03*
X179325000Y-187750000D03*
X179325000Y-188250000D03*
X179325000Y-188750000D03*
X179325000Y-189250000D03*
X179325000Y-189750000D03*
X179325000Y-190250000D03*
X179325000Y-190750000D03*
X179325000Y-191250000D03*
X179325000Y-191750000D03*
X179325000Y-192250000D03*
X179325000Y-192750000D03*
X179325000Y-193250000D03*
X179325000Y-193750000D03*
%TD*%
D18*
%TO.C,R82*%
X223900000Y-163575000D03*
X223900000Y-161925000D03*
%TD*%
%TO.C,R57*%
X240900000Y-160575000D03*
X240900000Y-158925000D03*
%TD*%
D15*
%TO.C,C67*%
X216290000Y-165955000D03*
X216290000Y-167505000D03*
%TD*%
D17*
%TO.C,C9*%
X184750000Y-182275000D03*
X184750000Y-180725000D03*
%TD*%
D16*
%TO.C,MK26*%
X175700000Y-109550000D03*
X174300000Y-109550000D03*
%TD*%
%TO.C,MK44*%
X195700000Y-129550000D03*
X194300000Y-129550000D03*
%TD*%
D20*
%TO.C,R104*%
X217675000Y-176500000D03*
X219325000Y-176500000D03*
%TD*%
D12*
%TO.C,TP6*%
X131000000Y-119000000D03*
%TD*%
D11*
%TO.C,R62*%
X230900000Y-161925000D03*
X230900000Y-163575000D03*
%TD*%
D16*
%TO.C,MK52*%
X195700000Y-139550000D03*
X194300000Y-139550000D03*
%TD*%
D11*
%TO.C,R72*%
X216100000Y-161925000D03*
X216100000Y-163575000D03*
%TD*%
D16*
%TO.C,MK34*%
X175700000Y-119550000D03*
X174300000Y-119550000D03*
%TD*%
%TO.C,MK1*%
X165700000Y-79550000D03*
X164300000Y-79550000D03*
%TD*%
D17*
%TO.C,C38*%
X222250000Y-182275000D03*
X222250000Y-180725000D03*
%TD*%
D18*
%TO.C,R4*%
X153410000Y-211460000D03*
X153410000Y-209810000D03*
%TD*%
D20*
%TO.C,R112*%
X237675000Y-176500000D03*
X239325000Y-176500000D03*
%TD*%
D17*
%TO.C,C28*%
X182250000Y-182275000D03*
X182250000Y-180725000D03*
%TD*%
D11*
%TO.C,R83*%
X209100000Y-158925000D03*
X209100000Y-160575000D03*
%TD*%
D19*
%TO.C,R95*%
X192325000Y-176500000D03*
X190675000Y-176500000D03*
%TD*%
D17*
%TO.C,C64*%
X189500000Y-172775000D03*
X189500000Y-171225000D03*
%TD*%
D20*
%TO.C,R92*%
X177675000Y-178000000D03*
X179325000Y-178000000D03*
%TD*%
D15*
%TO.C,C2*%
X125675000Y-125525000D03*
X125675000Y-127075000D03*
%TD*%
D17*
%TO.C,C73*%
X209500000Y-172775000D03*
X209500000Y-171225000D03*
%TD*%
D16*
%TO.C,MK63*%
X225700000Y-149550000D03*
X224300000Y-149550000D03*
%TD*%
D19*
%TO.C,R118*%
X232325000Y-166000000D03*
X230675000Y-166000000D03*
%TD*%
D18*
%TO.C,R86*%
X213900000Y-163575000D03*
X213900000Y-161925000D03*
%TD*%
D16*
%TO.C,MK40*%
X235700000Y-119550000D03*
X234300000Y-119550000D03*
%TD*%
D28*
%TO.C,C35*%
X236225000Y-187750000D03*
X237775000Y-187750000D03*
%TD*%
D29*
%TO.C,C16*%
X219542983Y-182457017D03*
X217457017Y-184542983D03*
%TD*%
D16*
%TO.C,MK35*%
X185700000Y-119550000D03*
X184300000Y-119550000D03*
%TD*%
D15*
%TO.C,C52*%
X222400000Y-161975000D03*
X222400000Y-163525000D03*
%TD*%
D18*
%TO.C,R55*%
X236100000Y-160575000D03*
X236100000Y-158925000D03*
%TD*%
D16*
%TO.C,MK31*%
X225700000Y-109550000D03*
X224300000Y-109550000D03*
%TD*%
D11*
%TO.C,R46*%
X170900000Y-161925000D03*
X170900000Y-163575000D03*
%TD*%
D19*
%TO.C,R110*%
X212325000Y-166000000D03*
X210675000Y-166000000D03*
%TD*%
D11*
%TO.C,R24*%
X196100000Y-161925000D03*
X196100000Y-163575000D03*
%TD*%
D28*
%TO.C,C31*%
X196225000Y-187750000D03*
X197775000Y-187750000D03*
%TD*%
D18*
%TO.C,R80*%
X219100000Y-163575000D03*
X219100000Y-161925000D03*
%TD*%
D16*
%TO.C,MK51*%
X185700000Y-139550000D03*
X184300000Y-139550000D03*
%TD*%
D20*
%TO.C,R97*%
X197675000Y-167500000D03*
X199325000Y-167500000D03*
%TD*%
D15*
%TO.C,C40*%
X202400000Y-161975000D03*
X202400000Y-163525000D03*
%TD*%
D16*
%TO.C,MK33*%
X165700000Y-119550000D03*
X164300000Y-119550000D03*
%TD*%
D19*
%TO.C,R115*%
X232325000Y-178000000D03*
X230675000Y-178000000D03*
%TD*%
D20*
%TO.C,R117*%
X237675000Y-166000000D03*
X239325000Y-166000000D03*
%TD*%
D15*
%TO.C,C72*%
X233710000Y-165955000D03*
X233710000Y-167505000D03*
%TD*%
D17*
%TO.C,C63*%
X169500000Y-172775000D03*
X169500000Y-171225000D03*
%TD*%
%TO.C,C65*%
X213710000Y-178045000D03*
X213710000Y-176495000D03*
%TD*%
D13*
%TO.C,H4*%
X102375000Y-75000000D03*
X103143845Y-73143845D03*
X103143845Y-76856155D03*
X105000000Y-72375000D03*
D14*
X105000000Y-75000000D03*
D13*
X105000000Y-77625000D03*
X106856155Y-73143845D03*
X106856155Y-76856155D03*
X107625000Y-75000000D03*
%TD*%
D16*
%TO.C,MK58*%
X175700000Y-149550000D03*
X174300000Y-149550000D03*
%TD*%
D19*
%TO.C,R106*%
X212325000Y-167500000D03*
X210675000Y-167500000D03*
%TD*%
D16*
%TO.C,MK41*%
X165700000Y-129550000D03*
X164300000Y-129550000D03*
%TD*%
D17*
%TO.C,C5*%
X121175000Y-127075000D03*
X121175000Y-125525000D03*
%TD*%
D11*
%TO.C,R79*%
X219100000Y-158925000D03*
X219100000Y-160575000D03*
%TD*%
D16*
%TO.C,MK24*%
X235700000Y-99550000D03*
X234300000Y-99550000D03*
%TD*%
D12*
%TO.C,TP11*%
X241000000Y-181500000D03*
%TD*%
D13*
%TO.C,H1*%
X242375000Y-205000000D03*
X243143845Y-203143845D03*
X243143845Y-206856155D03*
X245000000Y-202375000D03*
D14*
X245000000Y-205000000D03*
D13*
X245000000Y-207625000D03*
X246856155Y-203143845D03*
X246856155Y-206856155D03*
X247625000Y-205000000D03*
%TD*%
D24*
%TO.C,C25*%
X217275000Y-191750000D03*
X215725000Y-191750000D03*
%TD*%
D30*
%TO.C,U1*%
X119025000Y-120400000D03*
X119675000Y-120400000D03*
X120325000Y-120400000D03*
X120975000Y-120400000D03*
X120975000Y-117600000D03*
X120325000Y-117600000D03*
X119675000Y-117600000D03*
X119025000Y-117600000D03*
D31*
X120000000Y-119000000D03*
D32*
X121278000Y-119325000D03*
X121278000Y-118675000D03*
X118722000Y-118675000D03*
X118722000Y-119325000D03*
%TD*%
D22*
%TO.C,U7*%
X231190000Y-174712000D03*
X232460000Y-174712000D03*
X233730000Y-174712000D03*
X235000000Y-174712000D03*
X236270000Y-174712000D03*
X237540000Y-174712000D03*
X238810000Y-174712000D03*
X238810000Y-169288000D03*
X237540000Y-169288000D03*
X236270000Y-169288000D03*
X235000000Y-169288000D03*
X233730000Y-169288000D03*
X232460000Y-169288000D03*
X231190000Y-169288000D03*
%TD*%
D16*
%TO.C,MK38*%
X215700000Y-119550000D03*
X214300000Y-119550000D03*
%TD*%
D19*
%TO.C,R114*%
X232325000Y-167500000D03*
X230675000Y-167500000D03*
%TD*%
D16*
%TO.C,MK18*%
X175700000Y-99550000D03*
X174300000Y-99550000D03*
%TD*%
D18*
%TO.C,R48*%
X179100000Y-163575000D03*
X179100000Y-161925000D03*
%TD*%
D17*
%TO.C,C60*%
X196290000Y-178045000D03*
X196290000Y-176495000D03*
%TD*%
D21*
%TO.C,C26*%
X163000000Y-211475000D03*
X163000000Y-208525000D03*
%TD*%
D16*
%TO.C,MK50*%
X175700000Y-139550000D03*
X174300000Y-139550000D03*
%TD*%
D20*
%TO.C,R100*%
X197675000Y-178000000D03*
X199325000Y-178000000D03*
%TD*%
D18*
%TO.C,R61*%
X230900000Y-160575000D03*
X230900000Y-158925000D03*
%TD*%
%TO.C,R23*%
X196100000Y-160575000D03*
X196100000Y-158925000D03*
%TD*%
D20*
%TO.C,R105*%
X217675000Y-167500000D03*
X219325000Y-167500000D03*
%TD*%
D16*
%TO.C,MK28*%
X195700000Y-109550000D03*
X194300000Y-109550000D03*
%TD*%
%TO.C,MK42*%
X175700000Y-129550000D03*
X174300000Y-129550000D03*
%TD*%
D11*
%TO.C,R26*%
X200900000Y-161925000D03*
X200900000Y-163575000D03*
%TD*%
D18*
%TO.C,R32*%
X199100000Y-163575000D03*
X199100000Y-161925000D03*
%TD*%
%TO.C,R38*%
X193900000Y-163575000D03*
X193900000Y-161925000D03*
%TD*%
D15*
%TO.C,C58*%
X173710000Y-165955000D03*
X173710000Y-167505000D03*
%TD*%
D18*
%TO.C,R45*%
X170900000Y-160575000D03*
X170900000Y-158925000D03*
%TD*%
D17*
%TO.C,C70*%
X236290000Y-178045000D03*
X236290000Y-176495000D03*
%TD*%
D16*
%TO.C,MK48*%
X235700000Y-129550000D03*
X234300000Y-129550000D03*
%TD*%
%TO.C,MK36*%
X195700000Y-119550000D03*
X194300000Y-119550000D03*
%TD*%
D18*
%TO.C,R25*%
X200900000Y-160575000D03*
X200900000Y-158925000D03*
%TD*%
%TO.C,R59*%
X226100000Y-160575000D03*
X226100000Y-158925000D03*
%TD*%
D19*
%TO.C,R107*%
X212325000Y-178000000D03*
X210675000Y-178000000D03*
%TD*%
D16*
%TO.C,MK25*%
X165700000Y-109550000D03*
X164300000Y-109550000D03*
%TD*%
%TO.C,MK49*%
X165700000Y-139550000D03*
X164300000Y-139550000D03*
%TD*%
D11*
%TO.C,R30*%
X190900000Y-161925000D03*
X190900000Y-163575000D03*
%TD*%
D12*
%TO.C,TP3*%
X109000000Y-133500000D03*
%TD*%
D21*
%TO.C,C18*%
X216000000Y-189475000D03*
X216000000Y-186525000D03*
%TD*%
D17*
%TO.C,C1*%
X116500000Y-119775000D03*
X116500000Y-118225000D03*
%TD*%
D11*
%TO.C,R44*%
X166100000Y-161925000D03*
X166100000Y-163575000D03*
%TD*%
D17*
%TO.C,C33*%
X227750000Y-182275000D03*
X227750000Y-180725000D03*
%TD*%
D18*
%TO.C,R52*%
X169100000Y-163575000D03*
X169100000Y-161925000D03*
%TD*%
%TO.C,R84*%
X209100000Y-163575000D03*
X209100000Y-161925000D03*
%TD*%
D16*
%TO.C,MK61*%
X205700000Y-149550000D03*
X204300000Y-149550000D03*
%TD*%
%TO.C,MK47*%
X225700000Y-129550000D03*
X224300000Y-129550000D03*
%TD*%
D22*
%TO.C,U4*%
X171190000Y-174712000D03*
X172460000Y-174712000D03*
X173730000Y-174712000D03*
X175000000Y-174712000D03*
X176270000Y-174712000D03*
X177540000Y-174712000D03*
X178810000Y-174712000D03*
X178810000Y-169288000D03*
X177540000Y-169288000D03*
X176270000Y-169288000D03*
X175000000Y-169288000D03*
X173730000Y-169288000D03*
X172460000Y-169288000D03*
X171190000Y-169288000D03*
%TD*%
D11*
%TO.C,R33*%
X203900000Y-158925000D03*
X203900000Y-160575000D03*
%TD*%
D18*
%TO.C,R3*%
X122675000Y-124125000D03*
X122675000Y-122475000D03*
%TD*%
D16*
%TO.C,MK37*%
X205700000Y-119550000D03*
X204300000Y-119550000D03*
%TD*%
D28*
%TO.C,C24*%
X232725000Y-191750000D03*
X234275000Y-191750000D03*
%TD*%
D16*
%TO.C,MK22*%
X215700000Y-99550000D03*
X214300000Y-99550000D03*
%TD*%
D21*
%TO.C,C11*%
X194000000Y-189475000D03*
X194000000Y-186525000D03*
%TD*%
D28*
%TO.C,C29*%
X196225000Y-190250000D03*
X197775000Y-190250000D03*
%TD*%
D11*
%TO.C,R51*%
X169100000Y-158925000D03*
X169100000Y-160575000D03*
%TD*%
D18*
%TO.C,R43*%
X166100000Y-160575000D03*
X166100000Y-158925000D03*
%TD*%
%TO.C,R36*%
X189100000Y-163575000D03*
X189100000Y-161925000D03*
%TD*%
D16*
%TO.C,MK21*%
X205700000Y-99550000D03*
X204300000Y-99550000D03*
%TD*%
D21*
%TO.C,C19*%
X185750000Y-211475000D03*
X185750000Y-208525000D03*
%TD*%
D12*
%TO.C,TP5*%
X109000000Y-119000000D03*
%TD*%
D16*
%TO.C,MK15*%
X225700000Y-89550000D03*
X224300000Y-89550000D03*
%TD*%
D12*
%TO.C,TP10*%
X209000000Y-181500000D03*
%TD*%
D11*
%TO.C,R65*%
X243900000Y-158925000D03*
X243900000Y-160575000D03*
%TD*%
D25*
%TO.C,U3*%
X225000000Y-190000000D03*
D26*
X221250000Y-195675000D03*
X221750000Y-195675000D03*
X222250000Y-195675000D03*
X222750000Y-195675000D03*
X223250000Y-195675000D03*
X223750000Y-195675000D03*
X224250000Y-195675000D03*
X224750000Y-195675000D03*
X225250000Y-195675000D03*
X225750000Y-195675000D03*
X226250000Y-195675000D03*
X226750000Y-195675000D03*
X227250000Y-195675000D03*
X227750000Y-195675000D03*
X228250000Y-195675000D03*
X228750000Y-195675000D03*
D27*
X230675000Y-193750000D03*
X230675000Y-193250000D03*
X230675000Y-192750000D03*
X230675000Y-192250000D03*
X230675000Y-191750000D03*
X230675000Y-191250000D03*
X230675000Y-190750000D03*
X230675000Y-190250000D03*
X230675000Y-189750000D03*
X230675000Y-189250000D03*
X230675000Y-188750000D03*
X230675000Y-188250000D03*
X230675000Y-187750000D03*
X230675000Y-187250000D03*
X230675000Y-186750000D03*
X230675000Y-186250000D03*
D26*
X228750000Y-184325000D03*
X228250000Y-184325000D03*
X227750000Y-184325000D03*
X227250000Y-184325000D03*
X226750000Y-184325000D03*
X226250000Y-184325000D03*
X225750000Y-184325000D03*
X225250000Y-184325000D03*
X224750000Y-184325000D03*
X224250000Y-184325000D03*
X223750000Y-184325000D03*
X223250000Y-184325000D03*
X222750000Y-184325000D03*
X222250000Y-184325000D03*
X221750000Y-184325000D03*
X221250000Y-184325000D03*
D27*
X219325000Y-186250000D03*
X219325000Y-186750000D03*
X219325000Y-187250000D03*
X219325000Y-187750000D03*
X219325000Y-188250000D03*
X219325000Y-188750000D03*
X219325000Y-189250000D03*
X219325000Y-189750000D03*
X219325000Y-190250000D03*
X219325000Y-190750000D03*
X219325000Y-191250000D03*
X219325000Y-191750000D03*
X219325000Y-192250000D03*
X219325000Y-192750000D03*
X219325000Y-193250000D03*
X219325000Y-193750000D03*
%TD*%
D16*
%TO.C,MK6*%
X215700000Y-79550000D03*
X214300000Y-79550000D03*
%TD*%
D11*
%TO.C,R69*%
X233900000Y-158925000D03*
X233900000Y-160575000D03*
%TD*%
D18*
%TO.C,R75*%
X206100000Y-160575000D03*
X206100000Y-158925000D03*
%TD*%
D15*
%TO.C,C20*%
X185000000Y-197658675D03*
X185000000Y-199208675D03*
%TD*%
D18*
%TO.C,R64*%
X239100000Y-163575000D03*
X239100000Y-161925000D03*
%TD*%
D16*
%TO.C,MK3*%
X185700000Y-79550000D03*
X184300000Y-79550000D03*
%TD*%
%TO.C,MK59*%
X185700000Y-149550000D03*
X184300000Y-149550000D03*
%TD*%
D33*
%TO.C,LS1*%
X107100000Y-82100000D03*
X107100000Y-107900000D03*
X132900000Y-82100000D03*
X132900000Y-107900000D03*
%TD*%
D12*
%TO.C,TP9*%
X201000000Y-181500000D03*
%TD*%
D15*
%TO.C,C45*%
X167600000Y-161975000D03*
X167600000Y-163525000D03*
%TD*%
D16*
%TO.C,MK46*%
X215700000Y-129550000D03*
X214300000Y-129550000D03*
%TD*%
D18*
%TO.C,R71*%
X216100000Y-160575000D03*
X216100000Y-158925000D03*
%TD*%
D17*
%TO.C,C69*%
X233710000Y-178045000D03*
X233710000Y-176495000D03*
%TD*%
D11*
%TO.C,R31*%
X199100000Y-158925000D03*
X199100000Y-160575000D03*
%TD*%
D12*
%TO.C,TP1*%
X243000000Y-189000000D03*
%TD*%
D18*
%TO.C,R27*%
X186100000Y-160575000D03*
X186100000Y-158925000D03*
%TD*%
%TO.C,R68*%
X229100000Y-163575000D03*
X229100000Y-161925000D03*
%TD*%
D16*
%TO.C,MK10*%
X175700000Y-89550000D03*
X174300000Y-89550000D03*
%TD*%
D19*
%TO.C,R99*%
X192325000Y-178000000D03*
X190675000Y-178000000D03*
%TD*%
D17*
%TO.C,C32*%
X187750000Y-182275000D03*
X187750000Y-180725000D03*
%TD*%
D12*
%TO.C,TP8*%
X169000000Y-181500000D03*
%TD*%
D13*
%TO.C,H3*%
X242375000Y-75000000D03*
X243143845Y-73143845D03*
X243143845Y-76856155D03*
X245000000Y-72375000D03*
D14*
X245000000Y-75000000D03*
D13*
X245000000Y-77625000D03*
X246856155Y-73143845D03*
X246856155Y-76856155D03*
X247625000Y-75000000D03*
%TD*%
D34*
%TO.C,C15*%
X230457017Y-182457017D03*
X232542983Y-184542983D03*
%TD*%
D20*
%TO.C,R101*%
X197675000Y-166000000D03*
X199325000Y-166000000D03*
%TD*%
D11*
%TO.C,R28*%
X186100000Y-161925000D03*
X186100000Y-163575000D03*
%TD*%
D13*
%TO.C,H2*%
X102375000Y-205000000D03*
X103143845Y-203143845D03*
X103143845Y-206856155D03*
X105000000Y-202375000D03*
D14*
X105000000Y-205000000D03*
D13*
X105000000Y-207625000D03*
X106856155Y-203143845D03*
X106856155Y-206856155D03*
X107625000Y-205000000D03*
%TD*%
D35*
%TO.C,J2*%
X107000000Y-190000000D03*
D36*
X104460000Y-190000000D03*
X107000000Y-187460000D03*
X104460000Y-187460000D03*
X107000000Y-184920000D03*
X104460000Y-184920000D03*
X107000000Y-182380000D03*
X104460000Y-182380000D03*
X107000000Y-179840000D03*
X104460000Y-179840000D03*
X107000000Y-177300000D03*
X104460000Y-177300000D03*
X107000000Y-174760000D03*
X104460000Y-174760000D03*
X107000000Y-172220000D03*
X104460000Y-172220000D03*
X107000000Y-169680000D03*
X104460000Y-169680000D03*
X107000000Y-167140000D03*
X104460000Y-167140000D03*
%TD*%
D18*
%TO.C,R54*%
X173900000Y-163575000D03*
X173900000Y-161925000D03*
%TD*%
D17*
%TO.C,C66*%
X216290000Y-178045000D03*
X216290000Y-176495000D03*
%TD*%
D24*
%TO.C,C37*%
X213775000Y-187750000D03*
X212225000Y-187750000D03*
%TD*%
D20*
%TO.C,R109*%
X217675000Y-166000000D03*
X219325000Y-166000000D03*
%TD*%
D16*
%TO.C,MK2*%
X175700000Y-79550000D03*
X174300000Y-79550000D03*
%TD*%
%TO.C,MK30*%
X215700000Y-109550000D03*
X214300000Y-109550000D03*
%TD*%
D11*
%TO.C,R49*%
X183900000Y-158925000D03*
X183900000Y-160575000D03*
%TD*%
%TO.C,R2*%
X124175000Y-125475000D03*
X124175000Y-127125000D03*
%TD*%
D20*
%TO.C,R88*%
X177675000Y-176500000D03*
X179325000Y-176500000D03*
%TD*%
D19*
%TO.C,R102*%
X192325000Y-166000000D03*
X190675000Y-166000000D03*
%TD*%
D11*
%TO.C,R40*%
X176100000Y-161925000D03*
X176100000Y-163575000D03*
%TD*%
D15*
%TO.C,C49*%
X227600000Y-161975000D03*
X227600000Y-163525000D03*
%TD*%
D29*
%TO.C,C14*%
X179542983Y-182457017D03*
X177457017Y-184542983D03*
%TD*%
D11*
%TO.C,R35*%
X189100000Y-158925000D03*
X189100000Y-160575000D03*
%TD*%
D19*
%TO.C,R87*%
X172325000Y-176500000D03*
X170675000Y-176500000D03*
%TD*%
D18*
%TO.C,R70*%
X233900000Y-163575000D03*
X233900000Y-161925000D03*
%TD*%
%TO.C,R41*%
X180900000Y-160575000D03*
X180900000Y-158925000D03*
%TD*%
D17*
%TO.C,C56*%
X176290000Y-178045000D03*
X176290000Y-176495000D03*
%TD*%
D15*
%TO.C,C23*%
X225000000Y-197658675D03*
X225000000Y-199208675D03*
%TD*%
D11*
%TO.C,R60*%
X226100000Y-161925000D03*
X226100000Y-163575000D03*
%TD*%
%TO.C,R37*%
X193900000Y-158925000D03*
X193900000Y-160575000D03*
%TD*%
%TO.C,R63*%
X239100000Y-158925000D03*
X239100000Y-160575000D03*
%TD*%
D17*
%TO.C,C74*%
X229500000Y-172775000D03*
X229500000Y-171225000D03*
%TD*%
D16*
%TO.C,MK39*%
X225700000Y-119550000D03*
X224300000Y-119550000D03*
%TD*%
D15*
%TO.C,C39*%
X197600000Y-161975000D03*
X197600000Y-163525000D03*
%TD*%
D16*
%TO.C,MK8*%
X235700000Y-79550000D03*
X234300000Y-79550000D03*
%TD*%
D11*
%TO.C,R1*%
X149800000Y-209810000D03*
X149800000Y-211460000D03*
%TD*%
D15*
%TO.C,C53*%
X207600000Y-161975000D03*
X207600000Y-163525000D03*
%TD*%
D11*
%TO.C,R53*%
X173900000Y-158925000D03*
X173900000Y-160575000D03*
%TD*%
D15*
%TO.C,C44*%
X182400000Y-161975000D03*
X182400000Y-163525000D03*
%TD*%
D24*
%TO.C,C30*%
X173775000Y-187750000D03*
X172225000Y-187750000D03*
%TD*%
D16*
%TO.C,MK12*%
X195700000Y-89550000D03*
X194300000Y-89550000D03*
%TD*%
D18*
%TO.C,R29*%
X190900000Y-160575000D03*
X190900000Y-158925000D03*
%TD*%
D11*
%TO.C,R74*%
X220900000Y-161925000D03*
X220900000Y-163575000D03*
%TD*%
D16*
%TO.C,MK19*%
X185700000Y-99550000D03*
X184300000Y-99550000D03*
%TD*%
D24*
%TO.C,C7*%
X120775000Y-115500000D03*
X119225000Y-115500000D03*
%TD*%
D16*
%TO.C,MK56*%
X235700000Y-139550000D03*
X234300000Y-139550000D03*
%TD*%
D18*
%TO.C,R39*%
X176100000Y-160575000D03*
X176100000Y-158925000D03*
%TD*%
D11*
%TO.C,R47*%
X179100000Y-158925000D03*
X179100000Y-160575000D03*
%TD*%
D16*
%TO.C,MK23*%
X225700000Y-99550000D03*
X224300000Y-99550000D03*
%TD*%
D28*
%TO.C,C21*%
X192725000Y-191750000D03*
X194275000Y-191750000D03*
%TD*%
%TO.C,C34*%
X236225000Y-190250000D03*
X237775000Y-190250000D03*
%TD*%
D19*
%TO.C,R111*%
X232325000Y-176500000D03*
X230675000Y-176500000D03*
%TD*%
D20*
%TO.C,R89*%
X177675000Y-167500000D03*
X179325000Y-167500000D03*
%TD*%
D34*
%TO.C,C12*%
X190457017Y-182457017D03*
X192542983Y-184542983D03*
%TD*%
D24*
%TO.C,C27*%
X173775000Y-190250000D03*
X172225000Y-190250000D03*
%TD*%
%TO.C,C36*%
X213775000Y-190250000D03*
X212225000Y-190250000D03*
%TD*%
D18*
%TO.C,R34*%
X203900000Y-163575000D03*
X203900000Y-161925000D03*
%TD*%
D17*
%TO.C,C59*%
X193710000Y-178045000D03*
X193710000Y-176495000D03*
%TD*%
D15*
%TO.C,C57*%
X176290000Y-165955000D03*
X176290000Y-167505000D03*
%TD*%
D20*
%TO.C,R108*%
X217675000Y-178000000D03*
X219325000Y-178000000D03*
%TD*%
D15*
%TO.C,C62*%
X193710000Y-165955000D03*
X193710000Y-167505000D03*
%TD*%
D16*
%TO.C,MK32*%
X235700000Y-109550000D03*
X234300000Y-109550000D03*
%TD*%
%TO.C,MK62*%
X215700000Y-149550000D03*
X214300000Y-149550000D03*
%TD*%
%TO.C,MK60*%
X195700000Y-149550000D03*
X194300000Y-149550000D03*
%TD*%
%TO.C,MK29*%
X205700000Y-109550000D03*
X204300000Y-109550000D03*
%TD*%
D11*
%TO.C,R58*%
X240900000Y-161925000D03*
X240900000Y-163575000D03*
%TD*%
D37*
%TO.C,J1*%
X150870000Y-217000000D03*
D36*
X150870000Y-214460000D03*
X153410000Y-217000000D03*
X153410000Y-214460000D03*
X155950000Y-217000000D03*
X155950000Y-214460000D03*
X158490000Y-217000000D03*
X158490000Y-214460000D03*
X161030000Y-217000000D03*
X161030000Y-214460000D03*
X163570000Y-217000000D03*
X163570000Y-214460000D03*
X166110000Y-217000000D03*
X166110000Y-214460000D03*
X168650000Y-217000000D03*
X168650000Y-214460000D03*
X171190000Y-217000000D03*
X171190000Y-214460000D03*
X173730000Y-217000000D03*
X173730000Y-214460000D03*
X176270000Y-217000000D03*
X176270000Y-214460000D03*
X178810000Y-217000000D03*
X178810000Y-214460000D03*
X181350000Y-217000000D03*
X181350000Y-214460000D03*
X183890000Y-217000000D03*
X183890000Y-214460000D03*
X186430000Y-217000000D03*
X186430000Y-214460000D03*
X188970000Y-217000000D03*
X188970000Y-214460000D03*
X191510000Y-217000000D03*
X191510000Y-214460000D03*
X194050000Y-217000000D03*
X194050000Y-214460000D03*
X196590000Y-217000000D03*
X196590000Y-214460000D03*
X199130000Y-217000000D03*
X199130000Y-214460000D03*
%TD*%
M02*
