M48
; DRILL file KiCad 10.0.1 date 2026-05-09T19:44:13
; FORMAT={-:-/ absolute / metric / decimal}
; #@! TF.CreationDate,2026-05-09T19:44:13+02:00
; #@! TF.GenerationSoftware,Kicad,Pcbnew,10.0.1
; #@! TF.FileFunction,Plated,1,4,PTH
FMAT,2
METRIC
; #@! TA.AperFunction,Plated,PTH,ViaDrill
T1C0.300
; #@! TA.AperFunction,Plated,PTH,ComponentDrill
T2C0.300
; #@! TA.AperFunction,Plated,PTH,ComponentDrill
T3C0.500
; #@! TA.AperFunction,Plated,PTH,ComponentDrill
T4C0.580
; #@! TA.AperFunction,Plated,PTH,ComponentDrill
T5C1.000
; #@! TA.AperFunction,Plated,PTH,ComponentDrill
T6C1.600
; #@! TA.AperFunction,Plated,PTH,ComponentDrill
T7C3.500
%
G90
G05
T1
X116.5Y-118.225
X118.0Y-121.0
X119.225Y-115.5
X119.5Y-118.5
X119.5Y-119.5
X119.675Y-124.075
X120.0Y-119.0
X120.325Y-121.0
X120.5Y-118.5
X120.5Y-119.5
X120.775Y-115.5
X123.52Y-118.225
X124.175Y-125.475
X125.675Y-125.525
X149.8Y-211.46
X151.91Y-211.41
X162.25Y-208.525
X162.25Y-211.475
X163.0Y-208.525
X163.0Y-211.475
X163.75Y-208.525
X163.75Y-211.475
X166.1Y-160.575
X167.6Y-160.425
X167.6Y-163.525
X169.1Y-160.575
X169.25Y-191.75
X169.5Y-171.225
X169.5Y-172.775
X170.9Y-160.575
X172.225Y-187.75
X172.225Y-190.25
X172.4Y-160.425
X172.4Y-163.525
X172.4Y-163.525
X173.71Y-167.505
X173.71Y-176.495
X173.73Y-169.288
X173.73Y-174.712
X173.775Y-187.75
X173.775Y-190.25
X173.9Y-160.575
X175.725Y-191.75
X176.0Y-186.525
X176.0Y-189.475
X176.1Y-160.575
X176.27Y-169.288
X176.27Y-174.712
X176.29Y-167.505
X176.29Y-176.495
X177.275Y-191.75
X177.457Y-184.543
X177.6Y-160.425
X177.6Y-163.525
X177.6Y-163.525
X179.1Y-160.575
X179.543Y-182.457
X180.9Y-160.575
X182.0Y-188.0
X182.0Y-190.0
X182.0Y-192.0
X182.25Y-180.725
X182.25Y-182.275
X182.4Y-160.425
X182.4Y-163.525
X182.4Y-163.525
X183.0Y-187.0
X183.0Y-189.0
X183.0Y-191.0
X183.0Y-193.0
X183.9Y-160.575
X184.0Y-188.0
X184.0Y-190.0
X184.0Y-192.0
X184.75Y-180.725
X185.0Y-187.0
X185.0Y-189.0
X185.0Y-191.0
X185.0Y-193.0
X185.0Y-197.659
X185.0Y-199.209
X185.0Y-208.525
X185.0Y-211.475
X185.75Y-181.5
X185.75Y-208.525
X185.75Y-211.475
X186.0Y-188.0
X186.0Y-190.0
X186.0Y-192.0
X186.1Y-160.575
X186.5Y-208.525
X186.5Y-211.475
X187.0Y-187.0
X187.0Y-189.0
X187.0Y-191.0
X187.0Y-193.0
X187.6Y-160.425
X187.6Y-163.525
X187.6Y-163.525
X187.75Y-180.725
X187.75Y-182.275
X188.0Y-188.0
X188.0Y-190.0
X188.0Y-192.0
X189.1Y-160.575
X189.5Y-171.225
X189.5Y-172.775
X190.457Y-182.457
X190.9Y-160.575
X192.4Y-160.425
X192.4Y-163.525
X192.4Y-163.525
X192.543Y-184.543
X192.725Y-191.75
X193.71Y-167.505
X193.71Y-176.495
X193.73Y-169.288
X193.73Y-174.712
X193.9Y-160.575
X194.0Y-186.525
X194.0Y-189.475
X194.275Y-191.75
X196.1Y-160.575
X196.225Y-187.75
X196.225Y-190.25
X196.27Y-169.288
X196.27Y-174.712
X196.29Y-167.505
X196.29Y-176.495
X197.6Y-160.425
X197.6Y-163.525
X197.6Y-163.525
X197.775Y-187.75
X197.775Y-190.25
X199.1Y-160.575
X200.9Y-160.575
X202.4Y-160.425
X202.4Y-163.525
X202.4Y-163.525
X203.9Y-160.575
X206.1Y-160.575
X207.6Y-160.425
X207.6Y-163.525
X209.1Y-160.575
X209.5Y-171.225
X209.5Y-172.775
X210.9Y-160.575
X212.225Y-187.75
X212.225Y-190.25
X212.4Y-160.425
X212.4Y-163.525
X212.4Y-163.525
X213.71Y-167.505
X213.71Y-176.495
X213.73Y-169.288
X213.73Y-174.712
X213.775Y-187.75
X213.775Y-190.25
X213.9Y-160.575
X214.709Y-192.628
X215.725Y-191.75
X216.0Y-186.525
X216.0Y-189.475
X216.1Y-160.575
X216.27Y-169.288
X216.27Y-174.712
X216.29Y-167.505
X216.29Y-176.495
X217.275Y-191.75
X217.457Y-184.543
X217.6Y-160.425
X217.6Y-163.525
X217.6Y-163.525
X218.745Y-199.205
X219.1Y-160.575
X219.38Y-198.57
X219.543Y-182.457
X220.015Y-199.205
X220.65Y-198.57
X220.9Y-160.575
X221.285Y-199.205
X221.92Y-198.57
X222.0Y-188.0
X222.0Y-190.0
X222.0Y-192.0
X222.25Y-180.725
X222.25Y-182.275
X222.4Y-160.425
X222.4Y-163.525
X222.4Y-163.525
X222.555Y-199.205
X223.0Y-187.0
X223.0Y-189.0
X223.0Y-191.0
X223.0Y-193.0
X223.19Y-198.57
X223.825Y-199.205
X223.9Y-160.575
X224.0Y-188.0
X224.0Y-190.0
X224.0Y-192.0
X224.75Y-180.725
X225.0Y-187.0
X225.0Y-189.0
X225.0Y-191.0
X225.0Y-193.0
X225.0Y-197.659
X225.0Y-199.209
X225.75Y-181.5
X226.0Y-188.0
X226.0Y-190.0
X226.0Y-192.0
X226.1Y-160.575
X226.175Y-199.205
X226.81Y-198.57
X227.0Y-187.0
X227.0Y-189.0
X227.0Y-191.0
X227.0Y-193.0
X227.445Y-199.205
X227.6Y-160.425
X227.6Y-163.525
X227.6Y-163.525
X227.75Y-180.725
X227.75Y-182.275
X228.0Y-188.0
X228.0Y-190.0
X228.0Y-192.0
X228.08Y-198.57
X228.715Y-199.205
X229.1Y-160.575
X229.35Y-198.57
X229.5Y-171.225
X229.5Y-172.775
X229.985Y-199.205
X230.457Y-182.457
X230.62Y-198.57
X230.9Y-160.575
X232.4Y-160.425
X232.4Y-163.525
X232.4Y-163.525
X232.5Y-193.0
X232.543Y-184.543
X232.725Y-191.75
X233.71Y-167.505
X233.71Y-176.495
X233.73Y-169.288
X233.73Y-174.712
X233.9Y-160.575
X234.0Y-186.525
X234.0Y-189.475
X234.275Y-191.75
X236.1Y-160.575
X236.225Y-187.75
X236.225Y-190.25
X236.27Y-169.288
X236.27Y-174.712
X236.29Y-167.505
X236.29Y-176.495
X237.6Y-160.425
X237.6Y-163.525
X237.6Y-163.525
X237.775Y-187.75
X237.775Y-190.25
X239.1Y-160.575
X240.9Y-160.575
X242.4Y-160.425
X242.4Y-163.525
X242.4Y-163.525
X243.9Y-160.575
T2
X165.0Y-82.6
X165.0Y-87.4
X165.0Y-92.6
X165.0Y-97.4
X165.0Y-102.6
X165.0Y-107.4
X165.0Y-112.6
X165.0Y-117.4
X165.0Y-122.6
X165.0Y-127.4
X165.0Y-132.6
X165.0Y-137.4
X165.0Y-142.6
X165.0Y-147.4
X165.0Y-152.6
X165.0Y-157.4
X170.0Y-82.6
X170.0Y-87.4
X170.0Y-92.6
X170.0Y-97.4
X170.0Y-102.6
X170.0Y-107.4
X170.0Y-112.6
X170.0Y-117.4
X170.0Y-122.6
X170.0Y-127.4
X170.0Y-132.6
X170.0Y-137.4
X170.0Y-142.6
X170.0Y-147.4
X170.0Y-152.6
X170.0Y-157.4
X175.0Y-82.6
X175.0Y-82.6
X175.0Y-87.4
X175.0Y-87.4
X175.0Y-92.6
X175.0Y-92.6
X175.0Y-97.4
X175.0Y-97.4
X175.0Y-102.6
X175.0Y-102.6
X175.0Y-107.4
X175.0Y-107.4
X175.0Y-112.6
X175.0Y-112.6
X175.0Y-117.4
X175.0Y-117.4
X175.0Y-122.6
X175.0Y-122.6
X175.0Y-127.4
X175.0Y-127.4
X175.0Y-132.6
X175.0Y-132.6
X175.0Y-137.4
X175.0Y-137.4
X175.0Y-142.6
X175.0Y-142.6
X175.0Y-147.4
X175.0Y-147.4
X175.0Y-152.6
X175.0Y-152.6
X175.0Y-157.4
X175.0Y-157.4
X180.0Y-82.6
X180.0Y-87.4
X180.0Y-92.6
X180.0Y-97.4
X180.0Y-102.6
X180.0Y-107.4
X180.0Y-112.6
X180.0Y-117.4
X180.0Y-122.6
X180.0Y-127.4
X180.0Y-132.6
X180.0Y-137.4
X180.0Y-142.6
X180.0Y-147.4
X180.0Y-152.6
X180.0Y-157.4
X185.0Y-82.6
X185.0Y-82.6
X185.0Y-87.4
X185.0Y-87.4
X185.0Y-92.6
X185.0Y-92.6
X185.0Y-97.4
X185.0Y-97.4
X185.0Y-102.6
X185.0Y-102.6
X185.0Y-107.4
X185.0Y-107.4
X185.0Y-112.6
X185.0Y-112.6
X185.0Y-117.4
X185.0Y-117.4
X185.0Y-122.6
X185.0Y-122.6
X185.0Y-127.4
X185.0Y-127.4
X185.0Y-132.6
X185.0Y-132.6
X185.0Y-137.4
X185.0Y-137.4
X185.0Y-142.6
X185.0Y-142.6
X185.0Y-147.4
X185.0Y-147.4
X185.0Y-152.6
X185.0Y-152.6
X185.0Y-157.4
X185.0Y-157.4
X190.0Y-82.6
X190.0Y-87.4
X190.0Y-92.6
X190.0Y-97.4
X190.0Y-102.6
X190.0Y-107.4
X190.0Y-112.6
X190.0Y-117.4
X190.0Y-122.6
X190.0Y-127.4
X190.0Y-132.6
X190.0Y-137.4
X190.0Y-142.6
X190.0Y-147.4
X190.0Y-152.6
X190.0Y-157.4
X195.0Y-82.6
X195.0Y-82.6
X195.0Y-87.4
X195.0Y-87.4
X195.0Y-92.6
X195.0Y-92.6
X195.0Y-97.4
X195.0Y-97.4
X195.0Y-102.6
X195.0Y-102.6
X195.0Y-107.4
X195.0Y-107.4
X195.0Y-112.6
X195.0Y-112.6
X195.0Y-117.4
X195.0Y-117.4
X195.0Y-122.6
X195.0Y-122.6
X195.0Y-127.4
X195.0Y-127.4
X195.0Y-132.6
X195.0Y-132.6
X195.0Y-137.4
X195.0Y-137.4
X195.0Y-142.6
X195.0Y-142.6
X195.0Y-147.4
X195.0Y-147.4
X195.0Y-152.6
X195.0Y-152.6
X195.0Y-157.4
X195.0Y-157.4
X200.0Y-82.6
X200.0Y-87.4
X200.0Y-92.6
X200.0Y-97.4
X200.0Y-102.6
X200.0Y-107.4
X200.0Y-112.6
X200.0Y-117.4
X200.0Y-122.6
X200.0Y-127.4
X200.0Y-132.6
X200.0Y-137.4
X200.0Y-142.6
X200.0Y-147.4
X200.0Y-152.6
X200.0Y-157.4
X205.0Y-82.6
X205.0Y-82.6
X205.0Y-87.4
X205.0Y-87.4
X205.0Y-92.6
X205.0Y-92.6
X205.0Y-97.4
X205.0Y-97.4
X205.0Y-102.6
X205.0Y-102.6
X205.0Y-107.4
X205.0Y-107.4
X205.0Y-112.6
X205.0Y-112.6
X205.0Y-117.4
X205.0Y-117.4
X205.0Y-122.6
X205.0Y-122.6
X205.0Y-127.4
X205.0Y-127.4
X205.0Y-132.6
X205.0Y-132.6
X205.0Y-137.4
X205.0Y-137.4
X205.0Y-142.6
X205.0Y-142.6
X205.0Y-147.4
X205.0Y-147.4
X205.0Y-152.6
X205.0Y-152.6
X205.0Y-157.4
X205.0Y-157.4
X210.0Y-82.6
X210.0Y-87.4
X210.0Y-92.6
X210.0Y-97.4
X210.0Y-102.6
X210.0Y-107.4
X210.0Y-112.6
X210.0Y-117.4
X210.0Y-122.6
X210.0Y-127.4
X210.0Y-132.6
X210.0Y-137.4
X210.0Y-142.6
X210.0Y-147.4
X210.0Y-152.6
X210.0Y-157.4
X215.0Y-82.6
X215.0Y-82.6
X215.0Y-87.4
X215.0Y-87.4
X215.0Y-92.6
X215.0Y-92.6
X215.0Y-97.4
X215.0Y-97.4
X215.0Y-102.6
X215.0Y-102.6
X215.0Y-107.4
X215.0Y-107.4
X215.0Y-112.6
X215.0Y-112.6
X215.0Y-117.4
X215.0Y-117.4
X215.0Y-122.6
X215.0Y-122.6
X215.0Y-127.4
X215.0Y-127.4
X215.0Y-132.6
X215.0Y-132.6
X215.0Y-137.4
X215.0Y-137.4
X215.0Y-142.6
X215.0Y-142.6
X215.0Y-147.4
X215.0Y-147.4
X215.0Y-152.6
X215.0Y-152.6
X215.0Y-157.4
X215.0Y-157.4
X220.0Y-82.6
X220.0Y-87.4
X220.0Y-92.6
X220.0Y-97.4
X220.0Y-102.6
X220.0Y-107.4
X220.0Y-112.6
X220.0Y-117.4
X220.0Y-122.6
X220.0Y-127.4
X220.0Y-132.6
X220.0Y-137.4
X220.0Y-142.6
X220.0Y-147.4
X220.0Y-152.6
X220.0Y-157.4
X225.0Y-82.6
X225.0Y-82.6
X225.0Y-87.4
X225.0Y-87.4
X225.0Y-92.6
X225.0Y-92.6
X225.0Y-97.4
X225.0Y-97.4
X225.0Y-102.6
X225.0Y-102.6
X225.0Y-107.4
X225.0Y-107.4
X225.0Y-112.6
X225.0Y-112.6
X225.0Y-117.4
X225.0Y-117.4
X225.0Y-122.6
X225.0Y-122.6
X225.0Y-127.4
X225.0Y-127.4
X225.0Y-132.6
X225.0Y-132.6
X225.0Y-137.4
X225.0Y-137.4
X225.0Y-142.6
X225.0Y-142.6
X225.0Y-147.4
X225.0Y-147.4
X225.0Y-152.6
X225.0Y-152.6
X225.0Y-157.4
X225.0Y-157.4
X230.0Y-82.6
X230.0Y-87.4
X230.0Y-92.6
X230.0Y-97.4
X230.0Y-102.6
X230.0Y-107.4
X230.0Y-112.6
X230.0Y-117.4
X230.0Y-122.6
X230.0Y-127.4
X230.0Y-132.6
X230.0Y-137.4
X230.0Y-142.6
X230.0Y-147.4
X230.0Y-152.6
X230.0Y-157.4
X235.0Y-82.6
X235.0Y-82.6
X235.0Y-87.4
X235.0Y-87.4
X235.0Y-92.6
X235.0Y-92.6
X235.0Y-97.4
X235.0Y-97.4
X235.0Y-102.6
X235.0Y-102.6
X235.0Y-107.4
X235.0Y-107.4
X235.0Y-112.6
X235.0Y-112.6
X235.0Y-117.4
X235.0Y-117.4
X235.0Y-122.6
X235.0Y-122.6
X235.0Y-127.4
X235.0Y-127.4
X235.0Y-132.6
X235.0Y-132.6
X235.0Y-137.4
X235.0Y-137.4
X235.0Y-142.6
X235.0Y-142.6
X235.0Y-147.4
X235.0Y-147.4
X235.0Y-152.6
X235.0Y-152.6
X235.0Y-157.4
X235.0Y-157.4
X240.0Y-82.6
X240.0Y-87.4
X240.0Y-92.6
X240.0Y-97.4
X240.0Y-102.6
X240.0Y-107.4
X240.0Y-112.6
X240.0Y-117.4
X240.0Y-122.6
X240.0Y-127.4
X240.0Y-132.6
X240.0Y-137.4
X240.0Y-142.6
X240.0Y-147.4
X240.0Y-152.6
X240.0Y-157.4
X245.0Y-82.6
X245.0Y-87.4
X245.0Y-92.6
X245.0Y-97.4
X245.0Y-102.6
X245.0Y-107.4
X245.0Y-112.6
X245.0Y-117.4
X245.0Y-122.6
X245.0Y-127.4
X245.0Y-132.6
X245.0Y-137.4
X245.0Y-142.6
X245.0Y-147.4
X245.0Y-152.6
X245.0Y-157.4
T3
X102.375Y-75.0
X102.375Y-205.0
X103.144Y-73.144
X103.144Y-76.856
X103.144Y-203.144
X103.144Y-206.856
X105.0Y-72.375
X105.0Y-77.625
X105.0Y-202.375
X105.0Y-207.625
X106.856Y-73.144
X106.856Y-76.856
X106.856Y-203.144
X106.856Y-206.856
X107.625Y-75.0
X107.625Y-205.0
X152.375Y-75.0
X152.375Y-172.0
X153.144Y-73.144
X153.144Y-76.856
X153.144Y-170.144
X153.144Y-173.856
X155.0Y-72.375
X155.0Y-77.625
X155.0Y-169.375
X155.0Y-174.625
X156.856Y-73.144
X156.856Y-76.856
X156.856Y-170.144
X156.856Y-173.856
X157.625Y-75.0
X157.625Y-172.0
X242.375Y-75.0
X242.375Y-205.0
X243.144Y-73.144
X243.144Y-76.856
X243.144Y-203.144
X243.144Y-206.856
X245.0Y-72.375
X245.0Y-77.625
X245.0Y-202.375
X245.0Y-207.625
X246.856Y-73.144
X246.856Y-76.856
X246.856Y-203.144
X246.856Y-206.856
X247.625Y-75.0
X247.625Y-205.0
T4
X164.3Y-79.55
X164.3Y-89.55
X164.3Y-99.55
X164.3Y-109.55
X164.3Y-119.55
X164.3Y-129.55
X164.3Y-139.55
X164.3Y-149.55
X165.7Y-79.55
X165.7Y-89.55
X165.7Y-99.55
X165.7Y-109.55
X165.7Y-119.55
X165.7Y-129.55
X165.7Y-139.55
X165.7Y-149.55
X174.3Y-79.55
X174.3Y-89.55
X174.3Y-99.55
X174.3Y-109.55
X174.3Y-119.55
X174.3Y-129.55
X174.3Y-139.55
X174.3Y-149.55
X175.7Y-79.55
X175.7Y-89.55
X175.7Y-99.55
X175.7Y-109.55
X175.7Y-119.55
X175.7Y-129.55
X175.7Y-139.55
X175.7Y-149.55
X184.3Y-79.55
X184.3Y-89.55
X184.3Y-99.55
X184.3Y-109.55
X184.3Y-119.55
X184.3Y-129.55
X184.3Y-139.55
X184.3Y-149.55
X185.7Y-79.55
X185.7Y-89.55
X185.7Y-99.55
X185.7Y-109.55
X185.7Y-119.55
X185.7Y-129.55
X185.7Y-139.55
X185.7Y-149.55
X194.3Y-79.55
X194.3Y-89.55
X194.3Y-99.55
X194.3Y-109.55
X194.3Y-119.55
X194.3Y-129.55
X194.3Y-139.55
X194.3Y-149.55
X195.7Y-79.55
X195.7Y-89.55
X195.7Y-99.55
X195.7Y-109.55
X195.7Y-119.55
X195.7Y-129.55
X195.7Y-139.55
X195.7Y-149.55
X204.3Y-79.55
X204.3Y-89.55
X204.3Y-99.55
X204.3Y-109.55
X204.3Y-119.55
X204.3Y-129.55
X204.3Y-139.55
X204.3Y-149.55
X205.7Y-79.55
X205.7Y-89.55
X205.7Y-99.55
X205.7Y-109.55
X205.7Y-119.55
X205.7Y-129.55
X205.7Y-139.55
X205.7Y-149.55
X214.3Y-79.55
X214.3Y-89.55
X214.3Y-99.55
X214.3Y-109.55
X214.3Y-119.55
X214.3Y-129.55
X214.3Y-139.55
X214.3Y-149.55
X215.7Y-79.55
X215.7Y-89.55
X215.7Y-99.55
X215.7Y-109.55
X215.7Y-119.55
X215.7Y-129.55
X215.7Y-139.55
X215.7Y-149.55
X224.3Y-79.55
X224.3Y-89.55
X224.3Y-99.55
X224.3Y-109.55
X224.3Y-119.55
X224.3Y-129.55
X224.3Y-139.55
X224.3Y-149.55
X225.7Y-79.55
X225.7Y-89.55
X225.7Y-99.55
X225.7Y-109.55
X225.7Y-119.55
X225.7Y-129.55
X225.7Y-139.55
X225.7Y-149.55
X234.3Y-79.55
X234.3Y-89.55
X234.3Y-99.55
X234.3Y-109.55
X234.3Y-119.55
X234.3Y-129.55
X234.3Y-139.55
X234.3Y-149.55
X235.7Y-79.55
X235.7Y-89.55
X235.7Y-99.55
X235.7Y-109.55
X235.7Y-119.55
X235.7Y-129.55
X235.7Y-139.55
X235.7Y-149.55
T5
X104.46Y-167.14
X104.46Y-169.68
X104.46Y-172.22
X104.46Y-174.76
X104.46Y-177.3
X104.46Y-179.84
X104.46Y-182.38
X104.46Y-184.92
X104.46Y-187.46
X104.46Y-190.0
X107.0Y-167.14
X107.0Y-169.68
X107.0Y-172.22
X107.0Y-174.76
X107.0Y-177.3
X107.0Y-179.84
X107.0Y-182.38
X107.0Y-184.92
X107.0Y-187.46
X107.0Y-190.0
X150.87Y-214.46
X150.87Y-217.0
X153.41Y-214.46
X153.41Y-217.0
X155.95Y-214.46
X155.95Y-217.0
X158.49Y-214.46
X158.49Y-217.0
X161.03Y-214.46
X161.03Y-217.0
X163.57Y-214.46
X163.57Y-217.0
X166.11Y-214.46
X166.11Y-217.0
X168.65Y-214.46
X168.65Y-217.0
X171.19Y-214.46
X171.19Y-217.0
X173.73Y-214.46
X173.73Y-217.0
X176.27Y-214.46
X176.27Y-217.0
X178.81Y-214.46
X178.81Y-217.0
X181.35Y-214.46
X181.35Y-217.0
X183.89Y-214.46
X183.89Y-217.0
X186.43Y-214.46
X186.43Y-217.0
X188.97Y-214.46
X188.97Y-217.0
X191.51Y-214.46
X191.51Y-217.0
X194.05Y-214.46
X194.05Y-217.0
X196.59Y-214.46
X196.59Y-217.0
X199.13Y-214.46
X199.13Y-217.0
T6
X109.0Y-119.0
X109.0Y-133.5
X109.0Y-148.0
X131.0Y-119.0
X167.0Y-189.0
X169.0Y-181.5
X201.0Y-181.5
X209.0Y-181.5
X241.0Y-181.5
X243.0Y-189.0
X247.0Y-172.0
T7
X105.0Y-75.0
X105.0Y-205.0
X155.0Y-75.0
X155.0Y-172.0
X245.0Y-75.0
X245.0Y-205.0
M30
