<?xml version="1.0" encoding="UTF-8" standalone="no"?>
<!-- Created with Inkscape (http://www.inkscape.org/) -->

<svg
   width="10mm"
   height="10mm"
   viewBox="0 0 10 10"
   version="1.1"
   id="svg1"
   inkscape:version="1.4.3 (0d15f75, 2025-12-25)"
   sodipodi:docname="CrossBar_Top.svg"
   xmlns:inkscape="http://www.inkscape.org/namespaces/inkscape"
   xmlns:sodipodi="http://sodipodi.sourceforge.net/DTD/sodipodi-0.dtd"
   xmlns="http://www.w3.org/2000/svg"
   xmlns:svg="http://www.w3.org/2000/svg">
  <sodipodi:namedview
     id="namedview1"
     pagecolor="#ffffff"
     bordercolor="#eeeeee"
     borderopacity="1"
     inkscape:showpageshadow="0"
     inkscape:pageopacity="0"
     inkscape:pagecheckerboard="0"
     inkscape:deskcolor="#505050"
     inkscape:document-units="mm"
     inkscape:zoom="16"
     inkscape:cx="8.4375"
     inkscape:cy="20.78125"
     inkscape:window-width="2560"
     inkscape:window-height="1369"
     inkscape:window-x="1912"
     inkscape:window-y="-8"
     inkscape:window-maximized="1"
     inkscape:current-layer="layer1"
     showgrid="true">
    <inkscape:grid
       id="grid1"
       units="mm"
       originx="4.9999999"
       originy="4.9999999"
       spacingx="0.15"
       spacingy="0.15"
       empcolor="#0099e5"
       empopacity="0.30196078"
       color="#0099e5"
       opacity="0.14901961"
       empspacing="8"
       enabled="true"
       visible="true" />
  </sodipodi:namedview>
  <defs
     id="defs1" />
  <g
     inkscape:label="Jumpers"
     inkscape:groupmode="layer"
     id="layer1"
     style="display:inline">
    <path
       id="path1"
       style="fill:#000000;stroke-width:0.17;stroke-linecap:round;stroke-linejoin:round;stroke:none;fill-opacity:1"
       d="M 0.050642904 -2.4747843 L 0.74827474 -2.4747843 L 1.3058634 -1.9171956 A 0.45000002 0.45000002 0 0 0 1.3058634 -1.9166789 A 0.45000002 0.45000002 0 0 0 1.2500529 -1.7001546 A 0.45000002 0.45000002 0 0 0 1.333252 -1.4391886 L 1.9611206 -2.0665405 A 0.45000002 0.45000002 0 0 0 1.7001546 -2.1502563 A 0.45000002 0.45000002 0 0 0 1.4820801 -2.093929 L 1.1017415 -2.4747843 L 2.1683431 -2.4747843 A 0.45000002 0.45000002 0 0 0 2.2820312 -2.2820312 A 0.45000002 0.45000002 0 0 0 2.5254272 -2.1564575 L 2.5254272 -3.0437419 A 0.45000002 0.45000002 0 0 0 2.2820312 -2.9181681 A 0.45000002 0.45000002 0 0 0 2.1678263 -2.7243815 L 1.1012248 -2.7243815 L 1.4825968 -3.1057536 A 0.45000002 0.45000002 0 0 0 1.7001546 -3.049943 A 0.45000002 0.45000002 0 0 0 1.9606038 -3.1331421 L 1.333252 -3.760494 A 0.45000002 0.45000002 0 0 0 1.2500529 -3.5000448 A 0.45000002 0.45000002 0 0 0 1.3058634 -3.282487 L 0.74775798 -2.7243815 L 0.050642904 -2.7243815 L 0.050642904 -2.4747843 z M 0.050642904 -7.2755249 L 0.74827474 -7.2755249 L 1.3058634 -6.7174194 A 0.45000002 0.45000002 0 0 0 1.2500529 -6.4998617 A 0.45000002 0.45000002 0 0 0 1.333252 -6.2388957 L 1.9611206 -6.8662476 A 0.45000002 0.45000002 0 0 0 1.7001546 -6.9499634 A 0.45000002 0.45000002 0 0 0 1.4825968 -6.8941528 L 1.1017415 -7.2755249 L 2.1678263 -7.2755249 A 0.45000002 0.45000002 0 0 0 2.2820312 -7.0817383 A 0.45000002 0.45000002 0 0 0 2.5254272 -6.9561646 L 2.5254272 -7.8434489 A 0.45000002 0.45000002 0 0 0 2.2820312 -7.7178752 A 0.45000002 0.45000002 0 0 0 2.1678263 -7.5256388 L 1.1017415 -7.5256388 L 1.4820801 -7.9059774 A 0.45000002 0.45000002 0 0 0 1.7001546 -7.8496501 A 0.45000002 0.45000002 0 0 0 1.9606038 -7.9328491 L 1.333252 -8.560201 A 0.45000002 0.45000002 0 0 0 1.2500529 -8.2997518 A 0.45000002 0.45000002 0 0 0 1.3058634 -8.0832275 L 0.74827474 -7.5256388 L 0.050642904 -7.5256388 L 0.050642904 -7.2755249 z M 1.4391886 -1.333252 A 0.45000002 0.45000002 0 0 0 1.7001546 -1.2500529 A 0.45000002 0.45000002 0 0 0 1.9171956 -1.3058634 L 2.4747843 -0.74827474 L 2.4747843 -0.050642904 L 2.7243815 -0.050642904 L 2.7243815 -0.74775798 L 3.282487 -1.3058634 A 0.45000002 0.45000002 0 0 0 3.5000448 -1.2500529 A 0.45000002 0.45000002 0 0 0 3.760494 -1.333252 L 3.1331421 -1.9606038 A 0.45000002 0.45000002 0 0 0 3.049943 -1.7001546 A 0.45000002 0.45000002 0 0 0 3.1057536 -1.4825968 L 2.5998413 -0.97668457 L 2.093929 -1.4820801 A 0.45000002 0.45000002 0 0 0 2.1502563 -1.7001546 A 0.45000002 0.45000002 0 0 0 2.0665405 -1.9611206 L 1.4391886 -1.333252 z M 1.4391886 -6.132959 A 0.45000002 0.45000002 0 0 0 1.7001546 -6.0497599 A 0.45000002 0.45000002 0 0 0 1.9171956 -6.1060872 L 1.9177124 -6.1060872 L 2.4747843 -5.5490153 L 2.4747843 -4.4508911 L 1.9177124 -3.8943359 A 0.45000002 0.45000002 0 0 0 1.7001546 -3.9501465 A 0.45000002 0.45000002 0 0 0 1.4397054 -3.8669474 L 2.0670573 -3.2395955 A 0.45000002 0.45000002 0 0 0 2.1502563 -3.5000448 A 0.45000002 0.45000002 0 0 0 2.0934123 -3.7186361 L 2.5998413 -4.2245483 L 3.1062703 -3.7181193 A 0.45000002 0.45000002 0 0 0 3.049943 -3.5000448 A 0.45000002 0.45000002 0 0 0 3.1326253 -3.2401123 L 3.7599772 -3.8674642 A 0.45000002 0.45000002 0 0 0 3.5000448 -3.9501465 A 0.45000002 0.45000002 0 0 0 3.2819702 -3.8938192 L 2.7243815 -4.4514079 L 2.7243815 -5.5484985 L 3.2819702 -6.1060872 A 0.45000002 0.45000002 0 0 0 3.5000448 -6.0497599 A 0.45000002 0.45000002 0 0 0 3.760494 -6.132959 L 3.1331421 -6.7603109 A 0.45000002 0.45000002 0 0 0 3.049943 -6.4998617 A 0.45000002 0.45000002 0 0 0 3.1062703 -6.2817871 L 2.5998413 -5.7753581 L 2.0934123 -6.2812703 A 0.45000002 0.45000002 0 0 0 2.1502563 -6.4998617 A 0.45000002 0.45000002 0 0 0 2.0665405 -6.7608276 L 1.4391886 -6.132959 z M 1.4397054 -8.6666545 L 2.0670573 -8.0393026 A 0.45000002 0.45000002 0 0 0 2.1502563 -8.2997518 A 0.45000002 0.45000002 0 0 0 2.093929 -8.5178263 L 2.5998413 -9.0232218 L 3.1057536 -8.5173096 A 0.45000002 0.45000002 0 0 0 3.049943 -8.2997518 A 0.45000002 0.45000002 0 0 0 3.1326253 -8.0398193 L 3.7599772 -8.6671712 A 0.45000002 0.45000002 0 0 0 3.5000448 -8.7498535 A 0.45000002 0.45000002 0 0 0 3.282487 -8.694043 L 2.7243815 -9.2526652 L 2.7243815 -9.9492635 L 2.4747843 -9.9492635 L 2.4747843 -9.2521484 L 1.9171956 -8.6945597 A 0.45000002 0.45000002 0 0 0 1.7001546 -8.7498535 A 0.45000002 0.45000002 0 0 0 1.4397054 -8.6666545 z M 2.6758057 -2.1564575 A 0.45000002 0.45000002 0 0 0 2.9181681 -2.2820312 A 0.45000002 0.45000002 0 0 0 3.0318563 -2.4747843 L 4.0994914 -2.4747843 L 3.7186361 -2.0934123 A 0.45000002 0.45000002 0 0 0 3.5000448 -2.1502563 A 0.45000002 0.45000002 0 0 0 3.2395955 -2.0670573 L 3.8669474 -1.4397054 A 0.45000002 0.45000002 0 0 0 3.9501465 -1.7001546 A 0.45000002 0.45000002 0 0 0 3.8943359 -1.9177124 L 4.4508911 -2.4747843 L 5.5490153 -2.4747843 L 6.1060872 -1.9177124 A 0.45000002 0.45000002 0 0 0 6.1060872 -1.9171956 A 0.45000002 0.45000002 0 0 0 6.0497599 -1.7001546 A 0.45000002 0.45000002 0 0 0 6.132959 -1.4391886 L 6.7608276 -2.0665405 A 0.45000002 0.45000002 0 0 0 6.4998617 -2.1502563 A 0.45000002 0.45000002 0 0 0 6.2812703 -2.0934123 L 5.900415 -2.4747843 L 6.9680501 -2.4747843 A 0.45000002 0.45000002 0 0 0 7.0817383 -2.2820312 A 0.45000002 0.45000002 0 0 0 7.3251343 -2.1564575 L 7.3251343 -3.0437419 A 0.45000002 0.45000002 0 0 0 7.0817383 -2.9181681 A 0.45000002 0.45000002 0 0 0 6.9680501 -2.7243815 L 5.8998983 -2.7243815 L 6.2817871 -3.1062703 A 0.45000002 0.45000002 0 0 0 6.4998617 -3.049943 A 0.45000002 0.45000002 0 0 0 6.7603109 -3.1331421 L 6.132959 -3.760494 A 0.45000002 0.45000002 0 0 0 6.0497599 -3.5000448 A 0.45000002 0.45000002 0 0 0 6.1060872 -3.2819702 L 5.5484985 -2.7243815 L 4.4514079 -2.7243815 L 3.8938192 -3.2819702 A 0.45000002 0.45000002 0 0 0 3.9501465 -3.5000448 A 0.45000002 0.45000002 0 0 0 3.8674642 -3.7599772 L 3.2401123 -3.1326253 A 0.45000002 0.45000002 0 0 0 3.5000448 -3.049943 A 0.45000002 0.45000002 0 0 0 3.7181193 -3.1062703 L 4.1000081 -2.7243815 L 3.032373 -2.7243815 A 0.45000002 0.45000002 0 0 0 2.9181681 -2.9181681 A 0.45000002 0.45000002 0 0 0 2.6758057 -3.0437419 L 2.6758057 -2.1564575 z M 2.6758057 -6.9561646 A 0.45000002 0.45000002 0 0 0 2.9181681 -7.0817383 A 0.45000002 0.45000002 0 0 0 3.032373 -7.2755249 L 4.0994914 -7.2755249 L 3.7181193 -6.8936361 A 0.45000002 0.45000002 0 0 0 3.5000448 -6.9499634 A 0.45000002 0.45000002 0 0 0 3.2395955 -6.8667643 L 3.8669474 -6.2394124 A 0.45000002 0.45000002 0 0 0 3.9501465 -6.4998617 A 0.45000002 0.45000002 0 0 0 3.8938192 -6.7179362 L 4.4508911 -7.2755249 L 5.5490153 -7.2755249 L 6.1060872 -6.7179362 A 0.45000002 0.45000002 0 0 0 6.0497599 -6.4998617 A 0.45000002 0.45000002 0 0 0 6.132959 -6.2388957 L 6.7608276 -6.8662476 A 0.45000002 0.45000002 0 0 0 6.4998617 -6.9499634 A 0.45000002 0.45000002 0 0 0 6.2817871 -6.8936361 L 5.900415 -7.2755249 L 6.9675334 -7.2755249 A 0.45000002 0.45000002 0 0 0 7.0817383 -7.0817383 A 0.45000002 0.45000002 0 0 0 7.3251343 -6.9561646 L 7.3251343 -7.8434489 A 0.45000002 0.45000002 0 0 0 7.0817383 -7.7178752 A 0.45000002 0.45000002 0 0 0 6.9680501 -7.5256388 L 5.900415 -7.5256388 L 6.2812703 -7.9064941 A 0.45000002 0.45000002 0 0 0 6.4998617 -7.8496501 A 0.45000002 0.45000002 0 0 0 6.7603109 -7.9328491 L 6.132959 -8.560201 A 0.45000002 0.45000002 0 0 0 6.0497599 -8.2997518 A 0.45000002 0.45000002 0 0 0 6.1060872 -8.0827108 L 5.5490153 -7.5256388 L 4.4508911 -7.5256388 L 3.8943359 -8.082194 A 0.45000002 0.45000002 0 0 0 3.8943359 -8.0827108 A 0.45000002 0.45000002 0 0 0 3.9501465 -8.2997518 A 0.45000002 0.45000002 0 0 0 3.8674642 -8.5596842 L 3.2401123 -7.9323324 A 0.45000002 0.45000002 0 0 0 3.5000448 -7.8496501 A 0.45000002 0.45000002 0 0 0 3.7186361 -7.9064941 L 4.0994914 -7.5256388 L 3.0318563 -7.5256388 A 0.45000002 0.45000002 0 0 0 2.9181681 -7.7178752 A 0.45000002 0.45000002 0 0 0 2.6758057 -7.8434489 L 2.6758057 -6.9561646 z M 6.2388957 -1.333252 A 0.45000002 0.45000002 0 0 0 6.4998617 -1.2500529 A 0.45000002 0.45000002 0 0 0 6.7174194 -1.3058634 L 7.2755249 -0.74827474 L 7.2755249 -0.050642904 L 7.5256388 -0.050642904 L 7.5256388 -0.74827474 L 8.0832275 -1.3058634 A 0.45000002 0.45000002 0 0 0 8.2997518 -1.2500529 A 0.45000002 0.45000002 0 0 0 8.560201 -1.333252 L 7.9328491 -1.9606038 A 0.45000002 0.45000002 0 0 0 7.8496501 -1.7001546 A 0.45000002 0.45000002 0 0 0 7.9059774 -1.4820801 L 7.4005819 -0.97668457 L 6.8941528 -1.4825968 A 0.45000002 0.45000002 0 0 0 6.9499634 -1.7001546 A 0.45000002 0.45000002 0 0 0 6.8662476 -1.9611206 L 6.2388957 -1.333252 z M 6.2388957 -6.132959 A 0.45000002 0.45000002 0 0 0 6.4998617 -6.0497599 A 0.45000002 0.45000002 0 0 0 6.7179362 -6.1060872 L 7.2755249 -5.5490153 L 7.2755249 -4.4508911 L 6.7179362 -3.8938192 A 0.45000002 0.45000002 0 0 0 6.4998617 -3.9501465 A 0.45000002 0.45000002 0 0 0 6.2394124 -3.8669474 L 6.8667643 -3.2395955 A 0.45000002 0.45000002 0 0 0 6.9499634 -3.5000448 A 0.45000002 0.45000002 0 0 0 6.8936361 -3.7181193 L 7.4005819 -4.2245483 L 7.9064941 -3.7186361 A 0.45000002 0.45000002 0 0 0 7.8496501 -3.5000448 A 0.45000002 0.45000002 0 0 0 7.9323324 -3.2401123 L 8.5596842 -3.8674642 A 0.45000002 0.45000002 0 0 0 8.2997518 -3.9501465 A 0.45000002 0.45000002 0 0 0 8.0827108 -3.8938192 L 7.5256388 -4.4508911 L 7.5256388 -5.5490153 L 8.0827108 -6.1060872 A 0.45000002 0.45000002 0 0 0 8.2997518 -6.0497599 A 0.45000002 0.45000002 0 0 0 8.560201 -6.132959 L 7.9328491 -6.7603109 A 0.45000002 0.45000002 0 0 0 7.8496501 -6.4998617 A 0.45000002 0.45000002 0 0 0 7.9064941 -6.2812703 L 7.4005819 -5.7753581 L 6.8936361 -6.2817871 A 0.45000002 0.45000002 0 0 0 6.9499634 -6.4998617 A 0.45000002 0.45000002 0 0 0 6.8662476 -6.7608276 L 6.2388957 -6.132959 z M 6.2394124 -8.6666545 L 6.8667643 -8.0393026 A 0.45000002 0.45000002 0 0 0 6.9499634 -8.2997518 A 0.45000002 0.45000002 0 0 0 6.8941528 -8.5173096 L 7.4005819 -9.0232218 L 7.9059774 -8.5178263 A 0.45000002 0.45000002 0 0 0 7.8496501 -8.2997518 A 0.45000002 0.45000002 0 0 0 7.9323324 -8.0398193 L 8.5596842 -8.6671712 A 0.45000002 0.45000002 0 0 0 8.2997518 -8.7498535 A 0.45000002 0.45000002 0 0 0 8.0832275 -8.694043 L 7.5256388 -9.2521484 L 7.5256388 -9.9492635 L 7.2755249 -9.9492635 L 7.2755249 -9.2521484 L 6.7174194 -8.694043 A 0.45000002 0.45000002 0 0 0 6.4998617 -8.7498535 A 0.45000002 0.45000002 0 0 0 6.2394124 -8.6666545 z M 7.4755127 -2.1564575 A 0.45000002 0.45000002 0 0 0 7.7178752 -2.2820312 A 0.45000002 0.45000002 0 0 0 7.8320801 -2.4747843 L 8.8981649 -2.4747843 L 8.5178263 -2.093929 A 0.45000002 0.45000002 0 0 0 8.2997518 -2.1502563 A 0.45000002 0.45000002 0 0 0 8.0393026 -2.0670573 L 8.6666545 -1.4397054 A 0.45000002 0.45000002 0 0 0 8.7498535 -1.7001546 A 0.45000002 0.45000002 0 0 0 8.6945597 -1.9171956 L 9.2521484 -2.4747843 L 9.9492635 -2.4747843 L 9.9492635 -2.7243815 L 9.2526652 -2.7243815 L 8.694043 -3.282487 A 0.45000002 0.45000002 0 0 0 8.7498535 -3.5000448 A 0.45000002 0.45000002 0 0 0 8.6671712 -3.7599772 L 8.0398193 -3.1326253 A 0.45000002 0.45000002 0 0 0 8.2997518 -3.049943 A 0.45000002 0.45000002 0 0 0 8.5173096 -3.1057536 L 8.8986816 -2.7243815 L 7.8320801 -2.7243815 A 0.45000002 0.45000002 0 0 0 7.7178752 -2.9181681 A 0.45000002 0.45000002 0 0 0 7.4755127 -3.0437419 L 7.4755127 -2.1564575 z M 7.4755127 -6.9561646 A 0.45000002 0.45000002 0 0 0 7.7178752 -7.0817383 A 0.45000002 0.45000002 0 0 0 7.8320801 -7.2755249 L 8.8981649 -7.2755249 L 8.5173096 -6.8941528 A 0.45000002 0.45000002 0 0 0 8.2997518 -6.9499634 A 0.45000002 0.45000002 0 0 0 8.0393026 -6.8667643 L 8.6666545 -6.2394124 A 0.45000002 0.45000002 0 0 0 8.7498535 -6.4998617 A 0.45000002 0.45000002 0 0 0 8.694043 -6.7174194 L 9.2521484 -7.2755249 L 9.9492635 -7.2755249 L 9.9492635 -7.5256388 L 9.2521484 -7.5256388 L 8.6945597 -8.0827108 A 0.45000002 0.45000002 0 0 0 8.7498535 -8.2997518 A 0.45000002 0.45000002 0 0 0 8.6671712 -8.5596842 L 8.0398193 -7.9323324 A 0.45000002 0.45000002 0 0 0 8.2997518 -7.8496501 A 0.45000002 0.45000002 0 0 0 8.5178263 -7.9059774 L 8.8981649 -7.5256388 L 7.8320801 -7.5256388 A 0.45000002 0.45000002 0 0 0 7.7178752 -7.7178752 A 0.45000002 0.45000002 0 0 0 7.4755127 -7.8434489 L 7.4755127 -6.9561646 z "
       transform="rotate(90)" />
  </g>
  <g
     inkscape:groupmode="layer"
     id="layer2"
     inkscape:label="Tracks"
     style="display:inline" />
</svg>
